<svg fill="white">
	<!-- This is here to box the icon such that it becomes an overlay icon -->
	<rect x="-800" y="-800" width="1600" height="1600" fill="none" stroke="white" opacity="0"/>
	
	<path d="M440.4-60.2c-18,18-18,47.1,0,65.1l52.3,52.3C439.5,42.8,383.7,41,329.2,52C260.8,65.9,198.6,99.3,149,148.7
		l-0.1,0.1c0,0,0,0-0.1,0.1l-0.1,0.1l-0.1,0.1C119.8,178,96.4,211.2,79,247.7C62.2,283.1,51.4,321,47,360.1
		c-4.4,38.7-2.4,77.7,5.9,115.8c8.5,38.8,23.2,75.5,43.9,109.3c13.3,21.7,41.6,28.5,63.3,15.2s28.5-41.6,15.2-63.3
		c-30.3-49.5-43.4-108.7-36.8-166.7c3.3-29,11.2-57,23.7-83.2c12.9-27.1,30.2-51.7,51.7-73.2c36.7-36.7,82.8-61.5,133.4-71.7
		c43.6-8.8,88.4-6.5,130.6,6.5l-36,36c-18,18-18,47.1,0,65.1s47.1,18,65.1,0l121.7-121.7c18-18,18-47.1,0-65.1L505.5-60.2
		C487.5-78.2,458.3-78.2,440.4-60.2z"/>
	<path d="M234.3,800h129.5c-1.3-1.7-2.7-3.3-4.2-4.9l-52-52.1c10.2,2.7,20.6,5.1,31.1,6.9c36.7,6.4,74,7,111,1.8
		c37.4-5.3,73.4-16.3,107.1-32.9c34.9-17.2,66.6-39.9,94.3-67.6c28.9-28.9,52.4-62.2,69.8-98.9c16.8-35.4,27.6-73.3,32-112.4
		c4.4-38.7,2.4-77.7-5.9-115.8c-8.5-38.8-23.2-75.5-43.9-109.3c-13.3-21.7-41.6-28.5-63.3-15.2c-3.2,1.9-6,4.2-8.6,6.7
		c-14.7,14.7-18,38.1-6.7,56.6c30.3,49.5,43.4,108.7,36.8,166.7c-3.3,29-11.2,57-23.6,83.2c-12.9,27.1-30.3,51.8-51.7,73.2
		c-40.7,40.7-92.3,66.5-149.1,74.5c-38.5,5.4-78,2.1-114.9-9.3l36.1-36.1c18-18,18-47.1,0-65.1s-47.1-18-65.1,0L171.2,671.8
		c-18,18-18,47.1,0,65.1L234.3,800z"/>
</svg>
