<svg fill="white">
	<!-- This is here to box the icon such that it becomes an overlay icon -->
	<rect x="-800" y="-800" width="1600" height="1600" fill="none" stroke="white" opacity="0"/>

	<path d="M-60.2,359.6c18,18,47.1,18,65.1,0l52.3-52.3C42.8,360.5,41,416.3,52,470.8c13.8,68.3,47.3,130.6,96.7,180.1
		l0.1,0.1c0,0,0,0,0.1,0.1l0.1,0.1l0.1,0.1c28.9,28.8,62.1,52.2,98.6,69.6c35.4,16.8,73.3,27.6,112.4,32c38.7,4.4,77.7,2.4,115.8-5.9
		c38.8-8.5,75.5-23.2,109.3-43.9c21.7-13.3,28.5-41.6,15.2-63.3s-41.6-28.5-63.3-15.2c-49.5,30.3-108.7,43.4-166.7,36.8
		c-29-3.3-57-11.2-83.2-23.7c-27.1-12.9-51.7-30.2-73.2-51.7c-36.7-36.7-61.5-82.8-71.7-133.4c-8.8-43.6-6.5-88.4,6.5-130.6l36,36
		c18,18,47.1,18,65.1,0s18-47.1,0-65.1L128.2,171.2c-18-18-47.1-18-65.1,0L-60.2,294.5C-78.2,312.5-78.2,341.7-60.2,359.6z"/>
	<path d="M800,436.2c-1.7,1.3-3.3,2.7-4.9,4.2l-52.1,52c2.7-10.2,5.1-20.6,6.9-31.1c6.4-36.7,7-74,1.8-111
		c-5.3-37.4-16.3-73.4-32.9-107.1c-17.2-34.9-39.9-66.6-67.6-94.3c-29-28.9-62.2-52.4-98.9-69.8c-35.4-16.8-73.3-27.6-112.4-32
		c-38.7-4.4-77.7-2.4-115.8,5.9c-38.8,8.5-75.5,23.2-109.3,43.9c-21.7,13.3-28.5,41.6-15.2,63.3c1.9,3.2,4.2,6,6.7,8.6
		c14.7,14.7,38.1,18,56.6,6.7c49.5-30.3,108.7-43.4,166.7-36.8c29,3.3,57,11.2,83.2,23.6c27.1,12.9,51.8,30.3,73.2,51.7
		c40.7,40.7,66.5,92.3,74.5,149.1c5.4,38.5,2.1,78-9.3,114.9l-36-36c-18-18-47.1-18-65.1,0s-18,47.1,0,65.1l121.7,121.7
		c18,18,47.1,18,65.1,0l63.1-63.1V436.2z"/>
</svg>
