<svg fill="white">
	<!-- This is here to box the icon such that it becomes an overlay icon -->
	<rect x="-800" y="-800" width="1600" height="1600" fill="none" stroke="white" opacity="0"/>
	
	<path d="M650.8,707.9h-73.6c9.2-5.3,18.1-11,26.8-17.1c30.5-21.4,57.3-47.4,79.8-77.2c22.7-30.1,40.4-63.4,52.5-99
		c12.5-36.8,18.9-75.3,18.9-114.5c0-40.9-6.9-81.1-20.5-119.3c-13.2-37-32.3-71.3-56.9-102.1c-24.3-30.5-53.3-56.6-86.1-77.6
		c-33.4-21.4-69.8-37-108.3-46.3c-24.7-5.9-49.6,9.3-55.5,34c-0.9,3.6-1.3,7.2-1.3,10.8c0,20.8,14.2,39.6,35.3,44.7
		c56.4,13.6,107.5,46.2,143.9,91.8c18.2,22.8,32.4,48.2,42.1,75.6c10.1,28.3,15.2,58,15.2,88.4c0,57.6-18.3,112.3-52.8,158.1
		c-23.4,31-53.6,56.6-87.8,74.7v-51c0-25.4-20.6-46-46-46c-25.4,0-46,20.6-46,46l0,172.1c0,25.4,20.6,46,46,46h174.4
		c25.4,0,46-20.6,46-46C696.9,728.5,676.3,707.9,650.8,707.9z"/>
	<path d="M103.1,46c0,25.4,20.6,46,46,46l74,0c-47.7,27.4-88.5,65.6-119.3,112c-38.5,58.1-58.9,125.8-59,195.7
		c0,0,0,0.1,0,0.1c0,0,0,0.1,0,0.1c0,0,0,0.1,0,0.1c0,0,0,0.1,0,0.1c0,40.8,6.9,80.8,20.5,119c13.2,37,32.3,71.3,56.9,102.1
		c24.3,30.5,53.3,56.6,86.1,77.6c33.4,21.4,69.8,37,108.3,46.3c24.7,5.9,49.6-9.3,55.5-34s-9.3-49.6-34-55.5
		c-56.4-13.6-107.5-46.2-143.9-91.8c-18.2-22.8-32.4-48.2-42.1-75.6C142.1,460,137,430.3,137,400c0-51.9,15.1-102,43.6-145.1
		c24.6-37.1,57.9-67.1,96.9-87.7l0,50.9c0,25.4,20.6,46,46,46c25.4,0,46-20.6,46-46l0-172.1c0-25.4-20.6-46-46-46L149.2,0
		C123.7,0,103.1,20.6,103.1,46z"/>
</svg>
