<svg enable-background="new 0 0 512 512" viewBox="0 0 512 512" xmlns="http://www.w3.org/2000/svg"><path d="m358.614 179.04h-205.228v-136.819c0-9.446 7.656-17.102 17.102-17.102h171.023c9.446 0 17.102 7.656 17.102 17.102v136.819z" fill="#d5dced"/><path d="m127.733 341.511c0 9.446 7.656 17.102 17.102 17.102h17.102v-51.307h-34.205v34.205z" fill="#959cb5"/><path d="m350.063 307.307v51.307h17.102c9.446 0 17.102-7.656 17.102-17.102v-34.205z" fill="#959cb5"/><path d="m324.409 213.244 25.653 94.063h34.205l-14.684-139.508c-1.461-13.876-11.204-25.475-24.62-29.308l-37.656-10.758h-102.614l-37.655 10.758c-13.417 3.833-23.16 15.432-24.62 29.308l-14.686 139.508h34.205l25.653-94.063v111.165 145.37h-8.551c-9.446 0-17.102 7.656-17.102 17.102v17.102h60.67c4.393 0 8.071-3.329 8.508-7.7l15.482-154.814c.483-4.83 4.547-8.508 9.402-8.508s8.919 3.678 9.402 8.508l15.482 154.814c.437 4.372 4.115 7.7 8.508 7.7h60.67v-17.102c0-9.446-7.656-17.102-17.102-17.102h-8.551v-145.37-111.165z" fill="#e4eaf8"/><path d="m256 161.937c-37.781 0-68.409-30.628-68.409-68.409v-17.102c0-37.781 30.628-68.409 68.409-68.409 37.781 0 68.409 30.628 68.409 68.409v17.102c0 37.781-30.628 68.409-68.409 68.409z" fill="#ffd864"/><path d="m230.347 93.528v-17.102c0-30.308 19.73-55.972 47.031-64.955-6.731-2.214-13.905-3.454-21.378-3.454-37.781 0-68.409 30.628-68.409 68.409v17.102c0 37.781 30.628 68.409 68.409 68.409 7.473 0 14.647-1.24 21.378-3.455-27.302-8.982-47.031-34.645-47.031-64.954z" fill="#ffc35f"/><path d="m256 50.772c26.422 0 50.368 8.462 68.234 22.167-1.828-36.15-31.63-64.922-68.234-64.922s-66.405 28.771-68.233 64.922c17.865-13.705 41.81-22.167 68.233-22.167z" fill="#eff3fb"/><path d="m234.753 52.642c7.226-19.391 22.883-34.674 42.625-41.171-6.731-2.214-13.905-3.454-21.378-3.454-36.604 0-66.405 28.771-68.233 64.922 12.934-9.922 29.023-17.113 46.986-20.297z" fill="#e4eaf8"/><path d="m281.653 290.205h-51.307c-4.722 0-8.551-3.829-8.551-8.551v-76.96c0-4.722 3.829-8.551 8.551-8.551h51.307c4.722 0 8.551 3.829 8.551 8.551v76.96c.001 4.722-3.828 8.551-8.551 8.551z" fill="#eff3fb"/><path d="m221.795 230.347h68.409v25.653h-68.409z" fill="#d5dced"/><path d="m187.591 452.676v17.102h-8.551c-9.445 0-17.102 7.656-17.102 17.102v17.102h60.67c4.393 0 8.071-3.329 8.508-7.7l4.361-43.607h-47.886z" fill="#959cb5"/><path d="m324.409 452.676v17.102h8.551c9.445 0 17.102 7.656 17.102 17.102v17.102h-60.67c-4.393 0-8.071-3.329-8.508-7.7l-4.361-43.607h47.886z" fill="#959cb5"/><path d="m247.449 272.568h17.102c4.427 0 8.017-3.589 8.017-8.017 0-4.427-3.589-8.017-8.017-8.017h-17.102c-4.427 0-8.017 3.589-8.017 8.017s3.589 8.017 8.017 8.017z"/><path d="m392.284 307.311v-.004c0-.282-.015-.56-.044-.834 0-.002 0-.003 0-.005l-14.797-140.568c-.96-9.119-4.86-17.479-10.813-24.012v-99.667c0-13.851-11.268-25.119-25.119-25.119h-37.397c-13.147-10.683-29.891-17.102-48.114-17.102s-34.967 6.419-48.114 17.102h-37.397c-13.851 0-25.119 11.268-25.119 25.119v99.667c-5.953 6.533-9.853 14.894-10.813 24.012l-14.797 140.568v.005c-.029.275-.044.553-.044.834v.004.005 34.195c0 13.851 11.268 25.119 25.119 25.119h17.102c4.427 0 8.017-3.589 8.017-8.017v-50.233l9.62-35.273v188.654h-.534c-13.851 0-25.119 11.268-25.119 25.119v17.102c0 4.428 3.589 8.017 8.017 8.017h60.67c8.548 0 15.635-6.414 16.486-14.92l15.482-154.813c.074-.735.686-1.29 1.425-1.29s1.351.555 1.425 1.29l15.482 154.813c.85 8.505 7.938 14.92 16.486 14.92h60.67c4.427 0 8.017-3.588 8.017-8.017v-17.102c0-13.851-11.268-25.119-25.119-25.119h-.534v-188.653l9.62 35.273v50.233c0 4.427 3.589 8.017 8.017 8.017h17.102c13.851 0 25.119-11.268 25.119-25.119v-34.195c-.002-.003-.002-.004-.002-.006zm-16.922-8.021h-19.176l-2.807-10.291 20.191-6.731zm-58.961-86.046h-.009v60.392h-18.171v-68.944c0-1.717-.263-3.373-.75-4.932l40.216-56.302 6.049 2.016c6.861 2.287 12.355 7.286 15.369 13.612l-40.853 49.024c-1.216 1.459-1.85 3.281-1.851 5.134zm-42.161 136.032 42.153-20.583v56.108h-38.601zm5.156 51.559h36.997v43.825h-32.614zm-83.788-127.198v-60.392h-.009c0-1.853-.634-3.675-1.849-5.132l-40.853-49.024c3.013-6.327 8.506-11.326 15.369-13.612l6.049-2.016 40.216 56.302c-.487 1.558-.75 3.215-.75 4.932v68.943h-18.173zm38.6 111.165h-38.601v-56.108l42.153 20.582zm-5.986 59.858h-32.614v-43.825h36.997zm-66.819-377.32h18.73c-.355 2.982-.559 6.009-.559 9.086v17.102c0 10.385 2.091 20.289 5.859 29.324l-22.238 7.413c-.608.203-1.197.443-1.791.671v-63.596zm189.194 63.596c-.594-.229-1.183-.468-1.791-.671l-22.238-7.413c3.768-9.035 5.859-18.939 5.859-29.324v-17.102c0-3.076-.204-6.103-.559-9.086h18.73v63.596zm-31.885 6.199 3.061 1.02-36.067 50.492c-1.3-.328-2.652-.522-4.052-.522h-51.307c-1.4 0-2.753.193-4.052.523l-36.067-50.492 3.061-1.02c13.821 19.816 36.769 32.818 62.71 32.818s48.89-13.002 62.713-32.819zm-36.524 85.195h-52.376v-17.637c0-.295.239-.534.534-.534h51.307c.295 0 .534.239.534.534v17.637zm-52.376 16.033h52.376v43.29c0 .295-.239.534-.534.534h-51.307c-.295 0-.534-.239-.534-.534v-43.29zm120.785-196.142v9.086h-22.433c-2.269-6.5-5.385-12.601-9.228-18.171h22.575c5.01 0 9.086 4.075 9.086 9.085zm-37.288 15.194c-6.475-3.658-13.428-6.721-20.685-9.037-4.219-1.348-8.729.981-10.075 5.198-1.347 4.218.98 8.729 5.198 10.075 10.614 3.389 20.446 8.583 28.645 15.063v14.815c0 33.3-27.092 60.392-60.392 60.392s-60.391-27.092-60.391-60.392v-14.822c16.21-12.851 37.535-19.918 60.391-19.918 4.427 0 8.017-3.589 8.017-8.017s-3.589-8.017-8.017-8.017c-20.763 0-40.531 5.096-57.281 14.577 8.01-23.969 30.653-41.299 57.281-41.299 26.658 0 49.323 17.37 57.309 41.382zm-142.82-24.279h22.575c-3.843 5.57-6.96 11.671-9.228 18.171h-22.433v-9.086c0-5.01 4.076-9.085 9.086-9.085zm-14.675 266.154h-19.176l1.791-17.022 20.191 6.731zm-10.979 51.307c-5.01 0-9.086-4.076-9.086-9.086v-26.188h18.171v35.273h-9.085zm18.011-77.091-22.698-7.566 9.075-86.215 29.534 35.441zm59.762 222.461h-52.654v-9.086c0-5.01 4.076-9.086 9.086-9.086h8.551c4.427 0 8.017-3.589 8.017-8.017v-9.086h31.011l-3.479 34.792c-.028.276-.256.483-.532.483zm33.392-171.023c-6.22 0-11.704 3.224-14.801 8.168l-45.592-22.261v-21.181h20.25c2.829 5.093 8.26 8.551 14.489 8.551h51.307c6.228 0 11.659-3.458 14.489-8.551h20.25v21.181l-45.592 22.261c-3.096-4.945-8.58-8.168-14.8-8.168zm76.96 152.851c5.01 0 9.086 4.076 9.086 9.086v9.086h-52.654c-.276 0-.505-.206-.531-.481l-3.479-34.792h31.011v9.086c0 4.427 3.589 8.017 8.017 8.017h8.55zm29.817-298.069 9.075 86.215-22.698 7.566-15.91-58.339zm4.388 170.871h-9.086v-35.273h18.171v26.188c.001 5.009-4.075 9.085-9.085 9.085z"/></svg>