<svg>
	<!-- This is here to box the icon such that it becomes an overlay icon -->
	<rect x="-24" y="-24" width="48" height="48" fill="none" stroke="white" opacity="0"/>

	<path d="M14.7,0.6c0.4,0,0.8,0.3,0.9,0.8l0,0.1v0.9c0,0.8-0.2,1.5-0.6,2c1.7,0.6,2.9,2.1,3,3.9h0.3
	c1.5,0,2.7-1.2,2.7-2.7l0-1.8C21,3.4,21.4,3,21.9,3c0.5,0,0.9,0.4,0.9,0.9l0,1.8c0,2.4-1.9,4.4-4.2,4.5l-0.3,0l-0.3,0V12h5.1
	c0.5,0,0.8,0.3,0.9,0.8l0,0.1c0,0.4-0.3,0.8-0.8,0.9l-0.1,0H18v2.4h0.3l0.3,0c2.3,0.1,4.1,2,4.2,4.3l0,0.2l0,1.8
	c0,0.5-0.4,0.9-0.9,0.9c-0.4,0-0.8-0.3-0.9-0.8l0-0.1l0-1.8c0-1.4-1.1-2.6-2.5-2.7l-0.2,0h-0.6c-1,3.2-4.4,4.9-7.5,3.9
	c-1.9-0.6-3.3-2.1-3.9-3.9H5.7C4.2,18,3,19.2,3,20.7l0,1.8c0,0.5-0.4,0.9-0.9,0.9S1.2,23,1.2,22.5l0,0l0-1.8c0-2.4,1.9-4.4,4.2-4.5
	l0.3,0l0.3,0v-2.4H0.9c-0.4,0-0.8-0.3-0.9-0.8l0-0.1c0-0.4,0.3-0.8,0.8-0.9l0.1,0L6,12v-1.8H5.7l-0.3,0c-2.3-0.1-4.1-2-4.2-4.3
	l0-0.2l0-1.8C1.2,3.4,1.6,3,2.1,3C2.6,3,2.9,3.3,3,3.8l0,0.1l0,1.8c0,1.4,1.1,2.6,2.5,2.7l0.2,0H6C6.1,6.6,7.3,5,9,4.5
	C8.7,3.9,8.4,3.3,8.4,2.7l0-0.3V1.5c0-0.5,0.4-0.9,0.9-0.9c0.4,0,0.8,0.3,0.9,0.8l0,0.1v0.9c0,1,0.8,1.8,1.8,1.8
	c0.9,0,1.7-0.7,1.8-1.6l0-0.2V1.5C13.8,1,14.2,0.6,14.7,0.6z" fill="#3AAA35"/>
</svg>