<?xml version="1.0" encoding="iso-8859-1"?>
<!-- Generator: Adobe Illustrator 19.0.0, SVG Export Plug-In . SVG Version: 6.00 Build 0)  -->
<svg version="1.1" id="Layer_1" xmlns="http://www.w3.org/2000/svg" xmlns:xlink="http://www.w3.org/1999/xlink" x="0px" y="0px"
	 viewBox="0 0 512 512" style="enable-background:new 0 0 512 512;" xml:space="preserve">
<circle style="fill:#5AC3FF;" cx="256" cy="256" r="203.465"/>
<path style="fill:#46A2DE;" d="M209.754,415.288c-70.945-70.945-70.945-185.968,0-256.913
	C262.679,105.45,340.13,92.03,405.517,118.07c-1.848-2-3.703-3.996-5.647-5.94c-79.458-79.458-208.285-79.458-287.742,0
	c-79.457,79.457-79.458,208.285,0,287.742c45.317,45.317,106.688,64.745,165.805,58.371
	C253.035,449.508,229.659,435.192,209.754,415.288z"/>
<path style="fill:#7DD7FF;" d="M229.457,54.312l228.231,228.231c2.154-16.465,2.288-33.134,0.415-49.628L279.085,53.897
	C262.591,52.024,245.922,52.158,229.457,54.312z"/>
<path style="fill:#5AC3FF;" d="M287.568,112.424c14.061-4.066,28.498-6.425,43.014-7.028l-51.499-51.499
	c-16.494-1.873-33.163-1.739-49.628,0.415L287.568,112.424z"/>
<path style="fill:#7DD7FF;" d="M53.819,234.038c-0.855,7.92-1.268,15.867-1.196,23.824l201.513,201.514
	c7.957,0.072,15.905-0.342,23.824-1.196L53.819,234.038z"/>
<g>
	<path style="fill:#5AC3FF;" d="M215.064,420.304l39.076,39.076c7.942,0.071,15.887-0.284,23.792-1.137
		C255.202,450.268,233.774,437.587,215.064,420.304z"/>
	<path style="fill:#5AC3FF;" d="M52.623,257.863l154.372,154.373c-18.335-19.175-31.593-41.351-39.905-64.926L53.821,234.038
		C52.965,241.959,52.551,249.905,52.623,257.863z"/>
</g>
<path d="M471.109,366.64c-2.392-3.906-7.496-5.134-11.404-2.742c-3.906,2.392-5.134,7.497-2.742,11.404
	c17.794,29.061,30.012,55.139,35.333,75.411c3.436,13.09,5.76,30.467-2.679,38.907c-13.516,13.515-52.642,3.466-104.663-26.879
	c-9.942-5.8-20.186-12.236-30.654-19.229c67.392-35.474,113.457-106.209,113.457-187.51c0-116.764-94.995-211.758-211.758-211.758
	c-81.302,0-152.037,46.064-187.51,113.457c-6.993-10.467-13.429-20.711-19.229-30.653C18.914,75.025,8.866,35.899,22.381,22.383
	c8.438-8.438,25.81-6.116,38.897-2.683c20.268,5.318,46.338,17.531,75.394,35.318c3.908,2.393,9.012,1.163,11.404-2.742
	s1.163-9.012-2.742-11.404C60.796-10.879,25.433-4.125,10.653,10.655c-25.313,25.311-0.767,81.809,24.28,124.748
	c7.482,12.826,15.974,26.125,25.358,39.76C49.958,200.085,44.241,227.386,44.241,256c0,116.763,94.995,211.758,211.758,211.758
	c28.614,0,55.915-5.717,80.837-16.049c13.634,9.384,26.934,17.876,39.76,25.358c30.157,17.592,66.996,34.935,95.029,34.933
	c11.881-0.001,22.185-3.117,29.719-10.652C516.128,486.566,522.881,451.195,471.109,366.64z M255.999,60.83
	c107.617,0,195.171,87.553,195.171,195.171c0,78.082-46.096,145.588-112.498,176.769c-44.779-31.624-93.014-72.796-139.831-119.612
	c-46.816-46.816-87.986-95.051-119.611-139.83C110.41,106.926,177.917,60.83,255.999,60.83z M255.999,451.173
	c-107.617,0-195.171-87.553-195.171-195.171c0-22.612,3.879-44.333,10.984-64.547c31.294,43.112,70.817,88.947,115.301,133.433
	c44.486,44.486,90.321,84.008,133.433,115.303C300.331,447.294,278.611,451.173,255.999,451.173z"/>
<g>
</g>
<g>
</g>
<g>
</g>
<g>
</g>
<g>
</g>
<g>
</g>
<g>
</g>
<g>
</g>
<g>
</g>
<g>
</g>
<g>
</g>
<g>
</g>
<g>
</g>
<g>
</g>
<g>
</g>
</svg>
