<?xml version="1.0" encoding="iso-8859-1"?>
<!-- Generator: Adobe Illustrator 19.0.0, SVG Export Plug-In . SVG Version: 6.00 Build 0)  -->
<svg version="1.1" id="Layer_1" xmlns="http://www.w3.org/2000/svg" xmlns:xlink="http://www.w3.org/1999/xlink" x="0px" y="0px"
	 viewBox="0 0 511.999 511.999" style="enable-background:new 0 0 511.999 511.999;" xml:space="preserve">
<path style="fill:#C0A27A;" d="M281.218,356.39l-23.483,70.45c-4.091,12.272,1.465,25.684,13.035,31.469l85.61,42.805
	c9.4,4.7,20.706,3.277,28.648-3.607l100.901-87.447c9.293-8.054,11.67-21.517,5.698-32.266L430.17,267.17
	c-7.813-14.063-26.397-17.724-38.96-7.673l-95.956,76.765C288.732,341.478,283.859,348.468,281.218,356.39z"/>
<path style="fill:#AF8764;" d="M446.65,444.103l-91.465-40.017c-10.618-4.645-16.878-15.761-15.347-27.25l11.38-85.346
	l-55.963,44.77c-6.521,5.217-11.395,12.207-14.036,20.13l-23.483,70.45c-4.091,12.272,1.465,25.684,13.035,31.469l85.609,42.805
	c9.4,4.7,20.706,3.277,28.648-3.607L446.65,444.103z"/>
<path style="fill:#C0A27A;" d="M84.444,38.971L17.239,139.778c-5.631,8.446-5.83,19.396-0.51,28.041l50.504,82.069
	c5.99,9.735,17.639,14.414,28.699,11.528l163.553-42.666c10.969-2.861,20.38-9.909,26.213-19.63l54.127-90.212
	c7.903-13.172,2.721-30.289-11.162-36.865l-126.12-59.739c-8.187-3.877-17.383-5.091-26.296-3.471L112.74,20.378
	C101.176,22.481,90.963,29.191,84.444,38.971z"/>
<path style="fill:#AF8764;" d="M178.275,346.896l-27.907,104.651c-2.162,8.107-9.821,13.5-18.182,12.804l-71.211-5.934
	c-9.936-0.827-17.125-9.849-15.715-19.719l13.163-92.144c0.955-6.686,5.707-12.207,12.176-14.147l67.656-20.298
	c5.269-1.581,10.976-0.565,15.377,2.735l18.298,13.723C177.585,332.81,180.096,340.063,178.275,346.896z"/>
<path style="fill:#A07353;" d="M108.497,421.964c-9.817,1.739-19.074-5.145-20.235-15.048l-9.029-77.102l-8.635,2.591
	c-6.469,1.941-11.22,7.462-12.176,14.148l-13.163,92.144c-1.41,9.87,5.779,18.892,15.715,19.72l71.211,5.934
	c8.361,0.698,16.021-4.696,18.183-12.804l10.356-38.836L108.497,421.964z"/>
<g>
	<path style="fill:#AF8764;" d="M421.961,92.052l-11.504,46.016c-2.196,8.785,2.741,17.779,11.332,20.643l25.543,8.514
		c6.767,2.256,14.226,0.134,18.792-5.346l28.952-34.742c4.172-5.006,5.182-11.93,2.616-17.92l-14.57-33.997
		c-3.927-9.165-14.76-13.132-23.678-8.673l-28.421,14.21C426.498,83.018,423.188,87.145,421.961,92.052z"/>
	<path style="fill:#AF8764;" d="M159.787,193.381c7.68-4.517,12.839-12.862,12.839-22.416c0-14.356-11.637-25.993-25.993-25.993
		c-10.974,0-20.353,6.804-24.165,16.42l-4.051-3.472c-8.915-7.641-11.601-20.311-6.552-30.912l55.506-116.562l-54.629,9.933
		c-11.564,2.102-21.777,8.813-28.296,18.592L17.239,139.777c-5.631,8.446-5.83,19.396-0.51,28.041l50.504,82.07
		c5.99,9.735,17.638,14.413,28.698,11.528l109.811-28.646L159.787,193.381z"/>
	<circle style="fill:#AF8764;" cx="215.951" cy="127.638" r="17.329"/>
</g>
<circle style="fill:#C0A27A;" cx="354.582" cy="422.229" r="17.329"/>
<g>
	<circle style="fill:#AF8764;" cx="241.944" cy="300.927" r="17.329"/>
	<circle style="fill:#AF8764;" cx="363.247" cy="196.954" r="17.329"/>
</g>
<path d="M89.261,270.402c2.886,0,5.815-0.367,8.721-1.125l163.553-42.667c13.105-3.419,24.16-11.698,31.127-23.311l54.127-90.212
	c4.944-8.241,6.183-18.242,3.399-27.439s-9.363-16.832-18.048-20.945L206.021,4.962c-9.78-4.632-20.578-6.059-31.227-4.122
	l-63.507,11.548C97.632,14.87,85.384,22.917,77.685,34.466l0,0L10.481,135.272c-7.366,11.049-7.629,25.496-0.669,36.804
	l50.504,82.069C66.657,264.451,77.632,270.402,89.261,270.402z M23.998,144.283L91.201,43.477l0,0
	c5.268-7.902,13.649-13.408,22.992-15.106l63.508-11.548c7.286-1.325,14.673-0.35,21.365,2.82l126.12,59.741
	c4.616,2.187,7.973,6.084,9.454,10.971c1.481,4.888,0.848,9.993-1.781,14.373l-54.127,90.212
	c-4.768,7.945-12.332,13.61-21.298,15.95L93.882,253.557c-7.655,1.998-15.584-1.188-19.73-7.926l-50.504-82.069
	C20.002,157.639,20.14,150.071,23.998,144.283z"/>
<path d="M437.27,263.225c-4.888-8.798-13.355-14.959-23.229-16.904c-9.875-1.946-20.045,0.545-27.906,6.833l-95.957,76.765
	c-7.761,6.209-13.524,14.475-16.667,23.903l0,0l-23.483,70.45c-5.334,16.002,2.021,33.759,17.108,41.302l85.609,42.805
	c4.862,2.431,10.089,3.621,15.279,3.621c8.029,0,15.969-2.847,22.322-8.354l100.901-87.447c12.127-10.511,15.273-28.321,7.479-42.35
	L437.27,263.225z M480.609,403.923L379.708,491.37c-5.479,4.749-13.211,5.722-19.695,2.48l-85.61-42.805
	c-7.903-3.951-11.756-13.252-8.961-21.635l23.483-70.45l0,0c2.15-6.452,6.094-12.106,11.404-16.355l95.956-76.765
	c4.117-3.292,9.443-4.6,14.618-3.578c5.173,1.018,9.608,4.246,12.168,8.854l61.457,110.625
	C488.608,389.087,486.961,398.416,480.609,403.923z"/>
<path d="M176.802,322.069l-18.298-13.723c-6.436-4.827-14.877-6.329-22.584-4.016l-67.657,20.296
	c-9.466,2.841-16.485,10.996-17.882,20.78L37.216,437.55c-0.987,6.91,0.942,14.004,5.292,19.461
	c4.351,5.459,10.834,8.922,17.79,9.502l71.211,5.934c0.718,0.06,1.43,0.09,2.138,0.09c11.439,0,21.574-7.669,24.568-18.895
	l27.907-104.651C188.814,338.9,185.155,328.334,176.802,322.069z M170.427,344.803L142.52,449.455
	c-1.15,4.311-5.217,7.175-9.66,6.802l-71.211-5.934c-2.553-0.212-4.838-1.433-6.434-3.437c-1.596-2.004-2.277-4.503-1.914-7.04
	l13.163-92.144c0.506-3.538,3.044-6.489,6.468-7.515l67.657-20.296c0.862-0.259,1.749-0.384,2.633-0.384
	c1.973,0,3.928,0.631,5.536,1.838l18.298,13.723C170.076,337.332,171.399,341.154,170.427,344.803z"/>
<path d="M419.22,166.416l25.542,8.514c2.682,0.894,5.42,1.327,8.124,1.327c7.396,0,14.53-3.243,19.477-9.179l28.951-34.742
	c6.159-7.391,7.631-17.476,3.842-26.32l-14.57-33.997c-2.75-6.415-8.085-11.472-14.64-13.873
	c-6.554-2.401-13.893-1.987-20.136,1.134l-28.421,14.211c-6.654,3.327-11.505,9.374-13.31,16.591l-11.504,46.015
	C399.372,148.919,406.683,162.236,419.22,166.416z M418.337,140.037l11.504-46.015c0.653-2.61,2.408-4.798,4.814-6.001l28.421-14.21
	c1.303-0.652,2.7-0.979,4.107-0.979c1.067,0,2.139,0.188,3.178,0.569c2.405,0.882,4.287,2.663,5.295,5.018l14.57,33.997
	c1.371,3.199,0.838,6.847-1.39,9.521l-28.951,34.742c-2.443,2.933-6.362,4.046-9.984,2.84l-25.543-8.514
	C419.823,149.492,417.179,144.674,418.337,140.037z"/>
<path d="M337.792,196.958c0,14.034,11.418,25.452,25.452,25.452c14.034,0,25.452-11.418,25.452-25.452s-11.418-25.452-25.452-25.452
	C349.209,171.506,337.792,182.924,337.792,196.958z M363.243,187.752c5.076,0,9.206,4.13,9.206,9.206
	c0,5.076-4.13,9.206-9.206,9.206s-9.206-4.13-9.206-9.206C354.037,191.882,358.167,187.752,363.243,187.752z"/>
<path d="M267.393,300.931c0-14.034-11.418-25.452-25.452-25.452s-25.452,11.418-25.452,25.452c0,14.034,11.418,25.452,25.452,25.452
	S267.393,314.966,267.393,300.931z M241.941,310.137c-5.076,0-9.206-4.13-9.206-9.206c0-5.076,4.13-9.206,9.206-9.206
	s9.206,4.13,9.206,9.206C251.147,306.008,247.017,310.137,241.941,310.137z"/>
<path d="M146.632,205.081c18.812,0,34.116-15.305,34.116-34.116s-15.305-34.116-34.116-34.116s-34.116,15.305-34.116,34.116
	S127.82,205.081,146.632,205.081z M146.632,153.094c9.854,0,17.87,8.017,17.87,17.87s-8.017,17.87-17.87,17.87
	c-9.854,0-17.87-8.017-17.87-17.87S136.778,153.094,146.632,153.094z"/>
<path d="M215.948,153.094c14.034,0,25.452-11.418,25.452-25.452s-11.418-25.452-25.452-25.452
	c-14.034,0-25.452,11.418-25.452,25.452S201.913,153.094,215.948,153.094z M215.948,118.436c5.076,0,9.206,4.13,9.206,9.206
	c0,5.076-4.13,9.206-9.206,9.206c-5.076,0-9.206-4.13-9.206-9.206C206.742,122.566,210.871,118.436,215.948,118.436z"/>
<path d="M354.579,396.782c-14.034,0-25.452,11.418-25.452,25.452c0,14.034,11.418,25.452,25.452,25.452
	c14.034,0,25.452-11.418,25.452-25.452C380.031,408.199,368.613,396.782,354.579,396.782z M354.579,431.44
	c-5.076,0-9.206-4.13-9.206-9.206s4.13-9.206,9.206-9.206c5.076,0,9.206,4.13,9.206,9.206S359.655,431.44,354.579,431.44z"/>
<path d="M133.635,101.107c6.868,0,12.455-5.587,12.455-12.455c0-6.868-5.587-12.455-12.455-12.455
	c-6.868,0-12.455,5.587-12.455,12.455C121.18,95.52,126.768,101.107,133.635,101.107z"/>
<path d="M384.905,336.131c-6.868,0-12.455,5.587-12.455,12.455c0,6.868,5.587,12.455,12.455,12.455
	c6.868,0,12.455-5.587,12.455-12.455C397.36,341.718,391.772,336.131,384.905,336.131z"/>
<path d="M436.891,370.789c-6.868,0-12.455,5.587-12.455,12.455s5.587,12.455,12.455,12.455c6.868,0,12.455-5.587,12.455-12.455
	S443.759,370.789,436.891,370.789z"/>
<path d="M98.978,396.782c-6.868,0-12.455,5.587-12.455,12.455c0,6.868,5.587,12.455,12.455,12.455s12.455-5.587,12.455-12.455
	C111.433,402.369,105.845,396.782,98.978,396.782z"/>
<path d="M120.595,362.124c-4.486,0-8.166,3.68-8.166,8.166c0,4.486,3.68,8.166,8.166,8.166c4.486,0,8.166-3.679,8.166-8.166
	C128.762,365.803,125.081,362.124,120.595,362.124z"/>
<path d="M311.798,253.277c0,6.868,5.587,12.455,12.455,12.455c6.868,0,12.455-5.587,12.455-12.455s-5.587-12.455-12.455-12.455
	C317.386,240.822,311.798,246.409,311.798,253.277z"/>
<path d="M211.615,396.782c-6.868,0-12.455,5.587-12.455,12.455c0,6.868,5.587,12.455,12.455,12.455
	c6.868,0,12.455-5.587,12.455-12.455C224.071,402.369,218.483,396.782,211.615,396.782z"/>
<path d="M384.905,57.785c6.868,0,12.455-5.587,12.455-12.455s-5.587-12.455-12.455-12.455c-6.868,0-12.455,5.587-12.455,12.455
	S378.037,57.785,384.905,57.785z"/>
<path d="M42.16,300.975c0-4.486-3.68-8.166-8.166-8.166s-8.166,3.68-8.166,8.166c0,4.486,3.68,8.166,8.166,8.166
	S42.16,305.461,42.16,300.975z"/>
<path d="M459.051,240.237c0,4.486,3.68,8.166,8.166,8.166s8.166-3.68,8.166-8.166s-3.68-8.166-8.166-8.166
	S459.051,235.751,459.051,240.237z"/>
<g>
</g>
<g>
</g>
<g>
</g>
<g>
</g>
<g>
</g>
<g>
</g>
<g>
</g>
<g>
</g>
<g>
</g>
<g>
</g>
<g>
</g>
<g>
</g>
<g>
</g>
<g>
</g>
<g>
</g>
</svg>
