<?xml version="1.0" encoding="iso-8859-1"?>
<!-- Generator: Adobe Illustrator 19.0.0, SVG Export Plug-In . SVG Version: 6.00 Build 0)  -->
<svg version="1.1" id="Layer_1" xmlns="http://www.w3.org/2000/svg" xmlns:xlink="http://www.w3.org/1999/xlink" x="0px" y="0px"
	 viewBox="0 0 512 512" style="enable-background:new 0 0 512 512;" xml:space="preserve">
<circle style="fill:#FFDC6E;" cx="255.993" cy="256.015" r="150.389"/>
<path style="fill:#FFC85F;" d="M221.807,373.748c-52.438-52.438-52.438-137.456,0-189.894c39.12-39.12,96.366-49.038,144.696-29.79
	c-1.366-1.478-2.738-2.954-4.174-4.39c-58.73-58.73-153.951-58.73-212.681,0s-58.73,153.951,0,212.681
	c33.496,33.496,78.858,47.856,122.552,43.144C253.796,399.041,236.518,388.46,221.807,373.748z"/>
<path style="fill:#DCCD87;" d="M177.752,127.735l206.514,206.514c35.366-57.904,28.158-134.481-21.938-184.577
	S235.655,92.369,177.752,127.735z"/>
<path style="fill:#BEC396;" d="M243.798,106.207l161.996,161.996c3.432-42.443-10.997-86.061-43.466-118.53
	S286.242,102.775,243.798,106.207z"/>
<path style="fill:#D7C378;" d="M177.752,127.735l50.314,50.314c38.779-34.195,92.544-42.222,138.348-24.018
	c-1.381-1.444-2.663-2.936-4.085-4.359C312.232,99.577,235.655,92.369,177.752,127.735z"/>
<path style="fill:#AFB48C;" d="M285.767,148.175c26.684-6.314,54.921-4.369,80.647,5.856c-1.381-1.444-2.663-2.936-4.085-4.359
	c-32.449-32.449-75.999-46.787-118.398-43.334L285.767,148.175z"/>
<path style="fill:#E4BE82;" d="M334.223,384.292L127.709,177.777c-35.366,57.904-28.158,134.481,21.938,184.577
	S276.32,419.658,334.223,384.292z"/>
<path style="fill:#D7AF78;" d="M149.647,362.354c33.496,33.496,78.857,47.856,122.552,43.144
	c-18.403-6.457-35.68-17.038-50.392-31.751c-36.543-36.543-47.542-88.888-33.152-135.025l-60.946-60.946
	C92.343,235.68,99.551,312.258,149.647,362.354z"/>
<path style="fill:#AFB48C;" d="M149.647,362.354c26.085,26.085,59.369,40.509,93.454,43.415L106.349,269.017
	C109.24,303.056,123.584,336.291,149.647,362.354z"/>
<path style="fill:#E8E8DC;" d="M468.667,381.119c-17.367-29.524-39.934-61.182-65.839-93.131
	c-2.731,12.598-7.035,24.914-13.031,36.607c7.056,9.692,13.65,19.215,19.444,28.375c53.549,84.641,28.344,109.847-56.297,56.298
	c-84.64-53.548-196.665-165.572-250.213-250.213S74.388,49.209,159.03,102.758c9.159,5.794,18.684,12.389,28.375,19.444
	c11.694-5.996,24.01-10.299,36.607-13.031c-31.951-25.904-63.608-48.473-93.133-65.84C13.42-25.762-25.789,13.446,43.306,130.907
	c69.095,117.46,220.328,268.693,337.788,337.787C498.555,537.789,537.763,498.581,468.667,381.119z"/>
<path style="fill:#D7D2BE;" d="M396.162,310.142c-1.877,4.896-3.945,9.738-6.365,14.454c7.056,9.692,13.65,19.215,19.444,28.375
	c53.549,84.641,28.344,109.847-56.297,56.298c-84.64-53.548-196.665-165.572-250.213-250.213S74.388,49.209,159.03,102.758
	c9.159,5.794,18.684,12.389,28.375,19.444c4.716-2.418,9.556-4.488,14.452-6.364c-20.141-15.705-39.849-29.674-58.466-41.23
	C43.204,12.423,12.397,43.23,74.582,143.417c62.186,100.188,193.814,231.815,294,294.001
	c100.189,62.185,130.994,31.378,68.809-68.808C425.835,349.991,411.866,330.284,396.162,310.142z"/>
<path d="M121.326,172.049c-4.126-5.941-8.002-11.761-11.585-17.427C80.837,108.937,80.542,89.331,84.925,84.95
	c4.365-4.363,23.878-4.095,69.335,24.604c3.875,2.445,8.996,1.288,11.441-2.585c2.445-3.874,1.288-8.996-2.585-11.441
	C117.467,66.71,87.214,59.203,73.196,73.222c-14.055,14.054-6.476,44.425,22.527,90.269
	c26.216,41.439,66.912,90.517,114.592,138.197s96.758,88.375,138.197,114.592c30.929,19.567,54.814,29.383,71.399,29.383
	c7.996-0.001,14.297-2.283,18.869-6.856c14.017-14.016,6.513-44.267-22.303-89.912c-2.444-3.873-7.566-5.031-11.439-2.585
	c-3.874,2.445-5.031,7.567-2.585,11.441c28.693,45.453,28.963,64.966,24.6,69.329c-4.382,4.382-23.987,4.086-69.672-24.816
	c-5.666-3.585-11.487-7.461-17.428-11.587c46.386-28.889,74.719-79.381,74.719-134.661c0-87.497-71.185-158.682-158.682-158.682
	C200.73,97.331,150.217,125.669,121.326,172.049z M255.987,113.918c78.351,0,142.095,63.744,142.095,142.095
	c0,51.819-27.796,98.951-72.846,124.104c-32.629-24.15-68.252-55.218-103.194-90.16c-34.941-34.942-66.007-70.562-90.158-103.191
	C157.037,141.723,204.188,113.918,255.987,113.918z"/>
<path d="M501.275,426.596c-12.59-31.691-36.097-70.972-67.981-113.598c-2.743-3.667-7.941-4.417-11.61-1.673
	c-3.667,2.743-4.417,7.941-1.673,11.609c69.987,93.559,85.498,151.253,69.826,166.927c-7.737,7.736-23.429,5.985-35.23,3.153
	c-18.413-4.419-42.223-15.034-68.857-30.701c-56.427-33.192-122.499-86.469-186.046-150.017
	C136.157,248.75,82.88,182.677,49.688,126.251C34.021,99.616,23.405,75.806,18.986,57.393c-2.832-11.801-4.584-27.492,3.153-35.229
	C37.813,6.489,95.517,22.005,189.092,92.01c3.667,2.742,8.865,1.995,11.609-1.673c2.743-3.668,1.995-8.865-1.673-11.609
	C156.397,46.837,117.11,23.323,85.414,10.73C49.656-3.476,24.422-3.576,10.409,10.435C-14.617,35.462,10.18,91.803,35.39,134.66
	c16.909,28.744,38.874,59.892,64.656,91.903c-1.812,9.658-2.741,19.549-2.741,29.45c0,87.497,71.185,158.682,158.682,158.682
	c9.9,0,19.79-0.926,29.453-2.739c32.01,25.779,63.157,47.745,91.9,64.654c30.257,17.798,67.234,35.391,95.168,35.39
	c11.633,0,21.699-3.051,29.057-10.41C515.575,487.581,515.477,462.349,501.275,426.596z M255.987,398.108
	c-78.351,0-142.095-63.744-142.095-142.095c0-4.011,0.178-8.019,0.512-12.008c22.323,26.564,47.074,53.523,73.571,80.02
	c26.498,26.498,53.456,51.249,80.021,73.572C264.007,397.931,259.999,398.108,255.987,398.108z"/>
<g>
</g>
<g>
</g>
<g>
</g>
<g>
</g>
<g>
</g>
<g>
</g>
<g>
</g>
<g>
</g>
<g>
</g>
<g>
</g>
<g>
</g>
<g>
</g>
<g>
</g>
<g>
</g>
<g>
</g>
</svg>
