<?xml version="1.0" encoding="iso-8859-1"?>
<!-- Generator: Adobe Illustrator 19.0.0, SVG Export Plug-In . SVG Version: 6.00 Build 0)  -->
<svg version="1.1" id="Layer_1" xmlns="http://www.w3.org/2000/svg" xmlns:xlink="http://www.w3.org/1999/xlink" x="0px" y="0px"
	 viewBox="0 0 512 512" style="enable-background:new 0 0 512 512;" xml:space="preserve">
<path style="fill:#5AC3FF;" d="M501.471,311.974c15.579,88.375-43.415,172.649-131.765,188.232
	c-88.35,15.583-172.6-43.427-188.179-131.802s43.415-172.649,131.765-188.232S485.893,223.599,501.471,311.974z"/>
<path style="fill:#8CE6FF;" d="M185.273,296.248c11.998,6.99,25.903,11.062,40.79,11.062c44.864,0,81.233-36.369,81.233-81.233
	c0-15.274-4.294-29.511-11.624-41.715C240.961,200.391,200.117,243.61,185.273,296.248z"/>
<path style="fill:#46A2DE;" d="M405.287,456.222c-71.3,0-130.428-51.505-142.569-119.33c-1.678-9.376-10.282-15.677-19.657-13.996
	c-5.516,0.99-11.193,1.517-16.998,1.517c-16.103,0-31.258-3.947-44.674-10.809c-1.427,8.662-2.356,17.493-2.356,26.56
	c0,89.738,72.726,162.485,162.439,162.485c51.165,0,96.779-23.685,126.553-60.666C449.038,451.105,427.76,456.222,405.287,456.222z"
	/>
<path style="fill:#A5FF7D;" d="M501.47,311.974c-14.267-80.941-86.167-137.062-166.034-133.99l-23.502,51.873l18.322,6.771
	l15.843-12.713l9.691,12.26l-2.686,19.032l-25.22,3.737l-23.917,11.143l-5.287,20.875c-0.657,2.778-3.298,4.617-6.132,4.272
	l-13.131-2.04c-4.49-0.698-8.85,1.861-10.43,6.121l-2.794,7.529c-1.959,5.281,1.051,11.104,6.493,12.56l20.167,5.393l8.523-27.325
	l37.482-10.738l27.643,14.821l39.134,2.789l1.972,11.348c1.317,6.585-3.412,12.842-10.107,13.372l-28.309,2.242
	c-3.228,0.255-5.393,3.429-4.454,6.526c1.194,3.939-2.554,7.584-6.458,6.283l-21.148-7.049c-2.814-0.938-4.873-3.364-5.342-6.292
	l-0.004-0.04c-0.631-3.934-4.072-6.798-8.057-6.699l-30.875,0.762l-17.87,7.864c-3.352,1.475-5.567,4.736-5.702,8.396l-0.245,6.626
	l-20.113,22.985c-1.788,2.044-2.773,4.666-2.773,7.38v24.613c0,4.562,1.853,8.927,5.135,12.096l17.663,17.054
	c2.775,2.681,6.387,4.325,10.233,4.656l58.977,5.091l-1.057,8.46c-0.5,4.008,1.193,7.975,4.434,10.385l12.971,9.644l-2.004,6.458
	c-1.334,4.297,0.03,8.974,3.464,11.879l13.624,11.837c0.04-0.007,0.077-0.007,0.117-0.015c13.884-2.449,26.937-6.766,39.197-12.357
	l28.238-32.944l28.679-76.477h-9.56l19.119-47.798v-9.56l26.562-5.312C501.75,314.494,501.695,313.24,501.47,311.974z"/>
<path style="fill:#91E178;" d="M405.287,456.222c-66.171,0-121.951-44.344-139.364-104.931l-16.901,19.321
	c-1.787,2.043-2.772,4.665-2.772,7.379v24.606c0,4.56,1.852,8.924,5.132,12.092l17.654,17.05c2.774,2.679,6.384,4.321,10.226,4.654
	l58.944,5.09l-1.057,8.458c-0.5,4.006,1.192,7.973,4.431,10.382l12.963,9.642l-2.003,6.456c-1.333,4.295,0.031,8.971,3.463,11.876
	l13.762,11.887c0.811-0.143,1.602-0.338,2.408-0.493c2.367-0.455,4.73-0.925,7.052-1.477c1.372-0.327,2.719-0.717,4.078-1.08
	c1.724-0.457,3.45-0.911,5.148-1.421c1.685-0.509,3.346-1.072,5.005-1.633c1.267-0.426,2.535-0.85,3.786-1.305
	c1.943-0.712,3.864-1.468,5.771-2.25c0.866-0.354,1.73-0.709,2.588-1.076c1.07-0.461,2.117-0.964,3.177-1.448l21.291-25.564
	c2.468-2.95,4.499-6.211,6.309-9.595C426.357,455.032,415.963,456.222,405.287,456.222z"/>
<path style="fill:#FFEB64;" d="M190.518,258.939L50.77,119.191c-18.89-18.89-18.89-49.517,0-68.407l0,0
	c18.89-18.89,49.517-18.89,68.407,0l139.748,139.748c18.89,18.89,18.89,49.517,0,68.407l0,0
	C240.035,277.829,209.408,277.829,190.518,258.939z"/>
<path style="fill:#FFFFFF;" d="M265.965,190.271l-18.52-18.52c-16.177-16.177-40.073-19.685-59.768-10.829l-51.089-51.089
	c-7.391-7.391-19.375-7.391-26.766,0s-7.391,19.375,0,26.766l51.089,51.089c-8.857,19.695-5.348,43.592,10.829,59.768l18.52,18.52
	c20.906,20.906,54.801,20.906,75.706,0C286.87,245.071,286.87,211.177,265.965,190.271z"/>
<circle style="fill:#AF8764;" cx="226.063" cy="226.074" r="21.377"/>
<path d="M509.365,311.865C493.039,219.282,404.44,157.24,311.851,173.565c-2.081,0.367-4.179,0.777-6.235,1.217
	c-4.329,0.928-7.085,5.189-6.158,9.519c0.928,4.328,5.186,7.082,9.519,6.158c1.865-0.401,3.77-0.772,5.659-1.105
	c4.167-0.734,8.325-1.287,12.467-1.676l-22.15,39.531c-1.146,2.046-1.339,4.49-0.529,6.69c0.811,2.2,2.544,3.934,4.744,4.748
	l18.317,6.769c0.068,0.026,0.138,0.043,0.207,0.066c0.109,0.036,0.218,0.073,0.328,0.105c0.145,0.043,0.29,0.078,0.436,0.112
	c0.089,0.02,0.176,0.042,0.265,0.06c0.177,0.035,0.354,0.061,0.531,0.084c0.063,0.007,0.125,0.018,0.188,0.025
	c0.211,0.022,0.42,0.034,0.63,0.038c0.036,0.001,0.073,0.004,0.108,0.004c0.028,0,0.057,0.003,0.084,0.003
	c0.052,0,0.104-0.011,0.156-0.012c0.302-0.005,0.603-0.029,0.904-0.069c0.078-0.011,0.155-0.018,0.232-0.031
	c0.347-0.057,0.693-0.136,1.033-0.239c0.055-0.017,0.107-0.036,0.161-0.055c0.309-0.1,0.612-0.221,0.912-0.36
	c0.047-0.022,0.096-0.042,0.142-0.064c0.316-0.156,0.623-0.335,0.922-0.536c0.068-0.046,0.134-0.097,0.201-0.145
	c0.119-0.084,0.239-0.164,0.355-0.257l9.54-7.655l2.552,3.229l-1.368,9.696l-19.286,2.857c-0.765,0.113-1.51,0.337-2.21,0.664
	l-23.909,11.14c-2.184,1.018-3.794,2.963-4.386,5.299l-4.765,18.819l-10.774-1.674c-8.22-1.273-16.281,3.456-19.173,11.253
	l-2.792,7.527c-1.717,4.628-1.401,9.797,0.866,14.182c2.039,3.945,5.511,6.97,9.66,8.464c-4.692,3.09-7.724,8.341-7.935,14.048
	l-0.14,3.782l-18.233,20.837c-3.068,3.505-4.756,8-4.756,12.657v24.606c0,6.697,2.763,13.207,7.581,17.858l17.659,17.049
	c4.085,3.943,9.45,6.385,15.107,6.874l50.661,4.374l-0.024,0.192c-0.858,6.859,2.055,13.684,7.604,17.81l8.411,6.254l-0.321,1.034
	c-2.292,7.384,0.042,15.38,5.863,20.303l0.047,0.041c-34.744,2.162-68.955-7.402-97.892-27.664
	c-33.797-23.666-56.357-59.076-63.52-99.707c-3.497-19.835-3.14-39.785,1.061-59.297c0.932-4.328-1.821-8.593-6.149-9.525
	c-4.331-0.931-8.593,1.821-9.525,6.149c-4.64,21.548-5.036,43.571-1.178,65.456c14.567,82.616,86.679,140.912,167.824,140.909
	c9.791,0,19.721-0.85,29.69-2.607c44.849-7.908,83.935-32.809,110.057-70.114C507.243,401.959,517.273,356.715,509.365,311.865z
	 M307.759,305.235l25.643-7.347l5.691,19.502c1.022,3.5,4.22,5.773,7.692,5.773c0.743,0,1.5-0.105,2.249-0.323
	c4.251-1.24,6.69-5.691,5.45-9.94l-2.575-8.826l10.802,5.791c0.995,0.533,2.092,0.851,3.218,0.931l32.867,2.342l0.898,5.166
	c0.012,0.067,0.023,0.134,0.037,0.2c0.245,1.223-0.261,2.122-0.583,2.548c-0.323,0.428-1.05,1.158-2.293,1.257l-28.299,2.241
	c-3.969,0.313-7.532,2.38-9.777,5.669c-1.261,1.848-2.012,3.944-2.221,6.103l-16.849-5.619c-1.237-7.731-7.98-13.449-15.773-13.449
	c-0.13,0-0.262,0.002-0.393,0.005l-19.685,0.486L307.759,305.235z M273.738,310.877l2.792-7.527
	c0.226-0.609,0.811-1.005,1.446-1.005c0.078,0,0.156,0.005,0.235,0.018l13.019,2.023l-3.717,11.918l-12.728-3.404
	c-0.543-0.145-0.827-0.506-0.971-0.78C273.671,311.844,273.543,311.405,273.738,310.877z M346.322,455.168
	c-0.92-0.685-1.403-1.817-1.262-2.955l1.057-8.458c0.27-2.162-0.352-4.342-1.722-6.036c-1.37-1.694-3.372-2.758-5.543-2.945
	l-58.958-5.09c-2.004-0.173-3.905-1.038-5.351-2.435l-17.658-17.048c-1.707-1.648-2.685-3.954-2.685-6.326V379.27
	c0-0.773,0.28-1.518,0.789-2.099l20.105-22.978c1.211-1.384,1.91-3.144,1.977-4.983l0.245-6.623
	c0.022-0.586,0.383-1.117,0.919-1.353l16.419-7.224l29.227-0.733c0.944,5.9,5.052,10.739,10.721,12.629l21.141,7.047
	c4.659,1.553,9.743,0.39,13.263-3.034c2.645-2.574,4.039-6.064,3.963-9.634l25.149-1.992c5.471-0.434,10.508-3.194,13.817-7.572
	c3.287-4.348,4.572-9.9,3.536-15.247l-1.956-11.257c-0.631-3.63-3.653-6.362-7.328-6.624l-37.414-2.666l-26.125-14.006
	c-1.84-0.987-3.99-1.215-5.996-0.641l-28.751,8.238l2.916-11.514l19.401-9.039l24.059-3.565c3.514-0.521,6.267-3.292,6.763-6.81
	l2.685-19.026c0.307-2.171-0.29-4.372-1.648-6.091l-9.688-12.257c-1.324-1.676-3.263-2.753-5.387-2.994
	c-2.123-0.245-4.253,0.376-5.919,1.713l-12.298,9.869l-5.259-1.943l19.222-34.305l10.406-0.904l23.645,23.287
	c3.154,3.107,8.229,3.068,11.336-0.087c3.106-3.154,3.068-8.23-0.087-11.336l-12.999-12.802
	c57.684,12.933,105.145,58.561,117.692,119.602l-37.994,7.557l-6.344-7.513c-2.857-3.383-7.914-3.808-11.297-0.953
	c-3.383,2.857-3.809,7.915-0.953,11.297l13.306,15.758c1.441,1.706,3.528,2.734,5.759,2.836c2.215,0.102,4.403-0.731,5.993-2.299
	l3.436-3.387l3.287,2.279l-18.77,37.263l-0.279,0.02c-1.028,0.075-2.043-0.356-2.699-1.158c-0.036-0.044-0.073-0.089-0.111-0.131
	l-20.336-23.731c-2.881-3.362-7.942-3.751-11.303-0.87c-3.362,2.881-3.752,7.942-0.87,11.303l20.287,23.674
	c3.964,4.783,10.023,7.36,16.218,6.902l6.206-0.46l-25.127,58.107c-1.838,4.252-4.279,8.209-7.251,11.761l-20.453,24.434
	c-9.999,4.358-20.523,7.685-31.449,9.882l-10.857-9.433c-0.979-0.828-1.365-2.155-0.985-3.38l2.003-6.456
	c1.008-3.248-0.143-6.779-2.873-8.808L346.322,455.168z M467.987,430.068c-7.003,10.002-15.043,19.011-23.935,26.937
	c0.645-1.257,1.254-2.532,1.816-3.832l30.383-70.261c1.114-2.575,0.801-5.543-0.825-7.828c-1.626-2.286-4.328-3.557-7.125-3.348
	l-0.485,0.036l15.385-30.543c2.054-4.078,1.845-8.802-0.219-12.625l12.19-2.425C498.89,362.969,489.415,399.467,467.987,430.068z"/>
<path d="M226.063,255.47c16.208,0,29.394-13.185,29.394-29.394s-13.185-29.394-29.394-29.394s-29.394,13.185-29.394,29.394
	S209.856,255.47,226.063,255.47z M226.063,212.716c7.368,0,13.361,5.993,13.361,13.361c0,7.368-5.993,13.361-13.361,13.361
	c-7.368,0-13.361-5.993-13.361-13.361C212.702,218.709,218.697,212.716,226.063,212.716z"/>
<path d="M226.063,289.644c16.286,0,32.571-6.199,44.97-18.597c24.796-24.796,24.796-65.144,0-89.94L125.669,35.742
	c-3.131-3.131-8.207-3.131-11.336,0c-3.131,3.131-3.131,8.207,0,11.336l145.365,145.365c8.984,8.984,13.932,20.928,13.932,33.633
	c0,12.704-4.948,24.65-13.931,33.633c-8.984,8.983-20.928,13.932-33.633,13.932c-12.704,0-24.65-4.948-33.633-13.931L55.618,122.895
	c-3.131-3.131-8.207-3.131-11.336,0c-3.131,3.131-3.131,8.207,0,11.336l136.814,136.814
	C193.492,283.444,209.777,289.644,226.063,289.644z"/>
<path d="M170.483,204.165c2.051,0,4.103-0.782,5.668-2.348c3.131-3.131,3.131-8.207,0-11.336L13.684,28.014
	c-3.131-3.131-8.207-3.131-11.336,0c-3.131,3.131-3.131,8.207,0,11.336l162.466,162.466
	C166.379,203.382,168.431,204.165,170.483,204.165z"/>
<path d="M190.467,176.164c1.565,1.565,3.617,2.348,5.668,2.348s4.103-0.782,5.668-2.348c3.131-3.131,3.131-8.207,0-11.336
	L39.337,2.362c-3.131-3.131-8.207-3.131-11.336,0c-3.131,3.131-3.131,8.207,0,11.336L190.467,176.164z"/>
<path d="M281.644,161.411c4.427,0,8.016-3.589,8.016-8.016V93.538c0-4.427-3.589-8.016-8.016-8.016s-8.016,3.589-8.016,8.016v59.856
	C273.627,157.822,277.217,161.411,281.644,161.411z"/>
<path d="M304.762,152.448c0.841,0.28,1.695,0.414,2.536,0.414c3.356,0,6.484-2.125,7.604-5.483l8.551-25.653
	c1.4-4.201-0.87-8.74-5.071-10.14c-4.201-1.399-8.74,0.87-10.14,5.071l-8.551,25.653
	C298.291,146.509,300.561,151.048,304.762,152.448z"/>
<path d="M153.381,273.641H93.525c-4.427,0-8.016,3.589-8.016,8.016c0,4.427,3.589,8.016,8.016,8.016h59.856
	c4.427,0,8.016-3.589,8.016-8.016C161.397,277.23,157.808,273.641,153.381,273.641z"/>
<path d="M142.296,299.704l-25.653,8.551c-4.201,1.4-6.47,5.94-5.071,10.14c1.12,3.359,4.248,5.483,7.604,5.483
	c0.84,0,1.695-0.134,2.536-0.414l25.653-8.551c4.201-1.4,6.47-5.94,5.071-10.14C151.035,300.574,146.495,298.305,142.296,299.704z"
	/>
<g>
</g>
<g>
</g>
<g>
</g>
<g>
</g>
<g>
</g>
<g>
</g>
<g>
</g>
<g>
</g>
<g>
</g>
<g>
</g>
<g>
</g>
<g>
</g>
<g>
</g>
<g>
</g>
<g>
</g>
</svg>
