<?xml version="1.0" encoding="iso-8859-1"?>
<!-- Generator: Adobe Illustrator 19.0.0, SVG Export Plug-In . SVG Version: 6.00 Build 0)  -->
<svg version="1.1" id="Layer_1" xmlns="http://www.w3.org/2000/svg" xmlns:xlink="http://www.w3.org/1999/xlink" x="0px" y="0px"
	 viewBox="0 0 512 512" style="enable-background:new 0 0 512 512;" xml:space="preserve">
<path style="fill:#B1E6FF;" d="M256,119.182L256,119.182c-47.227,0-85.511,38.285-85.511,85.511V478.33h171.023V204.693
	C341.512,157.466,303.227,119.182,256,119.182z"/>
<path style="fill:#FFFFFF;" d="M256,221.795L256,221.795c-28.336,0-51.307,22.971-51.307,51.307V478.33h102.614V273.102
	C307.307,244.766,284.337,221.795,256,221.795z"/>
<path style="fill:#B1E6FF;" d="M256,375.716L256,375.716c-9.446,0-17.102,7.656-17.102,17.102v76.96h34.205v-76.96
	C273.102,383.373,265.446,375.716,256,375.716z"/>
<path style="fill:#D5DCED;" d="M314.492,204.693c9.962,0,17.815-8.482,17.052-18.414l-6.021-78.27
	c-0.691-8.984-6.046-16.947-14.105-20.977l-21.213-10.607h-68.409l-21.213,10.607c-8.059,4.03-13.414,11.993-14.105,20.977
	l-6.021,78.27c-0.764,9.932,7.09,18.414,17.052,18.414h15.736v68.409c-9.445,0-17.102,7.656-17.102,17.102v8.551h35.512
	c4.18,0,7.747-3.023,8.435-7.146l14.486-86.917h2.851l14.486,86.917c0.687,4.123,4.254,7.146,8.435,7.146h35.513v-8.551
	c0-9.446-7.658-17.102-17.102-17.102v-68.409H314.492z"/>
<circle style="fill:#FFD864;" cx="256" cy="50.772" r="42.756"/>
<path style="fill:#FFC35F;" d="M238.898,50.772c0-19.113,12.627-35.106,29.929-40.581C264.753,8.903,260.5,8.017,256,8.017
	c-23.613,0-42.756,19.143-42.756,42.756S232.387,93.528,256,93.528c4.5,0,8.753-0.887,12.827-2.175
	C251.525,85.878,238.898,69.885,238.898,50.772z"/>
<path style="fill:#E4EAF8;" d="M298.151,44.773C295.21,24.027,277.559,8.017,256,8.017c-21.556,0-39.208,16.008-42.151,36.752
	C226.289,37.705,240.673,33.67,256,33.67C271.328,33.67,285.709,37.711,298.151,44.773z"/>
<path style="fill:#D5DCED;" d="M213.849,44.768c8.585-4.875,18.139-8.182,28.248-9.841c4.763-11.727,14.528-20.875,26.73-24.735
	C264.753,8.903,260.5,8.017,256,8.017C234.444,8.017,216.792,24.024,213.849,44.768z"/>
<g>
	<path style="fill:#959CB5;" d="M267.402,264.551l4.51,27.059c0.687,4.124,4.254,7.146,8.435,7.146h35.512v-8.551
		c0-9.446-7.658-17.102-17.102-17.102v-8.551H267.402z"/>
	<path style="fill:#959CB5;" d="M244.598,264.551h-31.354v8.551c-9.445,0-17.102,7.656-17.102,17.102v8.551h35.512
		c4.18,0,7.747-3.022,8.435-7.146L244.598,264.551z"/>
</g>
<path style="fill:#EFF3FB;" d="M264.551,170.489h-17.102c-4.722,0-8.551-3.829-8.551-8.551v-34.205c0-4.722,3.829-8.551,8.551-8.551
	h17.102c4.722,0,8.551,3.829,8.551,8.551v34.205C273.102,166.66,269.274,170.489,264.551,170.489z"/>
<g>
	<path style="fill:#959CB5;" d="M331.544,186.279l-0.557-7.24h-32.231v25.653h15.736
		C324.454,204.693,332.308,196.211,331.544,186.279z"/>
	<path style="fill:#959CB5;" d="M181.013,179.04l-0.557,7.24c-0.764,9.932,7.09,18.414,17.052,18.414h15.736V179.04H181.013z"/>
</g>
<path style="fill:#C7CFE2;" d="M360.489,469.779H151.512c-3.924,0-7.344,2.67-8.296,6.477l-6.932,27.727h239.432l-6.932-27.727
	C367.833,472.449,364.413,469.779,360.489,469.779z"/>
<path style="fill:#AFB9D2;" d="M228.472,469.779h-76.96c-3.924,0-7.344,2.67-8.296,6.477l-6.932,27.727h76.96l6.932-27.727
	C221.128,472.449,224.548,469.779,228.472,469.779z"/>
<path d="M197.508,212.71h7.72v53.687c-9.932,3.353-17.102,12.758-17.102,23.807v8.551c0,4.427,3.589,8.017,8.017,8.017h42.756
	c3.92,0,7.263-2.833,7.908-6.699L256,244.906l9.195,55.168c0.645,3.866,3.988,6.699,7.908,6.699h42.756
	c4.427,0,8.017-3.589,8.017-8.017v-8.551c0-11.049-7.17-20.454-17.102-23.807V212.71h7.72c6.973,0,13.691-2.935,18.43-8.052
	s7.15-12.04,6.614-18.993l-6.021-78.27c-0.902-11.724-7.995-22.274-18.513-27.533l-13.439-6.719
	c3.331-6.754,5.21-14.346,5.21-22.371C306.773,22.777,283.996,0,256,0s-50.772,22.777-50.772,50.772
	c0,8.025,1.879,15.617,5.209,22.371l-13.439,6.719c-10.517,5.259-17.611,15.81-18.512,27.533l-6.021,78.27
	c-0.534,6.953,1.876,13.876,6.614,18.993C183.817,209.775,190.534,212.71,197.508,212.71z M197.508,196.676
	c-2.56,0-4.927-1.035-6.666-2.913c-1.739-1.878-2.589-4.318-2.392-6.87l0.646-8.389h16.132v18.171L197.508,196.676L197.508,196.676z
	 M221.284,49.89c10.716-5.371,22.632-8.203,34.717-8.203c12.085,0,24.001,2.831,34.717,8.203c0.007,0.295,0.022,0.587,0.022,0.883
	c0,19.155-15.584,34.739-34.739,34.739s-34.739-15.584-34.739-34.739C221.261,50.476,221.276,50.185,221.284,49.89z
	 M246.915,127.733c0-0.295,0.239-0.534,0.534-0.534h17.102c0.295,0,0.534,0.239,0.534,0.534v34.205c0,0.295-0.239,0.534-0.534,0.534
	h-17.102c-0.295,0-0.534-0.239-0.534-0.534V127.733z M256,101.545c6.626,0,12.954-1.289,18.762-3.609l-6.794,13.587
	c-1.103-0.232-2.246-0.358-3.417-0.358h-17.102c-1.171,0-2.314,0.126-3.417,0.358l-6.794-13.587
	C243.046,100.256,249.374,101.545,256,101.545z M247.449,178.505h17.102c9.136,0,16.568-7.432,16.568-16.568v-0.534h9.62v20.76
	l-27.331,10.933c-1.212-2.951-4.102-4.97-7.409-4.97s-6.195,2.019-7.409,4.97l-27.331-10.933v-20.76h9.62v0.534
	C230.881,171.073,238.313,178.505,247.449,178.505z M266.304,209.205l24.435-9.774v57.104h-16.546L266.304,209.205z
	 M237.808,256.534h-16.546v-57.102l24.435,9.774L237.808,256.534z M204.159,290.739v-0.534c0-5.01,4.076-9.086,9.086-9.086
	c4.427,0,8.017-3.589,8.017-8.017v-0.534h13.874l-3.028,18.171H204.159z M307.841,290.205v0.534h-27.947l-3.028-18.171h13.873v0.534
	c0,4.427,3.589,8.017,8.017,8.017C303.766,281.119,307.841,285.195,307.841,290.205z M321.158,193.764
	c-1.739,1.878-4.107,2.913-6.666,2.913h-7.72v-18.171h16.133l0.646,8.389C323.747,189.446,322.897,191.886,321.158,193.764z
	 M317.53,108.625l4.142,53.847h-14.899v-34.739c0-4.427-3.589-8.017-8.017-8.017c-4.427,0-8.017,3.589-8.017,8.017v17.637h-9.62
	v-17.637c0-1.766-0.284-3.465-0.798-5.063l16.89-33.778l10.623,5.311C313.342,96.957,317.057,102.483,317.53,108.625z M256,16.033
	c11.307,0,21.365,5.432,27.713,13.821c-8.932-2.764-18.281-4.201-27.713-4.201s-18.782,1.437-27.713,4.201
	C234.634,21.466,244.693,16.033,256,16.033z M204.167,94.203l10.623-5.311l16.89,33.778c-0.514,1.597-0.798,3.296-0.798,5.063
	v17.637h-9.62v-17.637c0-4.427-3.589-8.017-8.017-8.017s-8.017,3.589-8.017,8.017v34.739h-14.899l4.142-53.847
	C194.943,102.483,198.658,96.957,204.167,94.203z"/>
<path d="M383.493,502.039l-6.932-27.728c-1.848-7.388-8.457-12.549-16.073-12.549H349.52l0.009-171.557
	c0-4.427-3.588-8.017-8.017-8.017l0,0c-4.427,0-8.017,3.589-8.017,8.017l-0.009,171.557h-18.171v-77.495
	c0-4.427-3.589-8.017-8.017-8.017c-4.427,0-8.017,3.589-8.017,8.017v77.495h-18.171v-26.19c0-4.427-3.589-8.017-8.017-8.017
	s-8.017,3.589-8.017,8.017v26.19h-18.163V332.96c0-4.427-3.589-8.017-8.017-8.017s-8.017,3.589-8.017,8.017v128.802H212.71v-77.494
	c0-4.427-3.589-8.017-8.017-8.017c-4.427,0-8.017,3.589-8.017,8.017v77.494h-18.171l0.009-171.554c0-4.427-3.588-8.017-8.017-8.017
	l0,0c-4.427,0-8.017,3.589-8.017,8.017l-0.009,171.554h-10.96c-7.616,0-14.226,5.161-16.073,12.55l-6.932,27.727
	c-0.6,2.395-0.061,4.932,1.458,6.878c1.519,1.946,3.85,3.083,6.319,3.083h239.432c2.469,0,4.799-1.137,6.319-3.084
	C383.555,506.97,384.092,504.434,383.493,502.039z M146.552,495.967l4.441-17.766c0.06-0.239,0.273-0.405,0.518-0.405h208.977
	c0.246,0,0.46,0.167,0.518,0.404l4.441,17.767H146.552z"/>
<path d="M196.677,332.96v17.103c0,4.427,3.589,8.017,8.017,8.017c4.427,0,8.017-3.589,8.017-8.017V332.96
	c0-4.427-3.589-8.017-8.017-8.017C200.266,324.944,196.677,328.533,196.677,332.96z"/>
<path d="M265.077,332.958v68.409c0,4.427,3.589,8.017,8.017,8.017s8.017-3.589,8.017-8.017v-68.409c0-4.427-3.589-8.017-8.017-8.017
	S265.077,328.53,265.077,332.958z"/>
<path d="M299.282,332.958v17.103c0,4.427,3.589,8.017,8.017,8.017c4.427,0,8.017-3.589,8.017-8.017v-17.103
	c0-4.427-3.589-8.017-8.017-8.017C302.871,324.941,299.282,328.53,299.282,332.958z"/>
<path d="M170.489,264.017c4.427,0,8.017-3.589,8.017-8.017v-25.653c0-4.427-3.589-8.017-8.017-8.017
	c-4.427,0-8.017,3.589-8.017,8.017V256C162.472,260.427,166.061,264.017,170.489,264.017z"/>
<path d="M333.495,230.347V256c0,4.427,3.589,8.017,8.017,8.017c4.427,0,8.017-3.589,8.017-8.017v-25.653
	c0-4.427-3.589-8.017-8.017-8.017C337.084,222.33,333.495,225.919,333.495,230.347z"/>
<g>
</g>
<g>
</g>
<g>
</g>
<g>
</g>
<g>
</g>
<g>
</g>
<g>
</g>
<g>
</g>
<g>
</g>
<g>
</g>
<g>
</g>
<g>
</g>
<g>
</g>
<g>
</g>
<g>
</g>
</svg>
