<?xml version="1.0" encoding="iso-8859-1"?>
<!-- Generator: Adobe Illustrator 19.0.0, SVG Export Plug-In . SVG Version: 6.00 Build 0)  -->
<svg version="1.1" id="Layer_1" xmlns="http://www.w3.org/2000/svg" xmlns:xlink="http://www.w3.org/1999/xlink" x="0px" y="0px"
	 viewBox="0 0 512.001 512.001" style="enable-background:new 0 0 512.001 512.001;" xml:space="preserve">
<path style="fill:#FFEB64;" d="M147.689,316.12L43.607,420.201c-13.312,13.313-13.312,34.879,0,48.191
	c6.656,6.656,15.376,9.985,24.095,9.985s17.439-3.329,24.095-9.985L195.88,364.31L147.689,316.12z"/>
<circle style="fill:#FFFFFF;" cx="161.778" cy="350.222" r="25.63"/>
<g>
	<path style="fill:#E4EAF8;" d="M115.53,290.424l-19.602-17.706c-3.336-3.336-3.336-8.746,0-12.082l149.777-149.777
		c5.229-5.229,12.012-8.62,19.331-9.666l73.298-10.471L127.6,290.435C124.261,293.761,118.862,293.754,115.53,290.424z"/>
	<path style="fill:#E4EAF8;" d="M221.576,396.47l17.706,19.602c3.336,3.336,8.746,3.336,12.082,0l149.777-149.777
		c5.229-5.229,8.62-12.012,9.666-19.331l10.471-73.298L221.564,384.4C218.239,387.738,218.245,393.138,221.576,396.47z"/>
</g>
<path style="fill:#FFC850;" d="M503.356,16.815c-0.176-4.468-3.705-7.997-8.172-8.172C474.772,7.84,418.356,9.069,383.85,43.575
	C353.645,73.78,242.934,184.491,242.934,184.491l84.575,84.575c0,0,110.71-110.71,140.916-140.916
	C502.931,93.643,504.159,37.227,503.356,16.815z"/>
<g>
	<path style="fill:#E1A546;" d="M495.184,8.643C474.772,7.84,418.356,9.069,383.85,43.575l84.575,84.575l0,0
		c34.507-34.506,35.735-90.922,34.931-111.333C503.181,12.348,499.651,8.819,495.184,8.643z"/>
	<path style="fill:#E1A546;" d="M324.525,102.9c-39.446,39.446-81.591,81.591-81.591,81.591l84.575,84.575
		c0,0,42.145-42.145,81.591-81.591L324.525,102.9z"/>
</g>
<path style="fill:#D5DCED;" d="M297.178,166.493l-160.104,16.562c-9.759,1.009-18.872,5.347-25.809,12.284l-14.363,14.363
	c-2.953,2.953-3.338,7.609-0.911,11.007l56.203,78.685l60.411,60.41l78.685,56.204c3.398,2.427,8.054,2.042,11.007-0.911
	l14.363-14.363c6.937-6.937,11.275-16.051,12.284-25.809l16.562-160.104L297.178,166.493z"/>
<path style="fill:#C7CFE2;" d="M315.302,402.093L109.906,196.698L96.9,209.704c-2.953,2.953-3.338,7.608-0.911,11.007l56.203,78.685
	l60.411,60.41l78.685,56.204c3.398,2.427,8.053,2.042,11.007-0.911L315.302,402.093z"/>
<path style="fill:#E4EAF8;" d="M406.682,105.319L406.682,105.319c-7.025-7.025-18.033-8.115-26.298-2.605l-41.383,27.589
	c-11.234,7.489-21.702,16.071-31.249,25.618L176.357,287.314l48.328,48.328l131.393-131.393
	c9.547-9.547,18.129-20.015,25.618-31.249l27.589-41.383C414.797,123.35,413.707,112.343,406.682,105.319z"/>
<path style="fill:#AFB9D2;" d="M224.686,335.642l-48.328-48.328l-27.576,18.383c-4.486,2.99-5.114,9.337-1.302,13.149l45.673,45.673
	c3.812,3.812,10.159,3.183,13.149-1.302L224.686,335.642z"/>
<path d="M357.975,189.515c9.785-9.785,9.785-25.706,0-35.491c-9.784-9.784-25.706-9.785-35.491,0c-3.128,3.128-3.128,8.199,0,11.326
	c3.128,3.128,8.199,3.128,11.326,0c3.539-3.539,9.297-3.54,12.837,0c3.539,3.539,3.539,9.298,0,12.837
	c-3.128,3.128-3.128,8.199,0,11.326c1.563,1.563,3.614,2.346,5.663,2.346C354.361,191.86,356.412,191.079,357.975,189.515z"/>
<path d="M511.3,7.797c-0.406-3.739-3.359-6.693-7.097-7.097c-0.819-0.09-20.328-2.137-45.413,1.223
	c-33.699,4.513-61.405,16.792-80.124,35.511l-42.21,42.21l-70.655,10.094c-8.976,1.283-17.45,5.519-23.863,11.931l-16.108,16.108
	l-0.001,0.001l-0.001,0.001l-53.587,53.587l-35.99,3.723c-11.553,1.195-22.437,6.375-30.649,14.588l-19.481,19.481
	c-2.768,2.768-3.13,7.133-0.854,10.319l16.193,22.671l-15.34,15.34c-3.128,3.128-3.128,8.199,0,11.326l30.205,30.205
	c1.563,1.563,3.614,2.346,5.663,2.346c2.049,0,4.1-0.782,5.663-2.346l8.417-8.417l6.748,9.448l-7.148,4.765
	c-1.997,1.331-3.291,3.487-3.527,5.875c-0.237,2.388,0.61,4.755,2.307,6.452l60.41,60.41c1.51,1.51,3.55,2.346,5.663,2.346
	c0.263,0,0.526-0.013,0.789-0.039c2.388-0.236,4.544-1.531,5.875-3.527l4.765-7.148l9.448,6.748l-8.417,8.417
	c-3.128,3.128-3.128,8.199,0,11.326l30.205,30.205c1.563,1.563,3.614,2.346,5.663,2.346s4.1-0.782,5.663-2.346l15.34-15.34
	l22.671,16.193c1.402,1.002,3.031,1.492,4.653,1.492c2.064,0,4.116-0.796,5.666-2.346l19.481-19.481
	c8.212-8.212,13.394-19.096,14.588-30.649l3.723-35.991l69.699-69.697c6.411-6.412,10.648-14.887,11.931-23.863l10.094-70.655
	l42.21-42.21c18.719-18.718,30.998-46.425,35.511-80.124C513.437,28.124,511.39,8.615,511.3,7.797z M351.612,233.635l1.569-15.161
	l8.561-8.561c9.897-9.897,18.853-20.822,26.619-32.47l27.587-41.382c7.604-11.403,6.087-26.715-3.604-36.405
	c-9.691-9.691-25.002-11.209-36.405-3.604l-41.382,27.587c-11.649,7.766-22.574,16.721-32.47,26.619l-8.561,8.561l-15.161,1.569
	L384.329,54.423l73.248,73.248L351.612,233.635z M314.916,390.38l-66.82-66.82l87.124-87.124l-14.242,137.665
	C320.37,379.967,318.259,385.579,314.916,390.38z M224.686,324.316l-12.837-12.837l36.624-36.624c3.128-3.128,3.128-8.199,0-11.326
	c-3.128-3.128-8.199-3.128-11.326,0l-36.624,36.624l-12.837-12.837l115.193-115.193c0.003-0.003,0.005-0.005,0.009-0.009
	l10.529-10.529c9.153-9.153,19.257-17.436,30.029-24.618l41.382-27.587c5.073-3.382,11.883-2.708,16.193,1.603l0,0
	c4.311,4.31,4.985,11.12,1.603,16.193l-27.587,41.382c-7.183,10.772-15.464,20.876-24.618,30.029L224.686,324.316z M268.065,105.595
	l49.511-7.073l-49.839,49.839l-24.919-24.919l10.445-10.445C257.241,109.019,262.497,106.391,268.065,105.595z M231.492,134.769
	l24.919,24.919l-3.314,3.314l-55.589,5.751L231.492,134.769z M137.899,191.022l137.665-14.242l-87.124,87.124l-66.821-66.82
	C126.421,193.741,132.032,191.63,137.899,191.022z M121.988,282.028l-18.879-18.879l7.787-7.788l15.731,22.025L121.988,282.028z
	 M102.244,215.687l7.662-7.662l67.207,67.207l-5.859,5.859l-15.102,10.068L102.244,215.687z M175.337,297.62l13.858,13.858
	l-18.878,18.878l-17.633-17.633L175.337,297.62z M199.277,359.316l-17.633-17.633l18.878-18.878l13.858,13.858L199.277,359.316z
	 M248.85,408.889l-18.879-18.879l4.641-4.641l22.025,15.731L248.85,408.889z M296.313,409.755l-75.472-53.908l10.068-15.102
	l5.859-5.859l67.207,67.207L296.313,409.755z M348.999,258.903l3.314-3.314l24.92,24.92l-33.984,33.983L348.999,258.903z
	 M406.404,243.935c-0.796,5.567-3.424,10.823-7.4,14.8l-10.446,10.446l-24.92-24.92l49.839-49.839L406.404,243.935z
	 M468.626,116.067l-72.694-72.694c32.734-27.08,82.076-27.877,99.863-27.169C496.499,33.996,495.704,83.336,468.626,116.067z"/>
<path d="M164.653,384.348l-46.077,46.077c-3.128,3.128-3.128,8.199,0,11.326c1.563,1.565,3.614,2.346,5.663,2.346
	c2.049,0,4.1-0.782,5.663-2.346l46.077-46.077c3.128-3.128,3.128-8.199,0-11.326C172.852,381.22,167.781,381.221,164.653,384.348z"
	/>
<path d="M130.658,490.836c-3.329,3.328-7.753,5.161-12.459,5.161s-9.131-1.833-12.459-5.161c-3.329-3.329-5.161-7.753-5.161-12.459
	s1.833-9.132,5.161-12.459c3.128-3.128,3.128-8.198,0-11.326c-3.127-3.128-8.198-3.128-11.326,0
	c-6.354,6.353-9.854,14.801-9.854,23.787s3.5,17.434,9.854,23.787c6.558,6.558,15.172,9.837,23.787,9.837
	c8.614,0,17.229-3.278,23.786-9.837c3.128-3.128,3.128-8.199,0-11.326C138.856,487.708,133.785,487.708,130.658,490.836z"/>
<path d="M75.911,395.77c2.049,0,4.1-0.782,5.663-2.346l46.077-46.077c3.128-3.128,3.128-8.199,0-11.326
	c-3.128-3.128-8.199-3.128-11.326,0l-46.078,46.077c-3.128,3.128-3.128,8.199,0,11.326C71.812,394.988,73.861,395.77,75.911,395.77z
	"/>
<path d="M57.41,417.588c3.128-3.128,3.128-8.199,0-11.326c-3.128-3.129-8.199-3.128-11.326,0c-3.329,3.329-7.753,5.161-12.459,5.161
	s-9.132-1.833-12.459-5.161c-3.328-3.329-5.161-7.753-5.161-12.459c0-4.707,1.833-9.132,5.161-12.459
	c3.128-3.128,3.128-8.199,0-11.326c-3.128-3.128-8.199-3.128-11.326,0c-13.116,13.116-13.116,34.457,0,47.572
	c6.353,6.354,14.801,9.854,23.787,9.854S51.057,423.942,57.41,417.588z"/>
<path d="M27.96,472.712l-8.543,8.543c-3.128,3.128-3.128,8.199,0,11.326c1.563,1.563,3.614,2.346,5.663,2.346s4.1-0.782,5.663-2.346
	l8.543-8.543c3.128-3.128,3.128-8.199,0-11.326C36.159,469.585,31.088,469.585,27.96,472.712z"/>
<path d="M151.816,360.184c-3.128-3.128-8.199-3.128-11.326,0L53.59,447.082c-3.128,3.128-3.128,8.199,0,11.326
	c1.563,1.563,3.614,2.346,5.663,2.346s4.1-0.782,5.663-2.346l86.899-86.899C154.943,368.383,154.943,363.312,151.816,360.184z"/>
<path d="M160.863,460.631l-6.041,6.041c-3.128,3.128-3.128,8.199,0,11.326c1.563,1.563,3.614,2.346,5.663,2.346
	c2.049,0,4.1-0.782,5.663-2.346l6.041-6.041c3.128-3.128,3.128-8.199,0-11.326C169.062,457.503,163.991,457.503,160.863,460.631z"/>
<path d="M39.664,359.524c2.049,0,4.1-0.782,5.663-2.346l6.041-6.041c3.128-3.128,3.128-8.199,0-11.326
	c-3.128-3.128-8.199-3.128-11.326,0l-6.041,6.041c-3.128,3.128-3.128,8.199,0,11.326C35.565,358.741,37.615,359.524,39.664,359.524z
	"/>
<g>
</g>
<g>
</g>
<g>
</g>
<g>
</g>
<g>
</g>
<g>
</g>
<g>
</g>
<g>
</g>
<g>
</g>
<g>
</g>
<g>
</g>
<g>
</g>
<g>
</g>
<g>
</g>
<g>
</g>
</svg>
