<?xml version="1.0" encoding="iso-8859-1"?>
<!-- Generator: Adobe Illustrator 19.0.0, SVG Export Plug-In . SVG Version: 6.00 Build 0)  -->
<svg version="1.1" id="Layer_1" xmlns="http://www.w3.org/2000/svg" xmlns:xlink="http://www.w3.org/1999/xlink" x="0px" y="0px"
	 viewBox="0 0 512 512" style="enable-background:new 0 0 512 512;" xml:space="preserve">
<path style="fill:#D5DCED;" d="M358.614,179.04H153.386V42.221c0-9.446,7.656-17.102,17.102-17.102h171.023
	c9.446,0,17.102,7.656,17.102,17.102V179.04z"/>
<g>
	<path style="fill:#959CB5;" d="M127.733,341.511c0,9.446,7.656,17.102,17.102,17.102h17.102v-51.307h-34.205V341.511z"/>
	<path style="fill:#959CB5;" d="M350.063,307.307v51.307h17.102c9.446,0,17.102-7.656,17.102-17.102v-34.205H350.063z"/>
</g>
<path style="fill:#E4EAF8;" d="M324.409,213.244l25.653,94.063h34.205l-14.684-139.508c-1.461-13.876-11.204-25.475-24.62-29.308
	l-37.656-10.758H204.693l-37.655,10.758c-13.417,3.833-23.16,15.432-24.62,29.308l-14.686,139.508h34.205l25.653-94.063v111.165
	v145.37h-8.551c-9.446,0-17.102,7.656-17.102,17.102v17.102h60.67c4.393,0,8.071-3.329,8.508-7.7l15.482-154.814
	c0.483-4.83,4.547-8.508,9.402-8.508s8.919,3.678,9.402,8.508l15.482,154.814c0.437,4.372,4.115,7.7,8.508,7.7h60.67v-17.102
	c0-9.446-7.656-17.102-17.102-17.102h-8.551v-145.37V213.244z"/>
<path style="fill:#FFD864;" d="M256,161.937L256,161.937c-37.781,0-68.409-30.628-68.409-68.409V76.426
	c0-37.781,30.628-68.409,68.409-68.409l0,0c37.781,0,68.409,30.628,68.409,68.409v17.102
	C324.409,131.309,293.781,161.937,256,161.937z"/>
<path style="fill:#FFC35F;" d="M230.347,93.528V76.426c0-30.308,19.73-55.972,47.031-64.955C270.647,9.257,263.473,8.017,256,8.017
	c-37.781,0-68.409,30.628-68.409,68.409v17.102c0,37.781,30.628,68.409,68.409,68.409c7.473,0,14.647-1.24,21.378-3.455
	C250.076,149.5,230.347,123.837,230.347,93.528z"/>
<path style="fill:#EFF3FB;" d="M256,50.772c26.422,0,50.368,8.462,68.234,22.167C322.406,36.789,292.604,8.017,256,8.017
	s-66.405,28.771-68.233,64.922C205.632,59.234,229.577,50.772,256,50.772z"/>
<path style="fill:#E4EAF8;" d="M234.753,52.642c7.226-19.391,22.883-34.674,42.625-41.171C270.647,9.257,263.473,8.017,256,8.017
	c-36.604,0-66.405,28.771-68.233,64.922C200.701,63.017,216.79,55.826,234.753,52.642z"/>
<path style="fill:#EFF3FB;" d="M281.653,290.205h-51.307c-4.722,0-8.551-3.829-8.551-8.551v-76.96c0-4.722,3.829-8.551,8.551-8.551
	h51.307c4.722,0,8.551,3.829,8.551,8.551v76.96C290.205,286.376,286.376,290.205,281.653,290.205z"/>
<rect x="221.795" y="230.347" style="fill:#D5DCED;" width="68.409" height="25.653"/>
<g>
	<path style="fill:#959CB5;" d="M187.591,452.676v17.102h-8.551c-9.445,0-17.102,7.656-17.102,17.102v17.102h60.67
		c4.393,0,8.071-3.329,8.508-7.7l4.361-43.607H187.591z"/>
	<path style="fill:#959CB5;" d="M324.409,452.676v17.102h8.551c9.445,0,17.102,7.656,17.102,17.102v17.102h-60.67
		c-4.393,0-8.071-3.329-8.508-7.7l-4.361-43.607H324.409z"/>
</g>
<path d="M247.449,272.568h17.102c4.427,0,8.017-3.589,8.017-8.017c0-4.427-3.589-8.017-8.017-8.017h-17.102
	c-4.427,0-8.017,3.589-8.017,8.017C239.432,268.979,243.021,272.568,247.449,272.568z"/>
<path d="M392.284,307.311v-0.004c0-0.282-0.015-0.56-0.044-0.834c0-0.002,0-0.003,0-0.005L377.443,165.9
	c-0.96-9.119-4.86-17.479-10.813-24.012V42.221c0-13.851-11.268-25.119-25.119-25.119h-37.397C290.967,6.419,274.223,0,256,0
	s-34.967,6.419-48.114,17.102h-37.397c-13.851,0-25.119,11.268-25.119,25.119v99.667c-5.953,6.533-9.853,14.894-10.813,24.012
	L119.76,306.468c0,0.002,0,0.003,0,0.005c-0.029,0.275-0.044,0.553-0.044,0.834v0.004c0,0.002,0,0.003,0,0.005v34.195
	c0,13.851,11.268,25.119,25.119,25.119h17.102c4.427,0,8.017-3.589,8.017-8.017v-50.233l9.62-35.273v188.654h-0.534
	c-13.851,0-25.119,11.268-25.119,25.119v17.102c0,4.428,3.589,8.017,8.017,8.017h60.67c8.548,0,15.635-6.414,16.486-14.92
	l15.482-154.813c0.074-0.735,0.686-1.29,1.425-1.29s1.351,0.555,1.425,1.29l15.482,154.813c0.85,8.505,7.938,14.92,16.486,14.92
	h60.67c4.427,0,8.017-3.588,8.017-8.017v-17.102c0-13.851-11.268-25.119-25.119-25.119h-0.534V273.108l9.62,35.273v50.233
	c0,4.427,3.589,8.017,8.017,8.017h17.102c13.851,0,25.119-11.268,25.119-25.119v-34.195
	C392.284,307.314,392.284,307.313,392.284,307.311z M375.362,299.29h-19.176l-2.807-10.291l20.191-6.731L375.362,299.29z
	 M316.401,213.244h-0.009v60.392h-18.171v-68.944c0-1.717-0.263-3.373-0.75-4.932l40.216-56.302l6.049,2.016
	c6.861,2.287,12.355,7.286,15.369,13.612l-40.853,49.024C317.036,209.569,316.402,211.391,316.401,213.244z M274.24,349.276
	l42.153-20.583v56.108h-38.601L274.24,349.276z M279.396,400.835h36.997v43.825h-32.614L279.396,400.835z M195.608,273.637v-60.392
	h-0.009c0-1.853-0.634-3.675-1.849-5.132l-40.853-49.024c3.013-6.327,8.506-11.326,15.369-13.612l6.049-2.016l40.216,56.302
	c-0.487,1.558-0.75,3.215-0.75,4.932v68.943H195.608z M234.208,384.802h-38.601v-56.108l42.153,20.582L234.208,384.802z
	 M228.222,444.66h-32.614v-43.825h36.997L228.222,444.66z M161.403,67.34h18.73c-0.355,2.982-0.559,6.009-0.559,9.086v17.102
	c0,10.385,2.091,20.289,5.859,29.324l-22.238,7.413c-0.608,0.203-1.197,0.443-1.791,0.671V67.34z M350.597,130.936
	c-0.594-0.229-1.183-0.468-1.791-0.671l-22.238-7.413c3.768-9.035,5.859-18.939,5.859-29.324V76.426
	c0-3.076-0.204-6.103-0.559-9.086h18.73V130.936z M318.712,137.135l3.061,1.02l-36.067,50.492c-1.3-0.328-2.652-0.522-4.052-0.522
	h-51.307c-1.4,0-2.753,0.193-4.052,0.523l-36.067-50.492l3.061-1.02c13.821,19.816,36.769,32.818,62.71,32.818
	S304.889,156.952,318.712,137.135z M282.188,222.33h-52.376v-17.637c0-0.295,0.239-0.534,0.534-0.534h51.307
	c0.295,0,0.534,0.239,0.534,0.534V222.33z M229.812,238.363h52.376v43.29c0,0.295-0.239,0.534-0.534,0.534h-51.307
	c-0.295,0-0.534-0.239-0.534-0.534V238.363z M350.597,42.221v9.086h-22.433c-2.269-6.5-5.385-12.601-9.228-18.171h22.575
	C346.521,33.136,350.597,37.211,350.597,42.221z M313.309,57.415c-6.475-3.658-13.428-6.721-20.685-9.037
	c-4.219-1.348-8.729,0.981-10.075,5.198c-1.347,4.218,0.98,8.729,5.198,10.075c10.614,3.389,20.446,8.583,28.645,15.063v14.815
	c0,33.3-27.092,60.392-60.392,60.392s-60.391-27.092-60.391-60.392V78.707C211.819,65.856,233.144,58.789,256,58.789
	c4.427,0,8.017-3.589,8.017-8.017s-3.589-8.017-8.017-8.017c-20.763,0-40.531,5.096-57.281,14.577
	c8.01-23.969,30.653-41.299,57.281-41.299C282.658,16.033,305.323,33.403,313.309,57.415z M170.489,33.136h22.575
	c-3.843,5.57-6.96,11.671-9.228,18.171h-22.433v-9.086C161.403,37.211,165.479,33.136,170.489,33.136z M155.814,299.29h-19.176
	l1.791-17.022l20.191,6.731L155.814,299.29z M144.835,350.597c-5.01,0-9.086-4.076-9.086-9.086v-26.188h18.171v35.273H144.835z
	 M162.846,273.506l-22.698-7.566l9.075-86.215l29.534,35.441L162.846,273.506z M222.608,495.967h-52.654v-9.086
	c0-5.01,4.076-9.086,9.086-9.086h8.551c4.427,0,8.017-3.589,8.017-8.017v-9.086h31.011l-3.479,34.792
	C223.112,495.76,222.884,495.967,222.608,495.967z M256,324.944c-6.22,0-11.704,3.224-14.801,8.168l-45.592-22.261V289.67h20.25
	c2.829,5.093,8.26,8.551,14.489,8.551h51.307c6.228,0,11.659-3.458,14.489-8.551h20.25v21.181l-45.592,22.261
	C267.704,328.167,262.22,324.944,256,324.944z M332.96,477.795c5.01,0,9.086,4.076,9.086,9.086v9.086h-52.654
	c-0.276,0-0.505-0.206-0.531-0.481l-3.479-34.792h31.011v9.086c0,4.427,3.589,8.017,8.017,8.017H332.96z M362.777,179.726
	l9.075,86.215l-22.698,7.566l-15.91-58.339L362.777,179.726z M367.165,350.597h-9.086v-35.273h18.171v26.188
	C376.251,346.521,372.175,350.597,367.165,350.597z"/>
<g>
</g>
<g>
</g>
<g>
</g>
<g>
</g>
<g>
</g>
<g>
</g>
<g>
</g>
<g>
</g>
<g>
</g>
<g>
</g>
<g>
</g>
<g>
</g>
<g>
</g>
<g>
</g>
<g>
</g>
</svg>
