<?xml version="1.0" encoding="iso-8859-1"?>
<!-- Generator: Adobe Illustrator 19.0.0, SVG Export Plug-In . SVG Version: 6.00 Build 0)  -->
<svg version="1.1" id="Layer_1" xmlns="http://www.w3.org/2000/svg" xmlns:xlink="http://www.w3.org/1999/xlink" x="0px" y="0px"
	 viewBox="0 0 512 512" style="enable-background:new 0 0 512 512;" xml:space="preserve">
<circle style="fill:#D7C8AA;" cx="79.138" cy="79.116" r="35.389"/>
<path style="fill:#5AC3FF;" d="M404.214,229.945c14.418,81.789-40.18,159.784-121.946,174.206
	c-81.766,14.422-159.739-40.191-174.157-121.98s40.18-159.784,121.946-174.206S389.796,148.155,404.214,229.945z"/>
<path style="fill:#A5FF7D;" d="M404.213,229.945c-13.203-74.909-79.746-126.848-153.662-124.006L228.8,153.946l16.957,6.267
	l14.662-11.766l8.969,11.347l-2.486,17.614l-23.34,3.458l-22.135,10.313l-4.893,19.319c-0.608,2.571-3.053,4.273-5.675,3.954
	l-12.152-1.889c-4.156-0.646-8.19,1.723-9.653,5.666l-2.586,6.968c-1.814,4.888,0.972,10.276,6.009,11.624l18.664,4.992l7.888-25.29
	l34.689-9.938l25.583,13.717l36.218,2.58l1.825,10.503c1.219,6.095-3.157,11.885-9.354,12.376l-26.199,2.075
	c-2.987,0.237-4.992,3.173-4.123,6.04c1.105,3.645-2.363,7.019-5.976,5.815l-19.572-6.524c-2.604-0.868-4.51-3.113-4.944-5.824
	l-0.004-0.036c-0.583-3.642-3.769-6.29-7.456-6.2l-28.574,0.706l-16.539,7.278c-3.102,1.365-5.151,4.383-5.277,7.77l-0.227,6.132
	l-18.613,21.272c-1.654,1.891-2.566,4.319-2.566,6.831v22.779c0,4.221,1.715,8.262,4.752,11.195l16.346,15.782
	c2.568,2.481,5.912,4.002,9.47,4.309l54.582,4.712l-0.979,7.83c-0.463,3.709,1.104,7.381,4.103,9.611l12.003,8.926l-1.855,5.976
	c-1.234,3.977,0.028,8.305,3.206,10.994l12.608,10.954c0.036-0.007,0.071-0.007,0.108-0.013c12.849-2.266,24.93-6.262,36.277-11.436
	l26.134-30.49l26.542-70.778h-8.847l17.694-44.236v-8.847l24.583-4.917C404.473,232.277,404.421,231.117,404.213,229.945z"/>
<path style="fill:#46A2DE;" d="M315.196,363.444c-74.131,0-134.227-60.112-134.227-134.265c0-55.318,33.454-102.808,81.221-123.371
	c-2.011-0.08-4.023-0.153-6.054-0.153c-83.027,0-150.334,67.326-150.334,150.376c0,83.051,67.306,150.376,150.334,150.376
	c47.353,0,89.567-21.92,117.123-56.146C355.688,358.71,335.995,363.444,315.196,363.444z"/>
<path style="fill:#91E178;" d="M315.196,363.444c-61.241,0-112.864-41.039-128.979-97.112l-15.641,17.881
	c-1.653,1.89-2.566,4.317-2.566,6.829v22.773c0,4.22,1.714,8.259,4.75,11.191l16.339,15.779c2.567,2.479,5.909,4,9.463,4.306
	l54.552,4.711l-0.979,7.828c-0.463,3.708,1.104,7.379,4.101,9.609l11.997,8.924l-1.853,5.975c-1.233,3.975,0.029,8.302,3.205,10.99
	l12.736,11.002c0.751-0.132,1.483-0.313,2.229-0.456c2.192-0.421,4.377-0.855,6.527-1.367c1.27-0.303,2.517-0.664,3.773-0.999
	c1.596-0.424,3.194-0.843,4.764-1.315c1.559-0.471,3.095-0.992,4.633-1.512c1.172-0.395,2.347-0.786,3.505-1.208
	c1.798-0.658,3.577-1.358,5.341-2.082c0.802-0.327,1.601-0.656,2.395-0.996c0.991-0.427,1.96-0.892,2.939-1.34l19.704-23.659
	c2.285-2.729,4.164-5.748,5.839-8.88C334.698,362.343,325.078,363.444,315.196,363.444z"/>
<path d="M347.157,126.089c-34.728-24.317-76.848-33.655-118.596-26.292c-86.186,15.197-143.94,97.678-128.744,183.864
	c7.362,41.75,30.542,78.134,65.269,102.451c26.984,18.894,58.428,28.746,90.698,28.745c9.26,0,18.589-0.811,27.898-2.453
	c86.186-15.197,143.94-97.678,128.744-183.864C405.063,186.79,381.883,150.406,347.157,126.089z M395.172,226.734l-33.824,6.575
	l-5.551-6.573c-2.956-3.5-8.189-3.94-11.688-0.986c-3.5,2.956-3.941,8.188-0.986,11.688l12.32,14.588
	c1.491,1.765,3.649,2.829,5.959,2.934c2.293,0.102,4.555-0.758,6.201-2.379l2.667-2.628l1.824,1.265l-16.8,33.351
	c-0.593-0.021-1.159-0.28-1.539-0.744c-0.038-0.045-0.075-0.091-0.114-0.136l-18.826-21.969c-2.98-3.479-8.217-3.882-11.695-0.901
	c-3.478,2.982-3.882,8.217-0.9,11.696l18.777,21.911c3.851,4.639,9.724,7.141,15.746,6.696l4.307-0.318l-22.69,52.47
	c-1.669,3.86-3.884,7.45-6.581,10.674l-18.746,22.396c-8.962,3.917-18.452,6.959-28.389,8.991l-9.734-8.456
	c-0.638-0.54-0.89-1.406-0.643-2.204l1.855-5.976c1.043-3.362-0.148-7.015-2.973-9.115l-12.003-8.926
	c-0.599-0.446-0.916-1.183-0.823-1.926l0.979-7.83c0.28-2.237-0.364-4.492-1.782-6.245s-3.489-2.853-5.735-3.047l-54.582-4.712
	c-1.657-0.143-3.227-0.857-4.424-2.012l-16.346-15.782c-1.41-1.361-2.22-3.268-2.22-5.228v-22.779c0-0.504,0.182-0.991,0.514-1.369
	l18.613-21.272c1.254-1.433,1.976-3.252,2.047-5.156l0.227-6.13c0.008-0.21,0.138-0.401,0.331-0.487l15.04-6.618l26.145-0.645
	c1.145,5.437,5.058,9.847,10.369,11.618l19.572,6.524c4.626,1.543,9.671,0.387,13.165-3.012c2.421-2.357,3.785-5.485,3.925-8.737
	l22.486-1.781c5.314-0.421,10.205-3.102,13.419-7.354c3.189-4.22,4.439-9.608,3.436-14.798l-1.808-10.414
	c-0.652-3.756-3.78-6.583-7.582-6.853l-34.451-2.455l-24.021-12.879c-1.903-1.021-4.129-1.259-6.203-0.665l-25.159,7.208
	l2.225-8.785l17.47-8.139l22.148-3.281c3.636-0.539,6.484-3.406,6.997-7.046l2.486-17.615c0.317-2.245-0.3-4.523-1.705-6.303
	l-8.969-11.347c-1.371-1.734-3.377-2.849-5.574-3.098c-2.195-0.249-4.4,0.389-6.124,1.773l-11,8.827l-3.447-1.274l17.071-30.464
	l8.773-0.762l21.604,21.276c3.263,3.214,8.514,3.174,11.729-0.09c3.214-3.264,3.174-8.515-0.09-11.729l-9.823-9.674
	C341.535,130.824,383.634,171.985,395.172,226.734z M208.486,222.475l-2.89,9.266l-10.974-2.934
	c-0.065-0.018-0.237-0.064-0.348-0.281c-0.113-0.217-0.051-0.384-0.028-0.446l2.585-6.968c0.081-0.218,0.292-0.361,0.519-0.361
	c0.028,0,0.056,0.002,0.084,0.007L208.486,222.475z M248.069,216.831l5.024,17.22c1.057,3.622,4.366,5.973,7.958,5.973
	c0.769,0,1.552-0.108,2.327-0.334c4.398-1.283,6.922-5.888,5.639-10.286l-1.802-6.173l8.167,4.378c1.03,0.553,2.164,0.88,3.33,0.963
	l29.747,2.12l0.714,4.11c0.012,0.07,0.024,0.138,0.039,0.207c0.152,0.758-0.123,1.322-0.38,1.662
	c-0.258,0.341-0.724,0.759-1.495,0.819l-26.2,2.075c-3.939,0.312-7.476,2.363-9.703,5.627c-1.041,1.526-1.731,3.223-2.054,4.982
	l-14.111-4.703c-1.452-7.439-8.153-12.835-15.757-12.658l-17.007,0.42l3.111-9.972L248.069,216.831z M116.155,280.781
	c-13.609-77.178,38.108-151.038,115.287-164.647c3.279-0.578,6.55-1.034,9.812-1.379l-19.69,35.137
	c-1.186,2.116-1.386,4.646-0.547,6.922c0.839,2.277,2.632,4.072,4.908,4.912l16.957,6.266c2.732,1.011,5.795,0.512,8.065-1.311
	l8.146-6.537l1.586,2.005l-1.124,7.96l-17.21,2.549c-0.792,0.117-1.563,0.348-2.287,0.687l-22.135,10.313
	c-2.259,1.053-3.926,3.066-4.538,5.482l-4.217,16.653l-9.189-1.428c-8.014-1.244-15.883,3.371-18.703,10.977l-2.585,6.968
	c-1.674,4.514-1.367,9.556,0.844,13.834c1.743,3.371,4.557,6.053,7.949,7.646c-3.835,3.076-6.263,7.738-6.449,12.762l-0.118,3.192
	l-16.676,19.057c-2.978,3.404-4.618,7.77-4.618,12.293v22.779c0,6.436,2.655,12.691,7.286,17.161l16.347,15.783
	c3.926,3.79,9.082,6.134,14.517,6.604l46.011,3.972c-0.55,6.415,2.267,12.712,7.46,16.573l7.29,5.421l-0.114,0.367
	c-2.022,6.515-0.325,13.515,4.238,18.325c-2.21,0.103-4.413,0.159-6.608,0.159C188.416,398.239,128.297,349.644,116.155,280.781z
	 M353.863,359.212l27.849-64.4c1.152-2.663,0.828-5.735-0.854-8.1c-1.477-2.076-3.812-3.341-6.32-3.474l13.585-26.97
	c1.829-3.632,1.841-7.78,0.341-11.332l9.19-1.786C401.755,287.631,384.567,330.016,353.863,359.212z"/>
<path d="M140.046,45.433c1.309,0,2.639-0.311,3.876-0.968c5.054-2.677,10.272-5.203,15.507-7.509
	c4.192-1.846,6.095-6.74,4.249-10.933c-1.846-4.192-6.742-6.096-10.933-4.25c-5.601,2.466-11.183,5.169-16.59,8.034
	c-4.048,2.144-5.59,7.165-3.446,11.212C134.199,43.83,137.072,45.433,140.046,45.433z"/>
<path d="M25.907,164.045c1.087,0.479,2.222,0.706,3.338,0.706c3.188,0,6.228-1.849,7.595-4.953
	c2.305-5.234,4.831-10.455,7.508-15.516c2.142-4.05,0.596-9.068-3.454-11.211c-4.05-2.143-9.067-0.596-11.211,3.454
	c-2.862,5.411-5.563,10.992-8.027,16.589C19.812,157.305,21.714,162.199,25.907,164.045z"/>
<path d="M33.503,344.481c-1.685-4.26-6.503-6.345-10.765-4.66c-4.26,1.686-6.346,6.506-4.659,10.765
	c2.254,5.692,4.742,11.371,7.397,16.878c1.43,2.965,4.392,4.693,7.477,4.693c1.208,0,2.435-0.265,3.596-0.825
	c4.126-1.99,5.858-6.947,3.87-11.075C37.937,355.112,35.61,349.803,33.503,344.481z"/>
<path d="M8.522,268.857c4.58-0.09,8.221-3.873,8.132-8.454c-0.03-1.533-0.044-3.062-0.044-4.593c0-4.198,0.113-8.451,0.335-12.642
	c0.243-4.574-3.268-8.479-7.842-8.722c-4.567-0.24-8.479,3.268-8.722,7.842c-0.238,4.482-0.359,9.032-0.359,13.52
	c0,1.636,0.015,3.276,0.046,4.917c0.087,4.525,3.783,8.133,8.29,8.133C8.411,268.859,8.466,268.858,8.522,268.857z"/>
<path d="M11.497,215.501c0.551,0.111,1.1,0.164,1.641,0.164c3.871,0,7.332-2.723,8.124-6.663c1.125-5.604,2.471-11.243,4.001-16.761
	c1.224-4.414-1.361-8.985-5.776-10.209c-4.417-1.225-8.985,1.361-10.209,5.776c-1.637,5.902-3.078,11.935-4.281,17.929
	C4.095,210.228,7.004,214.599,11.497,215.501z"/>
<path d="M23.169,311.629c-1.089-4.591-2.059-9.282-2.881-13.945c-0.174-0.988-0.343-1.974-0.503-2.962
	c-0.739-4.521-5.005-7.588-9.523-6.848c-4.521,0.739-7.586,5.002-6.848,9.523c0.173,1.056,0.352,2.112,0.539,3.167
	c0.878,4.98,1.913,9.991,3.078,14.894c0.905,3.813,4.309,6.381,8.063,6.381c0.634,0,1.278-0.073,1.922-0.227
	C21.472,320.557,24.228,316.086,23.169,311.629z"/>
<path d="M482.625,178.255c1.849,5.405,3.528,10.953,4.99,16.492c0.981,3.72,4.34,6.181,8.014,6.181c0.7,0,1.412-0.09,2.121-0.276
	c4.429-1.168,7.073-5.706,5.904-10.136c-1.563-5.922-3.358-11.855-5.335-17.634c-1.483-4.333-6.199-6.645-10.533-5.161
	C483.453,169.205,481.142,173.922,482.625,178.255z"/>
<path d="M469.148,146.569c1.471,2.862,4.375,4.505,7.385,4.505c1.275,0,2.57-0.295,3.782-0.918
	c4.075-2.093,5.681-7.093,3.589-11.169c-2.792-5.436-5.821-10.841-9.003-16.063c-2.382-3.913-7.486-5.154-11.399-2.769
	c-3.913,2.382-5.152,7.486-2.769,11.399C463.707,136.436,466.538,141.488,469.148,146.569z"/>
<path d="M501.296,219.411c-4.55,0.53-7.809,4.648-7.279,9.199c0.664,5.698,1.129,11.478,1.382,17.185
	c0.198,4.45,3.868,7.926,8.28,7.926c0.124,0,0.249-0.002,0.374-0.008c4.576-0.203,8.122-4.079,7.918-8.654
	c-0.271-6.1-0.767-12.28-1.476-18.368C509.965,222.139,505.845,218.885,501.296,219.411z"/>
<path d="M344.139,33.354c5.32,2.108,10.632,4.438,15.787,6.923c1.161,0.56,2.388,0.825,3.595,0.825c3.085,0,6.048-1.729,7.477-4.695
	c1.99-4.126,0.257-9.084-3.87-11.073c-5.512-2.656-11.191-5.147-16.879-7.402c-4.259-1.689-9.078,0.396-10.766,4.655
	C337.797,26.847,339.88,31.666,344.139,33.354z"/>
<path d="M242.342,16.989c0.158,0,0.318-0.004,0.479-0.013c5.723-0.326,11.52-0.445,17.231-0.359c4.62,0.074,8.35-3.586,8.42-8.166
	s-3.586-8.351-8.166-8.42c-6.11-0.094-12.308,0.035-18.428,0.384c-4.573,0.26-8.07,4.178-7.81,8.752
	C234.319,13.579,237.977,16.989,242.342,16.989z"/>
<path d="M189.653,25.696c0.733,0,1.48-0.098,2.221-0.303c5.504-1.526,11.145-2.874,16.767-4.009c4.491-0.906,7.396-5.28,6.489-9.771
	c-0.906-4.49-5.276-7.396-9.771-6.489c-6.006,1.212-12.033,2.652-17.917,4.283c-4.415,1.223-7.001,5.794-5.777,10.209
	C182.683,23.288,186.018,25.696,189.653,25.696z"/>
<path d="M294.373,19.636c5.65,0.913,11.338,2.047,16.908,3.367c0.644,0.153,1.287,0.226,1.921,0.226
	c3.756,0,7.159-2.569,8.063-6.382c1.057-4.457-1.699-8.927-6.155-9.984c-5.959-1.413-12.043-2.625-18.087-3.603
	c-4.528-0.731-8.781,2.341-9.513,6.863C286.779,14.645,289.851,18.905,294.373,19.636z"/>
<path d="M297.7,491.934c-5.652,0.996-11.399,1.802-17.078,2.391c-4.556,0.473-7.866,4.551-7.393,9.107
	c0.443,4.264,4.044,7.437,8.24,7.437c0.286,0,0.576-0.014,0.867-0.045c6.069-0.63,12.207-1.491,18.245-2.555
	c4.511-0.795,7.523-5.097,6.728-9.608C306.514,494.152,302.214,491.137,297.7,491.934z"/>
<path d="M57.582,390.108c-2.565-3.795-7.721-4.792-11.517-2.228c-3.795,2.566-4.792,7.721-2.227,11.517
	c3.422,5.063,7.074,10.068,10.858,14.878c1.637,2.081,4.069,3.166,6.525,3.166c1.795,0,3.603-0.579,5.123-1.775
	c3.601-2.832,4.223-8.047,1.391-11.646C64.197,399.523,60.781,394.842,57.582,390.108z"/>
<path d="M431.551,419.128c-3.894,4.195-7.986,8.301-12.165,12.204c-3.349,3.126-3.528,8.374-0.403,11.724
	c1.633,1.75,3.846,2.633,6.064,2.633c2.027,0,4.06-0.739,5.659-2.232c4.468-4.171,8.844-8.561,13.004-13.045
	c3.116-3.358,2.92-8.606-0.438-11.721C439.915,415.574,434.666,415.771,431.551,419.128z"/>
<path d="M413.979,54.487c-4.817-3.769-9.833-7.412-14.905-10.827c-3.801-2.558-8.955-1.55-11.512,2.249
	c-2.558,3.8-1.55,8.954,2.249,11.512c4.747,3.195,9.439,6.603,13.947,10.13c1.517,1.187,3.318,1.763,5.105,1.763
	c2.464,0,4.902-1.093,6.538-3.184C418.223,62.522,417.588,57.309,413.979,54.487z"/>
<path d="M453.529,92.949c-3.899-4.709-8.021-9.337-12.251-13.756c-3.167-3.309-8.418-3.424-11.727-0.257s-3.424,8.417-0.257,11.727
	c3.956,4.133,7.811,8.461,11.457,12.865c1.64,1.982,4.008,3.005,6.393,3.005c1.863,0,3.738-0.625,5.285-1.905
	C455.959,101.706,456.451,96.477,453.529,92.949z"/>
<path d="M503.521,272.806c-4.562-0.459-8.624,2.864-9.083,7.422c-0.573,5.693-1.364,11.439-2.349,17.08
	c-0.789,4.512,2.231,8.81,6.743,9.598c0.483,0.084,0.963,0.125,1.438,0.125c3.955,0,7.457-2.838,8.16-6.868
	c1.054-6.035,1.9-12.183,2.513-18.274C511.401,277.333,508.079,273.265,503.521,272.806z"/>
<path d="M494.189,325.438c-4.352-1.431-9.039,0.937-10.47,5.288c-1.787,5.433-3.797,10.874-5.973,16.171
	c-1.741,4.238,0.283,9.083,4.52,10.825c1.032,0.424,2.099,0.624,3.15,0.624c3.263,0,6.358-1.939,7.675-5.144
	c2.327-5.664,4.476-11.483,6.387-17.293C500.907,331.557,498.541,326.869,494.189,325.438z"/>
<path d="M473.762,374.818c-3.946-2.328-9.031-1.019-11.359,2.926c-2.907,4.925-6.033,9.81-9.288,14.522
	c-2.604,3.768-1.661,8.935,2.107,11.539c1.44,0.994,3.082,1.472,4.709,1.472c2.632,0,5.221-1.25,6.83-3.579
	c3.48-5.035,6.82-10.257,9.929-15.521C479.016,382.232,477.706,377.146,473.762,374.818z"/>
<path d="M392.594,452.951c-4.698,3.261-9.572,6.39-14.49,9.301c-3.941,2.333-5.245,7.421-2.912,11.362
	c1.549,2.617,4.311,4.071,7.145,4.071c1.437,0,2.892-0.373,4.217-1.158c5.26-3.113,10.474-6.462,15.498-9.949
	c3.763-2.612,4.696-7.781,2.084-11.543C401.525,451.272,396.356,450.34,392.594,452.951z"/>
<path d="M347.282,477.599c-5.286,2.17-10.725,4.175-16.164,5.961c-4.353,1.429-6.723,6.116-5.294,10.467
	c1.147,3.494,4.393,5.709,7.88,5.709c0.857,0,1.73-0.134,2.589-0.416c5.817-1.91,11.633-4.054,17.287-6.376
	c4.238-1.738,6.264-6.585,4.524-10.822C356.366,477.885,351.521,475.859,347.282,477.599z"/>
<path d="M195.158,487.744c-5.531-1.46-11.081-3.141-16.498-4.998c-4.333-1.485-9.051,0.823-10.536,5.156
	c-1.485,4.333,0.823,9.051,5.157,10.536c5.794,1.986,11.73,3.784,17.646,5.345c0.71,0.187,1.421,0.276,2.121,0.276
	c3.674,0,7.032-2.461,8.014-6.18C202.231,493.451,199.588,488.912,195.158,487.744z"/>
<path d="M103.818,440.905c-4.417-3.637-8.759-7.48-12.904-11.424c-3.318-3.156-8.569-3.026-11.727,0.293
	c-3.157,3.319-3.026,8.57,0.293,11.726c4.431,4.216,9.072,8.323,13.794,12.211c1.545,1.272,3.412,1.891,5.267,1.891
	c2.393,0,4.769-1.032,6.408-3.022C107.862,449.044,107.355,443.816,103.818,440.905z"/>
<path d="M146.958,469.259c-5.089-2.61-10.151-5.441-15.046-8.413c-3.916-2.378-9.016-1.13-11.394,2.785
	c-2.378,3.916-1.13,9.016,2.785,11.395c5.231,3.176,10.643,6.202,16.082,8.994c1.212,0.622,2.505,0.916,3.779,0.916
	c3.011,0,5.918-1.646,7.386-4.51C152.642,476.349,151.033,471.35,146.958,469.259z"/>
<path d="M246.192,495.419c-5.714-0.231-11.494-0.676-17.176-1.32c-4.555-0.518-8.66,2.756-9.176,7.307
	c-0.516,4.552,2.755,8.66,7.307,9.176c6.079,0.69,12.261,1.165,18.375,1.412c0.115,0.004,0.228,0.007,0.342,0.007
	c4.426,0,8.101-3.497,8.281-7.959C254.331,499.464,250.77,495.604,246.192,495.419z"/>
<path d="M49.396,105.002c-2.703,3.698-1.894,8.887,1.804,11.59c1.476,1.078,3.188,1.598,4.887,1.598
	c2.557,0,5.079-1.179,6.704-3.402c0.884-1.209,1.788-2.42,2.704-3.624c4.191,1.792,8.802,2.785,13.641,2.785
	c19.208,0,34.836-15.628,34.836-34.836c0-4.857-1.002-9.484-2.807-13.689c1.186-0.902,2.379-1.796,3.572-2.67
	c3.696-2.706,4.498-7.897,1.792-11.592c-2.706-3.695-7.897-4.498-11.592-1.792c-1.251,0.917-2.503,1.852-3.747,2.799
	c-6.011-4.929-13.692-7.893-22.054-7.893c-19.208,0-34.836,15.628-34.836,34.836c0,8.381,2.976,16.079,7.925,22.095
	C51.266,102.47,50.319,103.737,49.396,105.002z M79.135,60.865c10.062,0,18.247,8.186,18.247,18.247
	c0,10.063-8.186,18.247-18.247,18.247s-18.247-8.185-18.247-18.247C60.887,69.052,69.073,60.865,79.135,60.865z"/>
<g>
</g>
<g>
</g>
<g>
</g>
<g>
</g>
<g>
</g>
<g>
</g>
<g>
</g>
<g>
</g>
<g>
</g>
<g>
</g>
<g>
</g>
<g>
</g>
<g>
</g>
<g>
</g>
<g>
</g>
</svg>
