<?xml version="1.0" encoding="iso-8859-1"?>
<!-- Generator: Adobe Illustrator 19.0.0, SVG Export Plug-In . SVG Version: 6.00 Build 0)  -->
<svg version="1.1" id="Layer_1" xmlns="http://www.w3.org/2000/svg" xmlns:xlink="http://www.w3.org/1999/xlink" x="0px" y="0px"
	 viewBox="0 0 512.001 512.001" style="enable-background:new 0 0 512.001 512.001;" xml:space="preserve">
<rect x="234.92" y="187.589" style="fill:#464655;" width="34.204" height="85.511"/>
<rect x="226.369" y="264.549" style="fill:#959CB5;" width="51.306" height="34.204"/>
<polygon style="fill:#AFB9D2;" points="303.332,332.959 200.72,332.959 209.271,298.755 294.781,298.755 "/>
<rect x="189.731" y="121.997" transform="matrix(-0.866 0.5 -0.5 -0.866 619.3417 129.3421)" style="fill:#5B5D6E;" width="205.221" height="51.305"/>
<g>
	<path style="fill:#464655;" d="M491.456,82.073l-81.46,47.031c-4.09,2.361-9.32,0.96-11.681-3.13L364.111,66.73
		c-2.361-4.09-0.96-9.32,3.13-11.681l81.46-47.031L491.456,82.073z"/>
	<path style="fill:#464655;" d="M194.932,184.154L73.531,254.245l-44.133-11.825l-8.853,33.039L68.1,288.201
		c6.572,1.76,13.574,0.839,19.467-2.563l124.467-71.861L194.932,184.154z"/>
	
		<rect x="82.923" y="128.04" transform="matrix(-0.866 0.5 -0.5 -0.866 339.0004 199.4459)" style="fill:#464655;" width="119.712" height="34.204"/>
</g>
<g>
	<path style="fill:#5B5D6E;" d="M83.846,248.289l-10.315,5.956l-44.133-11.825l-8.853,33.039L68.1,288.201
		c6.572,1.76,13.574,0.839,19.467-2.563l13.382-7.726L83.846,248.289z"/>
	
		<rect x="162.712" y="106.657" transform="matrix(-0.5 -0.866 0.866 -0.5 162.5457 341.3622)" style="fill:#5B5D6E;" width="34.204" height="34.204"/>
</g>
<path d="M498.399,78.065L455.643,4.01c-2.214-3.835-7.117-5.149-10.951-2.934l-81.46,47.031c-3.832,2.213-6.574,5.786-7.72,10.06
	c-1.146,4.274-0.558,8.739,1.655,12.572l0.267,0.463l-170.789,98.605c-3.834,2.214-5.148,7.117-2.934,10.951l0.267,0.463
	l-15.737,9.086l-13.361-23.142l52.302-30.196c3.834-2.214,5.148-7.117,2.934-10.951l-17.102-29.622
	c-2.214-3.834-7.117-5.148-10.951-2.934L78.388,153.318c-3.834,2.214-5.148,7.117-2.934,10.951l17.102,29.622
	c1.485,2.572,4.179,4.009,6.95,4.009c1.36,0,2.738-0.346,4.001-1.075l37.49-21.645l13.361,23.142l-81.96,47.32l-40.925-10.967
	c-2.054-0.55-4.242-0.262-6.083,0.802c-1.842,1.064-3.184,2.814-3.736,4.868l-8.853,33.039c-1.146,4.277,1.392,8.672,5.668,9.819
	l47.555,12.742c2.9,0.777,5.844,1.162,8.768,1.161c5.834,0,11.593-1.531,16.781-4.526l117.525-67.853l0.267,0.463
	c1.064,1.842,2.814,3.184,4.868,3.736c0.682,0.183,1.38,0.273,2.075,0.273c1.395,0,2.779-0.364,4.008-1.074l6.591-3.805v32.215
	h-0.534c-4.427,0-8.017,3.589-8.017,8.017v26.188h-2.922c-7.143,0-13.459,4.552-15.718,11.329l-66.459,199.378
	c-1.4,4.201,0.87,8.741,5.071,10.141c4.201,1.402,8.739-0.869,10.141-5.07l66.459-199.379c0.073-0.219,0.277-0.366,0.508-0.366
	h28.576v18.171h-17.637c-4.427,0-8.017,3.589-8.017,8.017c0,4.427,3.589,8.017,8.017,8.017h17.637v163.005
	c0,4.428,3.589,8.017,8.017,8.017s8.017-3.588,8.017-8.017V340.976h17.637c4.427,0,8.017-3.589,8.017-8.017
	c0-4.427-3.589-8.017-8.017-8.017h-17.637v-18.171h28.576c0.23,0,0.434,0.146,0.507,0.366l66.46,199.379
	c1.12,3.36,4.248,5.483,7.604,5.483c0.84,0,1.695-0.134,2.536-0.414c4.201-1.4,6.47-5.941,5.071-10.141l-66.461-199.379
	c-2.259-6.776-8.575-11.329-15.718-11.329h-2.922V264.55c0-4.427-3.589-8.017-8.017-8.017h-0.534v-61.219l113.96-65.795l0.267,0.463
	c2.213,3.832,5.786,6.574,10.06,7.719c1.427,0.383,2.875,0.572,4.315,0.572c2.871,0,5.704-0.752,8.257-2.226l81.46-47.031
	C499.3,86.802,500.613,81.899,498.399,78.065z M183.14,111.353l9.086,15.737l-15.737,9.086l-9.086-15.737L183.14,111.353z
	 M102.433,178.931l-9.086-15.737l60.17-34.739l9.086,15.737L102.433,178.931z M103.886,266.958l-9.086-15.737l67.575-39.014
	l9.086,15.737L103.886,266.958z M70.175,280.457l-39.812-10.667l4.703-17.552l36.39,9.751c2.052,0.549,4.242,0.262,6.083-0.802
	l3.376-1.95L90,274.975l-6.443,3.72C79.477,281.049,74.723,281.674,70.175,280.457z M185.346,219.927l-9.086-15.737l15.737-9.086
	l9.086,15.737L185.346,219.927z M219.243,210.23l-0.267-0.462v-0.001l0,0l-17.369-30.085l134.224-77.494l17.637,30.548
	L219.243,210.23z M234.389,290.738v-18.171h35.273v18.171H234.389z M261.112,256.534h-18.171v-41.472l18.171-10.491V256.534z
	 M383.089,115.634l-15.737,9.086l-17.637-30.548l15.737-9.086L383.089,115.634z M405.988,122.161
	c-0.046,0.027-0.192,0.11-0.405,0.053c-0.214-0.058-0.297-0.201-0.325-0.249l-34.204-59.244c-0.027-0.047-0.111-0.191-0.053-0.405
	c0.058-0.214,0.201-0.297,0.249-0.325l74.517-43.023l34.739,60.17L405.988,122.161z"/>
<g>
</g>
<g>
</g>
<g>
</g>
<g>
</g>
<g>
</g>
<g>
</g>
<g>
</g>
<g>
</g>
<g>
</g>
<g>
</g>
<g>
</g>
<g>
</g>
<g>
</g>
<g>
</g>
<g>
</g>
</svg>
