<?xml version="1.0" encoding="iso-8859-1"?>
<!-- Generator: Adobe Illustrator 19.0.0, SVG Export Plug-In . SVG Version: 6.00 Build 0)  -->
<svg version="1.1" id="Layer_1" xmlns="http://www.w3.org/2000/svg" xmlns:xlink="http://www.w3.org/1999/xlink" x="0px" y="0px"
	 viewBox="0 0 512 512" style="enable-background:new 0 0 512 512;" xml:space="preserve">
<circle style="fill:#D2B98C;" cx="256" cy="256" r="247.706"/>
<g>
	<path style="fill:#C0A27A;" d="M282.54,371.006v79.62h126.591c27.301-21.511,49.96-48.615,66.248-79.62H282.54z"/>
	<path style="fill:#C0A27A;" d="M353.313,432.933c-122.147,0-221.166-99.019-221.166-221.166
		c0-91.123,55.121-169.349,133.828-203.221c-3.313-0.132-6.629-0.252-9.975-0.252C119.195,8.294,8.294,119.195,8.294,256
		c0,136.804,110.902,247.706,247.706,247.706c78.023,0,147.58-36.108,192.984-92.485
		C420.031,425.134,387.583,432.933,353.313,432.933z"/>
</g>
<g>
	<path style="fill:#B7946F;" d="M282.54,421.296v29.33h126.562c14.722-11.605,28.126-24.808,39.882-39.405
		c-28.953,13.912-61.401,21.712-95.671,21.712C328.551,432.933,304.768,428.803,282.54,421.296z"/>
	<path style="fill:#B7946F;" d="M21.446,335.62h148.613c-7.523-11.11-14.025-22.96-19.456-35.387H12.31
		C14.497,312.361,17.563,324.174,21.446,335.62z"/>
</g>
<path style="fill:#AF8764;" d="M170.176,335.62H21.463c17.176,50.629,50.251,93.902,93.329,123.853H256v-49.081
	C221.265,393.342,191.717,367.417,170.176,335.62z"/>
<path style="fill:#D7C8AA;" d="M208.217,441.78H92.245c43.66,38.514,100.958,61.927,163.755,61.927s120.094-23.413,163.755-61.927
	H303.783c-8.656,0-12.082-11.025-5.054-16.079c43.694-31.412,81.124-77.743,81.124-117.982c0-38.336-32.506-69.412-72.603-69.412
	c-17.469,0-33.495,5.901-46.021,15.73c-3.05,2.393-7.407,2.393-10.457,0c-12.527-9.829-28.551-15.73-46.021-15.73
	c-40.099,0-72.603,31.077-72.603,69.412c0,40.239,37.43,86.57,81.124,117.982C220.298,430.755,216.873,441.78,208.217,441.78z"/>
<path style="fill:#C8B696;" d="M208.217,441.78H92.245c43.66,38.514,100.958,61.927,163.755,61.927
	c62.788,0,120.068-23.414,163.714-61.927H303.783c-8.481,0-11.876-10.55-5.403-15.732
	c-75.466-19.289-135.348-77.408-157.224-151.803c-5.73,9.929-9.009,21.332-9.009,33.474c0,40.239,37.43,86.57,81.124,117.982
	C220.298,430.755,216.873,441.78,208.217,441.78z"/>
<path style="fill:#D7C8AA;" d="M52.768,114.454h406.464C414.467,50.301,340.159,8.294,256,8.294S97.533,50.301,52.768,114.454z"/>
<path style="fill:#C8B696;" d="M265.975,8.546c-3.313-0.132-6.629-0.252-9.975-0.252c-84.159,0-158.467,42.007-203.232,106.16
	h101.967C177.938,67.216,217.444,29.432,265.975,8.546z"/>
<path d="M437.019,74.981C388.668,26.628,324.38,0,256,0S123.332,26.628,74.981,74.981C26.628,123.332,0,187.62,0,256
	s26.628,132.668,74.981,181.019S187.62,512,256,512s132.668-26.628,181.019-74.981S512,324.38,512,256
	S485.372,123.332,437.019,74.981z M86.709,86.709C131.929,41.491,192.051,16.587,256,16.587s124.071,24.903,169.291,70.122
	c45.219,45.22,70.122,105.342,70.122,169.291c0,24.549-3.684,48.53-10.764,71.326H441.78c-4.58,0-8.294,3.713-8.294,8.294
	s3.713,8.294,8.294,8.294h37.031c-2.517,6.382-5.305,12.655-8.37,18.799h-99.988c11.605-19.184,17.694-37.988,17.694-54.994
	c0-42.848-36.29-77.706-80.897-77.706c-18.597,0-36.759,6.215-51.141,17.499c-0.044,0.035-0.173,0.035-0.217,0
	c-14.382-11.284-32.545-17.499-51.141-17.499c-44.607,0-80.897,34.858-80.897,77.706c0,6.312,0.845,12.873,2.49,19.607H27.352
	C20.271,304.53,16.587,280.549,16.587,256C16.587,192.051,41.491,131.929,86.709,86.709z M33.189,343.914h98.699
	c4.269,10.147,10.191,20.54,17.709,30.959c14.76,20.456,35.652,40.899,58.831,57.563c0.215,0.154,0.417,0.3,0.279,0.731
	c-0.102,0.32-0.2,0.32-0.49,0.32H95.313c-2.924-2.653-5.792-5.384-8.603-8.195C63.119,401.699,45.07,374.045,33.189,343.914z
	 M115.745,450.073h92.472c7.576,0,13.966-4.64,16.279-11.82c2.336-7.249-0.17-14.818-6.384-19.286
	c-47.184-33.921-77.671-77.59-77.671-111.249c0-33.7,28.849-61.118,64.31-61.118c14.901,0,29.427,4.959,40.901,13.961
	c6.093,4.78,14.602,4.78,20.697,0c11.474-9.003,26-13.961,40.901-13.961c35.461,0,64.31,27.418,64.31,61.118
	c0,33.659-30.488,77.327-77.671,111.249c-6.213,4.468-8.718,12.037-6.383,19.286c2.313,7.18,8.703,11.82,16.279,11.82h92.472
	c-40.551,29.436-89.178,45.339-140.255,45.339S156.296,479.51,115.745,450.073z M425.291,425.291
	c-2.811,2.811-5.68,5.542-8.603,8.195H303.783c-0.291,0-0.388,0-0.491-0.32c-0.138-0.43,0.064-0.576,0.279-0.731
	c21.506-15.462,41.035-34.177,55.533-53.135h102.223C451.353,395.84,439.299,411.282,425.291,425.291z"/>
<path d="M52.527,308.527H96.76c4.58,0,8.294-3.713,8.294-8.294s-3.713-8.294-8.294-8.294H52.527c-4.58,0-8.294,3.713-8.294,8.294
	S47.947,308.527,52.527,308.527z"/>
<path d="M388.7,398.099h-17.693c-4.58,0-8.294,3.713-8.294,8.294s3.713,8.294,8.294,8.294H388.7c4.58,0,8.294-3.713,8.294-8.294
	S393.28,398.099,388.7,398.099z"/>
<g>
</g>
<g>
</g>
<g>
</g>
<g>
</g>
<g>
</g>
<g>
</g>
<g>
</g>
<g>
</g>
<g>
</g>
<g>
</g>
<g>
</g>
<g>
</g>
<g>
</g>
<g>
</g>
<g>
</g>
</svg>
