<?xml version="1.0" encoding="iso-8859-1"?>
<!-- Generator: Adobe Illustrator 19.0.0, SVG Export Plug-In . SVG Version: 6.00 Build 0)  -->
<svg version="1.1" id="Layer_1" xmlns="http://www.w3.org/2000/svg" xmlns:xlink="http://www.w3.org/1999/xlink" x="0px" y="0px"
	 viewBox="0 0 512 512" style="enable-background:new 0 0 512 512;" xml:space="preserve">
<circle style="fill:#7DD7FF;" cx="221.795" cy="486.881" r="17.102"/>
<g>
	<circle style="fill:#B1E6FF;" cx="67.875" cy="307.307" r="25.653"/>
	<circle style="fill:#B1E6FF;" cx="409.921" cy="136.284" r="25.653"/>
</g>
<g>
	<circle style="fill:#7DD7FF;" cx="196.142" cy="25.119" r="17.102"/>
	<circle style="fill:#7DD7FF;" cx="452.676" cy="350.063" r="17.102"/>
</g>
<path d="M67.875,273.637c-18.566,0-33.67,15.105-33.67,33.67c0,18.566,15.105,33.67,33.67,33.67s33.67-15.105,33.67-33.67
	C101.545,288.741,86.44,273.637,67.875,273.637z M67.875,324.944c-9.725,0-17.637-7.912-17.637-17.637
	c0-9.725,7.912-17.637,17.637-17.637s17.637,7.912,17.637,17.637C85.511,317.032,77.6,324.944,67.875,324.944z"/>
<path d="M443.591,136.284c0-18.566-15.105-33.67-33.67-33.67c-18.566,0-33.67,15.105-33.67,33.67c0,18.566,15.105,33.67,33.67,33.67
	C428.486,169.954,443.591,154.85,443.591,136.284z M409.921,153.921c-9.725,0-17.637-7.912-17.637-17.637
	c0-9.725,7.912-17.637,17.637-17.637s17.637,7.912,17.637,17.637S419.645,153.921,409.921,153.921z"/>
<path d="M196.142,50.238c13.851,0,25.119-11.268,25.119-25.119S209.993,0,196.142,0c-13.851,0-25.119,11.268-25.119,25.119
	S182.291,50.238,196.142,50.238z M196.142,16.033c5.01,0,9.086,4.076,9.086,9.086s-4.076,9.086-9.086,9.086
	s-9.086-4.076-9.086-9.086S191.132,16.033,196.142,16.033z"/>
<path d="M452.676,324.944c-13.851,0-25.119,11.268-25.119,25.119c0,13.851,11.268,25.119,25.119,25.119s25.119-11.268,25.119-25.119
	C477.795,336.212,466.527,324.944,452.676,324.944z M452.676,359.148c-5.01,0-9.086-4.076-9.086-9.086
	c0-5.01,4.076-9.086,9.086-9.086s9.086,4.076,9.086,9.086C461.762,355.073,457.686,359.148,452.676,359.148z"/>
<path d="M221.795,461.762c-13.851,0-25.119,11.268-25.119,25.119S207.945,512,221.795,512c13.851,0,25.119-11.268,25.119-25.119
	S235.646,461.762,221.795,461.762z M221.795,495.967c-5.01,0-9.086-4.076-9.086-9.086s4.076-9.086,9.086-9.086
	s9.086,4.076,9.086,9.086S226.805,495.967,221.795,495.967z"/>
<path d="M178.452,64.048c-4.04-1.839-8.786-0.053-10.625,3.976c-1.828,4.03-0.043,8.786,3.987,10.614
	c1.069,0.492,2.202,0.727,3.314,0.727c3.046,0,5.954-1.742,7.301-4.703C184.256,70.632,182.482,65.876,178.452,64.048z"/>
<path d="M158.068,108.867c1.08,0.492,2.202,0.727,3.314,0.727c3.046,0,5.964-1.753,7.311-4.703c1.828-4.03,0.043-8.786-3.987-10.614
	c-4.03-1.838-8.786-0.053-10.614,3.976C152.264,102.282,154.038,107.039,158.068,108.867z"/>
<path d="M127.466,195.575c1.839-4.04,0.053-8.786-3.976-10.625c-4.03-1.828-8.786-0.043-10.614,3.987
	c-1.839,4.03-0.053,8.786,3.976,10.614c1.08,0.492,2.202,0.716,3.314,0.716C123.211,200.268,126.129,198.526,127.466,195.575z"/>
<path d="M109.754,215.179c-4.04-1.828-8.786-0.043-10.625,3.987c-1.828,4.03-0.043,8.776,3.987,10.614
	c1.069,0.492,2.202,0.716,3.314,0.716c3.046,0,5.954-1.742,7.301-4.703C115.558,221.763,113.784,217.017,109.754,215.179z"/>
<path d="M89.37,260.008c1.08,0.492,2.213,0.716,3.314,0.716c3.046,0,5.964-1.742,7.311-4.703c1.828-4.03,0.043-8.776-3.987-10.614
	c-4.03-1.828-8.786-0.043-10.614,3.987S85.34,258.17,89.37,260.008z"/>
<path d="M144.333,139.095c1.08,0.492,2.202,0.727,3.314,0.727c3.046,0,5.954-1.753,7.301-4.703c1.838-4.03,0.053-8.786-3.976-10.614
	c-4.03-1.838-8.786-0.053-10.614,3.976C138.518,132.511,140.303,137.267,144.333,139.095z"/>
<path d="M130.597,169.323c1.069,0.492,2.202,0.727,3.314,0.727c3.046,0,5.954-1.753,7.301-4.703
	c1.828-4.03,0.043-8.786-3.987-10.614c-4.03-1.839-8.776-0.053-10.614,3.976C124.783,162.739,126.568,167.496,130.597,169.323z"/>
<path d="M303.095,71.701c-3.923-2.042-8.765-0.513-10.807,3.41c-2.052,3.934-0.513,8.765,3.41,10.817
	c1.186,0.609,2.448,0.898,3.688,0.898c2.897,0,5.697-1.571,7.119-4.318C308.558,78.585,307.029,73.743,303.095,71.701z"/>
<path d="M328.332,101.876c2.897,0,5.697-1.571,7.119-4.318c2.042-3.923,0.513-8.765-3.41-10.807s-8.765-0.513-10.806,3.41
	c-2.052,3.934-0.524,8.776,3.41,10.817C325.82,101.588,327.092,101.876,328.332,101.876z"/>
<path d="M245.204,41.591c-3.923-2.042-8.765-0.513-10.807,3.42c-2.042,3.923-0.513,8.765,3.41,10.807
	c1.186,0.62,2.448,0.909,3.688,0.909c2.897,0,5.697-1.571,7.13-4.318C250.666,48.474,249.138,43.643,245.204,41.591z"/>
<path d="M364.397,112.619c2.042-3.934,0.513-8.776-3.41-10.817c-3.923-2.042-8.765-0.513-10.806,3.41
	c-2.052,3.934-0.524,8.776,3.41,10.817c1.176,0.609,2.448,0.909,3.688,0.909C360.174,116.937,362.975,115.355,364.397,112.619z"/>
<path d="M274.15,56.651c-3.923-2.042-8.765-0.513-10.807,3.41c-2.042,3.934-0.513,8.765,3.41,10.807
	c1.186,0.62,2.448,0.909,3.688,0.909c2.897,0,5.697-1.571,7.13-4.318C279.612,63.535,278.083,58.693,274.15,56.651z"/>
<path d="M430.176,237.551c4.34-0.866,7.151-5.088,6.285-9.428c-0.866-4.35-5.088-7.162-9.428-6.296
	c-4.35,0.866-7.162,5.099-6.296,9.438c0.759,3.805,4.115,6.445,7.856,6.445C429.118,237.711,429.642,237.658,430.176,237.551z"/>
<path d="M440.609,289.745c-4.34,0.866-7.151,5.088-6.285,9.438c0.759,3.805,4.105,6.445,7.846,6.445c0.524,0,1.058-0.053,1.593-0.16
	c4.34-0.866,7.151-5.088,6.285-9.438C449.181,291.69,444.959,288.879,440.609,289.745z"/>
<path d="M435.382,271.67c0.524,0,1.058-0.053,1.582-0.16c4.34-0.866,7.162-5.088,6.285-9.438c-0.866-4.34-5.088-7.151-9.428-6.285
	c-4.34,0.866-7.162,5.088-6.285,9.438C428.295,269.03,431.641,271.67,435.382,271.67z"/>
<path d="M423.378,203.592c4.35-0.866,7.162-5.088,6.296-9.428c-0.866-4.35-5.099-7.162-9.438-6.296
	c-4.34,0.866-7.151,5.099-6.285,9.438c0.759,3.805,4.105,6.445,7.856,6.445C422.32,203.752,422.854,203.699,423.378,203.592z"/>
<path d="M229.727,333.356c0.299,0.032,0.599,0.053,0.898,0.053c4.03,0,7.504-3.036,7.953-7.14c0.492-4.393-2.683-8.359-7.076-8.85
	c-4.404-0.492-8.369,2.683-8.861,7.087C222.159,328.899,225.323,332.864,229.727,333.356z"/>
<path d="M188.66,320.721c-0.492,4.404,2.683,8.369,7.076,8.861c0.299,0.032,0.599,0.043,0.898,0.043c4.03,0,7.504-3.025,7.963-7.13
	c0.481-4.404-2.683-8.359-7.087-8.85C193.106,313.154,189.141,316.328,188.66,320.721z"/>
<path d="M162.643,325.852c4.04,0,7.504-3.036,7.963-7.13c0.492-4.404-2.683-8.369-7.087-8.85c-4.393-0.492-8.359,2.683-8.85,7.076
	c-0.492,4.404,2.683,8.369,7.087,8.85C162.055,325.841,162.354,325.852,162.643,325.852z"/>
<path d="M265.481,321.192c-4.393-0.481-8.359,2.683-8.85,7.087c-0.492,4.404,2.683,8.369,7.087,8.85
	c0.299,0.032,0.599,0.053,0.887,0.053c4.03,0,7.504-3.036,7.963-7.13C273.049,325.649,269.885,321.684,265.481,321.192z"/>
<path d="M333.452,328.749c-4.393-0.492-8.359,2.683-8.85,7.087c-0.492,4.393,2.683,8.359,7.087,8.85
	c0.299,0.032,0.599,0.053,0.887,0.053c4.04,0,7.504-3.036,7.963-7.14C341.03,333.206,337.856,329.241,333.452,328.749z"/>
<path d="M299.472,324.976c-4.404-0.492-8.369,2.683-8.85,7.076c-0.492,4.404,2.672,8.369,7.076,8.861
	c0.299,0.032,0.599,0.043,0.898,0.043c4.03,0,7.504-3.025,7.953-7.13C307.04,329.422,303.865,325.467,299.472,324.976z"/>
<path d="M367.443,332.522c-4.404-0.481-8.369,2.683-8.85,7.087c-0.492,4.404,2.683,8.359,7.076,8.85
	c0.299,0.032,0.599,0.053,0.898,0.053c4.03,0,7.504-3.036,7.963-7.13C375.011,336.979,371.847,333.014,367.443,332.522z"/>
<path d="M401.434,336.306c-4.404-0.492-8.369,2.683-8.861,7.076c-0.481,4.404,2.683,8.369,7.087,8.85
	c0.299,0.043,0.599,0.053,0.898,0.053c4.03,0,7.504-3.036,7.953-7.13C409.001,340.753,405.827,336.787,401.434,336.306z"/>
<path d="M129.539,306.088c-4.404-0.481-8.369,2.683-8.85,7.087c-0.492,4.404,2.683,8.359,7.076,8.85
	c0.299,0.032,0.599,0.053,0.898,0.053c4.03,0,7.504-3.036,7.963-7.13C137.107,310.546,133.932,306.58,129.539,306.088z"/>
<path d="M121.768,370.179c-3.367,2.886-3.752,7.942-0.876,11.298c1.593,1.86,3.837,2.8,6.093,2.8c1.849,0,3.698-0.631,5.216-1.924
	c3.356-2.886,3.752-7.942,0.866-11.309C130.191,367.689,125.125,367.293,121.768,370.179z"/>
<path d="M100.818,345.734c-3.367,2.886-3.752,7.942-0.876,11.309c1.593,1.849,3.837,2.801,6.093,2.801
	c1.849,0,3.698-0.641,5.216-1.935c3.356-2.875,3.752-7.942,0.866-11.298C109.241,343.243,104.174,342.858,100.818,345.734z"/>
<path d="M163.669,419.06c-3.367,2.886-3.752,7.942-0.876,11.309c1.593,1.849,3.837,2.8,6.093,2.8c1.849,0,3.698-0.641,5.216-1.935
	c3.356-2.886,3.752-7.942,0.866-11.309C172.092,416.569,167.025,416.184,163.669,419.06z"/>
<path d="M195.917,444.371c-2.886-3.356-7.942-3.752-11.298-0.866c-3.367,2.875-3.752,7.942-0.876,11.298
	c1.593,1.849,3.837,2.801,6.093,2.801c1.849,0,3.698-0.631,5.216-1.924C198.408,452.794,198.804,447.738,195.917,444.371z"/>
<path d="M142.719,394.625c-3.367,2.875-3.752,7.942-0.876,11.298c1.593,1.849,3.837,2.8,6.093,2.8c1.849,0,3.698-0.631,5.216-1.935
	c3.356-2.875,3.752-7.942,0.866-11.298C151.142,392.124,146.075,391.739,142.719,394.625z"/>
<g>
</g>
<g>
</g>
<g>
</g>
<g>
</g>
<g>
</g>
<g>
</g>
<g>
</g>
<g>
</g>
<g>
</g>
<g>
</g>
<g>
</g>
<g>
</g>
<g>
</g>
<g>
</g>
<g>
</g>
</svg>
