<?xml version="1.0" encoding="iso-8859-1"?>
<!-- Generator: Adobe Illustrator 19.0.0, SVG Export Plug-In . SVG Version: 6.00 Build 0)  -->
<svg version="1.1" id="Layer_1" xmlns="http://www.w3.org/2000/svg" xmlns:xlink="http://www.w3.org/1999/xlink" x="0px" y="0px"
	 viewBox="0 0 512 512" style="enable-background:new 0 0 512 512;" xml:space="preserve">
<circle style="fill:#FF965F;" cx="256" cy="256" r="247.706"/>
<path style="fill:#FF7846;" d="M353.313,432.933c-122.147,0-221.166-99.019-221.166-221.166
	c0-91.123,55.121-169.349,133.828-203.221c-3.313-0.132-6.629-0.252-9.975-0.252C119.195,8.294,8.294,119.195,8.294,256
	c0,136.804,110.902,247.706,247.706,247.706c78.023,0,147.58-36.108,192.984-92.485
	C420.031,425.134,387.583,432.933,353.313,432.933z"/>
<circle style="fill:none;stroke:#464646;stroke-width:16;stroke-linecap:round;stroke-linejoin:round;stroke-miterlimit:10;" cx="384.276" cy="401.97" r="4.423"/>
<path style="fill:#FF7846;" d="M301.753,12.581C286.917,9.81,271.64,8.294,256,8.294c-91.777,0-171.836,49.952-214.634,124.113
	c56.131,2.574,95.606,37.843,116.565,81.318c1.572,3.262,4.517,5.632,8.075,6.312l21.626,4.135c5.085,0.972,9.901-2.836,9.978-8.014
	c0.334-22.368,7.592-74.75,67.974-77.376c22.062-0.959,39.825-5.663,52.869-10.682c4.198-1.616,2.992-7.711-1.506-7.709
	C259.084,120.416,233.093,36.904,301.753,12.581z"/>
<path style="fill:#DC5F3C;" d="M41.366,132.407L41.366,132.407c39.648,1.818,70.941,19.987,93.314,45.799
	c11.642-76.456,62.443-140.029,131.294-169.66c-3.313-0.132-6.629-0.252-9.975-0.252C164.223,8.294,84.164,58.245,41.366,132.407z"
	/>
<path style="fill:#FF7846;" d="M489.635,173.664c-26.872-18.527-60.882-24.182-50.067,12.668
	c23.459,79.936-0.186,134.613-11.397,154.375c-2.674,4.714-8.567,6.48-13.438,4.102c-27.877-13.613-117.779-55.977-134.405-44.576
	c-34.69,23.788-44.951,44.688-45.711,60.512c-0.345,7.188-10.492,8.575-12.684,1.722c-8.979-28.07,1.004-65.372,7.415-84.332
	c1.847-5.462-2.788-10.9-8.466-9.907l-28.409,4.972c-1.819,0.318-3.437,1.344-4.573,2.8
	c-46.084,59.035-136.057,44.746-177.926,8.491c14.542,126.902,124.92,224.67,256.979,218.979
	c122.859-5.294,224.77-102.41,235.74-224.893C506.01,241.55,501.059,206.081,489.635,173.664z"/>
<path style="fill:#DC5F3C;" d="M353.313,432.933c-89.039,0-165.738-52.643-200.802-128.479
	c-47.597,23.159-109.767,8.413-142.536-19.964C24.113,407.867,128.837,503.706,256,503.706c76.412,0,144.719-34.619,190.157-89.005
	c0.929-1.148,1.908-2.34,2.818-3.469c0.002-0.003,0.006-0.008,0.006-0.008C420.03,425.134,387.583,432.933,353.313,432.933z"/>
<g>
	<circle style="fill:#FF7846;" cx="397.546" cy="123.3" r="17.693"/>
	<path style="fill:#FF7846;" d="M334.353,21.017c-20.826,10.019-35.409,34.569-15.795,49.59
		c17.019,13.033,66.394-2.984,105.175,3.159C398.286,50.334,367.913,32.204,334.353,21.017z"/>
</g>
<path d="M437.019,74.981C388.668,26.628,324.38,0,256,0S123.332,26.628,74.981,74.981S0,187.62,0,256s26.628,132.668,74.981,181.019
	C123.332,485.372,187.62,512,256,512s132.668-26.628,181.019-74.981C485.372,388.668,512,324.38,512,256
	S485.372,123.332,437.019,74.981z M344.438,33.399c19.635,7.796,38.209,18.217,55.286,31.089
	c-11.913-0.202-24.034,0.776-35.307,1.686c-17.399,1.406-35.389,2.857-41.69-1.613c-5.577-3.958-5.448-7.809-4.867-10.361
	C319.9,45.254,332.27,35.602,344.438,33.399z M425.291,425.291c-45.22,45.219-105.341,70.122-169.291,70.122
	s-124.071-24.903-169.291-70.122c-34.039-34.04-56.56-76.525-65.619-122.728c22.754,16.363,54.546,25.803,84.825,24.321
	c35.535-1.743,66.786-17.892,88.374-45.58l26.814-4.692c-3.424,10.282-7.656,25.232-9.75,41.355
	c-6.697,51.549,13.837,72.797,32.242,81.544c1.145,0.544,2.358,0.804,3.555,0.804c2.718,0,5.358-1.339,6.936-3.741
	c2.274-3.461,1.645-8.069-1.471-10.796c-0.106-0.093-10.594-9.718-9.694-24.987c0.999-16.94,15.556-35.515,42.04-53.678
	c0.393-0.211,10.258-4.903,67.183,18.494c4.239,1.741,9.082-0.282,10.824-4.518c1.742-4.236-0.282-9.082-4.518-10.824
	c-33.209-13.649-69.017-26.327-82.812-16.868c-27.247,18.684-43.335,38.001-47.963,57.542
	c-5.775-34.962,13.556-81.071,13.834-81.721c1.198-2.798,0.765-6.027-1.125-8.412c-1.889-2.385-4.933-3.543-7.931-3.019
	l-44.233,7.741c-2.1,0.367-3.979,1.53-5.245,3.247c-23.865,32.35-55.52,40.448-77.873,41.544
	c-33.063,1.615-67.943-11.327-86.778-32.222c-0.248-0.275-0.514-0.522-0.787-0.755c-0.618-7.055-0.949-14.171-0.949-21.338
	c0-41.702,10.597-81.773,30.505-117.148c27.157,2.933,50.878,13.781,70.506,32.279c1.602,1.509,3.646,2.258,5.687,2.258
	c2.205,0,4.406-0.875,6.037-2.605c3.142-3.333,2.986-8.582-0.347-11.724c-20.442-19.266-44.773-31.218-72.403-35.654
	c8.718-13.054,18.787-25.345,30.137-36.696C131.929,41.491,192.051,16.587,256,16.587c10.383,0,20.661,0.668,30.795,1.961
	C264.966,29.6,257.08,45.585,254.251,55.821c-5.604,20.272,1.609,42.884,18.378,57.608c6.879,6.041,14.839,10.348,23.478,12.877
	c-8.984,2.105-19.301,3.686-30.883,4.189c-23.83,1.036-42.578,9.335-55.726,24.669c-16.977,19.795-19.987,46.192-20.195,60.883
	l-23.184-4.432c-3.629-7.762-7.681-15.159-12.077-22.038c-2.466-3.86-7.595-4.991-11.454-2.524
	c-3.859,2.466-4.99,7.594-2.524,11.454c4.69,7.341,8.962,15.348,12.695,23.8c1.101,2.49,3.354,4.283,6.029,4.794l37.598,7.188
	c0.515,0.098,1.034,0.147,1.549,0.147c2.065,0,4.077-0.775,5.623-2.198c1.933-1.779,2.907-4.376,2.63-6.988
	c-0.039-0.364-3.643-36.58,15.958-59.356c10.039-11.664,24.774-17.999,43.796-18.826c52.936-2.302,82.432-25.134,83.662-26.104
	c3.258-2.572,4.113-7.157,2-10.73c-2.112-3.574-6.543-5.035-10.365-3.421c-31.096,13.122-50.689,0.283-57.669-5.847
	c-12.022-10.556-17.255-26.542-13.335-40.724c2.821-10.202,12.96-28.308,49.183-34.943c0.177-0.032,1.098-0.054,1.537,0.168
	c-9.731,6.45-17.115,15.594-19.271,25.048c-2.426,10.644,1.743,20.693,11.439,27.575c6.572,4.664,15.875,6.064,26.919,6.064
	c7.814,0,16.5-0.701,25.706-1.445c18.617-1.503,39.7-3.201,56.431,0.968c1.041,1.004,2.082,2.007,3.108,3.033
	c19.643,19.643,35.446,42.1,47.045,66.459c-9.921-4.537-20.41-5.892-28.708-2.647c-6.44,2.518-11.116,7.63-13.165,14.396
	c-1.963,6.478-1.577,14.468,1.148,23.751c14.745,50.246,9.83,89.736,3.11,114.017c-4.663,16.85-10.819,28.934-14.677,35.489
	c-6.166-3.023-16.126-7.832-27.871-13.21c-4.165-1.908-9.087-0.077-10.994,4.087c-1.908,4.165-0.077,9.087,4.087,10.993
	c19.406,8.889,33.83,16.173,33.973,16.245c1.193,0.604,2.473,0.894,3.739,0.894c2.518,0,4.982-1.148,6.596-3.261
	c0.513-0.671,12.666-16.798,20.88-45.909c7.484-26.524,13.052-69.571-2.927-124.018c-1.36-4.636-3.875-15.673,2.142-18.026
	c8.185-3.201,27.805,4.998,35.609,20.752c0.004,0.009,0.01,0.017,0.013,0.024c6.667,22.175,10.124,45.449,10.124,69.254
	C495.413,319.949,470.509,380.071,425.291,425.291z"/>
<path d="M397.546,149.287c14.329,0,25.987-11.658,25.987-25.987s-11.658-25.987-25.987-25.987s-25.987,11.658-25.987,25.987
	S383.217,149.287,397.546,149.287z M397.546,113.901c5.183,0,9.4,4.217,9.4,9.4c0,5.183-4.217,9.4-9.4,9.4s-9.4-4.217-9.4-9.4
	C388.147,118.117,392.363,113.901,397.546,113.901z"/>
<path d="M251.577,176.933c-7.012,0-12.717,5.705-12.717,12.717s5.705,12.717,12.717,12.717c7.012,0,12.717-5.705,12.717-12.717
	S258.589,176.933,251.577,176.933z"/>
<path d="M384.276,389.253c-7.012,0-12.717,5.705-12.717,12.717s5.705,12.717,12.717,12.717s12.717-5.705,12.717-12.717
	S391.289,389.253,384.276,389.253z"/>
<path d="M65.797,256.553c-7.012,0-12.717,5.705-12.717,12.717c0,7.012,5.705,12.717,12.717,12.717
	c7.012,0,12.717-5.705,12.717-12.717C78.514,262.258,72.809,256.553,65.797,256.553z"/>
<g>
</g>
<g>
</g>
<g>
</g>
<g>
</g>
<g>
</g>
<g>
</g>
<g>
</g>
<g>
</g>
<g>
</g>
<g>
</g>
<g>
</g>
<g>
</g>
<g>
</g>
<g>
</g>
<g>
</g>
</svg>
