<?xml version="1.0" encoding="iso-8859-1"?>
<!-- Generator: Adobe Illustrator 19.0.0, SVG Export Plug-In . SVG Version: 6.00 Build 0)  -->
<svg version="1.1" id="Layer_1" xmlns="http://www.w3.org/2000/svg" xmlns:xlink="http://www.w3.org/1999/xlink" x="0px" y="0px"
	 viewBox="0 0 512 512" style="enable-background:new 0 0 512 512;" xml:space="preserve">
<g>
	<circle style="fill:#E7DECC;" cx="59.324" cy="256" r="51.307"/>
	<circle style="fill:#E7DECC;" cx="256" cy="452.676" r="51.307"/>
</g>
<circle style="fill:#78695F;" cx="452.676" cy="256" r="51.307"/>
<g>
	<circle style="fill:#E7DECC;" cx="116.926" cy="395.074" r="51.307"/>
	<circle style="fill:#E7DECC;" cx="395.074" cy="116.926" r="51.307"/>
	<circle style="fill:#E7DECC;" cx="395.074" cy="395.074" r="51.307"/>
	<circle style="fill:#E7DECC;" cx="116.926" cy="116.926" r="51.307"/>
</g>
<path style="fill:#78695F;" d="M204.693,452.676c0,28.336,22.971,51.307,51.307,51.307V401.37
	C227.664,401.37,204.693,424.34,204.693,452.676z"/>
<circle style="fill:#E7DECC;" cx="256" cy="59.324" r="51.307"/>
<g>
	<path style="fill:#78695F;" d="M307.307,59.324c0-28.336-22.97-51.307-51.307-51.307V110.63
		C284.336,110.63,307.307,87.66,307.307,59.324z"/>
	<path style="fill:#78695F;" d="M117.107,431.351c-20.037-20.036-20.037-52.522,0-72.559c5.293-5.293,11.479-9.093,18.05-11.59
		c-18.305-6.954-39.765-3.153-54.508,11.59c-20.036,20.036-20.036,52.522,0,72.559c14.743,14.743,36.203,18.544,54.508,11.59
		C128.586,440.444,122.4,436.644,117.107,431.351z"/>
	<path style="fill:#78695F;" d="M380.053,346.251c-7.76,2.377-15.122,6.403-21.261,12.541c-20.036,20.036-20.036,52.522,0,72.559
		c4.539,4.539,9.77,7.906,15.297,10.389c20.772-6.564,35.833-25.979,35.833-48.921C409.921,372.146,397.669,354.376,380.053,346.251
		z"/>
	<path style="fill:#78695F;" d="M431.351,80.649c-4.744-4.744-10.22-8.276-16.028-10.773c-5.809,2.497-11.283,6.03-16.028,10.773
		c-20.037,20.036-20.037,52.522,0,72.559c4.744,4.744,10.219,8.276,16.028,10.773c5.809-2.497,11.284-6.03,16.028-10.773
		C451.387,133.171,451.387,100.685,431.351,80.649z"/>
	<path style="fill:#78695F;" d="M153.208,80.649c-15.293-15.293-37.805-18.824-56.531-10.773c5.809,2.497,11.283,6.03,16.028,10.773
		c20.037,20.036,20.037,52.522,0,72.559c-4.744,4.744-10.219,8.276-16.028,10.773c18.727,8.051,41.239,4.519,56.531-10.773
		C173.245,133.171,173.245,100.685,153.208,80.649z"/>
</g>
<path d="M256,393.353c-32.711,0-59.324,26.612-59.324,59.324S223.289,512,256,512s59.324-26.612,59.324-59.324
	S288.711,393.353,256,393.353z M212.71,452.676c0-21.13,15.222-38.762,35.273-42.533v85.068
	C227.932,491.439,212.71,473.806,212.71,452.676z M264.017,495.21v-85.068c20.051,3.772,35.273,21.404,35.273,42.533
	C299.29,473.805,284.068,491.439,264.017,495.21z"/>
<path d="M256,0c-32.711,0-59.324,26.612-59.324,59.324s26.612,59.324,59.324,59.324s59.324-26.612,59.324-59.324S288.711,0,256,0z
	 M212.71,59.324c0-21.13,15.222-38.762,35.273-42.533v85.068C227.932,98.086,212.71,80.453,212.71,59.324z M264.017,101.857V16.79
	c20.051,3.772,35.273,21.404,35.273,42.533S284.068,98.086,264.017,101.857z"/>
<path d="M118.647,256c0-32.711-26.612-59.324-59.324-59.324S0,223.289,0,256s26.612,59.324,59.324,59.324
	S118.647,288.711,118.647,256z M16.033,256c0-23.871,19.42-43.29,43.29-43.29s43.29,19.42,43.29,43.29s-19.42,43.29-43.29,43.29
	S16.033,279.871,16.033,256z"/>
<path d="M452.676,196.676c-32.711,0-59.324,26.612-59.324,59.324s26.612,59.324,59.324,59.324S512,288.711,512,256
	S485.388,196.676,452.676,196.676z M452.676,299.29c-23.871,0-43.29-19.42-43.29-43.29s19.42-43.29,43.29-43.29
	c23.871,0,43.29,19.42,43.29,43.29S476.547,299.29,452.676,299.29z"/>
<path d="M74.981,353.123c-23.131,23.13-23.131,60.767,0,83.896c11.565,11.565,26.757,17.347,41.948,17.347
	c15.191,0,30.383-5.783,41.949-17.347c23.131-23.13,23.131-60.767,0-83.896C135.747,329.993,98.112,329.993,74.981,353.123z
	 M86.317,364.461c7.339-7.339,16.68-11.483,26.282-12.44c-0.388,0.368-0.782,0.724-1.162,1.103
	c-11.204,11.204-17.375,26.101-17.375,41.947c0,15.846,6.171,30.744,17.376,41.949c0.378,0.379,0.774,0.735,1.161,1.103
	c-9.602-0.957-18.943-5.101-26.282-12.441C69.439,408.804,69.439,381.34,86.317,364.461z M147.539,425.683
	c-3.694,3.694-7.896,6.58-12.382,8.657c-4.589-2.126-8.748-5.023-12.382-8.657c-8.176-8.176-12.679-19.048-12.679-30.611
	c0-11.563,4.503-22.434,12.679-30.611c3.635-3.635,7.794-6.531,12.383-8.657c4.486,2.077,8.687,4.963,12.381,8.657
	C164.418,381.34,164.418,408.804,147.539,425.683z"/>
<path d="M395.072,176.224c15.191,0,30.382-5.783,41.948-17.347c23.131-23.13,23.131-60.767,0-83.896
	c-23.131-23.131-60.767-23.13-83.896,0c-23.131,23.13-23.131,60.767,0,83.896C364.688,170.443,379.88,176.224,395.072,176.224z
	 M425.683,147.539c-3.695,3.694-7.896,6.58-12.383,8.657c-4.588-2.126-8.747-5.023-12.381-8.657
	c-8.176-8.176-12.679-19.048-12.679-30.611c0-11.563,4.503-22.434,12.679-30.611c3.635-3.635,7.794-6.531,12.383-8.657
	c4.486,2.077,8.687,4.963,12.381,8.657C442.561,103.196,442.561,130.66,425.683,147.539z M364.461,86.317
	c7.339-7.339,16.68-11.483,26.282-12.44c-0.387,0.368-0.782,0.724-1.162,1.103c-11.205,11.204-17.376,26.102-17.376,41.948
	c0,15.846,6.171,30.744,17.376,41.949c0.378,0.378,0.774,0.735,1.161,1.102c-9.601-0.957-18.942-5.101-26.281-12.44
	C347.582,130.66,347.582,103.196,364.461,86.317z"/>
<path d="M353.123,353.123c-23.131,23.13-23.131,60.767,0,83.896c11.565,11.565,26.757,17.347,41.949,17.347
	c15.191,0,30.382-5.783,41.948-17.347c23.131-23.13,23.131-60.767,0-83.896C413.888,329.992,376.253,329.993,353.123,353.123z
	 M364.461,364.461c3.694-3.694,7.895-6.58,12.381-8.657c4.588,2.126,8.747,5.022,12.383,8.657
	c8.176,8.176,12.679,19.048,12.679,30.611c0,11.563-4.503,22.435-12.679,30.611c-3.634,3.634-7.793,6.531-12.381,8.657
	c-4.486-2.077-8.688-4.963-12.382-8.657C347.582,408.804,347.582,381.34,364.461,364.461z M425.683,425.683
	c-7.339,7.339-16.68,11.483-26.281,12.44c0.387-0.368,0.781-0.724,1.161-1.103c11.204-11.204,17.375-26.102,17.375-41.949
	c0-15.845-6.171-30.743-17.376-41.948c-0.378-0.379-0.774-0.735-1.162-1.103c9.602,0.957,18.943,5.101,26.282,12.44
	C442.561,381.34,442.561,408.804,425.683,425.683z"/>
<path d="M74.981,74.981c-23.131,23.13-23.131,60.767,0,83.896c11.565,11.565,26.757,17.347,41.948,17.347
	c15.191,0,30.383-5.783,41.949-17.347c23.131-23.13,23.131-60.767,0-83.896C135.747,51.851,98.112,51.85,74.981,74.981z
	 M86.317,86.317c3.694-3.694,7.895-6.58,12.381-8.657c4.588,2.126,8.747,5.022,12.383,8.657
	c8.176,8.176,12.679,19.048,12.679,30.611c0,11.563-4.503,22.435-12.679,30.611c-3.634,3.634-7.793,6.531-12.381,8.657
	c-4.487-2.077-8.688-4.963-12.382-8.657C69.439,130.66,69.439,103.196,86.317,86.317z M147.539,147.539
	c-7.339,7.34-16.68,11.484-26.282,12.441c0.387-0.368,0.782-0.725,1.162-1.103c11.205-11.204,17.376-26.102,17.376-41.949
	c0-15.845-6.171-30.744-17.376-41.948c-0.378-0.379-0.774-0.735-1.162-1.103c9.602,0.957,18.943,5.101,26.282,12.44
	C164.418,103.196,164.418,130.66,147.539,147.539z"/>
<g>
</g>
<g>
</g>
<g>
</g>
<g>
</g>
<g>
</g>
<g>
</g>
<g>
</g>
<g>
</g>
<g>
</g>
<g>
</g>
<g>
</g>
<g>
</g>
<g>
</g>
<g>
</g>
<g>
</g>
</svg>
