<?xml version="1.0" encoding="iso-8859-1"?>
<!-- Generator: Adobe Illustrator 19.0.0, SVG Export Plug-In . SVG Version: 6.00 Build 0)  -->
<svg version="1.1" id="Layer_1" xmlns="http://www.w3.org/2000/svg" xmlns:xlink="http://www.w3.org/1999/xlink" x="0px" y="0px"
	 viewBox="0 0 512 512" style="enable-background:new 0 0 512 512;" xml:space="preserve">
<circle style="fill:#D7C8AA;" cx="256" cy="256" r="247.706"/>
<g>
	<path style="fill:#C8B696;" d="M353.313,432.933c-122.147,0-221.166-99.019-221.166-221.166
		c0-91.123,55.121-169.349,133.828-203.221c-3.313-0.132-6.629-0.252-9.975-0.252C119.195,8.294,8.294,119.195,8.294,256
		c0,136.804,110.902,247.706,247.706,247.706c78.023,0,147.58-36.108,192.984-92.485
		C420.031,425.134,387.583,432.933,353.313,432.933z"/>
	<circle style="fill:#C8B696;" cx="194.073" cy="357.736" r="44.233"/>
	<circle style="fill:#C8B696;" cx="326.773" cy="317.927" r="26.54"/>
	<circle style="fill:#C8B696;" cx="167.533" cy="251.577" r="26.54"/>
	<circle style="fill:#C8B696;" cx="273.693" cy="87.914" r="17.693"/>
</g>
<circle style="fill:#D7C8AA;" cx="83.49" cy="229.46" r="22.117"/>
<g>
	<circle style="fill:#E6DAB9;" cx="180.803" cy="118.877" r="13.27"/>
	<circle style="fill:#E6DAB9;" cx="450.626" cy="300.233" r="8.847"/>
</g>
<circle style="fill:#D7C8AA;" cx="105.607" cy="282.54" r="8.847"/>
<g>
	<circle style="fill:#E6DAB9;" cx="309.08" cy="132.147" r="8.847"/>
	<circle style="fill:#E6DAB9;" cx="238.307" cy="282.54" r="8.847"/>
	<circle style="fill:#E6DAB9;" cx="384.276" cy="260.423" r="13.27"/>
</g>
<circle style="fill:#C8B696;" cx="371.006" cy="388.7" r="17.693"/>
<path d="M437.019,74.981C388.668,26.628,324.38,0,256,0S123.332,26.628,74.981,74.981S0,187.62,0,256s26.628,132.668,74.981,181.019
	S187.62,512,256,512s132.668-26.628,181.019-74.981S512,324.38,512,256S485.372,123.332,437.019,74.981z M425.291,425.291
	c-45.22,45.219-105.341,70.122-169.291,70.122s-124.071-24.903-169.291-70.122C41.491,380.071,16.587,319.949,16.587,256
	S41.491,131.929,86.709,86.709C131.929,41.491,192.051,16.587,256,16.587s124.071,24.903,169.291,70.122
	c45.219,45.22,70.122,105.342,70.122,169.291S470.509,380.071,425.291,425.291z"/>
<path d="M194.073,305.21c-28.963,0-52.527,23.564-52.527,52.527c0,28.963,23.564,52.527,52.527,52.527s52.527-23.564,52.527-52.527
	C246.6,328.774,223.036,305.21,194.073,305.21z M194.073,393.676c-19.816,0-35.94-16.122-35.94-35.94s16.123-35.94,35.94-35.94
	s35.94,16.122,35.94,35.94S213.89,393.676,194.073,393.676z"/>
<path d="M361.607,317.927c0-19.207-15.627-34.834-34.834-34.834c-19.207,0-34.834,15.627-34.834,34.834
	c0,19.207,15.627,34.834,34.834,34.834C345.98,352.76,361.607,337.134,361.607,317.927z M326.773,336.173
	c-10.061,0-18.246-8.185-18.246-18.246c0-10.061,8.185-18.246,18.246-18.246c10.061,0,18.246,8.185,18.246,18.246
	C345.019,327.987,336.834,336.173,326.773,336.173z"/>
<path d="M167.533,286.41c19.207,0,34.834-15.627,34.834-34.834s-15.627-34.834-34.834-34.834S132.7,232.369,132.7,251.577
	S148.326,286.41,167.533,286.41z M167.533,233.33c10.061,0,18.246,8.185,18.246,18.246c0,10.061-8.185,18.246-18.246,18.246
	c-10.061,0-18.246-8.185-18.246-18.246C149.287,241.516,157.473,233.33,167.533,233.33z"/>
<path d="M299.68,87.914c0-14.329-11.658-25.987-25.987-25.987s-25.987,11.658-25.987,25.987s11.658,25.987,25.987,25.987
	S299.68,102.243,299.68,87.914z M273.693,97.313c-5.183,0-9.4-4.217-9.4-9.4s4.217-9.4,9.4-9.4c5.183,0,9.4,4.217,9.4,9.4
	S278.876,97.313,273.693,97.313z"/>
<path d="M83.49,199.05c-16.769,0-30.41,13.642-30.41,30.41s13.642,30.41,30.41,30.41s30.41-13.642,30.41-30.41
	S100.259,199.05,83.49,199.05z M83.49,243.283c-7.622,0-13.823-6.2-13.823-13.823s6.2-13.823,13.823-13.823
	c7.622,0,13.823,6.2,13.823,13.823S91.113,243.283,83.49,243.283z"/>
<path d="M145.417,193.521c7.012,0,12.717-5.705,12.717-12.717s-5.705-12.717-12.717-12.717s-12.717,5.705-12.717,12.717
	S138.405,193.521,145.417,193.521z"/>
<path d="M344.467,122.747c7.012,0,12.717-5.705,12.717-12.717c0-7.012-5.705-12.717-12.717-12.717s-12.717,5.705-12.717,12.717
	C331.749,117.042,337.454,122.747,344.467,122.747z"/>
<path d="M300.233,406.946c-7.012,0-12.717,5.705-12.717,12.717s5.705,12.717,12.717,12.717s12.717-5.705,12.717-12.717
	S307.245,406.946,300.233,406.946z"/>
<path d="M371.006,362.713c-14.329,0-25.987,11.658-25.987,25.987s11.658,25.987,25.987,25.987s25.987-11.658,25.987-25.987
	S385.336,362.713,371.006,362.713z M371.006,398.099c-5.183,0-9.4-4.217-9.4-9.4s4.217-9.4,9.4-9.4s9.4,4.217,9.4,9.4
	S376.19,398.099,371.006,398.099z"/>
<g>
</g>
<g>
</g>
<g>
</g>
<g>
</g>
<g>
</g>
<g>
</g>
<g>
</g>
<g>
</g>
<g>
</g>
<g>
</g>
<g>
</g>
<g>
</g>
<g>
</g>
<g>
</g>
<g>
</g>
</svg>
