<?xml version="1.0" encoding="iso-8859-1"?>
<!-- Generator: Adobe Illustrator 19.0.0, SVG Export Plug-In . SVG Version: 6.00 Build 0)  -->
<svg version="1.1" id="Layer_1" xmlns="http://www.w3.org/2000/svg" xmlns:xlink="http://www.w3.org/1999/xlink" x="0px" y="0px"
	 viewBox="0 0 510.942 510.942" style="enable-background:new 0 0 510.942 510.942;" xml:space="preserve">
<path style="fill:#E4EAF8;" d="M332.272,161.603c-31.78,0-59.82,15.834-76.801,40.001c-16.982-24.166-45.022-40.001-76.801-40.001
	c-51.843,0-93.868,42.026-93.868,93.868s42.025,93.868,93.868,93.868c31.78,0,59.82-15.834,76.801-40.001
	c16.982,24.166,45.022,40.001,76.801,40.001c51.843,0,93.868-42.026,93.868-93.868S384.115,161.603,332.272,161.603z"/>
<circle style="fill:#5AC3FF;" cx="255.428" cy="255.516" r="93.89"/>
<path style="fill:#46A2DE;" d="M292.3,322.563c-46.299,0-83.833-37.533-83.833-83.833c0-34.54,20.894-64.192,50.727-77.031
	c-1.255-0.05-2.513-0.096-3.781-0.096c-51.856,0-93.894,42.037-93.894,93.894c0,51.856,42.037,93.894,93.894,93.894
	c29.575,0,55.94-13.687,73.151-35.057C317.589,319.606,305.29,322.563,292.3,322.563z"/>
<path style="fill:#A5FF7D;" d="M347.897,239.207c-9.005-51.069-57.704-85.167-108.773-76.162c-0.541,0.095-1.05,0.259-1.587,0.364
	l13.227,17.838c2.684,3.396,2.399,8.265-0.661,11.325l-26.266,26.267c-1.601,1.6-2.5,3.771-2.5,6.034v20.359l-1.673,0.335
	c-3.989,0.798-6.861,4.3-6.861,8.367v46.077c0,3.916,2.665,7.329,6.464,8.279l27.67,6.917l16.881,33.762
	c2.63-0.239,5.267-0.519,7.915-0.987C322.802,338.975,356.902,290.276,347.897,239.207z"/>
<path style="fill:#91E178;" d="M328.473,314.37c-10.953,5.246-23.217,8.192-36.171,8.192c-37.036,0-68.403-24.043-79.497-57.351
	v34.797c0,3.916,2.665,7.329,6.464,8.279l27.67,6.917l16.881,33.762c2.63-0.239,5.267-0.519,7.915-0.987
	C295.027,343.872,314.719,331.452,328.473,314.37z"/>
<path d="M301.015,235.527c1.562,1.562,3.61,2.343,5.657,2.343s4.095-0.781,5.657-2.343c3.124-3.124,3.124-8.19,0-11.313
	l-8.533-8.533c-3.124-3.124-8.19-3.124-11.313,0c-3.124,3.124-3.124,8.19,0,11.313L301.015,235.527z"/>
<path d="M357.873,102.402c-38.134,0-74.456,14.114-102.402,39.29c-27.945-25.176-64.268-39.29-102.402-39.29
	C68.667,102.402,0,171.068,0,255.471S68.667,408.54,153.069,408.54c38.134,0,74.456-14.114,102.402-39.29
	c27.945,25.176,64.268,39.29,102.402,39.29c84.402,0,153.069-68.667,153.069-153.069S442.275,102.402,357.873,102.402z
	 M339.937,240.529c0.067,0.38,0.109,0.757,0.171,1.136l-21.181,15.948c-3.53,2.658-4.237,7.674-1.579,11.203
	c1.572,2.089,3.97,3.188,6.398,3.188c1.675,0,3.364-0.525,4.805-1.61l12.499-9.411c-2.504,38.549-31.023,71.953-70.719,78.953
	c-0.646,0.114-1.292,0.192-1.937,0.291l-14.3-28.601c-1.044-2.089-2.949-3.617-5.215-4.184l-27.669-6.917
	c-0.239-0.06-0.404-0.272-0.404-0.517v-46.075c0-0.254,0.18-0.474,0.429-0.523l30.831-6.167c1.73-0.346,3.509-0.182,5.147,0.473
	l37.956,15.182c4.105,1.642,8.759-0.355,10.399-4.457c1.642-4.102-0.354-8.757-4.457-10.399l-37.957-15.182
	c-4.526-1.81-9.445-2.262-14.225-1.307l-19.59,3.918v-10.601c0-0.142,0.055-0.276,0.156-0.378l26.267-26.267
	c5.93-5.93,6.48-15.361,1.282-21.941l-5.213-6.599c1.217-0.052,2.432-0.079,3.643-0.079
	C296.308,169.609,332.606,198.952,339.937,240.529z M170.922,270.331c-7.803-44.252,19.978-86.675,62.703-97.871l10.862,13.747
	c0.167,0.212,0.15,0.516-0.042,0.707l-26.267,26.267c-3.123,3.123-4.843,7.275-4.843,11.691v14.615
	c-5.136,2.857-8.533,8.332-8.533,14.447v46.075c0,7.6,5.15,14.197,12.524,16.04l24.101,6.025l9.517,19.034
	C211.944,339.069,177.986,310.393,170.922,270.331z M155.164,273.109c5.151,29.211,22.351,53.326,45.583,68.141
	c-45.719-1.856-82.345-39.612-82.345-85.779c0-46.09,36.506-83.802,82.12-85.773C167.008,191.226,147.826,231.492,155.164,273.109z
	 M355.694,237.75c-5.14-29.155-22.288-53.234-45.454-68.057c45.698,1.879,82.299,39.626,82.299,85.777
	c0,46.165-36.626,83.921-82.343,85.779C343.798,319.744,363.043,279.424,355.694,237.75z M229.898,156.87
	c-8.334-2.16-16.942-3.267-25.628-3.267c-56.171,0-101.868,45.698-101.868,101.868S148.1,357.339,204.27,357.339
	c8.759,0,17.436-1.126,25.835-3.323c0.162,0.042,0.326,0.08,0.49,0.122c-15.88,8.405-33.513,12.8-51.925,12.8
	c-61.464,0-111.469-50.004-111.469-111.469s50.004-111.469,111.469-111.469c18.358,0,35.941,4.37,51.784,12.728
	C230.268,156.776,230.083,156.822,229.898,156.87z M280.847,354.02c8.396,2.194,17.07,3.32,25.824,3.32
	c56.171,0,101.868-45.698,101.868-101.868s-45.698-101.868-101.868-101.868c-8.706,0-17.335,1.113-25.687,3.283
	c-0.176-0.046-0.351-0.095-0.527-0.14c15.852-8.367,33.446-12.744,51.815-12.744c61.465,0,111.469,50.004,111.469,111.469
	s-50.004,111.469-111.469,111.469c-18.409,0-36.04-4.394-51.919-12.797C280.518,354.101,280.683,354.062,280.847,354.02z
	 M16,255.471c0-75.58,61.489-137.069,137.069-137.069c21.886,0,43.103,5.202,62.11,14.867c-11.697-3.481-23.946-5.267-36.509-5.267
	c-70.287,0-127.469,57.182-127.469,127.469S108.383,382.94,178.67,382.94c12.562,0,24.812-1.787,36.508-5.267
	c-19.006,9.665-40.223,14.867-62.109,14.867C77.489,392.54,16,331.051,16,255.471z M357.873,392.54
	c-21.886,0-43.103-5.202-62.11-14.867c11.697,3.481,23.946,5.267,36.509,5.267c70.287,0,127.469-57.182,127.469-127.469
	s-57.182-127.469-127.469-127.469c-12.562,0-24.812,1.787-36.508,5.267c19.006-9.665,40.223-14.867,62.109-14.867
	c75.58,0,137.069,61.489,137.069,137.069S433.453,392.54,357.873,392.54z"/>
<path d="M255.471,118.402c4.418,0,8-3.582,8-8V42.134c0-4.418-3.582-8-8-8s-8,3.582-8,8v68.268
	C247.471,114.82,251.053,118.402,255.471,118.402z"/>
<path d="M255.471,392.54c-4.418,0-8,3.582-8,8v68.268c0,4.418,3.582,8,8,8s8-3.582,8-8V400.54
	C263.471,396.122,259.889,392.54,255.471,392.54z"/>
<g>
</g>
<g>
</g>
<g>
</g>
<g>
</g>
<g>
</g>
<g>
</g>
<g>
</g>
<g>
</g>
<g>
</g>
<g>
</g>
<g>
</g>
<g>
</g>
<g>
</g>
<g>
</g>
<g>
</g>
</svg>
