<?xml version="1.0" encoding="iso-8859-1"?>
<!-- Generator: Adobe Illustrator 19.0.0, SVG Export Plug-In . SVG Version: 6.00 Build 0)  -->
<svg version="1.1" id="Layer_1" xmlns="http://www.w3.org/2000/svg" xmlns:xlink="http://www.w3.org/1999/xlink" x="0px" y="0px"
	 viewBox="0 0 512 512" style="enable-background:new 0 0 512 512;" xml:space="preserve">
<path style="fill:#E7DECC;" d="M256,495.432c-134.38,0-243.708-109.328-243.708-243.708S121.62,8.017,256,8.017
	s243.708,109.327,243.708,243.708S390.38,495.432,256,495.432z M256,50.772c-110.806,0-200.952,90.146-200.952,200.952
	S145.194,452.676,256,452.676s200.952-90.146,200.952-200.952S366.806,50.772,256,50.772z"/>
<g>
	<circle style="fill:#C8B696;" cx="33.67" cy="251.724" r="17.102"/>
	<circle style="fill:#C8B696;" cx="478.33" cy="260.276" r="17.102"/>
	<circle style="fill:#C8B696;" cx="260.276" cy="33.67" r="17.102"/>
	<circle style="fill:#C8B696;" cx="251.724" cy="478.33" r="17.102"/>
	<circle style="fill:#C8B696;" cx="101.812" cy="95.762" r="17.102"/>
	<circle style="fill:#C8B696;" cx="416.238" cy="101.812" r="17.102"/>
	<circle style="fill:#C8B696;" cx="95.762" cy="410.188" r="17.102"/>
	<circle style="fill:#C8B696;" cx="410.188" cy="416.238" r="17.102"/>
</g>
<path d="M33.67,276.843c13.851,0,25.119-11.268,25.119-25.119c0-13.851-11.268-25.119-25.119-25.119S8.551,237.874,8.551,251.724
	S19.819,276.843,33.67,276.843z M33.67,242.639c5.01,0,9.086,4.076,9.086,9.086c0,5.01-4.076,9.086-9.086,9.086
	s-9.086-4.076-9.086-9.086C24.585,246.715,28.66,242.639,33.67,242.639z"/>
<path d="M84.443,208.969c0-9.136-7.432-16.568-16.568-16.568s-16.568,7.432-16.568,16.568s7.432,16.568,16.568,16.568
	S84.443,218.105,84.443,208.969z"/>
<path d="M33.136,303.031c0-9.136-7.432-16.568-16.568-16.568S0,293.895,0,303.031s7.432,16.568,16.568,16.568
	S33.136,312.167,33.136,303.031z"/>
<path d="M51.307,290.205c0,6.778,5.514,12.292,12.292,12.292s12.292-5.514,12.292-12.292s-5.514-12.292-12.292-12.292
	S51.307,283.427,51.307,290.205z"/>
<path d="M20.843,216.985c6.778,0,12.292-5.514,12.292-12.292s-5.514-12.292-12.292-12.292s-12.292,5.514-12.292,12.292
	S14.066,216.985,20.843,216.985z"/>
<path d="M478.33,235.157c-13.851,0-25.119,11.268-25.119,25.119c0,13.851,11.268,25.119,25.119,25.119s25.119-11.268,25.119-25.119
	C503.449,246.425,492.181,235.157,478.33,235.157z M478.33,269.361c-5.01,0-9.086-4.076-9.086-9.086c0-5.01,4.076-9.086,9.086-9.086
	s9.086,4.076,9.086,9.086C487.415,265.285,483.34,269.361,478.33,269.361z"/>
<path d="M444.125,319.599c9.136,0,16.568-7.432,16.568-16.568s-7.432-16.568-16.568-16.568s-16.568,7.432-16.568,16.568
	S434.989,319.599,444.125,319.599z"/>
<path d="M495.432,192.401c-9.136,0-16.568,7.432-16.568,16.568s7.432,16.568,16.568,16.568S512,218.105,512,208.969
	S504.568,192.401,495.432,192.401z"/>
<path d="M460.693,221.795c0-6.778-5.514-12.292-12.292-12.292s-12.292,5.514-12.292,12.292s5.514,12.292,12.292,12.292
	S460.693,228.573,460.693,221.795z"/>
<path d="M491.157,295.015c-6.778,0-12.292,5.514-12.292,12.292c0,6.778,5.514,12.292,12.292,12.292s12.292-5.514,12.292-12.292
	C503.449,300.529,497.934,295.015,491.157,295.015z"/>
<path d="M260.276,58.789c13.851,0,25.119-11.268,25.119-25.119S274.126,8.551,260.276,8.551c-13.851,0-25.119,11.268-25.119,25.119
	S246.425,58.789,260.276,58.789z M260.276,24.585c5.01,0,9.086,4.076,9.086,9.086s-4.076,9.086-9.086,9.086
	c-5.01,0-9.086-4.076-9.086-9.086S255.266,24.585,260.276,24.585z"/>
<path d="M303.031,51.307c-9.136,0-16.568,7.432-16.568,16.568s7.432,16.568,16.568,16.568s16.568-7.432,16.568-16.568
	S312.167,51.307,303.031,51.307z"/>
<path d="M208.969,33.136c9.136,0,16.568-7.432,16.568-16.568S218.105,0,208.969,0s-16.568,7.432-16.568,16.568
	S199.833,33.136,208.969,33.136z"/>
<path d="M209.503,63.599c0,6.778,5.514,12.292,12.292,12.292s12.292-5.514,12.292-12.292s-5.514-12.292-12.292-12.292
	S209.503,56.821,209.503,63.599z"/>
<path d="M307.307,8.551c-6.778,0-12.292,5.514-12.292,12.292s5.514,12.292,12.292,12.292c6.778,0,12.292-5.514,12.292-12.292
	S314.085,8.551,307.307,8.551z"/>
<path d="M251.724,453.211c-13.851,0-25.119,11.268-25.119,25.119s11.268,25.119,25.119,25.119c13.851,0,25.119-11.268,25.119-25.119
	S265.575,453.211,251.724,453.211z M251.724,487.415c-5.01,0-9.086-4.076-9.086-9.086s4.076-9.086,9.086-9.086
	c5.01,0,9.086,4.076,9.086,9.086S256.734,487.415,251.724,487.415z"/>
<path d="M208.969,427.557c-9.136,0-16.568,7.432-16.568,16.568s7.432,16.568,16.568,16.568s16.568-7.432,16.568-16.568
	S218.105,427.557,208.969,427.557z"/>
<path d="M303.031,478.864c-9.136,0-16.568,7.432-16.568,16.568S293.895,512,303.031,512s16.568-7.432,16.568-16.568
	S312.167,478.864,303.031,478.864z"/>
<path d="M302.497,448.401c0-6.778-5.514-12.292-12.292-12.292s-12.292,5.514-12.292,12.292s5.514,12.292,12.292,12.292
	S302.497,455.179,302.497,448.401z"/>
<path d="M204.693,478.864c-6.778,0-12.292,5.514-12.292,12.292s5.514,12.292,12.292,12.292s12.292-5.514,12.292-12.292
	S211.471,478.864,204.693,478.864z"/>
<path d="M101.812,120.873c6.433,0,12.864-2.449,17.762-7.344l0,0c4.745-4.744,7.357-11.052,7.357-17.762
	c0-6.709-2.613-13.018-7.357-17.762c-9.794-9.795-25.73-9.794-35.524,0c-4.744,4.744-7.357,11.052-7.357,17.762
	c0,6.709,2.613,13.018,7.357,17.763C88.948,118.425,95.38,120.873,101.812,120.873z M95.388,89.341
	c1.771-1.771,4.097-2.656,6.424-2.656s4.654,0.886,6.425,2.657c1.716,1.716,2.662,3.997,2.662,6.424s-0.945,4.708-2.662,6.424
	c-3.541,3.542-9.307,3.542-12.849,0c-1.716-1.716-2.662-3.998-2.662-6.425S93.671,91.057,95.388,89.341z"/>
<path d="M156.232,106.279c4.242,0,8.485-1.615,11.715-4.845c6.459-6.459,6.459-16.97,0-23.43c-6.459-6.46-16.972-6.459-23.43,0
	c-6.459,6.459-6.459,16.97,0,23.43C147.746,104.664,151.988,106.279,156.232,106.279z"/>
<path d="M53.439,136.512c4.244,0,8.486-1.615,11.715-4.845c6.459-6.459,6.459-16.97,0-23.43c-6.459-6.458-16.97-6.458-23.43,0
	c-6.459,6.459-6.459,16.97,0,23.43C44.954,134.898,49.197,136.512,53.439,136.512z"/>
<path d="M104.458,135.446c-4.792-4.793-12.592-4.793-17.383,0c-2.322,2.322-3.601,5.409-3.601,8.692s1.279,6.371,3.601,8.692
	c2.396,2.396,5.544,3.595,8.692,3.595c3.148,0,6.296-1.198,8.691-3.595C109.249,148.039,109.251,140.24,104.458,135.446z"/>
<path d="M125.998,65.726c3.148,0,6.296-1.198,8.692-3.595c4.793-4.793,4.793-12.59,0-17.383c-4.792-4.793-12.59-4.794-17.383,0
	c-4.793,4.793-4.793,12.59,0,17.383C119.703,64.528,122.851,65.726,125.998,65.726z"/>
<path d="M392.426,398.472C392.426,398.473,392.426,398.473,392.426,398.472c-4.745,4.745-7.357,11.052-7.357,17.763
	c0,6.711,2.613,13.018,7.357,17.762c4.898,4.898,11.329,7.345,17.762,7.345c6.432,0,12.865-2.449,17.762-7.345
	c4.744-4.744,7.357-11.052,7.357-17.762c0-6.709-2.613-13.018-7.357-17.763C418.156,388.68,402.221,388.68,392.426,398.472z
	 M416.612,422.659c-3.542,3.542-9.307,3.542-12.849,0c-1.716-1.716-2.662-3.997-2.662-6.424s0.945-4.708,2.662-6.425l0,0
	c3.542-3.541,9.307-3.543,12.849,0c1.716,1.716,2.662,3.998,2.662,6.425S418.329,420.943,416.612,422.659z"/>
<path d="M344.053,410.566c-6.459,6.459-6.459,16.97,0,23.43c3.229,3.23,7.473,4.845,11.715,4.845c4.243,0,8.486-1.615,11.715-4.845
	c6.459-6.459,6.459-16.97,0-23.43C361.024,404.106,350.513,404.105,344.053,410.566z"/>
<path d="M446.845,380.333c-6.459,6.459-6.459,16.97,0,23.43c3.229,3.229,7.472,4.844,11.714,4.844s8.485-1.615,11.715-4.844
	c6.459-6.459,6.459-16.97,0-23.43C463.815,373.872,453.304,373.873,446.845,380.333z"/>
<path d="M407.542,376.554c2.396,2.396,5.544,3.595,8.691,3.595c3.148,0,6.296-1.198,8.692-3.595
	c2.322-2.322,3.601-5.409,3.601-8.692c0-3.284-1.279-6.371-3.601-8.692c-4.792-4.793-12.591-4.794-17.383,0
	C402.751,363.961,402.749,371.76,407.542,376.554z"/>
<path d="M377.31,449.868c-4.793,4.793-4.793,12.591,0,17.383c2.396,2.396,5.544,3.595,8.692,3.595s6.296-1.198,8.691-3.595
	c4.793-4.793,4.793-12.59,0-17.383C389.901,445.076,382.102,445.076,377.31,449.868z"/>
<path d="M398.472,119.574C398.473,119.574,398.473,119.574,398.472,119.574c4.745,4.745,11.052,7.357,17.763,7.357
	c6.711,0,13.018-2.613,17.762-7.357c9.794-9.794,9.794-25.729,0-35.524c-4.744-4.744-11.052-7.357-17.762-7.357
	c-6.709,0-13.018,2.613-17.763,7.357C388.679,93.845,388.679,109.781,398.472,119.574z M409.81,95.388
	c1.716-1.716,3.998-2.662,6.425-2.662s4.708,0.945,6.424,2.662c3.542,3.542,3.542,9.307,0,12.849
	c-1.716,1.716-3.997,2.662-6.424,2.662s-4.708-0.945-6.425-2.662l0,0C406.267,104.695,406.267,98.93,409.81,95.388z"/>
<path d="M422.28,172.792c4.242,0,8.485-1.615,11.715-4.845c6.459-6.459,6.459-16.971,0-23.43c-6.459-6.46-16.971-6.46-23.43,0
	c-6.459,6.459-6.459,16.971,0,23.43C413.795,171.177,418.038,172.792,422.28,172.792z"/>
<path d="M392.048,70c4.242,0,8.485-1.615,11.715-4.845c6.458-6.459,6.458-16.97,0-23.43c-6.459-6.46-16.971-6.46-23.43,0
	c-6.459,6.459-6.459,16.971,0,23.43C383.563,68.386,387.805,70,392.048,70z"/>
<path d="M359.17,104.458c2.396,2.396,5.543,3.595,8.691,3.595c3.147,0,6.296-1.198,8.692-3.595c4.793-4.793,4.793-12.59,0-17.383
	c-2.322-2.322-5.409-3.601-8.692-3.601s-6.371,1.279-8.692,3.601C354.377,91.867,354.377,99.665,359.17,104.458z"/>
<path d="M458.56,138.285c3.148,0,6.296-1.198,8.692-3.595c4.793-4.793,4.793-12.59,0-17.383c-4.792-4.793-12.592-4.794-17.383,0
	c-4.793,4.793-4.793,12.59,0,17.383C452.265,137.087,455.413,138.285,458.56,138.285z"/>
<path d="M113.528,392.426C113.527,392.426,113.527,392.426,113.528,392.426c-4.745-4.745-11.052-7.357-17.763-7.357
	c-6.711,0-13.018,2.613-17.762,7.357c-9.794,9.794-9.794,25.729,0,35.524c4.744,4.744,11.052,7.357,17.762,7.357
	c6.709,0,13.018-2.613,17.763-7.357C123.321,418.155,123.321,402.219,113.528,392.426z M102.19,416.612
	c-1.716,1.716-3.998,2.662-6.425,2.662s-4.708-0.945-6.424-2.662c-3.542-3.542-3.542-9.307,0-12.849
	c1.716-1.716,3.997-2.662,6.424-2.662s4.708,0.945,6.424,2.662C105.733,407.305,105.733,413.07,102.19,416.612z"/>
<path d="M89.72,372.329c4.242,0,8.485-1.615,11.715-4.845c6.459-6.459,6.459-16.971,0-23.43c-6.459-6.46-16.971-6.46-23.43,0
	c-6.459,6.459-6.459,16.971,0,23.43C81.234,370.714,85.476,372.329,89.72,372.329z"/>
<path d="M108.236,446.846c-6.458,6.459-6.458,16.97,0,23.43c3.229,3.23,7.473,4.845,11.715,4.845c4.242,0,8.485-1.615,11.715-4.845
	c6.459-6.459,6.459-16.971,0-23.43C125.208,440.384,114.697,440.385,108.236,446.846z"/>
<path d="M152.83,407.542c-4.791-4.792-12.589-4.793-17.384,0c-4.793,4.793-4.793,12.59,0,17.383
	c2.322,2.322,5.409,3.601,8.692,3.601c3.284,0,6.371-1.279,8.692-3.601C157.623,420.133,157.623,412.335,152.83,407.542z"/>
<path d="M44.748,377.31c-4.793,4.793-4.793,12.59,0,17.383c2.396,2.396,5.544,3.595,8.692,3.595c3.148,0,6.296-1.198,8.691-3.595
	c4.793-4.793,4.793-12.59,0-17.383C57.339,372.516,49.54,372.517,44.748,377.31z"/>
<path d="M161.959,45.962c4.427,0,8.017-3.589,8.017-8.017s-3.589-8.017-8.017-8.017h-0.011c-4.427,0-8.011,3.589-8.011,8.017
	S157.531,45.962,161.959,45.962z"/>
<path d="M33.692,174.23c4.427,0,8.017-3.589,8.017-8.017s-3.589-8.017-8.017-8.017h-0.011c-4.427,0-8.011,3.589-8.011,8.017
	S29.264,174.23,33.692,174.23z"/>
<path d="M33.692,337.77h-0.011c-4.427,0-8.011,3.589-8.011,8.017c0,4.427,3.595,8.017,8.022,8.017s8.017-3.589,8.017-8.017
	C41.708,341.36,38.119,337.77,33.692,337.77z"/>
<path d="M350.084,37.411c4.427,0,8.017-3.589,8.017-8.017s-3.589-8.017-8.017-8.017h-0.011c-4.427,0-8.011,3.589-8.011,8.017
	S345.657,37.411,350.084,37.411z"/>
<path d="M195.629,63.599c0-4.427-3.589-8.017-8.017-8.017h-0.011c-4.427,0-8.011,3.589-8.011,8.017s3.595,8.017,8.022,8.017
	S195.629,68.027,195.629,63.599z"/>
<path d="M59.345,320.668h-0.011c-4.427,0-8.011,3.589-8.011,8.017c0,4.427,3.595,8.017,8.022,8.017s8.017-3.589,8.017-8.017
	C67.362,324.257,63.772,320.668,59.345,320.668z"/>
<path d="M67.885,158.196c-4.427,0-8.011,3.589-8.011,8.017s3.595,8.017,8.022,8.017s8.017-3.589,8.017-8.017
	s-3.589-8.017-8.017-8.017H67.885z"/>
<path d="M170.51,431.833h-0.011c-4.427,0-8.011,3.589-8.011,8.017c0,4.427,3.595,8.017,8.022,8.017s8.017-3.589,8.017-8.017
	C178.527,435.422,174.937,431.833,170.51,431.833z"/>
<path d="M332.982,448.935h-0.011c-4.427,0-8.011,3.589-8.011,8.017c0,4.427,3.595,8.017,8.022,8.017
	c4.427,0,8.017-3.589,8.017-8.017C340.998,452.525,337.409,448.935,332.982,448.935z"/>
<path d="M452.163,345.787c0-4.427-3.589-8.017-8.017-8.017h-0.011c-4.427,0-8.011,3.589-8.011,8.017
	c0,4.427,3.595,8.017,8.022,8.017S452.163,350.214,452.163,345.787z"/>
<path d="M478.351,346.322h-0.011c-4.427,0-8.011,3.589-8.011,8.017c0,4.427,3.595,8.017,8.022,8.017
	c4.427,0,8.017-3.589,8.017-8.017C486.368,349.911,482.779,346.322,478.351,346.322z"/>
<path d="M436.125,183.315c0,4.427,3.595,8.017,8.022,8.017s8.017-3.589,8.017-8.017s-3.589-8.017-8.017-8.017h-0.011
	C439.709,175.299,436.125,178.888,436.125,183.315z"/>
<path d="M478.351,174.23c4.427,0,8.017-3.589,8.017-8.017s-3.589-8.017-8.017-8.017h-0.011c-4.427,0-8.011,3.589-8.011,8.017
	S473.924,174.23,478.351,174.23z"/>
<path d="M350.084,474.589h-0.011c-4.427,0-8.011,3.589-8.011,8.017s3.595,8.017,8.022,8.017c4.427,0,8.017-3.589,8.017-8.017
	S354.511,474.589,350.084,474.589z"/>
<path d="M161.959,466.038h-0.011c-4.427,0-8.011,3.589-8.011,8.017s3.595,8.017,8.022,8.017s8.017-3.589,8.017-8.017
	S166.386,466.038,161.959,466.038z"/>
<path d="M341.533,71.616c4.427,0,8.017-3.589,8.017-8.017s-3.589-8.017-8.017-8.017h-0.011c-4.427,0-8.011,3.589-8.011,8.017
	S337.105,71.616,341.533,71.616z"/>
<g>
</g>
<g>
</g>
<g>
</g>
<g>
</g>
<g>
</g>
<g>
</g>
<g>
</g>
<g>
</g>
<g>
</g>
<g>
</g>
<g>
</g>
<g>
</g>
<g>
</g>
<g>
</g>
<g>
</g>
</svg>
