<?xml version="1.0" encoding="iso-8859-1"?>
<!-- Generator: Adobe Illustrator 19.0.0, SVG Export Plug-In . SVG Version: 6.00 Build 0)  -->
<svg version="1.1" id="Layer_1" xmlns="http://www.w3.org/2000/svg" xmlns:xlink="http://www.w3.org/1999/xlink" x="0px" y="0px"
	 viewBox="0 0 512.001 512.001" style="enable-background:new 0 0 512.001 512.001;" xml:space="preserve">
<path style="fill:#FFEB64;" d="M171.947,291.683L43.676,419.955c-13.362,13.353-13.362,35.016,0,48.369
	c6.672,6.681,15.433,10.021,24.184,10.021s17.512-3.34,24.184-10.021l128.271-128.271L171.947,291.683z"/>
<circle style="fill:#FFFFFF;" cx="179.034" cy="332.971" r="25.654"/>
<path style="fill:#FF5050;" d="M477.291,10.521l-23.15,23.15l24.187,24.187l23.15-23.15c1.603-1.603,2.504-3.779,2.504-6.047V16.568
	c0-4.723-3.829-8.551-8.551-8.551h-12.094C481.07,8.017,478.895,8.918,477.291,10.521z"/>
<path style="fill:#E4EAF8;" d="M461.655,26.158l24.187,24.187c3.339,3.339,3.339,8.755,0,12.094L230.337,317.943l-36.28-36.28
	L449.562,26.158C452.901,22.817,458.316,22.817,461.655,26.158z"/>
<path style="fill:#C7CFE2;" d="M190.87,272.755l-20.842,12.505c-4.771,2.863-5.581,9.446-1.647,13.38l44.978,44.978
	c3.934,3.934,10.517,3.123,13.38-1.647l12.505-20.842L190.87,272.755z"/>
<g>
	<path style="fill:#D5DCED;" d="M287.907,187.812l-30.234,18.141l-66.804,66.804l18.141,18.141l84.943-84.943
		c3.339-3.339,3.339-8.755,0-12.094L287.907,187.812z"/>
	<path style="fill:#D5DCED;" d="M306.047,218.045l-84.943,84.943l18.141,18.141l66.804-66.804l18.14-30.234l-6.047-6.047
		C314.801,214.705,309.386,214.705,306.047,218.045z"/>
	
		<rect x="194.413" y="291.931" transform="matrix(0.7071 0.7071 -0.7071 0.7071 277.9667 -53.0025)" style="fill:#D5DCED;" width="17.101" height="34.205"/>
	<path style="fill:#D5DCED;" d="M461.655,26.157c-3.339-3.339-8.753-3.339-12.093,0l-10.219,10.219l36.281,36.279l10.218-10.218
		c3.34-3.339,3.34-8.753,0-12.094L461.655,26.157z"/>
</g>
<path d="M503.982,0h-24.187c-2.126,0-4.166,0.844-5.669,2.348L460.19,16.285c-1.472-0.421-3.008-0.649-4.581-0.649
	c-4.426,0-8.587,1.723-11.715,4.853L282.937,181.445l-29.388,17.632c-0.561,0.337-1.081,0.742-1.544,1.206l-66.105,66.105
	l-29.388,17.633c-2.116,1.27-3.531,3.445-3.832,5.895c-0.301,2.45,0.542,4.903,2.289,6.649l60.467,60.467
	c1.513,1.513,3.555,2.348,5.669,2.348c0.326,0,0.653-0.02,0.98-0.06c2.45-0.301,4.625-1.715,5.895-3.832l17.633-29.388
	l66.105-66.105c0.464-0.464,0.869-0.982,1.206-1.544l17.633-29.388L491.51,68.107c3.13-3.13,4.854-7.29,4.854-11.715
	c0-1.573-0.228-3.11-0.649-4.581l13.937-13.937c1.504-1.503,2.348-3.542,2.348-5.669V8.017C511.999,3.589,508.41,0,503.982,0z
	 M348.375,188.567l-24.942-24.942l80.134-80.134l24.942,24.942L348.375,188.567z M312.095,174.962l24.942,24.942l-12.85,12.85
	l-24.942-24.942L312.095,174.962z M262.644,212.318l24.02-14.411l8.046,8.046l-79.652,79.652l-12.85-12.85L262.644,212.318z
	 M189.628,282.85l14.093,14.092l-12.85,12.85l-17.305-17.305L189.628,282.85z M219.513,338.433l-17.305-17.305l12.85-12.85
	l14.093,14.092L219.513,338.433z M299.681,249.355l-60.437,60.437l-12.85-12.85l79.652-79.652l8.046,8.046L299.681,249.355z
	 M480.173,56.769l-40.326,40.326l-24.942-24.942l40.327-40.327c0.039-0.038,0.156-0.156,0.377-0.156
	c0.221,0,0.339,0.118,0.377,0.156l0,0l24.188,24.188c0.038,0.038,0.156,0.156,0.156,0.377S480.213,56.73,480.173,56.769z
	 M495.965,28.883l-10.124,10.124l-12.85-12.85l10.124-10.124h12.85V28.883z"/>
<path d="M185.202,363.835l-66.514,66.514c-3.131,3.131-3.131,8.207,0,11.337c1.565,1.565,3.617,2.348,5.669,2.348
	s4.104-0.782,5.669-2.348l66.514-66.514c3.131-3.131,3.131-8.207,0-11.337C193.409,360.704,188.332,360.704,185.202,363.835z"/>
<path d="M130.781,490.816c-3.332,3.331-7.76,5.166-12.471,5.166c-4.712,0-9.14-1.834-12.471-5.166s-5.166-7.76-5.166-12.471
	c0-4.711,1.834-9.14,5.166-12.471c3.131-3.131,3.131-8.207,0-11.337c-3.131-3.131-8.207-3.131-11.337,0
	c-13.129,13.129-13.129,34.49,0,47.619c6.564,6.564,15.186,9.846,23.808,9.846c8.623,0,17.245-3.282,23.809-9.846
	c3.131-3.131,3.131-8.207,0-11.337C138.988,487.686,133.911,487.686,130.781,490.816z"/>
<path d="M75.982,395.66c2.051,0,4.104-0.782,5.669-2.348l66.514-66.514c3.131-3.131,3.131-8.207,0-11.337
	c-3.131-3.131-8.207-3.131-11.337,0l-66.514,66.514c-3.131,3.131-3.131,8.207,0,11.337C71.879,394.878,73.931,395.66,75.982,395.66z
	"/>
<path d="M57.464,417.499c3.131-3.131,3.131-8.207,0-11.337c-3.131-3.131-8.207-3.131-11.337,0c-3.332,3.331-7.76,5.166-12.471,5.166
	s-9.14-1.834-12.471-5.166s-5.166-7.76-5.166-12.471s1.834-9.139,5.166-12.471c3.131-3.131,3.131-8.207,0-11.337
	c-3.131-3.131-8.207-3.131-11.337,0c-13.129,13.129-13.129,34.49,0,47.617c6.564,6.564,15.187,9.846,23.809,9.846
	S50.899,424.064,57.464,417.499z"/>
<path d="M27.986,472.676l-8.551,8.551c-3.131,3.131-3.131,8.207,0,11.337c1.565,1.565,3.617,2.348,5.669,2.348
	s4.104-0.782,5.669-2.348l8.551-8.551c3.131-3.131,3.131-8.207,0-11.337C36.193,469.545,31.117,469.545,27.986,472.676z"/>
<path d="M172.352,339.647c-3.131-3.131-8.207-3.131-11.337,0L53.64,447.022c-3.131,3.131-3.131,8.207,0,11.337
	c1.565,1.565,3.617,2.348,5.669,2.348s4.104-0.782,5.669-2.348l107.375-107.375C175.483,347.855,175.483,342.778,172.352,339.647z"
	/>
<path d="M161.015,460.582l-6.047,6.047c-3.131,3.131-3.131,8.207,0,11.337c1.565,1.565,3.617,2.348,5.669,2.348
	c2.051,0,4.104-0.782,5.669-2.348l6.047-6.047c3.131-3.131,3.131-8.207,0-11.337C169.221,457.453,164.145,457.453,161.015,460.582z"
	/>
<path d="M39.701,359.38c2.051,0,4.104-0.782,5.669-2.348l6.047-6.047c3.131-3.131,3.131-8.207,0-11.337
	c-3.131-3.131-8.207-3.131-11.337,0l-6.047,6.047c-3.131,3.131-3.131,8.207,0,11.337C35.598,358.597,37.65,359.38,39.701,359.38z"/>
<g>
</g>
<g>
</g>
<g>
</g>
<g>
</g>
<g>
</g>
<g>
</g>
<g>
</g>
<g>
</g>
<g>
</g>
<g>
</g>
<g>
</g>
<g>
</g>
<g>
</g>
<g>
</g>
<g>
</g>
</svg>
