<?xml version="1.0" encoding="iso-8859-1"?>
<!-- Generator: Adobe Illustrator 19.0.0, SVG Export Plug-In . SVG Version: 6.00 Build 0)  -->
<svg version="1.1" id="Layer_1" xmlns="http://www.w3.org/2000/svg" xmlns:xlink="http://www.w3.org/1999/xlink" x="0px" y="0px"
	 viewBox="0 0 512 512" style="enable-background:new 0 0 512 512;" xml:space="preserve">
<circle style="fill:#FF965F;" cx="191.866" cy="320.139" r="119.122"/>
<path style="fill:#FF7846;" d="M238.66,405.232c-58.741,0-106.359-47.619-106.359-106.358c0-43.821,26.508-81.439,64.358-97.729
	c-1.593-0.063-3.188-0.121-4.797-0.121c-65.79,0-119.122,53.332-119.122,119.122c0,65.788,53.332,119.122,119.122,119.122
	c37.521,0,70.971-17.364,92.806-44.476C270.744,401.482,255.14,405.232,238.66,405.232z"/>
<circle style="fill:#D2B98C;" cx="320.151" cy="191.854" r="119.122"/>
<path style="fill:#C0A27A;" d="M366.945,276.947c-58.741,0-106.358-47.619-106.358-106.359c0-43.821,26.508-81.439,64.358-97.729
	c-1.593-0.063-3.188-0.121-4.797-0.121c-65.79,0-119.122,53.332-119.122,119.122c0,65.788,53.332,119.122,119.122,119.122
	c37.521,0,70.971-17.364,92.806-44.476C399.029,273.197,383.425,276.947,366.945,276.947z"/>
<path style="fill:#FFEB64;" d="M439.26,475.912c-9.379,0-18.765-3.579-25.915-10.738L46.825,98.658
	c-14.318-14.318-14.318-37.521,0-51.839c14.299-14.308,37.53-14.308,51.829,0l366.519,366.524c14.318,14.308,14.318,37.521,0,51.829
	C458.024,472.332,448.637,475.912,439.26,475.912z"/>
<path style="fill:#FFFFFF;" d="M244.742,192.909c-26.383,4.681-47.152,25.45-51.832,51.832l74.356,74.355
	c26.382-4.681,47.149-25.45,51.831-51.831L244.742,192.909z"/>
<path d="M51.323,39.175c-3.355-3.355-8.794-3.355-12.148,0c-3.355,3.355-3.355,8.794,0,12.148l421.502,421.502
	c1.677,1.677,3.876,2.516,6.074,2.516c2.198,0,4.397-0.838,6.074-2.516c3.355-3.355,3.355-8.794,0-12.148L51.323,39.175z"/>
<path d="M14.664,2.516c-3.355-3.355-8.794-3.355-12.148,0c-3.355,3.355-3.355,8.794,0,12.148l9.169,9.169
	c1.677,1.677,3.876,2.516,6.074,2.516s4.397-0.838,6.074-2.516c3.355-3.355,3.355-8.794,0-12.148L14.664,2.516z"/>
<path d="M509.483,497.335l-9.169-9.169c-3.355-3.355-8.794-3.355-12.148,0c-3.355,3.355-3.355,8.794,0,12.148l9.169,9.169
	c1.677,1.677,3.876,2.516,6.074,2.516c2.198,0,4.397-0.838,6.074-2.516C512.838,506.128,512.838,500.689,509.483,497.335z"/>
<path d="M106.302,149.133c-3.355-3.355-8.794-3.355-12.148,0c-3.355,3.355-3.355,8.794,0,12.148l43.308,43.308
	c-44.324,20.877-73.314,65.8-73.314,115.556c0,70.42,57.292,127.712,127.712,127.712c49.717,0,94.674-29.002,115.555-73.315
	l43.309,43.309c1.677,1.677,3.876,2.516,6.074,2.516s4.397-0.838,6.074-2.516c3.355-3.355,3.355-8.794,0-12.148L106.302,149.133z
	 M191.86,430.676c-60.947,0-110.531-49.584-110.531-110.531c0-45.171,27.596-85.749,69.165-102.523l143.891,143.891
	C277.613,403.071,236.996,430.676,191.86,430.676z"/>
<path d="M405.703,362.872c1.677,1.677,3.876,2.516,6.074,2.516s4.397-0.838,6.074-2.516c3.355-3.355,3.355-8.794,0-12.148
	l-43.306-43.306c44.328-20.875,73.313-65.783,73.313-115.556c0-70.42-57.292-127.712-127.712-127.712
	c-49.639,0-94.669,29.026-115.554,73.315l-43.31-43.31c-3.355-3.355-8.794-3.355-12.148,0c-3.355,3.355-3.355,8.794,0,12.148
	L405.703,362.872z M320.145,81.329c60.947,0,110.531,49.584,110.531,110.531c0,45.187-27.593,85.748-69.166,102.521L217.618,150.491
	C234.39,108.957,275.079,81.329,320.145,81.329z"/>
<path d="M362.872,149.133c-3.355-3.355-8.794-3.355-12.148,0l-45.816,45.816c-3.355,3.355-3.355,8.794,0,12.148
	c1.677,1.677,3.876,2.516,6.074,2.516c2.198,0,4.397-0.838,6.074-2.516l45.816-45.816
	C366.227,157.926,366.227,152.487,362.872,149.133z"/>
<path d="M295.372,147.058c-4.499-1.499-9.366,0.932-10.866,5.434l-9.163,27.49c-1.5,4.501,0.932,9.366,5.434,10.866
	c0.901,0.3,1.817,0.443,2.718,0.443c3.597,0,6.948-2.277,8.148-5.876l9.163-27.49C302.306,153.423,299.873,148.558,295.372,147.058z
	"/>
<path d="M364.948,216.633c-1.5-4.501-6.365-6.933-10.866-5.434l-27.49,9.163c-4.501,1.5-6.933,6.365-5.434,10.866
	c1.2,3.6,4.552,5.876,8.148,5.876c0.9,0,1.817-0.143,2.718-0.443l27.49-9.163C364.015,225.999,366.448,221.134,364.948,216.633z"/>
<path d="M149.133,362.872c1.677,1.677,3.876,2.516,6.074,2.516s4.397-0.838,6.074-2.516l45.816-45.816
	c3.355-3.355,3.355-8.794,0-12.148c-3.355-3.355-8.794-3.355-12.148,0l-45.816,45.816
	C145.778,354.078,145.778,359.517,149.133,362.872z"/>
<path d="M216.633,364.947c0.901,0.3,1.817,0.443,2.718,0.443c3.597,0,6.948-2.277,8.148-5.876l9.163-27.49
	c1.5-4.501-0.932-9.366-5.434-10.866c-4.5-1.502-9.366,0.932-10.866,5.434l-9.163,27.49
	C209.7,358.582,212.133,363.447,216.633,364.947z"/>
<path d="M147.058,295.371c1.2,3.6,4.552,5.876,8.148,5.876c0.9,0,1.817-0.143,2.718-0.443l27.49-9.163
	c4.501-1.5,6.933-6.365,5.434-10.866c-1.502-4.501-6.366-6.934-10.866-5.434l-27.49,9.163
	C147.99,286.006,145.557,290.871,147.058,295.371z"/>
<g>
</g>
<g>
</g>
<g>
</g>
<g>
</g>
<g>
</g>
<g>
</g>
<g>
</g>
<g>
</g>
<g>
</g>
<g>
</g>
<g>
</g>
<g>
</g>
<g>
</g>
<g>
</g>
<g>
</g>
</svg>
