<?xml version="1.0" encoding="iso-8859-1"?>
<!-- Generator: Adobe Illustrator 19.0.0, SVG Export Plug-In . SVG Version: 6.00 Build 0)  -->
<svg version="1.1" id="Layer_1" xmlns="http://www.w3.org/2000/svg" xmlns:xlink="http://www.w3.org/1999/xlink" x="0px" y="0px"
	 viewBox="0 0 512 512" style="enable-background:new 0 0 512 512;" xml:space="preserve">
<circle style="fill:#FF965F;" cx="256" cy="256" r="162.472"/>
<path style="fill:#FF7846;" d="M319.828,372.051c-80.117,0-145.064-64.947-145.064-145.064c0-59.768,36.154-111.077,87.779-133.293
	c-2.173-0.087-4.348-0.166-6.543-0.166c-89.73,0-162.472,72.741-162.472,162.472S166.269,418.472,256,418.472
	c51.175,0,96.798-23.683,126.579-60.662C363.588,366.936,342.305,372.051,319.828,372.051z"/>
<circle style="fill:#FFAF73;" cx="285.929" cy="157.662" r="21.378"/>
<g>
	<circle style="fill:#FF965F;" cx="179.039" cy="324.409" r="17.102"/>
	<circle style="fill:#FF965F;" cx="234.622" cy="362.889" r="12.827"/>
</g>
<path style="fill:#FFEB64;" d="M412.855,461.228L50.772,99.145c-13.358-13.358-13.358-35.015,0-48.373l0,0
	c13.358-13.358,35.015-13.358,48.373,0l362.082,362.082c13.358,13.358,13.358,35.015,0,48.373l0,0
	C447.869,474.586,426.212,474.586,412.855,461.228z"/>
<path style="fill:#FFFFFF;" d="M239.996,196.142c-21.368,5.701-38.153,22.486-43.855,43.855l75.862,75.862
	c21.368-5.702,38.153-22.486,43.855-43.855L239.996,196.142z"/>
<path d="M509.651,498.315l-8.559-8.559c-3.131-3.131-8.207-3.131-11.337,0c-3.131,3.131-3.131,8.207,0,11.337l8.559,8.559
	c1.565,1.565,3.617,2.348,5.668,2.348c2.051,0,4.103-0.782,5.668-2.348C512.783,506.522,512.783,501.445,509.651,498.315z"/>
<path d="M47.903,36.566c-3.131-3.131-8.207-3.131-11.337,0c-3.131,3.131-3.131,8.207,0,11.337l427.525,427.526
	c1.565,1.565,3.617,2.348,5.668,2.348s4.103-0.782,5.668-2.348c3.131-3.131,3.131-8.207,0-11.337L47.903,36.566z"/>
<path d="M13.685,2.348c-3.131-3.131-8.207-3.131-11.337,0c-3.131,3.131-3.131,8.207,0,11.337l8.556,8.556
	c1.565,1.565,3.617,2.348,5.668,2.348s4.103-0.782,5.668-2.348c3.131-3.131,3.131-8.207,0-11.337L13.685,2.348z"/>
<path d="M447.008,407.038c1.565,1.565,3.617,2.348,5.668,2.348s4.103-0.782,5.668-2.348c3.131-3.131,3.131-8.207,0-11.337
	l-54.588-54.588c17.949-31.156,25.653-67.786,21.714-103.772c-4.201-38.364-21.573-74.551-48.917-101.894
	c-27.343-27.343-63.53-44.715-101.892-48.917c-35.983-3.942-72.616,3.764-103.775,21.713l-54.588-54.588
	c-3.131-3.131-8.207-3.131-11.337,0c-3.131,3.131-3.131,8.207,0,11.337L447.008,407.038z M272.916,102.468
	c35.252,3.86,67.169,19.185,92.301,44.315c25.131,25.132,40.455,57.049,44.315,92.302c3.413,31.169-2.806,62.866-17.556,90.246
	L182.668,120.024C210.049,105.274,241.747,99.055,272.916,102.468z"/>
<path d="M64.992,104.962c-3.131-3.131-8.207-3.131-11.337,0c-3.131,3.131-3.131,8.207,0,11.337l54.588,54.588
	c-17.95,31.157-25.655,67.788-21.713,103.774c4.202,38.364,21.573,74.549,48.917,101.892s63.531,44.715,101.894,48.917
	c6.157,0.673,12.329,1.007,18.493,1.007c29.864,0,59.454-7.841,85.281-22.72l54.587,54.587c1.565,1.565,3.617,2.348,5.668,2.348
	s4.103-0.782,5.668-2.348c3.131-3.131,3.131-8.207,0-11.337L64.992,104.962z M239.086,409.532
	c-35.253-3.86-67.17-19.185-92.302-44.315c-25.131-25.132-40.455-57.048-44.315-92.301c-3.413-31.169,2.806-62.867,17.556-90.248
	l209.307,209.308C301.951,406.726,270.254,412.948,239.086,409.532z"/>
<path d="M173.371,82.094c1.565,1.566,3.617,2.348,5.668,2.348c2.051,0,4.103-0.782,5.668-2.348c3.131-3.131,3.131-8.207,0-11.337
	l-8.551-8.551c-3.131-3.131-8.207-3.131-11.337,0c-3.131,3.131-3.131,8.207,0,11.337L173.371,82.094z"/>
<path d="M76.426,187.056c2.051,0,4.103-0.782,5.668-2.348c3.131-3.131,3.131-8.207,0-11.337l-8.551-8.551
	c-3.131-3.131-8.207-3.131-11.337,0c-3.131,3.131-3.131,8.207,0,11.337l8.551,8.551C72.322,186.274,74.374,187.056,76.426,187.056z"
	/>
<path d="M338.628,429.906c-3.131-3.131-8.207-3.131-11.337,0c-3.131,3.131-3.131,8.207,0,11.337l8.551,8.551
	c1.565,1.565,3.617,2.348,5.668,2.348s4.103-0.782,5.668-2.348c3.131-3.131,3.131-8.207,0-11.337L338.628,429.906z"/>
<path d="M429.906,327.292c-3.131,3.131-3.131,8.207,0,11.337l8.551,8.551c1.565,1.565,3.617,2.348,5.668,2.348
	s4.103-0.782,5.668-2.348c3.131-3.131,3.131-8.207,0-11.337l-8.551-8.551C438.112,324.161,433.036,324.161,429.906,327.292z"/>
<path d="M401.369,118.647c2.051,0,4.103-0.782,5.668-2.348l51.307-51.307c3.131-3.131,3.131-8.207,0-11.337
	c-3.131-3.131-8.207-3.131-11.337,0l-51.307,51.307c-3.131,3.131-3.131,8.207,0,11.337
	C397.266,117.865,399.318,118.647,401.369,118.647z"/>
<path d="M373.771,101.305c0.652,0.164,1.306,0.242,1.951,0.242c3.591,0,6.86-2.432,7.771-6.075l8.551-34.205
	c1.074-4.295-1.537-8.647-5.833-9.722c-4.291-1.072-8.647,1.537-9.722,5.833l-8.551,34.205
	C366.864,95.879,369.477,100.231,373.771,101.305z"/>
<path d="M460.453,125.788c-1.074-4.296-5.428-6.908-9.722-5.833l-34.205,8.551c-4.296,1.073-6.907,5.427-5.833,9.722
	c0.911,3.643,4.179,6.075,7.771,6.075c0.643,0,1.298-0.078,1.951-0.242l34.205-8.551
	C458.916,134.436,461.528,130.083,460.453,125.788z"/>
<path d="M104.962,395.701l-51.307,51.307c-3.131,3.131-3.131,8.207,0,11.337c1.565,1.566,3.617,2.348,5.668,2.348
	c2.051,0,4.103-0.782,5.668-2.348l51.307-51.307c3.131-3.131,3.131-8.207,0-11.337C113.169,392.57,108.093,392.57,104.962,395.701z"
	/>
<path d="M138.228,410.695c-4.291-1.075-8.647,1.537-9.722,5.833l-8.551,34.205c-1.074,4.295,1.537,8.647,5.833,9.722
	c0.652,0.164,1.306,0.242,1.951,0.242c3.591,0,6.86-2.432,7.771-6.075l8.551-34.205
	C145.135,416.121,142.524,411.769,138.228,410.695z"/>
<path d="M51.546,386.212c0.911,3.643,4.179,6.075,7.771,6.075c0.643,0,1.298-0.078,1.951-0.242l34.205-8.551
	c4.296-1.073,6.907-5.427,5.833-9.722c-1.074-4.296-5.429-6.91-9.722-5.833l-34.205,8.551
	C53.084,377.564,50.472,381.917,51.546,386.212z"/>
<path d="M285.929,128.267c-16.209,0-29.395,13.186-29.395,29.395s13.186,29.395,29.395,29.395c16.209,0,29.395-13.186,29.395-29.395
	S302.137,128.267,285.929,128.267z M285.929,171.023c-7.368,0-13.361-5.993-13.361-13.361s5.993-13.361,13.361-13.361
	s13.361,5.993,13.361,13.361S293.297,171.023,285.929,171.023z"/>
<path d="M234.622,383.733c11.493,0,20.843-9.351,20.843-20.843c0-11.493-9.351-20.843-20.843-20.843
	c-11.493,0-20.843,9.351-20.843,20.843C213.778,374.382,223.129,383.733,234.622,383.733z M234.622,358.079
	c2.652,0,4.81,2.158,4.81,4.81s-2.158,4.81-4.81,4.81c-2.652,0-4.81-2.158-4.81-4.81S231.97,358.079,234.622,358.079z"/>
<path d="M354.338,230.881c-6.778,0-12.292,5.514-12.292,12.292c0,6.778,5.514,12.292,12.292,12.292s12.292-5.514,12.292-12.292
	C366.63,236.395,361.116,230.881,354.338,230.881z"/>
<path d="M149.11,272.568c6.778,0,12.292-5.514,12.292-12.292s-5.514-12.292-12.292-12.292s-12.292,5.514-12.292,12.292
	S142.333,272.568,149.11,272.568z"/>
<path d="M333.003,188.083c-4.427,0-8.059,3.632-8.059,8.059s3.632,8.059,8.059,8.059s8.059-3.632,8.059-8.059
	S337.43,188.083,333.003,188.083z"/>
<path d="M153.92,324.409c0,13.851,11.268,25.119,25.119,25.119c13.851,0,25.119-11.268,25.119-25.119s-11.268-25.119-25.119-25.119
	C165.189,299.29,153.92,310.558,153.92,324.409z M179.039,315.324c5.01,0,9.086,4.076,9.086,9.086s-4.076,9.086-9.086,9.086
	s-9.086-4.076-9.086-9.086S174.029,315.324,179.039,315.324z"/>
<g>
</g>
<g>
</g>
<g>
</g>
<g>
</g>
<g>
</g>
<g>
</g>
<g>
</g>
<g>
</g>
<g>
</g>
<g>
</g>
<g>
</g>
<g>
</g>
<g>
</g>
<g>
</g>
<g>
</g>
</svg>
