<?xml version="1.0" encoding="iso-8859-1"?>
<!-- Generator: Adobe Illustrator 19.0.0, SVG Export Plug-In . SVG Version: 6.00 Build 0)  -->
<svg version="1.1" id="Layer_1" xmlns="http://www.w3.org/2000/svg" xmlns:xlink="http://www.w3.org/1999/xlink" x="0px" y="0px"
	 viewBox="0 0 512 512" style="enable-background:new 0 0 512 512;" xml:space="preserve">
<circle style="fill:#FFEB64;" cx="269.328" cy="255.922" r="43.528"/>
<circle style="fill:#FF965F;" cx="269.328" cy="125.338" r="17.411"/>
<circle style="fill:#FFDC6E;" cx="399.912" cy="386.505" r="26.117"/>
<circle style="fill:#5AC3FF;" cx="34.278" cy="255.922" r="26.117"/>
<path d="M425.418,365.969c2.374-3.363,4.655-6.802,6.795-10.29c2.357-3.842,1.155-8.868-2.688-11.225
	c-3.842-2.358-8.868-1.155-11.225,2.688c-1.724,2.81-3.551,5.584-5.444,8.308c-4.307-2.063-9.128-3.221-14.214-3.221
	c-18.201,0-33.008,14.807-33.008,33.008c0,18.201,14.807,33.009,33.008,33.009s33.008-14.808,33.008-33.009
	C431.651,378.05,429.334,371.396,425.418,365.969z M398.642,401.924c-9.201,0-16.685-7.486-16.685-16.686
	c0-9.201,7.485-16.685,16.685-16.685c9.201,0,16.685,7.485,16.685,16.685C415.328,394.438,407.842,401.924,398.642,401.924z"/>
<path d="M161.206,455.446c-4.898-2.661-9.76-5.539-14.45-8.555c-3.791-2.439-8.842-1.342-11.279,2.448
	c-2.439,3.791-1.342,8.842,2.448,11.279c5.027,3.234,10.239,6.319,15.488,9.171c1.238,0.673,2.572,0.991,3.888,0.991
	c2.896,0,5.7-1.544,7.179-4.268C166.633,462.552,165.166,457.597,161.206,455.446z"/>
<path d="M43.729,189.211c0.857,0.287,1.728,0.422,2.586,0.422c3.416,0,6.599-2.161,7.74-5.579c1.765-5.288,3.75-10.573,5.901-15.709
	c1.741-4.157-0.218-8.94-4.376-10.681c-4.155-1.74-8.94,0.218-10.681,4.376c-2.307,5.508-4.437,11.176-6.329,16.845
	C37.144,183.162,39.454,187.785,43.729,189.211z"/>
<path d="M99.982,101.079c2.14,0,4.279-0.837,5.881-2.501c3.87-4.02,7.937-7.946,12.092-11.669c3.357-3.009,3.639-8.168,0.631-11.525
	c-3.009-3.357-8.168-3.64-11.525-0.631c-4.452,3.99-8.811,8.196-12.958,12.503c-3.126,3.247-3.027,8.413,0.22,11.539
	C95.906,100.322,97.945,101.079,99.982,101.079z"/>
<path d="M140.062,67.747c1.543,0,3.104-0.436,4.488-1.349c4.66-3.074,9.491-6.011,14.36-8.729c3.936-2.197,5.346-7.168,3.149-11.105
	c-2.197-3.935-7.169-5.344-11.104-3.148c-5.22,2.913-10.4,6.062-15.394,9.357c-3.763,2.482-4.8,7.544-2.318,11.307
	C134.811,66.458,137.411,67.747,140.062,67.747z"/>
<path d="M119.936,426.693c-4.197-3.675-8.311-7.553-12.226-11.527c-3.164-3.211-8.331-3.248-11.541-0.085s-3.248,8.331-0.085,11.541
	c4.195,4.257,8.603,8.413,13.1,12.351c1.549,1.356,3.465,2.021,5.374,2.021c2.27,0,4.53-0.942,6.144-2.785
	C123.669,434.818,123.327,429.662,119.936,426.693z"/>
<path d="M76.559,375.644c-2.381-3.826-7.414-4.998-11.241-2.616s-4.998,7.415-2.616,11.242c3.157,5.073,6.548,10.096,10.077,14.93
	c1.597,2.188,4.081,3.349,6.598,3.349c1.669,0,3.354-0.511,4.805-1.57c3.641-2.657,4.438-7.764,1.779-11.404
	C82.668,385.063,79.505,380.377,76.559,375.644z"/>
<path d="M46.287,297.762c-0.567-3.043-1.068-6.122-1.513-9.209c13.781-4.445,23.781-17.388,23.781-32.628
	c0-15.241-10.002-28.185-23.784-32.628c0.323-2.244,0.675-4.483,1.062-6.7c0.776-4.441-2.195-8.669-6.635-9.444
	c-4.435-0.776-8.669,2.195-9.444,6.635c-0.483,2.766-0.916,5.563-1.306,8.366C12.316,224.929,0,239.011,0,255.924
	c0,16.915,12.319,30.998,28.454,33.773c0.516,3.705,1.106,7.404,1.786,11.054c0.731,3.926,4.16,6.668,8.015,6.668
	c0.496,0,0.999-0.046,1.504-0.14C44.189,306.454,47.112,302.193,46.287,297.762z M16.323,255.924c0-9.9,8.055-17.955,17.955-17.955
	s17.955,8.055,17.955,17.955s-8.055,17.955-17.955,17.955S16.323,265.824,16.323,255.924z"/>
<path d="M60.976,345.897c-2.216-5.124-4.265-10.396-6.092-15.666c-1.476-4.258-6.124-6.514-10.384-5.039
	c-4.259,1.476-6.515,6.124-5.039,10.384c1.959,5.653,4.156,11.305,6.531,16.8c1.333,3.082,4.339,4.924,7.495,4.924
	c1.081,0,2.18-0.217,3.235-0.673C60.861,354.838,62.764,350.033,60.976,345.897z"/>
<path d="M63.971,141.19c1.323,0.802,2.783,1.185,4.224,1.185c2.759,0,5.452-1.399,6.986-3.931c2.888-4.763,5.995-9.484,9.234-14.03
	c2.615-3.67,1.76-8.768-1.911-11.383c-3.67-2.615-8.767-1.76-11.383,1.911c-3.471,4.872-6.801,9.931-9.897,15.037
	C58.888,133.835,60.117,138.854,63.971,141.19z"/>
<path d="M480.433,172.605c2.052,5.195,3.933,10.53,5.589,15.857c1.087,3.497,4.311,5.74,7.79,5.74c0.803,0,1.619-0.119,2.426-0.37
	c4.304-1.338,6.709-5.913,5.37-10.217c-1.776-5.713-3.793-11.436-5.994-17.007c-1.656-4.193-6.397-6.247-10.589-4.592
	C480.832,163.672,478.776,168.413,480.433,172.605z"/>
<path d="M186.493,44.05c0.955,0,1.928-0.17,2.876-0.526c5.224-1.969,10.587-3.762,15.94-5.333c4.326-1.27,6.801-5.804,5.532-10.13
	c-1.269-4.326-5.804-6.801-10.13-5.532c-5.741,1.686-11.494,3.61-17.097,5.72c-4.218,1.589-6.35,6.296-4.761,10.515
	C180.085,42.034,183.192,44.05,186.493,44.05z"/>
<path d="M493.573,221.165c0.846,5.507,1.497,11.12,1.935,16.685c0.337,4.277,3.911,7.522,8.128,7.522
	c0.214,0,0.432-0.009,0.65-0.025c4.493-0.354,7.849-4.284,7.495-8.776c-0.47-5.963-1.168-11.98-2.074-17.883
	c-0.684-4.455-4.849-7.51-9.306-6.827C495.945,212.543,492.888,216.71,493.573,221.165z"/>
<path d="M435.917,101.887c1.609,1.739,3.798,2.619,5.993,2.619c1.983,0,3.97-0.718,5.54-2.171c3.309-3.061,3.509-8.225,0.448-11.534
	c-4.059-4.388-8.333-8.679-12.705-12.757c-3.296-3.075-8.46-2.896-11.536,0.4c-3.074,3.296-2.896,8.461,0.4,11.535
	C428.138,93.786,432.128,97.793,435.917,101.887z"/>
<path d="M465.804,142.374c1.514,2.613,4.253,4.072,7.07,4.072c1.389,0,2.796-0.355,4.083-1.101c3.9-2.259,5.231-7.253,2.971-11.153
	c-2.995-5.171-6.226-10.3-9.6-15.243c-2.54-3.723-7.618-4.681-11.342-2.139c-3.723,2.541-4.68,7.618-2.139,11.342
	C459.995,132.765,463.008,137.55,465.804,142.374z"/>
<path d="M237.008,31.238c0.37,0,0.745-0.025,1.122-0.076c5.515-0.758,11.139-1.321,16.716-1.673c4.499-0.283,7.916-4.16,7.633-8.659
	s-4.163-7.916-8.659-7.633c-5.975,0.377-12.003,0.978-17.913,1.791c-4.466,0.614-7.588,4.731-6.974,9.196
	C229.495,28.276,232.993,31.238,237.008,31.238z"/>
<path d="M288.433,29.828c5.566,0.464,11.177,1.14,16.675,2.011c0.432,0.069,0.862,0.102,1.286,0.102c3.945,0,7.414-2.867,8.05-6.886
	c0.705-4.452-2.333-8.633-6.785-9.338c-5.895-0.933-11.908-1.658-17.873-2.156c-4.499-0.374-8.437,2.963-8.811,7.455
	C280.602,25.509,283.941,29.453,288.433,29.828z"/>
<path d="M383.72,59.938c4.807,2.812,9.574,5.843,14.169,9.009c1.414,0.974,3.026,1.442,4.623,1.442c2.594,0,5.146-1.234,6.728-3.532
	c2.557-3.712,1.621-8.794-2.09-11.351c-4.926-3.394-10.036-6.642-15.189-9.657c-3.89-2.275-8.888-0.967-11.166,2.924
	C378.52,52.664,379.829,57.664,383.72,59.938z"/>
<path d="M337.776,39.54c5.316,1.68,10.636,3.582,15.813,5.654c0.995,0.397,2.021,0.587,3.03,0.587c3.238,0,6.303-1.941,7.579-5.131
	c1.675-4.185-0.36-8.935-4.544-10.61c-5.552-2.222-11.257-4.262-16.958-6.063c-4.297-1.357-8.883,1.024-10.242,5.322
	C331.095,33.596,333.477,38.182,337.776,39.54z"/>
<path d="M307.645,479.592c-5.491,0.934-11.093,1.675-16.65,2.2c-4.488,0.424-7.781,4.407-7.356,8.894
	c0.4,4.225,3.954,7.392,8.116,7.392c0.257,0,0.518-0.012,0.779-0.037c5.957-0.564,11.963-1.357,17.849-2.358
	c4.443-0.755,7.433-4.971,6.678-9.414C316.305,481.826,312.089,478.834,307.645,479.592z"/>
<path d="M207.779,474.367c-5.365-1.509-10.744-3.241-15.986-5.146c-4.233-1.54-8.918,0.645-10.459,4.881
	c-1.54,4.236,0.645,8.919,4.882,10.459c5.623,2.045,11.39,3.901,17.145,5.518c0.739,0.208,1.482,0.307,2.213,0.307
	c3.565,0,6.84-2.354,7.852-5.955C214.648,480.093,212.119,475.587,207.779,474.367z"/>
<path d="M400.06,441.387c-4.558,3.22-9.295,6.309-14.078,9.182c-3.864,2.321-5.115,7.334-2.793,11.199
	c1.531,2.549,4.233,3.961,7.005,3.961c1.43,0,2.879-0.377,4.194-1.167c5.125-3.08,10.203-6.39,15.09-9.841
	c3.681-2.601,4.558-7.694,1.958-11.375C408.834,439.664,403.742,438.788,400.06,441.387z"/>
<path d="M449.236,407.418c-3.344-3.022-8.505-2.762-11.527,0.582c-3.741,4.141-7.685,8.192-11.719,12.043
	c-3.26,3.113-3.379,8.279-0.267,11.539c1.604,1.679,3.752,2.526,5.903,2.526c2.025,0,4.055-0.75,5.636-2.259
	c4.322-4.126,8.546-8.468,12.554-12.904C452.841,415.601,452.58,410.44,449.236,407.418z"/>
<path d="M257.414,482.506c-5.579-0.288-11.209-0.788-16.734-1.483c-4.468-0.563-8.554,2.606-9.117,7.078
	c-0.564,4.472,2.606,8.554,7.078,9.118c5.92,0.745,11.953,1.28,17.931,1.589c0.144,0.008,0.286,0.012,0.429,0.012
	c4.314,0,7.919-3.382,8.143-7.74C265.375,486.576,261.914,482.738,257.414,482.506z"/>
<path d="M355.989,465.677c-5.158,2.134-10.462,4.099-15.765,5.842c-4.282,1.407-6.613,6.02-5.205,10.301
	c1.13,3.437,4.322,5.616,7.752,5.616c0.844,0,1.703-0.133,2.55-0.41c5.687-1.868,11.376-3.977,16.907-6.265
	c4.166-1.723,6.145-6.497,4.422-10.662C364.926,465.934,360.152,463.953,355.989,465.677z"/>
<path d="M478.224,364.093c-3.926-2.214-8.904-0.826-11.117,3.101c-2.736,4.851-5.69,9.666-8.782,14.31
	c-2.498,3.752-1.482,8.819,2.27,11.317c1.391,0.926,2.962,1.369,4.516,1.369c2.639,0,5.229-1.279,6.801-3.64
	c3.315-4.977,6.481-10.138,9.414-15.339C483.539,371.285,482.151,366.306,478.224,364.093z"/>
<path d="M504.389,263.845c-4.5-0.306-8.389,3.096-8.694,7.592c-0.378,5.579-0.965,11.2-1.748,16.707
	c-0.634,4.463,2.469,8.595,6.932,9.228c0.39,0.055,0.776,0.083,1.158,0.083c3.998,0,7.491-2.941,8.07-7.014
	c0.839-5.901,1.469-11.924,1.874-17.903C512.285,268.042,508.887,264.15,504.389,263.845z"/>
<path d="M496.923,315.446c-4.317-1.289-8.864,1.167-10.155,5.487c-1.594,5.341-3.411,10.692-5.401,15.901
	c-1.607,4.211,0.503,8.929,4.714,10.536c0.958,0.366,1.942,0.54,2.91,0.54c3.286,0,6.384-1.999,7.626-5.253
	c2.133-5.588,4.082-11.326,5.791-17.054C503.699,321.282,501.243,316.736,496.923,315.446z"/>
<path d="M310.302,69.354c-5.891-1.288-11.921-2.308-17.923-3.031c-4.479-0.538-8.54,2.652-9.079,7.128
	c-0.539,4.476,2.653,8.54,7.128,9.079c5.488,0.661,11.002,1.592,16.387,2.769c0.588,0.128,1.174,0.19,1.751,0.19
	c3.752,0,7.131-2.604,7.966-6.419C317.495,74.667,314.705,70.317,310.302,69.354z"/>
<path d="M352.483,427.896c4.057-1.965,5.752-6.847,3.787-10.903c-1.965-4.057-6.847-5.753-10.904-3.787
	c-4.973,2.409-10.118,4.603-15.291,6.523c-4.227,1.567-6.381,6.265-4.813,10.49c1.221,3.29,4.338,5.325,7.653,5.325
	c0.942,0,1.902-0.164,2.837-0.511C341.412,432.932,347.042,430.531,352.483,427.896z"/>
<path d="M256.101,65.397c-6.032,0.412-12.106,1.119-18.051,2.099c-4.447,0.732-7.458,4.932-6.726,9.379
	c0.658,3.999,4.119,6.836,8.043,6.836c0.441,0,0.888-0.036,1.337-0.111c5.438-0.896,10.993-1.542,16.512-1.92
	c4.496-0.308,7.893-4.203,7.585-8.7C264.493,68.484,260.586,65.09,256.101,65.397z"/>
<path d="M361.21,88.462c-5.295-2.911-10.791-5.599-16.332-7.987c-4.139-1.785-8.942,0.125-10.725,4.262
	c-1.785,4.139,0.124,8.942,4.264,10.726c5.066,2.184,10.089,4.641,14.93,7.302c1.247,0.686,2.595,1.012,3.924,1.012
	c2.88,0,5.673-1.529,7.159-4.232C366.602,95.596,365.16,90.634,361.21,88.462z"/>
<path d="M447.986,295.738c-4.353-1.173-8.832,1.405-10.005,5.755c-1.436,5.331-3.149,10.653-5.088,15.819
	c-1.584,4.219,0.552,8.924,4.772,10.509c0.945,0.355,1.914,0.523,2.867,0.523c3.303,0,6.413-2.02,7.641-5.295
	c2.122-5.651,3.996-11.475,5.568-17.308C454.914,301.39,452.338,296.911,447.986,295.738z"/>
<path d="M441.16,192.827c-4.296,1.362-6.675,5.949-5.313,10.246c1.668,5.259,3.1,10.663,4.257,16.062
	c0.82,3.832,4.206,6.453,7.972,6.453c0.567,0,1.142-0.059,1.718-0.183c4.407-0.945,7.215-5.282,6.27-9.69
	c-1.266-5.907-2.834-11.819-4.657-17.574C450.044,193.843,445.456,191.465,441.16,192.827z"/>
<path d="M202.942,76.802c-5.659,2.099-11.287,4.498-16.727,7.131c-4.058,1.964-5.754,6.845-3.79,10.903
	c1.409,2.912,4.32,4.607,7.352,4.607c1.193,0,2.405-0.263,3.55-0.817c4.973-2.407,10.117-4.6,15.289-6.518
	c4.227-1.566,6.382-6.263,4.815-10.489C211.864,77.392,207.171,75.235,202.942,76.802z"/>
<path d="M451.07,277.484c0.201,0.015,0.4,0.022,0.598,0.022c4.239,0,7.82-3.277,8.132-7.572c0.336-4.634,0.506-9.348,0.506-14.012
	c0-1.386-0.015-2.771-0.045-4.15c-0.097-4.506-3.861-8.092-8.333-7.985c-4.506,0.096-8.082,3.827-7.985,8.333
	c0.026,1.264,0.04,2.532,0.04,3.803c0,4.272-0.157,8.589-0.464,12.831C443.193,273.25,446.573,277.159,451.07,277.484z"/>
<path d="M380.8,121.461c4.249,3.527,8.381,7.301,12.279,11.215c1.594,1.601,3.689,2.402,5.783,2.402
	c2.084,0,4.167-0.793,5.759-2.379c3.194-3.181,3.204-8.349,0.023-11.542c-4.26-4.277-8.775-8.401-13.42-12.255
	c-3.468-2.878-8.614-2.402-11.492,1.066S377.33,118.582,380.8,121.461z"/>
<path d="M422.828,172.529c1.48,2.719,4.283,4.26,7.176,4.26c1.318,0,2.655-0.32,3.896-0.995c3.959-2.156,5.42-7.112,3.265-11.071
	c-2.887-5.302-6.065-10.528-9.444-15.534c-2.522-3.736-7.596-4.718-11.331-2.197c-3.736,2.522-4.72,7.596-2.197,11.331
	C417.282,162.903,420.188,167.681,422.828,172.529z"/>
<path d="M155.183,102.798c-4.836,3.61-9.558,7.497-14.033,11.551c-3.34,3.026-3.595,8.186-0.568,11.528
	c1.611,1.778,3.826,2.681,6.051,2.681c1.953,0,3.915-0.698,5.477-2.112c4.094-3.71,8.414-7.266,12.839-10.569
	c3.612-2.697,4.354-7.811,1.657-11.423C163.909,100.843,158.796,100.101,155.183,102.798z"/>
<path d="M307.358,434.966c-0.733-4.447-4.936-7.457-9.381-6.724c-5.44,0.897-10.998,1.544-16.522,1.923
	c-4.496,0.308-7.892,4.204-7.584,8.701c0.295,4.307,3.88,7.603,8.134,7.603c0.187,0,0.377-0.007,0.567-0.02
	c6.037-0.414,12.115-1.121,18.062-2.102C305.081,443.614,308.092,439.413,307.358,434.966z"/>
<path d="M97.498,319.024c4.296-1.362,6.675-5.949,5.313-10.246c-1.668-5.259-3.1-10.664-4.257-16.062
	c-0.945-4.407-5.282-7.216-9.69-6.27c-4.407,0.945-7.215,5.283-6.27,9.69c1.266,5.906,2.834,11.819,4.657,17.574
	c1.102,3.476,4.316,5.697,7.777,5.697C95.846,319.408,96.677,319.285,97.498,319.024z"/>
<path d="M152.643,404.832c2.344,0,4.671-1.004,6.284-2.949c2.879-3.469,2.402-8.614-1.068-11.494
	c-4.252-3.528-8.382-7.301-12.28-11.215c-3.181-3.194-8.349-3.203-11.541-0.023c-3.194,3.181-3.204,8.349-0.023,11.542
	c4.259,4.277,8.774,8.4,13.421,12.255C148.959,404.215,150.806,404.832,152.643,404.832z"/>
<path d="M90.669,216.12c0.711,0.192,1.426,0.283,2.129,0.283c3.6,0,6.894-2.398,7.875-6.039c1.436-5.329,3.148-10.652,5.088-15.819
	c1.584-4.22-0.552-8.925-4.772-10.509c-4.218-1.583-8.925,0.552-10.51,4.772c-2.123,5.653-3.996,11.477-5.567,17.309
	C83.74,210.468,86.317,214.947,90.669,216.12z"/>
<path d="M197.008,432.044c3.159,0,6.168-1.847,7.499-4.933c1.785-4.139-0.124-8.942-4.264-10.725
	c-5.064-2.184-10.089-4.641-14.93-7.302c-3.951-2.172-8.912-0.73-11.084,3.22c-2.172,3.949-0.729,8.911,3.22,11.083
	c5.296,2.911,10.791,5.599,16.332,7.987C194.834,431.829,195.929,432.044,197.008,432.044z"/>
<path d="M128.096,139.548c-3.602-2.711-8.718-1.989-11.429,1.612c-3.633,4.826-7.075,9.881-10.231,15.024
	c-2.357,3.842-1.153,8.868,2.688,11.225c1.332,0.817,2.805,1.206,4.26,1.206c2.744,0,5.424-1.383,6.964-3.895
	c2.886-4.703,6.034-9.326,9.358-13.742C132.418,147.377,131.697,142.259,128.096,139.548z"/>
<path d="M247.266,445.584c4.072,0,7.595-3.044,8.093-7.186c0.539-4.476-2.653-8.54-7.128-9.079
	c-5.487-0.661-10.999-1.592-16.386-2.769c-4.404-0.96-8.753,1.826-9.717,6.23c-0.963,4.403,1.827,8.753,6.23,9.716
	c5.893,1.288,11.922,2.308,17.923,3.03C246.612,445.565,246.941,445.584,247.266,445.584z"/>
<path d="M87.587,234.368c-4.506-0.325-8.405,3.055-8.731,7.55c-0.336,4.635-0.506,9.348-0.506,14.006
	c0,1.387,0.015,2.773,0.045,4.154c0.095,4.446,3.729,7.987,8.156,7.987c0.059,0,0.119,0,0.177-0.001
	c4.506-0.096,8.082-3.827,7.985-8.333c-0.026-1.266-0.04-2.534-0.04-3.808c0-4.267,0.156-8.581,0.464-12.823
	C95.463,238.603,92.083,234.694,87.587,234.368z"/>
<path d="M115.831,339.321c-2.155-3.958-7.112-5.42-11.07-3.265c-3.959,2.155-5.42,7.111-3.265,11.07
	c2.885,5.298,6.062,10.524,9.444,15.534c1.577,2.335,4.15,3.595,6.772,3.595c1.571,0,3.159-0.453,4.56-1.398
	c3.736-2.521,4.719-7.595,2.197-11.33C121.374,348.945,118.469,344.166,115.831,339.321z"/>
<path d="M396.803,235.666c0.585,0,1.18-0.063,1.776-0.196c4.401-0.976,7.176-5.335,6.199-9.736
	c-1.333-6.007-3.087-11.979-5.214-17.754c-1.558-4.229-6.247-6.396-10.479-4.838c-4.23,1.558-6.395,6.249-4.838,10.479
	c1.875,5.089,3.42,10.355,4.595,15.649C389.687,233.076,393.059,235.666,396.803,235.666z"/>
<path d="M213.277,364.791c-4.812-2.483-9.506-5.317-13.955-8.423c-3.694-2.58-8.783-1.677-11.364,2.019
	c-2.581,3.696-1.677,8.783,2.019,11.364c5.039,3.519,10.361,6.73,15.815,9.546c1.197,0.617,2.476,0.91,3.736,0.91
	c2.957,0,5.81-1.612,7.259-4.42C218.854,371.781,217.282,366.858,213.277,364.791z"/>
<path d="M379.752,308.853c-2.343,4.878-5.04,9.651-8.019,14.186c-2.475,3.767-1.427,8.827,2.341,11.302
	c1.382,0.908,2.936,1.341,4.474,1.341c2.656,0,5.261-1.295,6.828-3.682c3.377-5.14,6.435-10.55,9.091-16.08
	c1.951-4.063,0.239-8.94-3.824-10.891C386.579,303.077,381.702,304.789,379.752,308.853z"/>
<path d="M138.603,250.45c0.285,0.029,0.568,0.045,0.85,0.045c4.13,0,7.674-3.124,8.108-7.322c0.558-5.401,1.485-10.808,2.754-16.068
	c1.057-4.382-1.638-8.792-6.02-9.848c-4.378-1.058-8.79,1.637-9.848,6.019c-1.439,5.965-2.49,12.095-3.123,18.217
	C130.861,245.976,134.12,249.987,138.603,250.45z"/>
<path d="M175.333,334.363c-3.481-4.167-6.713-8.603-9.605-13.187c-2.406-3.811-7.447-4.95-11.258-2.544s-4.951,7.447-2.545,11.258
	c3.278,5.192,6.938,10.218,10.882,14.938c1.614,1.933,3.933,2.929,6.268,2.929c1.846,0,3.701-0.622,5.228-1.898
	C177.761,342.97,178.222,337.823,175.333,334.363z"/>
<path d="M139.132,268.97c-4.449,0.724-7.469,4.916-6.747,9.365c0.987,6.07,2.393,12.128,4.18,18.006
	c1.071,3.521,4.307,5.79,7.806,5.79c0.787,0,1.587-0.114,2.377-0.355c4.313-1.311,6.746-5.87,5.436-10.182
	c-1.576-5.183-2.815-10.525-3.686-15.878C147.774,271.269,143.58,268.249,139.132,268.97z"/>
<path d="M157.818,173.355c-3.661,4.936-7.024,10.163-9.995,15.537c-2.181,3.945-0.751,8.91,3.194,11.091
	c1.251,0.692,2.606,1.021,3.941,1.021c2.874,0,5.661-1.521,7.149-4.215c2.623-4.741,5.59-9.355,8.82-13.711
	c2.686-3.62,1.927-8.732-1.693-11.417C165.615,168.976,160.502,169.735,157.818,173.355z"/>
<path d="M234.865,138.099c0.711,0,1.434-0.094,2.154-0.289c2.945-0.804,5.94-1.486,8.957-2.07
	c3.993,8.932,12.955,15.174,23.354,15.174c14.101,0,25.573-11.472,25.573-25.573s-11.472-25.573-25.573-25.573
	c-12.064,0-22.196,8.4-24.874,19.656c-3.952,0.717-7.881,1.587-11.733,2.638c-4.348,1.187-6.912,5.674-5.725,10.022
	C227.987,135.713,231.275,138.099,234.865,138.099z M269.328,116.091c5.1,0,9.25,4.149,9.25,9.25c0,5.1-4.149,9.25-9.25,9.25
	s-9.25-4.149-9.25-9.25C260.079,120.24,264.228,116.091,269.328,116.091z"/>
<path d="M397.822,287.532c3.87,0,7.306-2.765,8.021-6.708c1.093-6.03,1.792-12.206,2.078-18.358c0.21-4.503-3.27-8.323-7.773-8.533
	c-4.495-0.201-8.323,3.271-8.531,7.774c-0.252,5.432-0.871,10.885-1.835,16.205c-0.804,4.435,2.139,8.683,6.575,9.486
	C396.849,287.489,397.338,287.532,397.822,287.532z"/>
<path d="M308.325,372.006c-5.135,1.724-10.439,3.117-15.764,4.139c-4.427,0.85-7.326,5.128-6.476,9.554
	c0.75,3.907,4.17,6.624,8.006,6.624c0.51,0,1.028-0.048,1.547-0.148c6.039-1.159,12.056-2.74,17.882-4.696
	c4.273-1.434,6.574-6.061,5.14-10.335C317.225,372.872,312.597,370.572,308.325,372.006z"/>
<path d="M198.749,136.449c-5.285,3.129-10.414,6.646-15.245,10.453c-3.54,2.79-4.147,7.922-1.357,11.462
	c1.611,2.043,4.001,3.109,6.415,3.109c1.768,0,3.551-0.572,5.047-1.752c4.262-3.36,8.789-6.464,13.453-9.226
	c3.878-2.296,5.162-7.302,2.866-11.18C207.634,135.436,202.628,134.152,198.749,136.449z"/>
<path d="M260.057,378.001c-5.419-0.406-10.85-1.177-16.142-2.294c-4.413-0.929-8.74,1.89-9.671,6.301
	c-0.93,4.41,1.89,8.74,6.301,9.671c5.999,1.267,12.154,2.142,18.296,2.601c0.207,0.016,0.412,0.023,0.617,0.023
	c4.231,0,7.81-3.266,8.13-7.553C267.922,382.254,264.551,378.336,260.057,378.001z"/>
<path d="M359.062,160.708c-3.289,3.082-3.457,8.246-0.375,11.537c3.711,3.96,7.19,8.206,10.341,12.619
	c1.593,2.231,4.102,3.419,6.649,3.419c1.641,0,3.298-0.493,4.737-1.52c3.668-2.619,4.518-7.716,1.899-11.385
	c-3.569-4.998-7.511-9.807-11.713-14.292C367.515,157.794,362.35,157.627,359.062,160.708z"/>
<path d="M350.417,347.641c-4.065,3.598-8.408,6.955-12.908,9.978c-3.741,2.514-4.737,7.585-2.223,11.326
	c1.576,2.345,4.155,3.611,6.782,3.611c1.565,0,3.147-0.449,4.544-1.387c5.097-3.423,10.017-7.227,14.621-11.301
	c3.377-2.987,3.691-8.145,0.704-11.521C358.95,344.971,353.793,344.655,350.417,347.641z"/>
<path d="M319.074,144.029c4.945,2.201,9.793,4.761,14.41,7.608c1.335,0.824,2.814,1.216,4.276,1.216
	c2.738,0,5.413-1.378,6.955-3.878c2.366-3.837,1.173-8.864-2.663-11.23c-5.234-3.228-10.731-6.13-16.337-8.626
	c-4.118-1.834-8.942,0.019-10.775,4.136C313.105,137.371,314.956,142.195,319.074,144.029z"/>
<path d="M311.168,286.223c4.668-6.428,7.896-13.964,9.199-22.137h27.311c4.507,0,8.161-3.654,8.161-8.161s-3.654-8.161-8.161-8.161
	h-27.311c-1.303-8.173-4.531-15.709-9.199-22.137l7.458-7.458c3.187-3.187,3.187-8.354,0-11.541c-3.187-3.187-8.355-3.187-11.541,0
	l-7.458,7.458c-6.428-4.668-13.964-7.896-22.137-9.199v-27.312c0-4.507-3.654-8.161-8.161-8.161s-8.161,3.654-8.161,8.161v27.311
	c-8.173,1.303-15.708,4.531-22.137,9.199l-7.458-7.458c-3.187-3.187-8.355-3.187-11.541,0c-3.187,3.187-3.187,8.354,0,11.541
	l7.458,7.458c-4.668,6.428-7.896,13.964-9.199,22.137h-27.312c-4.507,0-8.161,3.654-8.161,8.161c0,4.507,3.654,8.161,8.161,8.161
	h27.312c1.303,8.173,4.531,15.709,9.199,22.137l-7.458,7.458c-3.187,3.187-3.187,8.354,0,11.541
	c1.593,1.593,3.682,2.391,5.771,2.391s4.178-0.797,5.771-2.391l7.458-7.458c6.428,4.668,13.964,7.896,22.137,9.199v27.311
	c0,4.507,3.654,8.161,8.161,8.161c4.507,0,8.161-3.654,8.161-8.161v-27.311c8.173-1.303,15.708-4.531,22.137-9.199l7.458,7.458
	c1.593,1.593,3.682,2.391,5.771,2.391s4.178-0.797,5.771-2.391c3.187-3.187,3.187-8.354,0-11.541L311.168,286.223z M269.328,291.29
	c-19.5,0-35.366-15.865-35.366-35.366s15.866-35.366,35.366-35.366s35.366,15.865,35.366,35.366S288.829,291.29,269.328,291.29z"/>
<g>
</g>
<g>
</g>
<g>
</g>
<g>
</g>
<g>
</g>
<g>
</g>
<g>
</g>
<g>
</g>
<g>
</g>
<g>
</g>
<g>
</g>
<g>
</g>
<g>
</g>
<g>
</g>
<g>
</g>
</svg>
