<?xml version="1.0" encoding="iso-8859-1"?>
<!-- Generator: Adobe Illustrator 19.0.0, SVG Export Plug-In . SVG Version: 6.00 Build 0)  -->
<svg version="1.1" id="Layer_1" xmlns="http://www.w3.org/2000/svg" xmlns:xlink="http://www.w3.org/1999/xlink" x="0px" y="0px"
	 viewBox="0 0 511.999 511.999" style="enable-background:new 0 0 511.999 511.999;" xml:space="preserve">
<rect x="-3.369" y="83.41" transform="matrix(0.7071 0.7071 -0.7071 0.7071 117.545 -48.5825)" style="fill:#7873DC;" width="241.571" height="68.376"/>
<g>
	
		<rect x="108.924" y="83.469" transform="matrix(0.7071 0.7071 -0.7071 0.7071 117.6023 -48.603)" style="fill:#AFB9D2;" width="17.092" height="68.376"/>
	
		<rect x="28.415" y="6.667" transform="matrix(-0.7071 -0.7071 0.7071 -0.7071 40.5418 98.5033)" style="fill:#AFB9D2;" width="24.513" height="68.376"/>
	<polygon style="fill:#AFB9D2;" points="161.919,210.452 178.644,227.177 227.482,178.337 210.269,162.102 	"/>
</g>
<rect x="273.804" y="360.089" transform="matrix(-0.7071 -0.7071 0.7071 -0.7071 394.8108 952.0896)" style="fill:#7873DC;" width="241.571" height="68.376"/>
<g>
	
		<rect x="385.983" y="360.022" transform="matrix(-0.7071 -0.7071 0.7071 -0.7071 394.7534 951.9332)" style="fill:#AFB9D2;" width="17.092" height="68.376"/>
	
		<rect x="459.067" y="436.839" transform="matrix(0.7071 0.7071 -0.7071 0.7071 471.1139 -195.3154)" style="fill:#AFB9D2;" width="24.513" height="68.376"/>
	<polygon style="fill:#AFB9D2;" points="350.08,301.425 333.355,284.701 284.516,333.54 301.73,349.774 	"/>
</g>
<rect x="157.456" y="319.892" transform="matrix(-0.7071 0.7071 -0.7071 -0.7071 537.1464 451.4783)" style="fill:#C7CFE2;" width="35.226" height="34.188"/>
<rect x="197.554" y="212.771" transform="matrix(-0.7071 -0.7071 0.7071 -0.7071 202.4033 640.3198)" style="fill:#D5DCED;" width="72.524" height="130.941"/>
<rect x="250.933" y="207.77" transform="matrix(0.7071 -0.7071 0.7071 0.7071 -94.0536 260.9991)" style="fill:#C7CFE2;" width="34.188" height="72.524"/>
<path d="M116.266,107.72l-8.547,8.547c-3.129,3.129-3.129,8.203,0,11.331c1.564,1.564,3.615,2.347,5.666,2.347
	s4.102-0.782,5.666-2.347l8.547-8.547c3.129-3.129,3.129-8.203,0-11.331C124.469,104.592,119.395,104.592,116.266,107.72z"/>
<path d="M509.652,449.971L338.836,279.155c-3.129-3.129-8.203-3.129-11.331,0l-6.422,6.422l-15.901-15.901l6.422-6.421
	c1.503-1.502,2.347-3.541,2.347-5.666s-0.844-4.164-2.347-5.666l-51.283-51.283c-3.128-3.129-8.202-3.129-11.331,0l-6.422,6.421
	l-16.143-16.143l6.422-6.422c3.129-3.129,3.129-8.203,0-11.331L62.028,2.348c-3.129-3.129-8.203-3.129-11.331,0l-48.35,48.35
	c-3.129,3.129-3.129,8.203,0,11.331l170.816,170.816c1.564,1.564,3.615,2.347,5.666,2.347s4.102-0.782,5.666-2.347l6.422-6.422
	l16.143,16.143l-50.661,50.66c-1.503,1.502-2.347,3.541-2.347,5.666s0.844,4.164,2.347,5.666l7.888,7.888l-19.242,19.242
	c-3.129,3.129-3.129,8.203,0,11.331l24.174,24.174c1.564,1.564,3.615,2.347,5.666,2.347s4.102-0.782,5.666-2.347l19.242-19.242
	l7.889,7.889c1.564,1.564,3.615,2.347,5.666,2.347s4.102-0.782,5.666-2.347l50.661-50.66l15.902,15.901l-6.422,6.422
	c-3.129,3.129-3.129,8.203,0,11.331L449.97,509.651c1.564,1.564,3.615,2.347,5.666,2.347c2.05,0,4.102-0.782,5.666-2.347
	l48.35-48.35C512.782,458.174,512.782,453.1,509.652,449.971z M254.655,217.637l39.951,39.951l-12.843,12.843l-39.951-39.951
	L254.655,217.637z M19.345,56.364l37.018-37.018l159.485,159.485l-37.018,37.018L19.345,56.364z M202.249,215.092l12.843-12.843
	l16.143,16.143l-12.843,12.843L202.249,215.092z M174.885,350.198l-12.843-12.843l13.576-13.576l12.843,12.843L174.885,350.198z
	 M213.349,338.845l-39.951-39.951l57.082-57.082l39.951,39.951L213.349,338.845z M281.006,293.85l6.42-6.42l0.001-0.001l0.001-0.001
	l6.42-6.42l15.901,15.901l-12.843,12.843L281.006,293.85z M455.637,492.655L296.152,333.17l37.018-37.018l159.485,159.485
	L455.637,492.655z"/>
<path d="M390.067,406.628c2.05,0,4.102-0.782,5.666-2.347l8.547-8.547c3.129-3.129,3.129-8.203,0-11.331
	c-3.129-3.129-8.203-3.129-11.331,0l-8.547,8.547c-3.129,3.129-3.129,8.203,0,11.331
	C385.965,405.845,388.016,406.628,390.067,406.628z"/>
<g>
</g>
<g>
</g>
<g>
</g>
<g>
</g>
<g>
</g>
<g>
</g>
<g>
</g>
<g>
</g>
<g>
</g>
<g>
</g>
<g>
</g>
<g>
</g>
<g>
</g>
<g>
</g>
<g>
</g>
</svg>
