<?xml version="1.0" encoding="iso-8859-1"?>
<!-- Generator: Adobe Illustrator 19.0.0, SVG Export Plug-In . SVG Version: 6.00 Build 0)  -->
<svg version="1.1" id="Layer_1" xmlns="http://www.w3.org/2000/svg" xmlns:xlink="http://www.w3.org/1999/xlink" x="0px" y="0px"
	 viewBox="0 0 512 512" style="enable-background:new 0 0 512 512;" xml:space="preserve">
<circle style="fill:#FFDC6E;" cx="256" cy="256" r="247.706"/>
<g>
	<path style="fill:#FFC85F;" d="M353.313,432.933c-122.147,0-221.166-99.019-221.166-221.166
		c0-91.123,55.121-169.349,133.828-203.221c-3.313-0.132-6.629-0.252-9.975-0.252C119.195,8.294,8.294,119.195,8.294,256
		c0,136.804,110.902,247.706,247.706,247.706c78.023,0,147.58-36.108,192.984-92.485
		C420.031,425.134,387.583,432.933,353.313,432.933z"/>
	<path style="fill:#FFC85F;" d="M24.625,167.533h462.752c-11.369-29.714-28.269-56.676-49.482-79.62H74.106
		C52.894,110.857,35.993,137.82,24.625,167.533z"/>
</g>
<path style="fill:#FFAF55;" d="M74.106,87.914c-21.212,22.944-38.112,49.906-49.482,79.62h112.089
	c5.895-28.997,17.358-55.957,33.393-79.62H74.106z"/>
<path style="fill:#FFC85F;" d="M397.546,211.767c-5.948,0-11.398-1.994-15.803-5.317c-3.031-2.286-6.708-3.53-10.504-3.53
	l-80.829,0.001c-4.633,0-9.036,1.863-12.349,5.101c-7.973,7.789-18.88,12.591-30.908,12.591c-12.017,0-22.915-4.793-30.888-12.57
	c-3.312-3.231-7.71-5.091-12.338-5.092l-189.873-0.027c-3.736,17.105-5.76,34.85-5.76,53.075c0,18.227,2.025,35.973,5.761,53.08
	h483.89c3.737-17.107,5.761-34.852,5.761-53.08s-2.025-35.974-5.761-53.08h-74.092c-3.796,0-7.473,1.244-10.504,3.53
	C408.944,209.773,403.495,211.767,397.546,211.767z"/>
<g>
	<path style="fill:#FFAF55;" d="M278.061,208.022c-7.973,7.789-18.88,12.591-30.908,12.591c-12.018,0-22.916-4.793-30.888-12.571
		c-3.312-3.231-7.711-5.091-12.338-5.091l-189.873-0.025c-3.127,14.321-5.005,29.099-5.537,44.229h494.966
		c-0.532-15.131-2.41-29.912-5.538-44.233h-74.092c-3.796,0-7.473,1.244-10.504,3.53c-4.406,3.322-9.855,5.317-15.803,5.317
		s-11.398-1.994-15.803-5.317c-3.031-2.286-6.708-3.53-10.504-3.53l-80.829,0.001C285.778,202.921,281.376,204.786,278.061,208.022z
		"/>
	<path style="fill:#FFAF55;" d="M132.147,211.767c0-2.968,0.217-5.881,0.333-8.821l-118.427-0.017
		C10.319,220.033,8.294,237.776,8.294,256c0,18.227,2.025,35.973,5.761,53.08h140.633
		C140.271,279.71,132.147,246.692,132.147,211.767z"/>
</g>
<path style="fill:#DC9146;" d="M135.039,247.153c-1.86-11.527-2.892-23.333-2.892-35.387c0-2.968,0.217-5.881,0.333-8.821
	l-118.427-0.017c-3.126,14.317-4.97,29.104-5.515,44.224H135.039z"/>
<path style="fill:#FFC85F;" d="M66.309,415.24H445.69c17.584-20.923,31.746-44.797,41.685-70.773H24.625
	C34.563,370.442,48.726,394.316,66.309,415.24z"/>
<g>
	<path style="fill:#FFAF55;" d="M66.309,415.24h200.223c-35.937-15.347-66.985-39.928-90.155-70.773H24.625
		C34.563,370.442,48.726,394.316,66.309,415.24z"/>
	<path style="fill:#FFAF55;" d="M448.984,411.221c-2.951,1.419-5.964,2.729-8.986,4.019h5.565
		C446.695,413.893,447.879,412.591,448.984,411.221z"/>
</g>
<path d="M437.019,74.981C388.668,26.628,324.38,0,256,0S123.332,26.628,74.981,74.981S0,187.62,0,256s26.628,132.668,74.981,181.019
	C123.332,485.372,187.62,512,256,512s132.668-26.628,181.019-74.981C485.372,388.668,512,324.38,512,256
	S485.372,123.332,437.019,74.981z M132.146,317.374h355.353c-1.673,6.353-3.596,12.625-5.784,18.799H30.284
	c-2.188-6.174-4.111-12.446-5.783-18.799H96.76c4.58,0,8.294-3.713,8.294-8.294s-3.713-8.294-8.294-8.294H20.761
	c-2.75-14.615-4.173-29.59-4.173-44.786c0-15.195,1.423-30.17,4.173-44.786l187.097,0.031c9.97,11.276,24.067,17.662,39.296,17.662
	c15.245,0,29.351-6.396,39.321-17.691l40.301-0.001c4.58,0,8.294-3.713,8.294-8.294c0-4.581-3.713-8.294-8.294-8.294l-44.234,0.001
	c-2.609,0-5.065,1.226-6.632,3.312c-6.864,9.139-17.345,14.379-28.756,14.379c-11.399,0-21.873-5.232-28.739-14.355
	c-1.567-2.081-4.021-3.306-6.626-3.306L24.5,194.627c1.673-6.353,3.596-12.626,5.783-18.8h451.43
	c2.188,6.174,4.111,12.446,5.784,18.799h-70.3c-2.35,0-4.589,0.996-6.162,2.742c-3.546,3.937-8.337,6.104-13.49,6.104
	s-9.945-2.167-13.49-6.104c-1.572-1.746-3.812-2.742-6.162-2.742h-15.733c-4.58,0-8.294,3.713-8.294,8.294s3.713,8.294,8.294,8.294
	h12.329c6.36,5.661,14.572,8.847,23.055,8.847s16.696-3.186,23.055-8.847h70.637c2.751,14.615,4.173,29.59,4.173,44.786
	c0,15.196-1.423,30.172-4.173,44.786H132.146c-4.58,0-8.294,3.713-8.294,8.294S127.564,317.374,132.146,317.374z M77.72,96.207
	h356.559c17.043,18.968,30.762,40.215,40.846,63.032H36.874C46.958,136.422,60.677,115.176,77.72,96.207z M417.877,79.62H94.123
	C138.399,38.903,195.481,16.587,256,16.587C316.518,16.587,373.601,38.903,417.877,79.62z M94.123,432.38h206.113
	c4.58,0,8.294-3.713,8.294-8.294s-3.713-8.294-8.294-8.294H77.72c-17.043-18.968-30.762-40.215-40.846-63.032h438.252
	c-10.084,22.818-23.803,44.064-40.846,63.032h-98.657c-4.58,0-8.294,3.713-8.294,8.294s3.713,8.294,8.294,8.294h82.254
	C373.601,473.098,316.519,495.413,256,495.413S138.399,473.098,94.123,432.38z"/>
<g>
</g>
<g>
</g>
<g>
</g>
<g>
</g>
<g>
</g>
<g>
</g>
<g>
</g>
<g>
</g>
<g>
</g>
<g>
</g>
<g>
</g>
<g>
</g>
<g>
</g>
<g>
</g>
<g>
</g>
</svg>
