<?xml version="1.0" encoding="iso-8859-1"?>
<!-- Generator: Adobe Illustrator 19.0.0, SVG Export Plug-In . SVG Version: 6.00 Build 0)  -->
<svg version="1.1" id="Layer_1" xmlns="http://www.w3.org/2000/svg" xmlns:xlink="http://www.w3.org/1999/xlink" x="0px" y="0px"
	 viewBox="0 0 512 512" style="enable-background:new 0 0 512 512;" xml:space="preserve">
<circle style="fill:#5AC3FF;" cx="255.953" cy="255.953" r="247.64"/>
<path style="fill:#A5FF7D;" d="M499.836,212.955c-9.175-52.035-34.081-97.267-68.837-131.952l-117.992,117.99
	c0.25,0.825,0.567,1.647,1.195,2.356l3.571,4.025c1.6,1.803,3.956,2.745,6.357,2.543l22.392-1.886
	c4.327-0.365,8.24,2.577,9.091,6.836l1.138,5.691c2.005,10.034-5.199,19.567-15.4,20.375l-43.131,3.416
	c-4.898,0.388-8.259,5.2-6.803,9.892c1.869,6.021-3.856,11.614-9.823,9.625l-23.594-7.865L130.745,381.255l14.738,14.23
	c4.23,4.083,9.734,6.587,15.59,7.093l80.706,6.967c4.998,0.431,8.638,4.93,8.015,9.909l-0.471,3.772
	c-0.764,6.106,1.816,12.152,6.754,15.824l19.764,14.695l-3.056,9.839c-2.03,6.546,0.048,13.672,5.279,18.1l20.996,18.132
	c20.903-3.695,40.726-9.916,59.216-18.287l32.704-39.256c5.283-6.314,9.628-13.359,12.897-20.917l44.485-104.735
	c0,0-10.695,1.132-20.573,1.203c-0.432,0.003-0.845-0.121-1.276-0.134l34.566-67.6c1.915-3.801,0.738-8.432-2.759-10.857
	l-6.046-4.192c-2.291-1.589-2.922-4.7-1.432-7.057l2.984-4.721c5.815-9.195,18.63-10.683,26.395-3.062l22.976,22.546
	C502.657,232.874,501.595,222.935,499.836,212.955z"/>
<path style="fill:#46A2DE;" d="M353.201,432.885c-122.114,0-221.107-98.993-221.107-221.107
	c0-91.098,55.107-169.304,133.792-203.166c-3.312-0.132-6.628-0.252-9.972-0.252C119.146,8.36,8.274,119.232,8.274,256
	c0,136.767,110.872,247.64,247.64,247.64c78.002,0,147.54-36.098,192.933-92.46C419.901,425.088,387.462,432.885,353.201,432.885z"
	/>
<path style="fill:#FFC850;" d="M80.891,80.892c-96.709,96.71-96.709,253.507,0,350.216L431.109,80.892
	C334.398-15.817,177.602-15.817,80.891,80.892z"/>
<path style="fill:#FFEB64;" d="M174.7,174.7c-44.901,44.9-44.901,117.699,0,162.6l162.6-162.6
	C292.4,129.798,219.6,129.798,174.7,174.7z"/>
<path style="fill:#FFFFFF;" d="M212.223,212.223c-24.177,24.178-24.177,63.377,0,87.554l87.554-87.554
	C275.6,188.046,236.401,188.046,212.223,212.223z"/>
<path style="fill:#91E178;" d="M172.722,339.279l-42.021,42.02l14.783,14.272c4.229,4.083,9.733,6.587,15.589,7.093l80.706,6.967
	c4.998,0.431,8.638,4.93,8.015,9.908l-0.471,3.772c-0.764,6.106,1.817,12.151,6.755,15.824l19.763,14.695l-3.055,9.839
	c-2.031,6.546,0.046,13.672,5.279,18.1l20.98,18.117c1.236-0.218,2.443-0.515,3.672-0.751c3.611-0.693,7.209-1.408,10.752-2.251
	c2.092-0.499,4.146-1.093,6.216-1.645c2.629-0.698,5.261-1.387,7.848-2.166c2.568-0.776,5.1-1.634,7.632-2.49
	c1.931-0.65,3.866-1.295,5.773-1.989c2.962-1.085,5.89-2.235,8.798-3.429c1.32-0.54,2.638-1.08,3.945-1.641
	c1.632-0.703,3.229-1.47,4.842-2.207l32.457-38.961c3.762-4.495,6.858-9.467,9.617-14.624c-15.274,3.339-31.121,5.152-47.398,5.152
	C278.605,432.885,212.748,395.871,172.722,339.279z"/>
<path style="fill:#E1A546;" d="M80.954,431.045l31.263-31.263c-28.574-28.507-49.005-65.741-56.546-108.508
	C36.166,180.658,110.026,75.175,220.642,55.67c67.89-11.971,133.81,11.267,179.141,56.546l31.263-31.263
	C375.858,25.835,295.609-2.451,212.961,12.121C78.296,35.867-11.624,164.286,12.121,298.952
	C21.301,351.015,46.171,396.341,80.954,431.045z"/>
<path d="M508.044,211.557c-11.871-67.324-49.248-125.995-105.248-165.206C346.798,7.14,278.88-7.916,211.557,3.955
	C144.234,15.826,85.563,53.204,46.352,109.202S-7.916,233.119,3.955,300.442s49.248,125.995,105.248,165.206
	C152.716,496.117,203.422,512,255.457,512c14.931,0,29.975-1.309,44.985-3.956c67.324-11.871,125.995-49.248,165.206-105.248
	S519.916,278.881,508.044,211.557z M492.756,220.885l-6.682-6.557c-5.498-5.395-13.043-7.984-20.692-7.094
	c-7.651,0.888-14.402,5.131-18.52,11.641l-2.281,3.606c-4.705-0.34-9.491,1.289-13.043,4.79l-1.033,1.018l-14.502-17.174
	c-2.955-3.499-8.185-3.939-11.684-0.986c-3.499,2.955-3.94,8.186-0.986,11.684l20.281,24.017c1.49,1.764,3.649,2.828,5.957,2.933
	c2.293,0.101,4.554-0.757,6.199-2.378l7.41-7.304c0.086-0.085,0.217-0.095,0.316-0.027l10.142,7.033
	c0.101,0.07,0.136,0.206,0.08,0.315l-31.047,61.635l-2.64,0.196c-2.846,0.212-5.63-0.982-7.442-3.189l-39.92-48.652
	c-2.905-3.54-8.13-4.055-11.669-1.151c-3.54,2.904-4.055,8.129-1.151,11.669l39.919,48.652c5.23,6.375,13.268,9.824,21.488,9.209
	l15.926-1.18l-40.872,94.517c-2.953,6.827-6.87,13.181-11.645,18.886l-31.773,37.959c-16.324,7.188-33.564,12.58-51.484,16.035
	l-17.945-15.59c-2.698-2.282-3.763-5.938-2.716-9.312l3.053-9.839c1.043-3.36-0.148-7.012-2.972-9.112l-19.761-14.695
	c-2.536-1.886-3.868-5.006-3.477-8.142l1.611-12.891c0.28-2.237-0.364-4.491-1.781-6.243c-1.417-1.752-3.488-2.852-5.733-3.046
	l-89.86-7.758c-3.949-0.342-7.693-2.045-10.546-4.798l-8.755-8.453l117.622-117.622l18.863,6.287
	c1.673,0.558,3.388,0.829,5.089,0.829c4.099,0,8.101-1.581,11.147-4.544c4.144-4.031,5.778-9.897,4.349-15.456l42.45-3.363
	c7.222-0.572,13.869-4.214,18.237-9.994c4.368-5.78,6.058-13.169,4.638-20.272l-1.139-5.69c-1.679-8.399-9.386-14.19-17.916-13.472
	l-21.884,1.843L431.006,92.63c31.436,33.54,52.535,75.477,60.704,121.807C492.093,216.585,492.435,218.735,492.756,220.885z
	 M202.338,255.957c0-14.322,5.577-27.787,15.705-37.913s23.592-15.705,37.913-15.705c11.519,0,22.479,3.614,31.598,10.295
	l-74.922,74.922C205.952,278.436,202.338,267.475,202.338,255.957z M314.158,213.784c1.736,1.956,4.285,2.975,6.897,2.759
	l26.207-2.207c0.127-0.011,0.239,0.074,0.263,0.199l1.139,5.691c0.5,2.496-0.071,4.99-1.606,7.021
	c-1.534,2.031-3.778,3.26-6.316,3.461l-43.135,3.416c-4.859,0.385-9.22,2.915-11.967,6.942c-2.546,3.731-3.388,8.285-2.374,12.645
	l-10.003-3.334l38.873-38.873L314.158,213.784z M20.286,297.562c-11.102-62.961,2.979-126.478,39.649-178.848
	c36.671-52.37,91.541-87.326,154.501-98.428c14.043-2.476,28.104-3.699,42.071-3.699c48.659,0,96.087,14.856,136.777,43.348
	c9.211,6.45,17.872,13.474,25.971,20.996l-13.323,13.323c-17.274-16.047-36.789-29.112-58.128-38.881
	c-4.165-1.908-9.084-0.076-10.99,4.088c-1.906,4.163-0.075,9.084,4.088,10.99c19.539,8.945,37.431,20.884,53.298,35.534
	l-63.429,63.429c-8.725-7.562-18.446-13.735-29.029-18.352c-4.197-1.83-9.084,0.087-10.916,4.284
	c-1.831,4.198,0.087,9.084,4.284,10.916c8.675,3.784,16.681,8.791,23.908,14.903l-19.642,19.643
	c-12.33-9.748-27.465-15.054-43.423-15.054c-18.751,0-36.381,7.302-49.64,20.562c-13.26,13.259-20.562,30.888-20.562,49.64
	c0,15.958,5.305,31.093,15.054,43.423l-19.632,19.632c-32.423-38.4-30.575-96.065,5.596-132.238
	c20.387-20.387,48.574-30.71,77.339-28.318c4.56,0.381,8.57-3.013,8.949-7.576c0.379-4.564-3.013-8.57-7.576-8.949
	c-33.628-2.797-66.595,9.275-90.438,33.119c-42.642,42.642-44.521,110.841-5.649,155.741l-63.408,63.408
	c-34.882-37.767-54.005-86.53-54.005-138.239c0-54.483,21.216-105.705,59.742-144.229c25.538-25.538,57.387-43.867,92.105-53.005
	c33.706-8.873,69.366-8.975,103.127-0.292c4.437,1.14,8.955-1.531,10.095-5.965s-1.53-8.955-5.965-10.095
	c-36.494-9.385-75.043-9.275-111.478,0.315c-37.555,9.886-71.999,29.706-99.61,57.316c-41.658,41.657-64.6,97.043-64.6,155.956
	c0,56.139,20.847,109.067,58.856,149.974l-13.35,13.35C49.518,385.755,28.449,343.851,20.286,297.562z M118.715,452.064
	c-9.246-6.474-17.935-13.525-26.06-21.078l38.149-38.149l8.964,8.654c5.58,5.387,12.908,8.723,20.637,9.389l81.278,7.017
	l-0.543,4.343c-1.132,9.053,2.714,18.06,10.036,23.506l15.05,11.191l-1.313,4.232c-3.024,9.743,0.054,20.298,7.761,26.817
	l7.115,6.182c-8.115,0.824-16.22,1.246-24.295,1.246C206.832,495.411,159.405,480.556,118.715,452.064z M452.064,393.285
	c-16.139,23.047-35.804,42.718-58.13,58.471l3.448-4.119c5.802-6.932,10.562-14.652,14.15-22.948l46.308-107.088
	c1.152-2.663,0.828-5.733-0.853-8.097c-1.681-2.365-4.475-3.679-7.369-3.463l-7.658,0.567l26.568-52.745
	c3.753-7.448,1.414-16.648-5.439-21.402l-3.613-2.505l1.403-2.218c1.426-2.255,3.764-3.725,6.414-4.032
	c2.652-0.308,5.262,0.588,7.167,2.456l20.727,20.339C497.364,298.648,482.508,349.808,452.064,393.285z"/>
<g>
</g>
<g>
</g>
<g>
</g>
<g>
</g>
<g>
</g>
<g>
</g>
<g>
</g>
<g>
</g>
<g>
</g>
<g>
</g>
<g>
</g>
<g>
</g>
<g>
</g>
<g>
</g>
<g>
</g>
</svg>
