<?xml version="1.0" encoding="iso-8859-1"?>
<!-- Generator: Adobe Illustrator 19.0.0, SVG Export Plug-In . SVG Version: 6.00 Build 0)  -->
<svg version="1.1" id="Layer_1" xmlns="http://www.w3.org/2000/svg" xmlns:xlink="http://www.w3.org/1999/xlink" x="0px" y="0px"
	 viewBox="0 0 512 512" style="enable-background:new 0 0 512 512;" xml:space="preserve">
<g>
	<path style="fill:#FFEB64;" d="M158.084,253.36L4.96,406.484c-6.613,6.613-6.613,17.334,0,23.947
		c6.612,6.613,17.334,6.613,23.947,0l153.125-153.124L158.084,253.36z"/>
	<path style="fill:#FFEB64;" d="M234.283,329.559L81.159,482.684c-6.613,6.613-6.613,17.334,0,23.947
		c6.612,6.613,17.334,6.613,23.947,0l153.125-153.124L234.283,329.559z"/>
</g>
<polygon style="fill:#C7CFE2;" points="152.631,144.253 128.684,168.2 170.592,234.055 278.354,341.817 344.209,383.724 
	368.156,359.777 "/>
<polygon style="fill:#D5DCED;" points="382.251,70.289 164.605,132.279 152.631,144.253 368.156,359.777 380.128,347.804 
	442.12,130.157 "/>
<path style="fill:#E4EAF8;" d="M504.446,16.791c0.28-4.98-3.847-9.109-8.829-8.829c-17.645,0.995-59.58,8.541-104.954,53.914
	L190.305,262.235l59.867,59.867l200.359-200.359C495.906,76.37,503.453,34.436,504.446,16.791z"/>
<g>
	<path style="fill:#AFB9D2;" d="M152.631,252.016l29.934,29.934l83.815-83.815c3.306-3.306,3.306-8.668,0-11.974l-2.287-2.287
		c-2.268-2.268-5.622-3.06-8.664-2.046l-41.333,13.777c-4.988,1.663-9.52,4.464-13.238,8.181L152.631,252.016z"/>
	<path style="fill:#AFB9D2;" d="M260.393,359.777l-29.934-29.934l83.815-83.815c3.306-3.306,8.668-3.306,11.974,0l2.287,2.287
		c2.268,2.268,3.06,5.622,2.046,8.665l-13.777,41.333c-1.663,4.988-4.464,9.52-8.181,13.237L260.393,359.777z"/>
</g>
<g>
	
		<rect x="162.647" y="233.839" transform="matrix(-0.7071 0.7071 -0.7071 -0.7071 486.8781 308.3397)" style="fill:#7F8499;" width="33.866" height="42.333"/>
	
		<rect x="240.458" y="311.672" transform="matrix(-0.7071 0.7071 -0.7071 -0.7071 674.746 386.1866)" style="fill:#7F8499;" width="33.866" height="42.333"/>
</g>
<path d="M511.773,7.648c-0.41-3.689-3.323-6.603-7.012-7.012c-2.355-0.26-58.383-5.697-120.237,56.158l-6.955,6.955l-215.667,61.427
	c-1.3,0.37-2.483,1.066-3.438,2.021l-35.921,35.921c-2.631,2.63-3.082,6.735-1.084,9.874l38.489,60.483l-13.459,13.458
	c-3.1,3.1-3.1,8.126,0,11.225l29.934,29.934c1.549,1.55,3.581,2.325,5.612,2.325c2.031,0,4.063-0.775,5.612-2.325l6.361-6.361
	l12.722,12.722l-6.361,6.361c-3.1,3.1-3.1,8.126,0,11.225c1.549,1.549,3.581,2.325,5.612,2.325s4.063-0.775,5.612-2.325l6.361-6.361
	l12.722,12.722l-6.361,6.361c-1.489,1.488-2.325,3.507-2.325,5.612s0.836,4.124,2.325,5.612l29.934,29.934
	c1.549,1.549,3.581,2.325,5.612,2.325s4.063-0.775,5.612-2.325l13.458-13.458l60.483,38.489c1.31,0.834,2.789,1.24,4.259,1.24
	c2.05,0,4.083-0.793,5.615-2.325l35.921-35.921c0.956-0.956,1.651-2.139,2.021-3.438l61.427-215.667l6.955-6.955
	C517.47,66.031,512.035,10.003,511.773,7.648z M168.231,139.878l186.256-53.05l-88.637,88.636l-0.375-0.375
	c-2.126-2.126-5.272-2.868-8.123-1.918l-49.228,16.409l-44.8-44.8L168.231,139.878z M205.983,247.306l-18.709-18.709l22.996-22.996
	l47.449-15.817l2.892,2.892L205.983,247.306z M194.758,198.664l-23.312,23.312l-9.895-15.549l20.484-20.484L194.758,198.664z
	 M152.102,156.008l18.709,18.709l-17.989,17.989L138.27,169.84L152.102,156.008z M163.327,252.545l12.722-12.722l18.709,18.709
	l-12.722,12.722L163.327,252.545z M229.182,294.451l114.123-114.123c3.1-3.1,3.1-8.126,0-11.225c-3.1-3.1-8.126-3.1-11.225,0
	L217.956,283.227l-12.722-12.722l72.216-72.216c1.489-1.488,2.325-3.507,2.325-5.612c0-2.105-0.836-4.124-2.325-5.612l-0.375-0.375
	L387.263,76.503c0.008-0.008,0.016-0.016,0.024-0.024l8.461-8.461c43.885-43.885,84.47-50.718,100.279-51.59
	c-0.793,15.775-7.494,56.09-51.638,100.233l-8.455,8.454c-0.012,0.012-0.024,0.023-0.036,0.036L325.717,235.332l-0.375-0.375
	c-3.1-3.1-8.126-3.1-11.225,0l-65.853,65.853l-0.001,0.001l-0.001,0.001l-6.361,6.361L229.182,294.451z M290.433,340.961
	l23.312-23.312l12.722,12.722l-20.484,20.484L290.433,340.961z M306.808,302.138l-22.996,22.996l-18.709-18.709l54.63-54.63
	l2.891,2.892L306.808,302.138z M259.864,349.081l-18.709-18.709l12.722-12.722l18.709,18.709L259.864,349.081z M342.568,374.139
	l-22.866-14.551l17.989-17.989l18.709,18.709L342.568,374.139z M372.531,344.178l-4.904,4.904l-44.8-44.8l16.409-49.228
	c0.95-2.852,0.208-5.996-1.918-8.123l-0.375-0.375l88.637-88.637L372.531,344.178z"/>
<path d="M412.514,84.696c4.524-0.491,8.607,0.824,11.489,3.708c2.884,2.883,4.2,6.964,3.708,11.49
	c-0.473,4.358,2.675,8.274,7.034,8.748c0.291,0.032,0.58,0.047,0.867,0.047c3.999,0,7.44-3.014,7.881-7.081
	c1.006-9.267-2.007-18.171-8.266-24.429c-6.259-6.26-15.16-9.27-24.43-8.266c-4.358,0.474-7.507,4.39-7.034,8.749
	C404.239,82.02,408.154,85.167,412.514,84.696z"/>
<path d="M79.478,340.505c2.031,0,4.063-0.775,5.612-2.325l52.253-52.253c3.1-3.1,3.1-8.126,0-11.225c-3.1-3.1-8.126-3.1-11.225,0
	l-52.253,52.253c-3.1,3.1-3.1,8.126,0,11.225C75.415,339.731,77.446,340.505,79.478,340.505z"/>
<path d="M61.143,350.903c-3.1-3.1-8.126-3.1-11.225,0c-3.299,3.298-7.683,5.115-12.347,5.115c-4.665,0-9.05-1.816-12.347-5.115
	s-5.115-7.683-5.115-12.347s1.816-9.05,5.115-12.347c3.1-3.1,3.1-8.126,0-11.225c-3.1-3.1-8.126-3.1-11.225,0
	c-12.998,12.998-12.998,34.148,0,47.146c6.499,6.499,15.036,9.748,23.572,9.748c8.537,0,17.074-3.249,23.573-9.748
	C64.243,359.028,64.243,354.002,61.143,350.903z"/>
<path d="M15.025,434.542l-8.467,8.467c-3.1,3.1-3.1,8.126,0,11.225c1.549,1.549,3.581,2.325,5.612,2.325s4.063-0.775,5.612-2.325
	l8.467-8.467c3.1-3.1,3.1-8.126,0-11.225C23.151,431.442,18.125,431.442,15.025,434.542z"/>
<path d="M161.715,299.076c-3.1-3.1-8.126-3.1-11.225,0L40.425,409.142c-3.1,3.1-3.1,8.126,0,11.225
	c1.549,1.549,3.581,2.325,5.612,2.325s4.063-0.775,5.612-2.325l110.066-110.066C164.816,307.202,164.816,302.176,161.715,299.076z"
	/>
<path d="M43.557,304.585c2.031,0,4.063-0.775,5.612-2.325l5.987-5.987c3.1-3.1,3.1-8.126,0-11.225c-3.1-3.1-8.126-3.1-11.225,0
	l-5.987,5.987c-3.1,3.1-3.1,8.126,0,11.225C39.494,303.809,41.526,304.585,43.557,304.585z"/>
<path d="M226.689,374.248L174.437,426.5c-3.1,3.1-3.1,8.126,0,11.225c1.549,1.549,3.581,2.325,5.612,2.325s4.063-0.775,5.612-2.325
	l52.253-52.253c3.1-3.1,3.1-8.126,0-11.225C234.815,371.148,229.789,371.148,226.689,374.248z"/>
<path d="M186.411,486.369c-3.299,3.298-7.683,5.115-12.347,5.115c-4.665,0-9.05-1.816-12.347-5.115s-5.115-7.683-5.115-12.347
	c0-4.664,1.816-9.05,5.115-12.347c3.1-3.1,3.1-8.126,0-11.225c-3.1-3.1-8.126-3.1-11.225,0c-12.998,12.998-12.998,34.148,0,47.146
	c6.499,6.499,15.036,9.748,23.572,9.748c8.538,0,17.074-3.249,23.573-9.748c3.1-3.1,3.1-8.126,0-11.225
	C194.537,483.269,189.511,483.269,186.411,486.369z"/>
<path d="M66.851,485.341l-8.467,8.467c-3.1,3.1-3.1,8.126,0,11.225c1.549,1.549,3.581,2.325,5.612,2.325
	c2.031,0,4.063-0.775,5.612-2.325l8.467-8.467c3.1-3.1,3.1-8.126,0-11.225C74.977,482.241,69.951,482.241,66.851,485.341z"/>
<path d="M213.542,349.876c-3.1-3.1-8.126-3.1-11.225,0L92.252,459.941c-3.1,3.1-3.1,8.126,0,11.225
	c1.549,1.549,3.581,2.325,5.612,2.325s4.063-0.775,5.612-2.325L213.542,361.1C216.642,358.002,216.642,352.976,213.542,349.876z"/>
<path d="M216.344,456.434l-5.987,5.987c-3.1,3.1-3.1,8.126,0,11.225c1.549,1.549,3.581,2.325,5.612,2.325
	c2.031,0,4.063-0.775,5.612-2.325l5.987-5.987c3.1-3.1,3.1-8.126,0-11.225C224.47,453.335,219.444,453.335,216.344,456.434z"/>
<g>
</g>
<g>
</g>
<g>
</g>
<g>
</g>
<g>
</g>
<g>
</g>
<g>
</g>
<g>
</g>
<g>
</g>
<g>
</g>
<g>
</g>
<g>
</g>
<g>
</g>
<g>
</g>
<g>
</g>
</svg>
