<?xml version="1.0" encoding="iso-8859-1"?>
<!-- Generator: Adobe Illustrator 19.0.0, SVG Export Plug-In . SVG Version: 6.00 Build 0)  -->
<svg version="1.1" id="Layer_1" xmlns="http://www.w3.org/2000/svg" xmlns:xlink="http://www.w3.org/1999/xlink" x="0px" y="0px"
	 viewBox="0 0 511.998 511.998" style="enable-background:new 0 0 511.998 511.998;" xml:space="preserve">
<g>
	
		<rect x="379.891" y="87.909" transform="matrix(-0.7071 -0.7071 0.7071 -0.7071 617.2852 467.9536)" style="fill:#C7CFE2;" width="51.336" height="36.449"/>
	
		<rect x="170.927" y="300.941" transform="matrix(0.7071 0.7071 -0.7071 0.7071 283.933 -38.1678)" style="fill:#C7CFE2;" width="34.224" height="45.425"/>
	
		<rect x="268.377" y="191.083" transform="matrix(-0.7071 0.7071 -0.7071 -0.7071 665.3129 140.8094)" style="fill:#C7CFE2;" width="70.234" height="34.224"/>
</g>
<g>
	
		<rect x="200.214" y="208.807" transform="matrix(-0.7071 -0.7071 0.7071 -0.7071 224.8186 630.5211)" style="fill:#D5DCED;" width="85.56" height="119.784"/>
	
		<rect x="102.377" y="315.206" transform="matrix(-0.7071 -0.7071 0.7071 -0.7071 -52.6984 745.4811)" style="fill:#D5DCED;" width="51.336" height="136.897"/>
	
		<rect x="323.72" y="102.411" transform="matrix(-0.7071 -0.7071 0.7071 -0.7071 502.3325 515.5682)" style="fill:#D5DCED;" width="68.448" height="102.672"/>
</g>
<path style="fill:#C7CFE2;" d="M376.092,156.262c-2.189,0-4.379-0.835-6.049-2.507l-12.099-12.099
	c-3.342-3.342-3.342-8.757,0-12.099c3.342-3.342,8.757-3.342,12.099,0l12.099,12.099c3.342,3.342,3.342,8.757,0,12.099
	C380.47,155.427,378.28,156.262,376.092,156.262z"/>
<g>
	<circle style="fill:#7F8499;" cx="255.089" cy="256.608" r="17.112"/>
	
		<rect x="-4.381" y="110.471" transform="matrix(0.7071 0.7071 -0.7071 0.7071 129.3317 -34.9447)" style="fill:#7F8499;" width="222.457" height="56.348"/>
	
		<rect x="261.344" y="377.229" transform="matrix(-0.7071 -0.7071 0.7071 -0.7071 349.3572 955.5146)" style="fill:#7F8499;" width="222.457" height="56.348"/>
	
		<rect x="152.952" y="52.926" transform="matrix(0.7071 0.7071 -0.7071 0.7071 125.0191 -137.5478)" style="fill:#7F8499;" width="151.185" height="58.424"/>
	
		<rect x="354.021" y="255.449" transform="matrix(-0.7071 -0.7071 0.7071 -0.7071 532.1105 789.7289)" style="fill:#7F8499;" width="151.185" height="58.424"/>
</g>
<g>
	
		<rect x="64.611" y="370.082" transform="matrix(-0.7071 0.7071 -0.7071 -0.7071 477.7729 593.6011)" style="fill:#C7CFE2;" width="102.672" height="51.336"/>
	
		<rect x="178.591" y="281.781" transform="matrix(0.7071 0.7071 -0.7071 0.7071 270.1368 -71.4953)" style="fill:#C7CFE2;" width="85.56" height="17.11"/>
</g>
<path d="M381.766,142.033l-12.1-12.1c-3.133-3.133-8.212-3.133-11.343,0c-3.133,3.133-3.133,8.212,0,11.343l12.1,12.1
	c1.566,1.566,3.619,2.35,5.672,2.35s4.106-0.783,5.672-2.35C384.898,150.245,384.898,145.166,381.766,142.033z"/>
<path d="M237.32,238.835c-4.747,4.747-7.361,11.059-7.361,17.772c0,6.713,2.615,13.026,7.361,17.772
	c4.899,4.901,11.336,7.35,17.772,7.35c6.436,0,12.873-2.45,17.772-7.35c4.746-4.747,7.361-11.059,7.361-17.772
	s-2.615-13.026-7.361-17.772c-4.747-4.747-11.059-7.361-17.772-7.361C248.379,231.474,242.067,234.089,237.32,238.835z
	 M264.183,256.607c0,2.429-0.945,4.711-2.663,6.429c-3.544,3.543-9.311,3.543-12.857,0c-1.717-1.717-2.663-4-2.663-6.429
	c0-2.429,0.945-4.711,2.663-6.428c1.717-1.717,3.999-2.663,6.428-2.663c2.429,0,4.711,0.945,6.428,2.663
	C263.237,251.896,264.183,254.178,264.183,256.607z"/>
<path d="M349.832,246.199c-3.133,3.133-3.133,8.212,0,11.343l106.906,106.907c1.566,1.566,3.619,2.35,5.672,2.35
	s4.106-0.783,5.672-2.35l41.312-41.312c3.133-3.133,3.133-8.212,0-11.343L402.488,204.887c-3.133-3.133-8.212-3.133-11.343,0
	l-14.25,14.25l-12.293-12.293l59.515-59.515c3.133-3.133,3.133-8.212,0-11.343l-0.379-0.379l18.528-18.528
	c3.133-3.133,3.133-8.212,0-11.343l-36.3-36.303c-3.133-3.133-8.212-3.133-11.343,0l-18.528,18.528l-0.379-0.379
	c-1.504-1.505-3.544-2.35-5.672-2.35c-2.127,0-4.168,0.845-5.672,2.35l-60.249,60.249l-11.514-11.514l15.719-15.719
	c1.505-1.504,2.35-3.544,2.35-5.672c0-2.127-0.845-4.168-2.35-5.672L201.419,2.349c-3.133-3.133-8.212-3.133-11.343,0
	l-41.312,41.312c-1.505,1.504-2.35,3.544-2.35,5.672s0.845,4.168,2.35,5.672L255.67,161.911c1.566,1.567,3.619,2.35,5.672,2.35
	s4.106-0.783,5.672-2.35l14.25-14.25l11.514,11.514l-1.007,1.007c-1.505,1.504-2.35,3.544-2.35,5.672
	c0,2.127,0.845,4.168,2.35,5.672l6.428,6.428l-24.957,24.957l-12.478-12.478c-3.133-3.133-8.212-3.133-11.343,0l-40.453,40.453
	L196.11,218.03l14.984-14.985c3.133-3.133,3.133-8.212,0-11.343L53.793,34.401c-3.133-3.133-8.212-3.133-11.343,0L2.604,74.245
	c-1.505,1.504-2.35,3.544-2.35,5.672c0,2.127,0.845,4.168,2.35,5.672l157.303,157.302c1.504,1.505,3.544,2.35,5.672,2.35
	c2.127,0,4.168-0.845,5.672-2.35l13.517-13.517l12.857,12.857l-32.905,32.905c-3.133,3.133-3.133,8.212,0,11.343l12.478,12.478
	l-12.857,12.857l-0.379-0.379c-3.133-3.133-8.212-3.133-11.343,0l-96.802,96.802c-3.133,3.133-3.133,8.212,0,11.343l36.3,36.3
	c1.566,1.566,3.619,2.35,5.672,2.35c2.052,0,4.106-0.783,5.672-2.35l96.802-96.802c3.133-3.133,3.133-8.212,0-11.343l-0.398-0.398
	c0.134-0.118,0.27-0.231,0.398-0.359L212.74,334.5l12.478,12.478c1.566,1.566,3.619,2.35,5.672,2.35s4.106-0.783,5.672-2.35
	l33.853-33.853l12.894,12.894l-14.984,14.984c-3.133,3.133-3.133,8.212,0,11.343l157.302,157.302c1.566,1.566,3.619,2.35,5.672,2.35
	s4.106-0.783,5.672-2.35l39.845-39.845c3.133-3.133,3.133-8.212,0-11.343l-157.3-157.3c-3.133-3.133-8.212-3.133-11.343,0
	l-13.517,13.517l-12.894-12.894l39.504-39.504c3.133-3.133,3.133-8.212,0-11.343l-12.478-12.478l24.957-24.957l6.428,6.428
	c1.566,1.566,3.619,2.35,5.672,2.35c2.052,0,4.106-0.783,5.672-2.35l1.741-1.741l12.293,12.293L349.832,246.199z M400.294,86.449
	l24.956,24.956l-12.857,12.857l-24.956-24.956L400.294,86.449z M195.747,19.364l44.227,44.227L210.005,93.56l-44.227-44.227
	L195.747,19.364z M261.342,144.896l-39.993-39.992l29.969-29.969l39.993,39.993L261.342,144.896z M48.12,51.416l67.308,67.308
	l-28.5,28.5L19.62,79.917L48.12,51.416z M165.578,225.876l-67.308-67.308l28.5-28.5l67.308,67.308L165.578,225.876z M431.3,492.635
	l-67.308-67.308l28.5-28.5l67.308,67.308L431.3,492.635z M313.843,318.176l67.308,67.308l-28.5,28.5l-67.308-67.308L313.843,318.176
	z M97.789,438.866l-24.957-24.957l61.257-61.258l24.957,24.957L97.789,438.866z M170.391,366.266l-24.957-24.957l12.857-12.857
	l0.373,0.373c0.002,0.002,0.003,0.003,0.005,0.005c0.002,0.002,0.003,0.003,0.005,0.005l24.573,24.573L170.391,366.266z
	 M188.92,335.637c-0.127,0.127-0.242,0.263-0.359,0.398l-12.876-12.876l12.857-12.857l12.857,12.857L188.92,335.637z
	 M230.892,329.964l-49.157-49.157l73.357-73.357l49.157,49.157L230.892,329.964z M297.442,227.113l-12.857-12.857l24.957-24.957
	l12.857,12.857L297.442,227.113z M308.786,165.856l61.257-61.257l37.057,37.057l-61.256,61.256L308.786,165.856z M462.41,347.434
	l-44.227-44.227l29.969-29.969l44.227,44.227L462.41,347.434z M396.816,221.901l39.993,39.993l-29.969,29.969l-39.993-39.993
	L396.816,221.901z"/>
<g>
</g>
<g>
</g>
<g>
</g>
<g>
</g>
<g>
</g>
<g>
</g>
<g>
</g>
<g>
</g>
<g>
</g>
<g>
</g>
<g>
</g>
<g>
</g>
<g>
</g>
<g>
</g>
<g>
</g>
</svg>
