<?xml version="1.0" encoding="iso-8859-1"?>
<!-- Generator: Adobe Illustrator 19.0.0, SVG Export Plug-In . SVG Version: 6.00 Build 0)  -->
<svg version="1.1" id="Layer_1" xmlns="http://www.w3.org/2000/svg" xmlns:xlink="http://www.w3.org/1999/xlink" x="0px" y="0px"
	 viewBox="0 0 511.999 511.999" style="enable-background:new 0 0 511.999 511.999;" xml:space="preserve">
<circle style="fill:#DCD8F7;" cx="256.001" cy="256" r="145.37"/>
<circle style="fill:#B9B1F0;" cx="256.001" cy="256" r="94.063"/>
<circle style="fill:#7364E1;" cx="256.001" cy="256" r="55.574"/>
<circle style="fill:#FFFFFF;" cx="256.001" cy="256" r="17.102"/>
<path d="M503.983,247.982H279.8c-2.503-7.411-8.373-13.279-15.782-15.782V110.63c0-4.427-3.589-8.017-8.017-8.017
	c-4.427,0-8.017,3.589-8.017,8.017V232.2c-7.411,2.503-13.28,8.373-15.783,15.783H8.017C3.589,247.983,0,251.573,0,256
	s3.589,8.017,8.017,8.017h224.184c2.503,7.412,8.373,13.281,15.784,15.783v121.57c0,4.427,3.589,8.017,8.017,8.017
	s8.017-3.589,8.017-8.017V279.799c7.411-2.503,13.279-8.373,15.781-15.783h224.183c4.427,0,8.017-3.589,8.017-8.017
	C511.999,251.572,508.411,247.982,503.983,247.982z M256.001,246.914c5.007,0,9.079,4.07,9.086,9.075c0,0.003,0,0.006,0,0.01
	c0,0.003,0,0.007,0,0.011c-0.005,5.006-4.079,9.076-9.086,9.076c-5.01,0-9.086-4.076-9.086-9.086
	C246.915,250.99,250.991,246.914,256.001,246.914z"/>
<path d="M216.128,227.464c1.565,1.565,3.617,2.348,5.668,2.348c2.051,0,4.104-0.782,5.668-2.348c3.131-3.131,3.131-8.207,0-11.337
	L124.85,113.513c-3.131-3.131-8.207-3.131-11.337,0c-3.131,3.131-3.131,8.207,0,11.337L216.128,227.464z"/>
<path d="M295.874,284.535c-3.131-3.131-8.207-3.131-11.337,0c-3.131,3.131-3.131,8.207,0,11.337l102.614,102.614
	c1.565,1.565,3.617,2.348,5.668,2.348s4.103-0.782,5.668-2.348c3.131-3.131,3.131-8.207,0-11.337L295.874,284.535z"/>
<path d="M256.002,84.442c4.427,0,8.017-3.589,8.017-8.017v-8.551c0-4.427-3.589-8.017-8.017-8.017c-4.427,0-8.017,3.589-8.017,8.017
	v8.551C247.985,80.853,251.574,84.442,256.002,84.442z"/>
<path d="M256.001,427.557c-4.427,0-8.017,3.589-8.017,8.017v8.551c0,4.427,3.589,8.017,8.017,8.017s8.017-3.589,8.017-8.017v-8.551
	C264.017,431.146,260.428,427.557,256.001,427.557z"/>
<path d="M226.177,325.588c-4.071-1.744-8.782,0.141-10.526,4.21l-18.325,42.759c-1.744,4.07,0.141,8.782,4.21,10.526
	c1.03,0.441,2.1,0.65,3.154,0.65c3.11,0,6.069-1.821,7.372-4.86l18.325-42.759C232.131,332.046,230.247,327.333,226.177,325.588z"/>
<path d="M297.574,329.799c-1.743-4.069-6.458-5.953-10.526-4.21c-4.069,1.744-5.955,6.457-4.21,10.526l18.325,42.759
	c1.303,3.04,4.262,4.86,7.372,4.86c1.054,0,2.125-0.21,3.154-0.65c4.069-1.744,5.955-6.457,4.21-10.526L297.574,329.799z"/>
<path d="M284.537,227.464c1.565,1.565,3.617,2.348,5.668,2.348c2.051,0,4.103-0.782,5.668-2.348L398.488,124.85
	c3.131-3.131,3.131-8.207,0-11.337c-3.131-3.131-8.207-3.131-11.337,0L284.537,216.127
	C281.406,219.257,281.406,224.333,284.537,227.464z"/>
<path d="M227.464,284.535c-3.131-3.131-8.207-3.131-11.337,0L113.514,387.149c-3.131,3.131-3.131,8.207,0,11.337
	c1.565,1.565,3.617,2.348,5.668,2.348s4.103-0.782,5.668-2.348l102.614-102.614C230.595,292.742,230.595,287.666,227.464,284.535z"
	/>
<path d="M287.047,186.411c1.03,0.441,2.1,0.65,3.154,0.65c3.111,0,6.069-1.821,7.372-4.86l18.325-42.759
	c1.744-4.07-0.141-8.782-4.21-10.526c-4.071-1.746-8.782,0.14-10.526,4.21l-18.325,42.759
	C281.093,179.953,282.977,184.666,287.047,186.411z"/>
<path d="M98.782,194.897l8.605,3.883c1.07,0.483,2.19,0.712,3.293,0.712c3.055,0,5.973-1.756,7.311-4.721
	c1.821-4.035,0.027-8.783-4.008-10.605l-8.605-3.883c-4.035-1.822-8.784-0.027-10.605,4.008
	C92.951,188.327,94.746,193.075,98.782,194.897z"/>
<path d="M143.268,197.387c-4.033-1.821-8.783-0.027-10.605,4.008s-0.027,8.783,4.008,10.605l39.069,17.636
	c1.07,0.483,2.19,0.712,3.293,0.712c3.055,0,5.973-1.756,7.311-4.721c1.821-4.035,0.027-8.783-4.008-10.605L143.268,197.387z"/>
<path d="M215.65,182.2c1.303,3.04,4.262,4.86,7.372,4.86c1.054,0,2.125-0.21,3.154-0.65c4.069-1.744,5.955-6.457,4.21-10.526
	l-18.325-42.759c-1.744-4.07-6.457-5.954-10.526-4.21c-4.069,1.744-5.955,6.457-4.21,10.526L215.65,182.2z"/>
<path d="M394.01,194.772c1.338,2.965,4.256,4.721,7.311,4.721c1.102,0,2.223-0.229,3.293-0.712l8.605-3.883
	c4.035-1.821,5.831-6.569,4.008-10.605c-1.821-4.035-6.569-5.831-10.605-4.008l-8.605,3.883
	C393.983,185.988,392.189,190.736,394.01,194.772z"/>
<path d="M368.733,197.387l-39.069,17.636c-4.035,1.821-5.831,6.569-4.008,10.605c1.338,2.965,4.256,4.721,7.311,4.721
	c1.103,0,2.223-0.229,3.293-0.712l39.069-17.636c4.035-1.821,5.831-6.569,4.008-10.605
	C377.516,197.359,372.768,195.568,368.733,197.387z"/>
<path d="M413.22,317.102l-8.605-3.884c-4.035-1.821-8.783-0.027-10.606,4.008c-1.821,4.035-0.027,8.783,4.008,10.606l8.605,3.884
	c1.07,0.483,2.191,0.712,3.294,0.712c3.055,0,5.973-1.755,7.311-4.72C419.05,323.672,417.255,318.924,413.22,317.102z"/>
<path d="M368.733,314.612c1.07,0.483,2.19,0.712,3.293,0.712c3.055,0,5.973-1.756,7.311-4.721c1.821-4.035,0.027-8.783-4.008-10.604
	l-39.069-17.636c-4.035-1.824-8.783-0.027-10.604,4.008c-1.821,4.035-0.027,8.783,4.008,10.604L368.733,314.612z"/>
<path d="M117.991,317.226c-1.821-4.035-6.568-5.829-10.606-4.008l-8.605,3.884c-4.035,1.822-5.83,6.569-4.008,10.606
	c1.338,2.965,4.256,4.72,7.311,4.72c1.102,0,2.223-0.229,3.294-0.712l8.605-3.884C118.018,326.009,119.813,321.261,117.991,317.226z
	"/>
<path d="M139.975,315.324c1.102,0,2.223-0.229,3.293-0.712l39.069-17.636c4.035-1.821,5.83-6.569,4.008-10.605
	c-1.822-4.036-6.569-5.83-10.605-4.008l-39.069,17.636c-4.035,1.821-5.83,6.569-4.008,10.604
	C134.002,313.569,136.92,315.324,139.975,315.324z"/>
<g>
</g>
<g>
</g>
<g>
</g>
<g>
</g>
<g>
</g>
<g>
</g>
<g>
</g>
<g>
</g>
<g>
</g>
<g>
</g>
<g>
</g>
<g>
</g>
<g>
</g>
<g>
</g>
<g>
</g>
</svg>
