<?xml version="1.0" encoding="iso-8859-1"?>
<!-- Generator: Adobe Illustrator 19.0.0, SVG Export Plug-In . SVG Version: 6.00 Build 0)  -->
<svg version="1.1" id="Layer_1" xmlns="http://www.w3.org/2000/svg" xmlns:xlink="http://www.w3.org/1999/xlink" x="0px" y="0px"
	 viewBox="0 0 512 512" style="enable-background:new 0 0 512 512;" xml:space="preserve">
<circle style="fill:#E2F5FF;" cx="256" cy="256" r="153.921"/>
<circle style="fill:#96D7FF;" cx="256" cy="256" r="94.063"/>
<circle style="fill:#E2F5FF;" cx="256" cy="256" r="59.858"/>
<circle style="fill:#FFFFFF;" cx="256" cy="256" r="34.205"/>
<path d="M144.301,256c0-4.427-3.589-8.017-8.017-8.017H8.017C3.589,247.983,0,251.573,0,256c0,4.427,3.589,8.017,8.017,8.017
	h128.267C140.711,264.017,144.301,260.427,144.301,256z"/>
<path d="M503.983,247.983H375.716c-4.427,0-8.017,3.589-8.017,8.017c0,4.427,3.589,8.017,8.017,8.017h128.267
	c4.427,0,8.017-3.589,8.017-8.017C512,251.573,508.411,247.983,503.983,247.983z"/>
<path d="M309.294,297.957c7.555-9.576,12.587-21.222,14.091-33.941h18.126c4.427,0,8.017-3.589,8.017-8.017
	s-3.589-8.017-8.017-8.017h-18.126c-1.504-12.719-6.536-24.364-14.091-33.941L441.242,82.094c3.131-3.131,3.131-8.206,0-11.337
	c-3.131-3.131-8.207-3.131-11.337,0L297.957,202.706c-9.576-7.555-21.222-12.587-33.941-14.091v-18.126
	c0-4.427-3.589-8.017-8.017-8.017s-8.017,3.589-8.017,8.017v18.126c-12.719,1.504-24.364,6.536-33.941,14.091L82.094,70.758
	c-3.131-3.131-8.207-3.131-11.337,0c-3.131,3.131-3.131,8.206,0,11.337l131.948,131.949c-7.555,9.576-12.587,21.222-14.091,33.941
	h-18.126c-4.427,0-8.017,3.589-8.017,8.017c0,4.427,3.589,8.017,8.017,8.017h18.126c1.504,12.719,6.536,24.364,14.091,33.941
	L70.758,429.906c-3.131,3.131-3.131,8.207,0,11.337c1.565,1.566,3.617,2.348,5.668,2.348c2.051,0,4.103-0.782,5.668-2.348
	l131.949-131.948c9.576,7.555,21.222,12.587,33.941,14.091v18.126c0,4.427,3.589,8.017,8.017,8.017c4.427,0,8.017-3.589,8.017-8.017
	v-18.126c12.719-1.504,24.364-6.536,33.941-14.091l131.948,131.948c1.565,1.565,3.617,2.348,5.668,2.348s4.103-0.782,5.668-2.348
	c3.131-3.131,3.131-8.207,0-11.337L309.294,297.957z M256,307.841c-28.585,0-51.841-23.256-51.841-51.841
	s23.256-51.841,51.841-51.841s51.841,23.256,51.841,51.841S284.585,307.841,256,307.841z"/>
<path d="M256,144.301c4.427,0,8.017-3.589,8.017-8.017V8.017C264.017,3.589,260.427,0,256,0c-4.427,0-8.017,3.589-8.017,8.017
	v128.267C247.983,140.711,251.573,144.301,256,144.301z"/>
<path d="M256,367.699c-4.427,0-8.017,3.589-8.017,8.017v128.267c0,4.427,3.589,8.017,8.017,8.017c4.427,0,8.017-3.589,8.017-8.017
	V375.716C264.017,371.289,260.427,367.699,256,367.699z"/>
<path d="M74.298,339.284c1.023,0,2.062-0.197,3.065-0.612l94.802-39.269c4.091-1.694,6.033-6.383,4.339-10.474
	c-1.693-4.091-6.386-6.033-10.474-4.339l-94.802,39.269c-4.091,1.694-6.033,6.383-4.339,10.474
	C68.167,337.42,71.152,339.284,74.298,339.284z"/>
<path d="M434.638,173.329l-94.802,39.269c-4.091,1.694-6.033,6.383-4.339,10.474c1.278,3.087,4.264,4.951,7.41,4.951
	c1.023,0,2.062-0.197,3.065-0.612l94.802-39.269c4.091-1.694,6.033-6.383,4.339-10.474
	C443.418,173.577,438.727,171.634,434.638,173.329z"/>
<path d="M212.598,172.166c1.278,3.087,4.264,4.951,7.41,4.951c1.023,0,2.062-0.197,3.065-0.612
	c4.091-1.694,6.033-6.383,4.339-10.474l-39.268-94.802c-1.694-4.091-6.383-6.033-10.474-4.339s-6.033,6.383-4.339,10.474
	L212.598,172.166z"/>
<path d="M299.402,339.834c-1.694-4.091-6.384-6.032-10.474-4.339c-4.091,1.694-6.033,6.383-4.339,10.474l39.268,94.802
	c1.278,3.087,4.264,4.951,7.41,4.951c1.023,0,2.062-0.197,3.065-0.612c4.091-1.694,6.033-6.384,4.339-10.474L299.402,339.834z"/>
<path d="M71.227,188.141l94.802,39.269c1.003,0.416,2.043,0.612,3.065,0.612c3.146,0,6.131-1.864,7.41-4.951
	c1.694-4.091-0.248-8.78-4.339-10.474l-94.802-39.269c-4.09-1.694-8.78,0.248-10.474,4.339
	C65.194,181.758,67.137,186.447,71.227,188.141z"/>
<path d="M440.773,323.859l-94.802-39.269c-4.091-1.694-8.781,0.248-10.474,4.339c-1.694,4.091,0.248,8.78,4.339,10.474
	l94.802,39.269c1.003,0.416,2.043,0.612,3.065,0.612c3.146,0,6.131-1.864,7.41-4.951
	C446.806,330.242,444.863,325.553,440.773,323.859z"/>
<path d="M288.928,176.504c1.004,0.416,2.043,0.612,3.065,0.612c3.146,0,6.131-1.864,7.41-4.951l39.268-94.802
	c1.694-4.091-0.248-8.78-4.339-10.474c-4.093-1.694-8.78,0.248-10.474,4.339L284.59,166.03
	C282.895,170.12,284.838,174.809,288.928,176.504z"/>
<path d="M223.072,335.496c-4.093-1.694-8.78,0.248-10.474,4.339l-39.268,94.802c-1.694,4.091,0.248,8.78,4.339,10.474
	c1.004,0.416,2.043,0.612,3.065,0.612c3.146,0,6.131-1.864,7.41-4.951l39.268-94.802
	C229.105,341.88,227.162,337.191,223.072,335.496z"/>
<g>
</g>
<g>
</g>
<g>
</g>
<g>
</g>
<g>
</g>
<g>
</g>
<g>
</g>
<g>
</g>
<g>
</g>
<g>
</g>
<g>
</g>
<g>
</g>
<g>
</g>
<g>
</g>
<g>
</g>
</svg>
