<?xml version="1.0" encoding="iso-8859-1"?>
<!-- Generator: Adobe Illustrator 19.0.0, SVG Export Plug-In . SVG Version: 6.00 Build 0)  -->
<svg version="1.1" id="Layer_1" xmlns="http://www.w3.org/2000/svg" xmlns:xlink="http://www.w3.org/1999/xlink" x="0px" y="0px"
	 viewBox="0 0 512 512" style="enable-background:new 0 0 512 512;" xml:space="preserve">
<g>
	<circle style="fill:#E2F5FF;" cx="214.033" cy="352.525" r="25.18"/>
	<circle style="fill:#E2F5FF;" cx="398.689" cy="142.689" r="25.18"/>
</g>
<g>
	<circle style="fill:#FFF5B1;" cx="407.082" cy="411.279" r="50.361"/>
	<circle style="fill:#FFF5B1;" cx="163.672" cy="167.869" r="58.754"/>
</g>
<g>
	<circle style="fill:#E2F5FF;" cx="331.541" cy="268.59" r="41.967"/>
	<circle style="fill:#E2F5FF;" cx="281.18" cy="41.967" r="41.967"/>
	<circle style="fill:#E2F5FF;" cx="239.213" cy="470.033" r="41.967"/>
</g>
<circle style="fill:#FFEB64;" cx="163.672" cy="167.869" r="33.574"/>
<circle style="fill:#FFFFFF;" cx="163.672" cy="167.869" r="8.393"/>
<circle style="fill:#FFEB64;" cx="407.082" cy="411.279" r="25.18"/>
<path d="M256,160h-51.644c-1.079-5.587-3.274-10.78-6.359-15.329l18.719-18.719c3.073-3.073,3.073-8.055,0-11.128
	c-3.073-3.073-8.056-3.073-11.128,0l-18.719,18.719c-4.548-3.084-9.742-5.279-15.329-6.359V75.541c0-4.346-3.523-7.869-7.869-7.869
	s-7.869,3.523-7.869,7.869v51.644c-5.587,1.079-10.78,3.276-15.329,6.359l-18.719-18.719c-3.073-3.073-8.056-3.073-11.128,0
	c-3.073,3.073-3.073,8.055,0,11.128l18.719,18.719c-3.084,4.548-5.281,9.742-6.359,15.329H71.344c-4.346,0-7.869,3.523-7.869,7.869
	c0,4.346,3.523,7.869,7.869,7.869h51.644c1.079,5.587,3.274,10.78,6.359,15.329l-18.719,18.719c-3.073,3.073-3.073,8.055,0,11.128
	c1.536,1.537,3.55,2.305,5.564,2.305s4.028-0.768,5.564-2.305l18.719-18.719c4.548,3.084,9.742,5.279,15.329,6.359v51.644
	c0,4.346,3.523,7.869,7.869,7.869s7.869-3.523,7.869-7.869v-51.644c5.587-1.079,10.78-3.276,15.329-6.359l18.719,18.719
	c1.536,1.537,3.55,2.305,5.564,2.305s4.028-0.768,5.564-2.305c3.073-3.073,3.073-8.055,0-11.128l-18.719-18.719
	c3.084-4.548,5.281-9.742,6.359-15.329H256c4.346,0,7.869-3.523,7.869-7.869C263.869,163.523,260.346,160,256,160z M163.672,193.574
	c-14.173,0-25.705-11.532-25.705-25.705c0-14.173,11.532-25.705,25.705-25.705c14.173,0,25.705,11.532,25.705,25.705
	C189.377,182.042,177.846,193.574,163.672,193.574z"/>
<path d="M482.623,403.41h-43.445c-0.811-3.307-2.114-6.424-3.839-9.259l19.276-19.276c3.073-3.073,3.073-8.055,0-11.128
	s-8.056-3.073-11.128,0l-19.276,19.276c-2.835-1.725-5.951-3.028-9.259-3.839v-43.447c0-4.346-3.523-7.869-7.869-7.869
	s-7.869,3.523-7.869,7.869v43.446c-3.307,0.811-6.424,2.114-9.259,3.839l-19.276-19.276c-3.073-3.073-8.056-3.073-11.128,0
	c-3.073,3.073-3.073,8.055,0,11.128l19.276,19.276c-1.725,2.835-3.028,5.951-3.839,9.259h-43.448c-4.346,0-7.869,3.523-7.869,7.869
	s3.523,7.869,7.869,7.869h43.445c0.811,3.307,2.114,6.424,3.839,9.259l-19.276,19.276c-3.073,3.073-3.073,8.056,0,11.128
	c1.536,1.536,3.55,2.305,5.564,2.305c2.013,0,4.028-0.768,5.564-2.305l19.276-19.276c2.835,1.725,5.951,3.028,9.259,3.839v43.448
	c0,4.346,3.523,7.869,7.869,7.869s7.869-3.523,7.869-7.869v-43.445c3.307-0.811,6.424-2.114,9.259-3.839l19.276,19.276
	c1.536,1.536,3.55,2.305,5.564,2.305s4.028-0.768,5.564-2.305c3.073-3.073,3.073-8.056,0-11.128l-19.276-19.276
	c1.725-2.835,3.028-5.951,3.839-9.259h43.448c4.346,0,7.869-3.523,7.869-7.869S486.969,403.41,482.623,403.41z M407.082,428.59
	c-9.545,0-17.311-7.766-17.311-17.311c0-9.545,7.766-17.311,17.311-17.311s17.311,7.766,17.311,17.311
	C424.394,420.824,416.628,428.59,407.082,428.59z"/>
<path d="M373.508,150.557h17.311v17.311c0,4.346,3.523,7.869,7.869,7.869s7.869-3.523,7.869-7.869v-17.311h17.311
	c4.346,0,7.869-3.523,7.869-7.869s-3.523-7.869-7.869-7.869h-17.311v-17.311c0-4.346-3.523-7.869-7.869-7.869
	s-7.869,3.523-7.869,7.869v17.311h-17.311c-4.346,0-7.869,3.523-7.869,7.869S369.163,150.557,373.508,150.557z"/>
<path d="M489.554,256l7.026-7.026c3.073-3.073,3.073-8.055,0-11.128c-3.073-3.073-8.056-3.073-11.128,0l-7.026,7.026l-7.026-7.026
	c-3.073-3.073-8.056-3.073-11.128,0c-3.073,3.073-3.073,8.055,0,11.128l7.026,7.026l-7.026,7.026c-3.073,3.073-3.073,8.055,0,11.128
	c1.536,1.537,3.55,2.305,5.564,2.305c2.013,0,4.028-0.768,5.564-2.305l7.026-7.026l7.026,7.026c1.536,1.537,3.55,2.305,5.564,2.305
	c2.013,0,4.028-0.768,5.564-2.305c3.073-3.073,3.073-8.055,0-11.128L489.554,256z"/>
<path d="M127.269,380.535c-3.073-3.073-8.056-3.073-11.128,0l-7.026,7.026l-7.026-7.026c-3.073-3.073-8.056-3.073-11.128,0
	c-3.073,3.073-3.073,8.055,0,11.128l7.025,7.026l-7.026,7.026c-3.073,3.073-3.073,8.055,0,11.128
	c1.536,1.537,3.55,2.305,5.564,2.305s4.028-0.768,5.564-2.305l7.026-7.026l7.026,7.026c1.536,1.537,3.55,2.305,5.564,2.305
	s4.028-0.768,5.564-2.305c3.073-3.073,3.073-8.055,0-11.128l-7.025-7.026l7.026-7.026
	C130.342,388.589,130.342,383.608,127.269,380.535z"/>
<path d="M54.557,252.328h-8.918v-8.918c0-4.346-3.523-7.869-7.869-7.869s-7.869,3.523-7.869,7.869v8.918h-8.918
	c-4.346,0-7.869,3.523-7.869,7.869c0,4.346,3.523,7.869,7.869,7.869h8.918v8.918c0,4.346,3.523,7.869,7.869,7.869
	s7.869-3.523,7.869-7.869v-8.918h8.918c4.346,0,7.869-3.523,7.869-7.869C62.426,255.851,58.903,252.328,54.557,252.328z"/>
<path d="M221.902,377.705v-17.311h17.311c4.346,0,7.869-3.523,7.869-7.869s-3.523-7.869-7.869-7.869h-17.311v-17.311
	c0-4.346-3.523-7.869-7.869-7.869s-7.869,3.523-7.869,7.869v17.311h-17.311c-4.346,0-7.869,3.523-7.869,7.869
	s3.523,7.869,7.869,7.869h17.311v17.311c0,4.346,3.523,7.869,7.869,7.869S221.902,382.051,221.902,377.705z"/>
<path d="M356.197,268.59c0-13.595-11.06-24.656-24.656-24.656s-24.656,11.06-24.656,24.656c0,13.595,11.06,24.656,24.656,24.656
	S356.197,282.185,356.197,268.59z M322.623,268.59c0-4.918,4.001-8.918,8.918-8.918s8.918,4.001,8.918,8.918
	s-4.001,8.918-8.918,8.918S322.623,273.508,322.623,268.59z"/>
<path d="M281.18,17.311c-13.595,0-24.656,11.06-24.656,24.656s11.06,24.656,24.656,24.656c13.595,0,24.656-11.06,24.656-24.656
	S294.776,17.311,281.18,17.311z M281.18,50.885c-4.918,0-8.918-4.001-8.918-8.918s4.001-8.918,8.918-8.918
	c4.918,0,8.918,4.001,8.918,8.918S286.098,50.885,281.18,50.885z"/>
<path d="M239.213,445.377c-13.595,0-24.656,11.06-24.656,24.656c0,13.595,11.06,24.656,24.656,24.656
	c13.595,0,24.656-11.06,24.656-24.656C263.869,456.437,252.808,445.377,239.213,445.377z M239.213,478.951
	c-4.917,0-8.918-4.001-8.918-8.918c0-4.918,4.001-8.918,8.918-8.918c4.918,0,8.918,4.001,8.918,8.918
	C248.131,474.95,244.131,478.951,239.213,478.951z"/>
<g>
</g>
<g>
</g>
<g>
</g>
<g>
</g>
<g>
</g>
<g>
</g>
<g>
</g>
<g>
</g>
<g>
</g>
<g>
</g>
<g>
</g>
<g>
</g>
<g>
</g>
<g>
</g>
<g>
</g>
</svg>
