<?xml version="1.0" encoding="iso-8859-1"?>
<!-- Generator: Adobe Illustrator 19.0.0, SVG Export Plug-In . SVG Version: 6.00 Build 0)  -->
<svg version="1.1" id="Layer_1" xmlns="http://www.w3.org/2000/svg" xmlns:xlink="http://www.w3.org/1999/xlink" x="0px" y="0px"
	 viewBox="0 0 511.999 511.999" style="enable-background:new 0 0 511.999 511.999;" xml:space="preserve">
<g>
	<path style="fill:#B9B1F0;" d="M226.855,426.663c2.772-2.772,2.713-7.272-0.119-9.98c-2.786-2.663-5.567-5.351-8.331-8.114
		C97.503,287.667,39.273,149.88,88.341,100.812c45.391-45.391,166.692,1.081,280.322,103.996
		c-8.775-9.919-17.965-19.752-27.637-29.423C244.889,79.248,133.776,26.482,61.446,35.972C34.258,39.54,13.005,60.794,9.438,87.982
		c-9.489,72.329,43.277,183.441,139.413,279.579c22.373,22.372,45.554,42.376,68.869,59.803
		C220.505,429.445,224.396,429.121,226.855,426.663L226.855,426.663z"/>
	<path style="fill:#B9B1F0;" d="M363.148,144.438c-22.373-22.372-45.554-42.376-68.869-59.803c-2.785-2.082-6.676-1.758-9.133,0.701
		l0,0c-2.772,2.772-2.713,7.272,0.119,9.98c2.786,2.663,5.567,5.351,8.331,8.114C414.498,224.332,472.727,362.119,423.66,411.187
		c-45.391,45.391-166.692-1.081-280.322-103.996c8.775,9.919,17.965,19.752,27.637,29.423
		c96.137,96.137,207.25,148.903,279.579,139.413c27.188-3.567,48.442-24.822,52.01-52.01
		C512.052,351.687,459.286,240.576,363.148,144.438z"/>
</g>
<g transform="matrix(0.7071 -0.7071 0.7071 0.7071 -95.91 231.55)">
	
		<ellipse transform="matrix(2.535182e-006 1 -1 2.535182e-006 497.6809 34.5812)" style="fill:#7364E1;" cx="231.55" cy="266.132" rx="239.916" ry="119.958"/>
	
		<ellipse transform="matrix(2.535182e-006 1 -1 2.535182e-006 497.6809 34.5812)" style="fill:#FFAAA5;" cx="231.55" cy="266.132" rx="178.047" ry="88.389"/>
	
		<ellipse transform="matrix(2.535182e-006 1 -1 2.535182e-006 497.6809 34.5812)" style="fill:#FFF5B1;" cx="231.55" cy="266.132" rx="110.361" ry="56.817"/>
</g>
<ellipse transform="matrix(-0.7071 -0.7071 0.7071 -0.7071 255.7752 618.1194)" style="fill:#FFFFFF;" cx="255.904" cy="256.087" rx="53.984" ry="25.136"/>
<path d="M282.839,305.976c6.755,0,12.577-2.039,16.838-6.299c13.428-13.428,4.775-42.331-20.125-67.231
	c-24.9-24.9-53.803-33.552-67.231-20.125c-13.428,13.428-4.775,42.331,20.125,67.231
	C249.445,296.551,268.307,305.976,282.839,305.976z M224.049,224.049c1.037-1.037,2.808-1.572,5.145-1.572
	c8.278,0,23.654,6.72,38.632,21.697c19.208,19.208,24.833,39.069,20.125,43.778c-4.71,4.707-24.571-0.919-43.778-20.125
	C224.965,248.618,219.341,228.756,224.049,224.049z"/>
<path d="M172.833,172.833c-12.938,12.938-15.614,33.954-7.536,59.177c7.478,23.353,23.473,48.089,45.038,69.654
	c31.777,31.777,68.172,49.548,96.241,49.548c13.125,0,24.433-3.887,32.591-12.047c12.938-12.938,15.614-33.954,7.536-59.177
	c-7.478-23.353-23.473-48.089-45.038-69.654C255.029,163.699,198.44,147.226,172.833,172.833z M226.953,181.09
	c20.885,6.688,43.253,21.238,62.985,40.97c19.732,19.733,34.283,42.101,40.97,62.985c6,18.737,4.736,34.189-3.468,42.393
	c-8.206,8.204-23.658,9.468-42.393,3.468c-20.885-6.688-43.253-21.238-62.985-40.97s-34.283-42.101-40.97-62.985
	c-6-18.737-4.736-34.189,3.468-42.393c4.785-4.785,12.032-7.21,20.961-7.21C211.902,177.35,219.143,178.59,226.953,181.09z"/>
<path d="M125.417,125.417c-18.883,18.882-22.166,50.424-9.246,88.817c12.262,36.44,37.851,75.343,72.052,109.543
	s73.104,59.79,109.543,72.052c15.423,5.19,29.737,7.765,42.574,7.765c19.116,0,34.947-5.714,46.244-17.011
	c18.883-18.882,22.166-50.424,9.246-88.817c-12.262-36.44-37.851-75.343-72.052-109.543s-73.104-59.79-109.543-72.052
	C175.841,103.25,144.298,106.534,125.417,125.417z M380.111,303.055c10.805,32.109,8.939,57.608-5.254,71.801
	c-14.193,14.193-39.692,16.059-71.801,5.254c-34.063-11.463-70.679-35.634-103.106-68.061s-56.598-69.044-68.061-103.106
	c-10.805-32.109-8.939-57.608,5.254-71.801c8.107-8.107,19.9-12.192,34.508-12.192c10.968,0,23.524,2.304,37.292,6.938
	c34.063,11.463,70.679,35.634,103.106,68.061C344.478,232.376,368.648,268.993,380.111,303.055z"/>
<path d="M286.461,93.324c5.822,4.293,11.691,8.794,17.443,13.376c1.527,1.216,3.35,1.807,5.161,1.807
	c2.439,0,4.854-1.07,6.491-3.127c2.854-3.582,2.263-8.798-1.319-11.652c-5.913-4.71-11.946-9.337-17.933-13.752
	c-3.685-2.719-8.877-1.935-11.594,1.752C281.99,85.415,282.775,90.607,286.461,93.324z"/>
<path d="M181.077,382.481c-8.972-8.019-17.886-16.451-26.497-25.062C95.837,298.676,51.655,232.587,30.174,171.327
	C9.402,112.088,12.436,64.993,38.715,38.714c25.211-25.211,70.047-29.009,126.25-10.692c4.354,1.418,9.034-0.961,10.453-5.315
	s-0.961-9.034-5.315-10.453C107.664-8.095,56.838-2.862,26.988,26.988c-31.034,31.033-35.46,84.243-12.463,149.826
	c22.288,63.56,67.862,131.865,128.329,192.332c8.828,8.828,17.97,17.475,27.171,25.7c1.582,1.414,3.556,2.109,5.524,2.109
	c2.279,0,4.547-0.934,6.185-2.765C184.785,390.775,184.491,385.533,181.077,382.481z"/>
<path d="M225.53,418.668c-5.82-4.292-11.688-8.792-17.441-13.375c-3.581-2.854-8.798-2.262-11.652,1.319
	c-2.854,3.581-2.263,8.798,1.319,11.652c5.913,4.711,11.946,9.337,17.931,13.75c1.482,1.092,3.205,1.619,4.916,1.619
	c2.544,0,5.055-1.166,6.68-3.371C230,426.578,229.215,421.386,225.53,418.668z"/>
<path d="M497.475,335.185c-22.288-63.56-67.862-131.865-128.329-192.332c-8.822-8.823-17.961-17.466-27.161-25.691
	c-3.414-3.053-8.656-2.76-11.708,0.656c-3.053,3.414-2.758,8.657,0.656,11.708c8.971,8.02,17.883,16.449,26.488,25.054
	c58.743,58.743,102.925,124.833,124.406,186.093c20.772,59.237,17.738,106.333-8.541,132.612
	c-25.225,25.224-70.092,29.013-126.334,10.665c-4.355-1.418-9.035,0.959-10.456,5.311c-1.421,4.354,0.959,9.035,5.311,10.456
	c25.06,8.175,48.245,12.231,68.961,12.23c30.935,0,56.357-9.048,74.244-26.936C516.045,453.978,520.472,400.768,497.475,335.185z"/>
<path d="M429.916,429.914c24.781-24.781,29.113-66.376,12.197-117.122c-16.269-48.808-50.442-100.902-96.223-146.682
	c-29.323-29.323-62.06-54.503-94.672-72.817c-3.993-2.241-9.048-0.824-11.29,3.17c-2.242,3.993-0.824,9.048,3.17,11.29
	c31.31,17.582,62.799,41.817,91.066,70.083c43.995,43.995,76.746,93.786,92.216,140.201c14.826,44.476,11.916,80.044-8.19,100.151
	c-22.303,22.304-64.142,23.316-114.785,2.777c-4.243-1.721-9.079,0.323-10.801,4.567s0.324,9.079,4.567,10.801
	c26.08,10.576,50.336,15.836,71.593,15.836C394.062,452.17,415.11,444.718,429.916,429.914z"/>
<path d="M268.903,404.246c-31.31-17.582-62.799-41.817-91.066-70.083c-43.995-43.995-76.746-93.786-92.216-140.201
	c-14.826-44.476-11.916-80.044,8.19-100.151c22.304-22.303,64.143-23.316,114.785-2.777c4.242,1.72,9.079-0.324,10.801-4.567
	c1.721-4.244-0.324-9.079-4.567-10.801c-57.118-23.164-105.5-20.824-132.744,6.419c-24.781,24.781-29.113,66.375-12.197,117.122
	c16.269,48.808,50.442,100.902,96.223,146.682c29.323,29.323,62.06,54.503,94.672,72.817c1.285,0.721,2.678,1.064,4.053,1.064
	c2.901,0,5.716-1.525,7.237-4.233C274.315,411.543,272.896,406.488,268.903,404.246z"/>
<g>
</g>
<g>
</g>
<g>
</g>
<g>
</g>
<g>
</g>
<g>
</g>
<g>
</g>
<g>
</g>
<g>
</g>
<g>
</g>
<g>
</g>
<g>
</g>
<g>
</g>
<g>
</g>
<g>
</g>
</svg>
