<?xml version="1.0" encoding="iso-8859-1"?>
<!-- Generator: Adobe Illustrator 19.0.0, SVG Export Plug-In . SVG Version: 6.00 Build 0)  -->
<svg version="1.1" id="Layer_1" xmlns="http://www.w3.org/2000/svg" xmlns:xlink="http://www.w3.org/1999/xlink" x="0px" y="0px"
	 viewBox="0 0 512 512" style="enable-background:new 0 0 512 512;" xml:space="preserve">
<circle style="fill:#FF965F;" cx="256" cy="256" r="247.706"/>
<path style="fill:#FF7846;" d="M353.313,432.933c-122.147,0-221.166-99.019-221.166-221.166
	c0-91.123,55.121-169.349,133.828-203.221c-3.313-0.132-6.629-0.252-9.975-0.252C119.195,8.294,8.294,119.195,8.294,256
	c0,136.804,110.902,247.706,247.706,247.706c78.023,0,147.58-36.108,192.984-92.485
	C420.031,425.134,387.583,432.933,353.313,432.933z"/>
<circle style="fill:#FFAF73;" cx="273.693" cy="87.914" r="17.693"/>
<circle style="fill:#FF7846;" cx="132.147" cy="282.54" r="17.693"/>
<g>
	<circle style="fill:#FFAF73;" cx="202.92" cy="167.533" r="17.693"/>
	<circle style="fill:#FFAF73;" cx="371.006" cy="353.313" r="17.693"/>
</g>
<path d="M437.019,74.981C388.668,26.628,324.38,0,256,0S123.332,26.628,74.981,74.981S0,187.62,0,256s26.628,132.668,74.981,181.019
	C123.332,485.372,187.62,512,256,512s132.668-26.628,181.019-74.981C485.372,388.668,512,324.38,512,256
	S485.372,123.332,437.019,74.981z M425.291,425.291c-45.22,45.219-105.341,70.122-169.291,70.122s-124.071-24.903-169.291-70.122
	C41.491,380.071,16.587,319.949,16.587,256S41.491,131.929,86.709,86.709C131.929,41.491,192.051,16.587,256,16.587
	s124.071,24.903,169.291,70.122c45.219,45.22,70.122,105.342,70.122,169.291S470.509,380.071,425.291,425.291z"/>
<path d="M299.68,87.914c0-14.329-11.658-25.987-25.987-25.987s-25.987,11.658-25.987,25.987s11.658,25.987,25.987,25.987
	S299.68,102.243,299.68,87.914z M273.693,97.313c-5.183,0-9.4-4.217-9.4-9.4s4.217-9.4,9.4-9.4c5.183,0,9.4,4.217,9.4,9.4
	S278.876,97.313,273.693,97.313z"/>
<path d="M132.147,256.553c-14.329,0-25.987,11.658-25.987,25.987s11.658,25.987,25.987,25.987s25.987-11.658,25.987-25.987
	S146.476,256.553,132.147,256.553z M132.147,291.94c-5.183,0-9.4-4.217-9.4-9.4s4.217-9.4,9.4-9.4s9.4,4.217,9.4,9.4
	C141.546,287.723,137.33,291.94,132.147,291.94z"/>
<path d="M87.361,233.883c0-7.012-5.705-12.717-12.717-12.717c-7.012,0-12.717,5.705-12.717,12.717S67.632,246.6,74.644,246.6
	C81.656,246.6,87.361,240.895,87.361,233.883z"/>
<path d="M331.197,149.287c7.012,0,12.717-5.705,12.717-12.717s-5.705-12.717-12.717-12.717s-12.717,5.705-12.717,12.717
	S324.184,149.287,331.197,149.287z"/>
<path d="M401.97,255.447c7.012,0,12.717-5.705,12.717-12.717c0-7.012-5.705-12.717-12.717-12.717s-12.717,5.705-12.717,12.717
	C389.253,249.742,394.958,255.447,401.97,255.447z"/>
<path d="M295.81,429.063c-7.012,0-12.717,5.705-12.717,12.717s5.705,12.717,12.717,12.717s12.717-5.705,12.717-12.717
	S302.822,429.063,295.81,429.063z"/>
<path d="M326.22,300.233c0-4.58-3.758-8.338-8.338-8.338s-8.338,3.758-8.338,8.338s3.758,8.338,8.338,8.338
	S326.22,304.814,326.22,300.233z"/>
<path d="M450.671,291.895c-4.58,0-8.338,3.758-8.338,8.338s3.758,8.338,8.338,8.338s8.338-3.758,8.338-8.338
	S455.251,291.895,450.671,291.895z"/>
<path d="M247.153,159.24h-19.611c-2.59-7.667-8.662-13.739-16.329-16.329V123.3c0-4.58-3.713-8.294-8.294-8.294
	s-8.294,3.713-8.294,8.294v19.611c-7.667,2.59-13.739,8.662-16.329,16.329h-19.611c-4.58,0-8.294,3.713-8.294,8.294
	s3.713,8.294,8.294,8.294h19.611c2.59,7.667,8.662,13.739,16.329,16.329v19.611c0,4.58,3.713,8.294,8.294,8.294
	s8.294-3.713,8.294-8.294v-19.611c7.667-2.59,13.739-8.662,16.329-16.329h19.611c4.58,0,8.294-3.713,8.294-8.294
	S251.734,159.24,247.153,159.24z M202.92,176.933c-5.183,0-9.4-4.217-9.4-9.4s4.217-9.4,9.4-9.4s9.4,4.217,9.4,9.4
	S208.103,176.933,202.92,176.933z"/>
<path d="M415.24,345.019h-19.611c-2.59-7.667-8.662-13.739-16.329-16.329V309.08c0-4.58-3.713-8.294-8.294-8.294
	s-8.294,3.713-8.294,8.294v19.611c-7.667,2.59-13.739,8.662-16.329,16.329h-19.611c-4.58,0-8.294,3.713-8.294,8.294
	s3.713,8.294,8.294,8.294h19.611c2.59,7.667,8.662,13.739,16.329,16.329v19.611c0,4.58,3.713,8.294,8.294,8.294
	s8.294-3.713,8.294-8.294v-19.611c7.667-2.59,13.739-8.662,16.329-16.329h19.611c4.58,0,8.294-3.713,8.294-8.294
	S419.82,345.019,415.24,345.019z M371.006,362.713c-5.183,0-9.4-4.217-9.4-9.4s4.217-9.4,9.4-9.4s9.4,4.217,9.4,9.4
	S376.19,362.713,371.006,362.713z"/>
<path d="M140.994,344.931c-4.58,0-8.338,3.758-8.338,8.338s3.758,8.338,8.338,8.338s8.338-3.758,8.338-8.338
	S145.574,344.931,140.994,344.931z"/>
<path d="M79.067,318.391c-4.58,0-8.338,3.758-8.338,8.338s3.758,8.338,8.338,8.338s8.338-3.758,8.338-8.338
	S83.647,318.391,79.067,318.391z"/>
<path d="M158.687,113.901c4.58,0,8.338-3.758,8.338-8.338s-3.758-8.338-8.338-8.338c-4.58,0-8.338,3.758-8.338,8.338
	S154.106,113.901,158.687,113.901z"/>
<g>
</g>
<g>
</g>
<g>
</g>
<g>
</g>
<g>
</g>
<g>
</g>
<g>
</g>
<g>
</g>
<g>
</g>
<g>
</g>
<g>
</g>
<g>
</g>
<g>
</g>
<g>
</g>
<g>
</g>
</svg>
