<?xml version="1.0" encoding="iso-8859-1"?>
<!-- Generator: Adobe Illustrator 19.0.0, SVG Export Plug-In . SVG Version: 6.00 Build 0)  -->
<svg version="1.1" id="Layer_1" xmlns="http://www.w3.org/2000/svg" xmlns:xlink="http://www.w3.org/1999/xlink" x="0px" y="0px"
	 viewBox="0 0 512 512" style="enable-background:new 0 0 512 512;" xml:space="preserve">
<g transform="matrix(0.7071 -0.7071 0.7071 0.7071 -95.91 231.55)">
	
		<ellipse transform="matrix(2.535182e-006 1 -1 2.535182e-006 497.6809 34.5804)" style="fill:#7364E1;" cx="231.55" cy="266.131" rx="237.661" ry="118.83"/>
	
		<ellipse transform="matrix(2.535182e-006 1 -1 2.535182e-006 497.681 34.5804)" style="fill:#5F559B;" cx="231.55" cy="266.131" rx="176.377" ry="87.564"/>
	
		<ellipse transform="matrix(2.535182e-006 1 -1 2.535182e-006 497.6809 34.5804)" style="fill:#50418C;" cx="231.55" cy="266.131" rx="109.322" ry="56.289"/>
	
		<ellipse transform="matrix(2.535182e-006 1 -1 2.535182e-006 497.681 34.5804)" style="fill:#3C2364;" cx="231.55" cy="266.131" rx="53.478" ry="25.017"/>
</g>
<g>
	<path style="fill:#B9B1F0;" d="M226.855,426.662c2.772-2.772,2.713-7.272-0.119-9.98c-2.786-2.663-5.567-5.351-8.331-8.114
		C97.503,287.667,39.273,149.88,88.341,100.812c45.391-45.391,166.692,1.081,280.322,103.996
		c-8.775-9.919-17.965-19.752-27.637-29.423C244.889,79.247,133.776,26.481,61.446,35.972c-27.188,3.568-48.441,24.822-52.009,52.01
		C-0.052,160.31,52.714,271.422,148.851,367.56c22.373,22.372,45.554,42.376,68.869,59.803
		C220.505,429.445,224.396,429.12,226.855,426.662L226.855,426.662z"/>
	<path style="fill:#B9B1F0;" d="M363.148,144.438c-22.373-22.372-45.554-42.376-68.869-59.803c-2.785-2.082-6.676-1.758-9.133,0.701
		l0,0c-2.772,2.772-2.713,7.272,0.119,9.98c2.786,2.663,5.567,5.351,8.331,8.114C414.498,224.331,472.727,362.118,423.66,411.186
		c-45.391,45.391-166.692-1.081-280.322-103.997c8.775,9.919,17.965,19.752,27.637,29.423
		c96.137,96.137,207.25,148.903,279.579,139.413c27.188-3.567,48.442-24.822,52.01-52.01
		C512.052,351.687,459.286,240.576,363.148,144.438z"/>
</g>
<path d="M286.461,93.324c5.822,4.293,11.691,8.794,17.443,13.376c1.527,1.216,3.35,1.807,5.161,1.807
	c2.439,0,4.854-1.07,6.491-3.127c2.854-3.582,2.263-8.798-1.319-11.652c-5.913-4.71-11.946-9.337-17.933-13.752
	c-3.685-2.719-8.877-1.935-11.594,1.752C281.99,85.414,282.775,90.606,286.461,93.324z"/>
<path d="M181.077,382.48c-8.972-8.019-17.886-16.451-26.497-25.062C95.837,298.675,51.655,232.587,30.174,171.326
	C9.402,112.089,12.436,64.993,38.715,38.713c25.211-25.211,70.048-29.009,126.25-10.692c4.355,1.418,9.034-0.961,10.453-5.315
	s-0.961-9.034-5.315-10.453C107.664-8.096,56.838-2.863,26.988,26.987C-4.046,58.021-8.472,111.23,14.524,176.813
	C36.09,238.315,79.46,304.259,137.027,363.246l-54.942,54.942c-3.238,3.238-3.238,8.489,0,11.726
	c1.619,1.619,3.741,2.429,5.863,2.429c2.122,0,4.244-0.809,5.863-2.429l54.946-54.946c6.975,6.805,14.1,13.472,21.267,19.878
	c1.582,1.414,3.556,2.109,5.524,2.109c2.279,0,4.547-0.934,6.185-2.765C184.785,390.774,184.491,385.533,181.077,382.48z"/>
<path d="M225.53,418.668c-5.82-4.292-11.688-8.792-17.441-13.375c-3.581-2.854-8.798-2.263-11.652,1.319
	c-2.854,3.582-2.263,8.798,1.319,11.652c5.913,4.711,11.946,9.337,17.931,13.75c1.482,1.092,3.205,1.619,4.916,1.619
	c2.544,0,5.055-1.166,6.68-3.371C230,426.577,229.215,421.385,225.53,418.668z"/>
<path d="M497.475,335.185c-21.566-61.501-64.935-127.445-122.502-186.433l54.942-54.942c3.238-3.238,3.238-8.489,0-11.726
	c-3.238-3.238-8.489-3.238-11.726,0l-54.946,54.946c-6.97-6.799-14.092-13.463-21.257-19.868c-3.415-3.053-8.656-2.76-11.708,0.656
	c-3.053,3.414-2.758,8.657,0.656,11.708c6.937,6.2,13.832,12.649,20.583,19.232l-11.543,11.543
	c-27.777-26.84-58.32-49.915-88.756-67.007c-3.993-2.241-9.048-0.824-11.29,3.17c-2.242,3.993-0.824,9.048,3.17,11.29
	c29.142,16.365,58.437,38.498,85.147,64.277l-10.397,10.397c-32.726-31.293-69.263-54.698-103.612-66.257
	c-38.393-12.92-69.935-9.636-88.817,9.246c-18.883,18.882-22.166,50.424-9.246,88.817c12.262,36.44,37.851,75.343,72.052,109.543
	s73.104,59.79,109.543,72.052c15.423,5.19,29.737,7.765,42.573,7.765c19.116,0,34.947-5.714,46.244-17.011
	c18.883-18.882,22.166-50.424,9.246-88.817c-11.559-34.35-34.964-70.887-66.257-103.612l10.397-10.397
	c41.065,42.512,71.629,89.935,86.41,134.28c14.826,44.476,11.916,80.044-8.19,100.151c-22.303,22.305-64.142,23.317-114.785,2.777
	c-4.242-1.721-9.079,0.323-10.801,4.567s0.324,9.079,4.567,10.801c26.08,10.576,50.336,15.836,71.593,15.836
	c25.297,0,46.347-7.451,61.151-22.255c24.781-24.781,29.113-66.376,12.197-117.122c-15.572-46.718-47.556-96.443-90.415-140.763
	l11.547-11.547c55.837,57.245,97.816,120.973,118.582,180.191c20.772,59.237,17.738,106.333-8.541,132.612
	c-25.225,25.224-70.092,29.013-126.334,10.665c-4.355-1.42-9.035,0.959-10.456,5.311c-1.421,4.354,0.959,9.035,5.311,10.456
	c25.06,8.175,48.245,12.231,68.961,12.23c30.935,0,56.357-9.048,74.244-26.936C516.045,453.977,520.472,400.768,497.475,335.185z
	 M380.111,303.055c10.805,32.109,8.939,57.608-5.254,71.801c-14.193,14.193-39.692,16.06-71.801,5.254
	c-34.063-11.463-70.679-35.634-103.106-68.061s-56.598-69.044-68.061-103.106c-10.805-32.109-8.939-57.608,5.254-71.801
	c8.107-8.107,19.9-12.191,34.508-12.191c10.968,0,23.524,2.304,37.292,6.938c32.001,10.769,66.256,32.756,97.174,62.267
	l-10.436,10.436c-45.397-42.192-98.327-56.281-122.849-31.758c-12.938,12.938-15.614,33.954-7.536,59.177
	c7.478,23.353,23.473,48.089,45.038,69.654c31.777,31.777,68.172,49.548,96.241,49.548c13.125,0,24.433-3.887,32.591-12.047
	c12.938-12.938,15.614-33.954,7.536-59.177c-6.796-21.223-20.644-43.581-39.295-63.67l10.437-10.437
	C347.354,236.799,369.342,271.054,380.111,303.055z M250.136,261.862c1.619,1.619,3.741,2.429,5.863,2.429
	c2.122,0,4.244-0.809,5.863-2.429l11.594-11.594c14.64,17.142,18.704,33.472,14.493,37.682c-4.711,4.707-24.571-0.919-43.778-20.125
	c-19.208-19.208-24.833-39.069-20.125-43.778c1.037-1.037,2.808-1.572,5.145-1.572c7.155,0,19.615,5.034,32.536,16.068
	l-11.592,11.592C246.898,253.374,246.898,258.625,250.136,261.862z M273.49,226.782c-23.378-20.47-48.818-26.811-61.169-14.46
	c-13.428,13.428-4.775,42.331,20.125,67.231c16.999,16.999,35.86,26.424,50.392,26.424c6.755,0,12.577-2.039,16.838-6.299
	c12.35-12.351,6.01-37.791-14.46-61.169l10.458-10.458c16.807,18.199,29.215,38.195,35.235,56.995
	c6,18.737,4.736,34.189-3.468,42.393c-8.206,8.204-23.658,9.468-42.393,3.468c-20.885-6.688-43.253-21.238-62.985-40.97
	s-34.283-42.101-40.97-62.985c-6-18.737-4.736-34.189,3.468-42.393c4.785-4.785,12.032-7.21,20.961-7.21
	c6.382,0,13.623,1.239,21.432,3.74c18.8,6.02,38.796,18.427,56.995,35.235L273.49,226.782z"/>
<path d="M268.903,404.245c-31.31-17.582-62.799-41.817-91.066-70.083c-43.995-43.995-76.746-93.786-92.216-140.201
	c-14.826-44.476-11.916-80.044,8.19-100.151c22.304-22.303,64.142-23.316,114.785-2.777c4.242,1.721,9.079-0.323,10.801-4.567
	c1.721-4.244-0.324-9.079-4.567-10.801c-57.118-23.164-105.5-20.824-132.744,6.419c-24.781,24.781-29.113,66.376-12.197,117.122
	c16.269,48.808,50.442,100.902,96.223,146.682c29.323,29.323,62.06,54.503,94.672,72.817c1.285,0.721,2.678,1.064,4.053,1.064
	c2.901,0,5.716-1.525,7.237-4.233C274.315,411.542,272.896,406.487,268.903,404.245z"/>
<g>
</g>
<g>
</g>
<g>
</g>
<g>
</g>
<g>
</g>
<g>
</g>
<g>
</g>
<g>
</g>
<g>
</g>
<g>
</g>
<g>
</g>
<g>
</g>
<g>
</g>
<g>
</g>
<g>
</g>
</svg>
