<?xml version="1.0" encoding="iso-8859-1"?>
<!-- Generator: Adobe Illustrator 19.0.0, SVG Export Plug-In . SVG Version: 6.00 Build 0)  -->
<svg version="1.1" id="Layer_1" xmlns="http://www.w3.org/2000/svg" xmlns:xlink="http://www.w3.org/1999/xlink" x="0px" y="0px"
	 viewBox="0 0 512 512" style="enable-background:new 0 0 512 512;" xml:space="preserve">
<circle style="fill:#FFEB64;" cx="264.551" cy="256" r="119.716"/>
<circle style="fill:#D7C8AA;" cx="127.733" cy="256" r="119.716"/>
<g>
	<path style="fill:#C8B696;" d="M174.764,341.511c-59.034,0-106.889-47.855-106.889-106.889c0-44.039,26.64-81.846,64.679-98.216
		c-1.601-0.063-3.203-0.122-4.821-0.122C61.615,136.284,8.017,189.883,8.017,256s53.599,119.716,119.716,119.716
		c37.708,0,71.325-17.451,93.268-44.698C207.008,337.743,191.327,341.511,174.764,341.511z"/>
	<circle style="fill:#C8B696;" cx="114.906" cy="311.582" r="21.378"/>
	<circle style="fill:#C8B696;" cx="67.875" cy="264.551" r="17.102"/>
	<circle style="fill:#C8B696;" cx="187.591" cy="290.205" r="17.102"/>
</g>
<path d="M392.284,256c0-70.433-57.3-127.733-127.733-127.733c-12.417,0-24.696,1.781-36.491,5.291
	c-4.244,1.263-6.66,5.727-5.397,9.971c1.263,4.245,5.726,6.661,9.971,5.397c10.311-3.069,21.05-4.625,31.918-4.625
	c61.592,0,111.699,50.108,111.699,111.699s-50.109,111.699-111.7,111.699c-10.863,0-21.597-1.554-31.902-4.62
	c-4.246-1.264-8.707,1.154-9.97,5.398s1.154,8.707,5.398,9.97c11.79,3.507,24.062,5.286,36.474,5.286
	C334.984,383.733,392.284,326.433,392.284,256z"/>
<path d="M503.983,247.983h-76.96c-4.427,0-8.017,3.589-8.017,8.017c0,4.427,3.589,8.017,8.017,8.017h76.96
	c4.427,0,8.017-3.589,8.017-8.017C512,251.573,508.411,247.983,503.983,247.983z"/>
<path d="M264.551,410.455c-4.427,0-8.017,3.589-8.017,8.017v76.96c0,4.427,3.589,8.017,8.017,8.017c4.427,0,8.017-3.589,8.017-8.017
	v-76.96C272.568,414.044,268.979,410.455,264.551,410.455z"/>
<path d="M264.551,101.545c4.427,0,8.017-3.589,8.017-8.017v-76.96c0-4.427-3.589-8.017-8.017-8.017
	c-4.427,0-8.017,3.589-8.017,8.017v76.96C256.534,97.956,260.124,101.545,264.551,101.545z"/>
<path d="M323.659,113.303c1.003,0.416,2.043,0.612,3.065,0.612c3.146,0,6.131-1.864,7.41-4.951l6.545-15.8
	c1.694-4.091-0.248-8.78-4.339-10.474c-4.091-1.693-8.78,0.248-10.474,4.339l-6.545,15.799
	C317.626,106.918,319.568,111.607,323.659,113.303z"/>
<path d="M343.293,65.9c1.003,0.416,2.043,0.612,3.065,0.612c3.146,0,6.131-1.864,7.41-4.951l6.545-15.8
	c1.694-4.091-0.248-8.78-4.339-10.474c-4.091-1.694-8.781,0.248-10.474,4.339l-6.545,15.8
	C337.259,59.517,339.203,64.206,343.293,65.9z"/>
<path d="M407.248,315.108c-1.694,4.091,0.248,8.78,4.339,10.474l15.8,6.545c1.003,0.416,2.043,0.612,3.065,0.612
	c3.146,0,6.131-1.864,7.41-4.951c1.694-4.091-0.248-8.78-4.339-10.474l-15.8-6.545C413.634,309.075,408.943,311.017,407.248,315.108
	z"/>
<path d="M480.925,336.947l-15.8-6.545c-4.09-1.693-8.78,0.248-10.474,4.339c-1.694,4.091,0.248,8.78,4.339,10.474l15.8,6.545
	c1.003,0.416,2.043,0.612,3.065,0.612c3.146,0,6.131-1.864,7.41-4.951C486.958,343.332,485.016,338.643,480.925,336.947z"/>
<path d="M437.863,184.212c-1.693-4.091-6.386-6.032-10.474-4.339l-15.8,6.545c-4.091,1.694-6.033,6.385-4.339,10.474
	c1.278,3.087,4.264,4.951,7.41,4.951c1.023,0,2.062-0.197,3.065-0.612l15.8-6.545C437.615,192.992,439.557,188.303,437.863,184.212z
	"/>
<path d="M462.06,182.209c1.023,0,2.062-0.197,3.065-0.612l15.8-6.545c4.091-1.694,6.033-6.385,4.339-10.474
	c-1.694-4.091-6.386-6.032-10.474-4.339l-15.8,6.545c-4.091,1.694-6.033,6.385-4.339,10.474
	C455.929,180.346,458.913,182.209,462.06,182.209z"/>
<path d="M340.678,418.837l-6.545-15.8c-1.694-4.091-6.384-6.033-10.474-4.339c-4.091,1.694-6.033,6.384-4.339,10.474l6.545,15.8
	c1.278,3.087,4.264,4.951,7.41,4.951c1.023,0,2.062-0.197,3.065-0.612C340.43,427.617,342.372,422.927,340.678,418.837z"/>
<path d="M353.767,450.438c-1.694-4.091-6.384-6.033-10.474-4.339c-4.091,1.694-6.033,6.384-4.339,10.474l6.545,15.8
	c1.278,3.087,4.264,4.951,7.41,4.951c1.023,0,2.062-0.197,3.065-0.612c4.091-1.694,6.033-6.384,4.339-10.474L353.767,450.438z"/>
<path d="M194.969,108.963c1.278,3.087,4.264,4.951,7.41,4.951c1.023,0,2.062-0.197,3.065-0.612
	c4.091-1.694,6.033-6.385,4.339-10.474l-15.757-38.041c-1.694-4.091-6.385-6.033-10.474-4.339
	c-4.091,1.694-6.033,6.385-4.339,10.474L194.969,108.963z"/>
<path d="M375.716,144.301c2.051,0,4.103-0.782,5.668-2.348l59.858-59.858c3.131-3.131,3.131-8.207,0-11.337
	c-3.131-3.131-8.207-3.131-11.337,0l-59.858,59.858c-3.131,3.131-3.131,8.207,0,11.337
	C371.613,143.518,373.665,144.301,375.716,144.301z"/>
<path d="M381.384,370.048c-3.131-3.131-8.207-3.131-11.337,0c-3.131,3.131-3.131,8.207,0,11.337l59.858,59.858
	c1.565,1.565,3.617,2.348,5.668,2.348s4.103-0.782,5.668-2.348c3.131-3.131,3.131-8.207,0-11.337L381.384,370.048z"/>
<path d="M127.733,128.267C57.3,128.267,0,185.567,0,256s57.3,127.733,127.733,127.733S255.466,326.433,255.466,256
	S198.165,128.267,127.733,128.267z M127.733,367.699c-61.592,0-111.699-50.108-111.699-111.699s50.108-111.699,111.699-111.699
	S239.432,194.408,239.432,256S189.325,367.699,127.733,367.699z"/>
<path d="M114.906,282.188c-16.209,0-29.395,13.186-29.395,29.395c0,16.209,13.186,29.395,29.395,29.395s29.395-13.186,29.395-29.395
	C144.301,295.374,131.115,282.188,114.906,282.188z M114.906,324.944c-7.368,0-13.361-5.993-13.361-13.361
	s5.993-13.361,13.361-13.361s13.361,5.993,13.361,13.361S122.274,324.944,114.906,324.944z"/>
<path d="M92.994,264.551c0-13.851-11.268-25.119-25.119-25.119S42.756,250.7,42.756,264.551c0,13.851,11.268,25.119,25.119,25.119
	S92.994,278.402,92.994,264.551z M67.875,273.637c-5.01,0-9.086-4.076-9.086-9.086c0-5.01,4.076-9.086,9.086-9.086
	s9.086,4.076,9.086,9.086C76.96,269.561,72.885,273.637,67.875,273.637z"/>
<path d="M80.701,212.71c6.778,0,12.292-5.514,12.292-12.292s-5.514-12.292-12.292-12.292c-6.778,0-12.292,5.514-12.292,12.292
	S73.924,212.71,80.701,212.71z"/>
<path d="M123.457,264.017c6.778,0,12.292-5.514,12.292-12.292c0-6.778-5.514-12.292-12.292-12.292
	c-6.778,0-12.292,5.514-12.292,12.292C111.165,258.502,116.679,264.017,123.457,264.017z"/>
<path d="M187.591,265.086c-13.851,0-25.119,11.268-25.119,25.119c0,13.851,11.268,25.119,25.119,25.119
	c13.851,0,25.119-11.268,25.119-25.119C212.71,276.354,201.442,265.086,187.591,265.086z M187.591,299.29
	c-5.01,0-9.086-4.076-9.086-9.086s4.076-9.086,9.086-9.086s9.086,4.076,9.086,9.086S192.601,299.29,187.591,299.29z"/>
<path d="M205.443,398.677c-4.09-1.694-8.78,0.248-10.474,4.339l-15.758,38.041c-1.694,4.091,0.248,8.78,4.339,10.474
	c1.003,0.416,2.043,0.612,3.065,0.612c3.146,0,6.131-1.864,7.41-4.951l15.758-38.041
	C211.476,405.061,209.534,400.372,205.443,398.677z"/>
<g>
</g>
<g>
</g>
<g>
</g>
<g>
</g>
<g>
</g>
<g>
</g>
<g>
</g>
<g>
</g>
<g>
</g>
<g>
</g>
<g>
</g>
<g>
</g>
<g>
</g>
<g>
</g>
<g>
</g>
</svg>
