<?xml version="1.0" encoding="iso-8859-1"?>
<!-- Generator: Adobe Illustrator 19.0.0, SVG Export Plug-In . SVG Version: 6.00 Build 0)  -->
<svg version="1.1" id="Layer_1" xmlns="http://www.w3.org/2000/svg" xmlns:xlink="http://www.w3.org/1999/xlink" x="0px" y="0px"
	 viewBox="0 0 512 512" style="enable-background:new 0 0 512 512;" xml:space="preserve">
<path style="fill:#C9EDFF;" d="M491.38,396.199c-6.349-9.163-12.939-18.156-18.522-27.805l-111.096-201.4
	c-26.04-47.205-88.058-58.276-128.736-25.112l-50.508-60.906c-25.376-30.6-71.227-33.655-100.438-6.691l0,0
	c-30.542,28.193-29.6,76.733,2.013,103.72l60.605,51.736c-36.562,40.547-26.202,105.271,22.294,132.022l201.4,111.095
	c9.648,5.582,18.641,12.173,27.806,18.522c26.659,18.47,63.52,15.832,87.266-7.914C507.212,459.72,509.849,422.86,491.38,396.199z"
	/>
<path style="fill:#FFFFFF;" d="M458.572,370.922c-13.314-4.865-26.103-5.201-37.84-2.691l-87.728-105.79
	c-18.443-22.241-52.017-23.804-72.448-3.373l0,0c-20.234,20.234-18.926,53.418,2.838,71.996l104.874,89.528
	c-2.578,11.939-2.248,24.961,2.934,38.565c8.819,23.152,29.796,40.376,54.347,43.697c45.564,6.165,83.954-32.583,77.173-78.244
	C499.094,400.192,481.757,379.395,458.572,370.922z"/>
<circle style="fill:#C9EDFF;" cx="435.542" cy="435.542" r="34.202"/>
<path d="M127.663,38.859c1.585,1.858,3.836,2.811,6.101,2.811c1.84,0,3.692-0.631,5.201-1.92c3.367-2.874,3.767-7.934,0.891-11.302
	L125.27,11.363c-2.874-3.367-7.934-3.767-11.302-0.891c-3.367,2.874-3.767,7.934-0.891,11.302L127.663,38.859z"/>
<path d="M412.346,372.344c1.585,1.858,3.836,2.811,6.101,2.811c1.84,0,3.692-0.631,5.201-1.92c3.367-2.874,3.767-7.934,0.891-11.302
	L161.752,54.098c-2.873-3.367-7.934-3.767-11.302-0.891c-3.367,2.874-3.767,7.934-0.891,11.302L412.346,372.344z"/>
<path d="M38.943,119.603L21.857,104.6c-3.327-2.92-8.391-2.592-11.312,0.734c-2.921,3.327-2.592,8.392,0.734,11.312l17.086,15.003
	c1.522,1.336,3.407,1.992,5.286,1.992c2.226,0,4.442-0.922,6.027-2.727C42.599,127.589,42.27,122.524,38.943,119.603z"/>
<path d="M64.627,142.155c-3.327-2.921-8.391-2.593-11.312,0.735c-2.921,3.326-2.592,8.391,0.734,11.312L361.85,424.467
	c1.522,1.336,3.408,1.992,5.286,1.992c2.226,0,4.442-0.922,6.027-2.727c2.921-3.327,2.592-8.392-0.734-11.312L64.627,142.155z"/>
<path d="M266.16,26.837c1.486,2.568,4.178,4.004,6.946,4.004c1.363,0,2.744-0.348,4.007-1.08c3.832-2.217,5.141-7.122,2.924-10.953
	l-8.567-14.805c-2.218-3.833-7.124-5.14-10.953-2.924c-3.832,2.217-5.141,7.122-2.924,10.953L266.16,26.837z"/>
<path d="M498.415,392.08c-1.261-1.82-2.532-3.633-3.802-5.447c-5.175-7.387-10.064-14.364-14.37-21.808L297.111,48.316
	c-2.217-3.833-7.124-5.14-10.953-2.924c-3.832,2.217-5.141,7.122-2.924,10.953l183.133,316.51
	c4.655,8.045,9.974,15.637,15.117,22.978c1.254,1.79,2.509,3.581,3.754,5.377c16.609,23.975,13.669,56.371-6.992,77.034
	c-20.662,20.661-53.059,23.603-77.033,6.992c-1.798-1.245-3.587-2.499-5.378-3.754c-7.342-5.144-14.933-10.463-22.978-15.117
	L54.768,282.322c-3.831-2.218-8.735-0.908-10.953,2.924c-2.217,3.832-0.908,8.735,2.923,10.953l318.087,184.045
	c7.444,4.307,14.422,9.195,21.808,14.37c1.813,1.27,3.626,2.541,5.447,3.802C405.242,507.536,420.409,512,435.498,512
	c19.703,0,39.276-7.613,54.081-22.419C515.726,463.435,519.442,422.43,498.415,392.08z"/>
<path d="M26.779,266.128l-14.746-8.532c-3.833-2.216-8.736-0.909-10.953,2.923c-2.217,3.832-0.908,8.735,2.923,10.953l14.746,8.532
	c1.264,0.731,2.645,1.08,4.008,1.08c2.767,0,5.46-1.435,6.946-4.003C31.919,273.248,30.611,268.344,26.779,266.128z"/>
<path d="M393.325,435.543c0,23.279,18.939,42.218,42.218,42.218s42.218-18.939,42.218-42.218c0-23.279-18.939-42.218-42.218-42.218
	S393.325,412.265,393.325,435.543z M435.543,409.357c14.439,0,26.186,11.747,26.186,26.186s-11.747,26.186-26.186,26.186
	s-26.186-11.747-26.186-26.186S421.105,409.357,435.543,409.357z"/>
<path d="M382.847,394.183c1.565,1.565,3.617,2.348,5.668,2.348c2.051,0,4.103-0.782,5.668-2.348c3.131-3.131,3.131-8.206,0-11.336
	L13.685,2.349c-3.131-3.131-8.206-3.131-11.336,0c-3.131,3.131-3.131,8.206,0,11.336L382.847,394.183z"/>
<g>
</g>
<g>
</g>
<g>
</g>
<g>
</g>
<g>
</g>
<g>
</g>
<g>
</g>
<g>
</g>
<g>
</g>
<g>
</g>
<g>
</g>
<g>
</g>
<g>
</g>
<g>
</g>
<g>
</g>
</svg>
