<?xml version="1.0" encoding="iso-8859-1"?>
<!-- Generator: Adobe Illustrator 19.0.0, SVG Export Plug-In . SVG Version: 6.00 Build 0)  -->
<svg version="1.1" id="Layer_1" xmlns="http://www.w3.org/2000/svg" xmlns:xlink="http://www.w3.org/1999/xlink" x="0px" y="0px"
	 viewBox="0 0 512 512" style="enable-background:new 0 0 512 512;" xml:space="preserve">
<circle style="fill:#6487FF;" cx="256" cy="256" r="247.706"/>
<g>
	<path style="fill:#4B6EDC;" d="M353.313,432.933c-122.147,0-221.166-99.019-221.166-221.166
		c0-91.123,55.121-169.349,133.828-203.221c-3.313-0.132-6.629-0.252-9.975-0.252C119.195,8.294,8.294,119.195,8.294,256
		c0,136.804,110.902,247.706,247.706,247.706c78.023,0,147.58-36.108,192.984-92.485
		C420.031,425.134,387.583,432.933,353.313,432.933z"/>
	<ellipse style="fill:#4B6EDC;" cx="211.767" cy="371.006" rx="53.08" ry="35.387"/>
	<path style="fill:#4B6EDC;" d="M16.099,194.073h479.804c-12.537-48.711-39.559-91.577-76.146-123.853H92.245
		C55.658,102.496,28.636,145.363,16.099,194.073z"/>
</g>
<g>
	<path style="fill:#3C55C3;" d="M132.872,194.073c3.721-46.977,22.204-89.732,50.7-123.853H92.245
		c-36.588,32.276-63.609,75.142-76.146,123.853H132.872z"/>
	<path style="fill:#3C55C3;" d="M176.495,344.615c-10.902,6.48-17.808,15.888-17.808,26.392c0,19.543,23.764,35.387,53.08,35.387
		c10.061,0,19.434-1.9,27.45-5.141C214.845,386.544,193.544,367.272,176.495,344.615z"/>
</g>
<path d="M437.019,74.981C388.668,26.628,324.38,0,256,0S123.332,26.628,74.981,74.981C26.628,123.332,0,187.62,0,256
	s26.628,132.668,74.981,181.019S187.62,512,256,512s132.668-26.628,181.019-74.981S512,324.38,512,256
	S485.372,123.332,437.019,74.981z M425.291,425.291c-45.22,45.219-105.341,70.122-169.291,70.122s-124.071-24.903-169.291-70.122
	C41.491,380.071,16.587,319.949,16.587,256S41.491,131.929,86.709,86.709C131.929,41.491,192.051,16.587,256,16.587
	s124.071,24.903,169.291,70.122c45.219,45.22,70.122,105.342,70.122,169.291S470.509,380.071,425.291,425.291z"/>
<path d="M317.927,362.713h-45.861c-5.302-20.394-29.881-35.387-60.299-35.387c-34.416,0-61.374,19.187-61.374,43.68
	s26.958,43.68,61.374,43.68c30.418,0,54.996-14.993,60.299-35.387h45.861c4.58,0,8.294-3.713,8.294-8.294
	S322.507,362.713,317.927,362.713z M211.767,398.099c-24.276,0-44.786-12.407-44.786-27.093s20.51-27.093,44.786-27.093
	s44.786,12.407,44.786,27.093S236.043,398.099,211.767,398.099z"/>
<path d="M166.981,247.153c0-4.58-3.713-8.294-8.294-8.294H70.22c-4.58,0-8.294,3.713-8.294,8.294s3.713,8.294,8.294,8.294h88.467
	C163.267,255.447,166.981,251.734,166.981,247.153z"/>
<path d="M388.7,115.006h-35.387c-4.58,0-8.294,3.713-8.294,8.294c0,4.58,3.713,8.294,8.294,8.294H388.7
	c4.58,0,8.294-3.713,8.294-8.294C396.993,118.72,393.28,115.006,388.7,115.006z"/>
<path d="M247.153,255.447h17.693c4.58,0,8.294-3.713,8.294-8.294s-3.713-8.294-8.294-8.294h-17.693c-4.58,0-8.294,3.713-8.294,8.294
	S242.573,255.447,247.153,255.447z"/>
<path d="M371.006,362.713h-17.693c-4.58,0-8.294,3.713-8.294,8.294s3.713,8.294,8.294,8.294h17.693c4.58,0,8.294-3.713,8.294-8.294
	S375.587,362.713,371.006,362.713z"/>
<path d="M123.3,362.713h-17.693c-4.58,0-8.294,3.713-8.294,8.294s3.713,8.294,8.294,8.294H123.3c4.58,0,8.294-3.713,8.294-8.294
	S127.881,362.713,123.3,362.713z"/>
<g>
</g>
<g>
</g>
<g>
</g>
<g>
</g>
<g>
</g>
<g>
</g>
<g>
</g>
<g>
</g>
<g>
</g>
<g>
</g>
<g>
</g>
<g>
</g>
<g>
</g>
<g>
</g>
<g>
</g>
</svg>
