<?xml version="1.0" encoding="iso-8859-1"?>
<!-- Generator: Adobe Illustrator 19.0.0, SVG Export Plug-In . SVG Version: 6.00 Build 0)  -->
<svg version="1.1" id="Layer_1" xmlns="http://www.w3.org/2000/svg" xmlns:xlink="http://www.w3.org/1999/xlink" x="0px" y="0px"
	 viewBox="0 0 512 512" style="enable-background:new 0 0 512 512;" xml:space="preserve">
<path style="fill:#E4EAF8;" d="M338.934,30.827c-25.938-9.204-53.84-14.259-82.934-14.259
	c-136.957,0-247.983,111.026-247.983,247.983H256L338.934,30.827z"/>
<rect x="386.497" y="76.815" transform="matrix(-0.7071 -0.7071 0.7071 -0.7071 637.3894 471.2814)" style="fill:#7F8499;" width="59.606" height="53.637"/>
<path style="fill:#E4EAF8;" d="M256,50.772c-118.067,0-213.779,95.712-213.779,213.779v94.063h427.557v-94.063
	C469.779,146.484,374.067,50.772,256,50.772z"/>
<rect x="25.119" y="358.614" style="fill:#AFB9D2;" width="461.762" height="102.614"/>
<rect x="25.119" y="358.614" style="fill:#959CB5;" width="145.37" height="102.614"/>
<rect x="8.017" y="461.228" style="fill:#C7CFE2;" width="495.967" height="34.205"/>
<g>
	<rect x="196.142" y="401.37" style="fill:#959CB5;" width="119.716" height="94.063"/>
	
		<rect x="402.471" y="58.202" transform="matrix(-0.7071 -0.7071 0.7071 -0.7071 705.1494 443.2087)" style="fill:#959CB5;" width="83.79" height="34.723"/>
</g>
<path style="fill:#C7CFE2;" d="M179.04,324.409v-59.858c0-104.137,50.643-190.838,117.681-209.857
	C283.533,52.15,269.93,50.774,256,50.774c-118.067,0-213.779,95.712-213.779,213.779v59.858v34.205H179.04h290.739V324.41H179.04
	V324.409z"/>
<rect x="8.017" y="461.228" style="fill:#AFB9D2;" width="145.37" height="34.205"/>
<path d="M503.983,453.211h-9.086v-94.597c0-4.427-3.589-8.017-8.017-8.017h-9.086v-86.046c0-47.679-15.125-91.89-40.824-128.093
	l16.199-16.198l2.883,2.883c1.565,1.566,3.617,2.348,5.668,2.348s4.103-0.782,5.668-2.348l24.554-24.552
	c1.504-1.503,2.348-3.542,2.348-5.668c0-2.126-0.844-4.165-2.348-5.668l-59.251-59.251c-3.131-3.131-8.207-3.131-11.337,0
	l-24.554,24.554c-1.504,1.503-2.348,3.542-2.348,5.668s0.844,4.165,2.348,5.668l2.883,2.883l-16.308,16.308
	c-13.784-9.704-28.72-17.876-44.557-24.274l8.962-24.818c1.504-4.164-0.653-8.759-4.816-10.264
	C315.08,13.657,285.821,8.551,256,8.551c-68.38,0-132.667,26.628-181.019,74.981C26.629,131.883,0,196.171,0,264.551
	c0,4.427,3.589,8.017,8.017,8.017h26.188v78.029h-9.086c-4.427,0-8.017,3.589-8.017,8.017v94.597H8.017
	C3.589,453.211,0,456.8,0,461.228v34.205c0,4.428,3.589,8.017,8.017,8.017h495.967c4.427,0,8.017-3.588,8.017-8.017v-34.205
	C512,456.8,508.411,453.211,503.983,453.211z M461.762,316.392h-78.029v-51.841c0-40.216-6.185-79.566-17.884-113.8
	c-1.431-4.19-5.99-6.423-10.178-4.994c-4.19,1.432-6.425,5.989-4.994,10.178c11.136,32.584,17.022,70.143,17.022,108.616v51.841
	H264.017V59.349c27.253,3.745,53.369,26.425,72.646,63.528c2.042,3.928,6.88,5.46,10.81,3.417c3.929-2.042,5.459-6.882,3.417-10.81
	c-10.291-19.807-22.347-35.935-35.895-48.062c84.795,25.424,146.767,104.168,146.767,197.129V316.392z M144.301,316.392v-17.64
	c0-4.427-3.589-8.017-8.017-8.017c-4.427,0-8.017,3.589-8.017,8.017v17.64H50.238v-51.841c0-92.92,61.918-171.638,146.655-197.096
	c-11.941,10.739-22.916,24.829-32.54,42.015c-23.27,41.554-36.086,96.63-36.086,155.081c0,4.427,3.589,8.017,8.017,8.017
	c4.427,0,8.017-3.589,8.017-8.017c0-55.753,12.09-108.047,34.042-147.248c19.171-34.233,43.648-54.511,69.641-57.979v257.068
	H144.301z M427.023,45.007l47.913,47.913l-13.216,13.216l-47.913-47.913L427.023,45.007z M411.021,78.112l30.811,30.811
	l-14.694,14.694c-9.263-11.228-19.612-21.525-30.876-30.746L411.021,78.112z M86.317,94.869
	C131.642,49.545,191.903,24.585,256,24.585c25.265,0,50.098,3.909,73.932,11.626l-6.189,17.139
	C302.379,46.481,279.617,42.756,256,42.756c-119.613,0-217.398,95.181-221.635,213.779H16.164
	C18.156,195.443,42.889,138.298,86.317,94.869z M50.238,332.426h411.524v18.171H50.238V332.426z M33.136,366.63h445.729v86.58
	h-154.99V401.37c0-4.427-3.589-8.017-8.017-8.017H196.142c-4.427,0-8.017,3.589-8.017,8.017v51.841H33.136V366.63z M264.017,409.386
	h43.825v78.029h-43.825V409.386z M247.983,487.415h-43.825v-78.029h43.825V487.415z M16.033,469.244h172.092v18.171H16.033V469.244z
	 M495.967,487.415H323.875v-18.171h172.092V487.415z"/>
<g>
</g>
<g>
</g>
<g>
</g>
<g>
</g>
<g>
</g>
<g>
</g>
<g>
</g>
<g>
</g>
<g>
</g>
<g>
</g>
<g>
</g>
<g>
</g>
<g>
</g>
<g>
</g>
<g>
</g>
</svg>
