<?xml version="1.0" encoding="iso-8859-1"?>
<!-- Generator: Adobe Illustrator 19.0.0, SVG Export Plug-In . SVG Version: 6.00 Build 0)  -->
<svg version="1.1" id="Layer_1" xmlns="http://www.w3.org/2000/svg" xmlns:xlink="http://www.w3.org/1999/xlink" x="0px" y="0px"
	 viewBox="0 0 512 512" style="enable-background:new 0 0 512 512;" xml:space="preserve">
<path style="fill:#E2F5FF;" d="M403.975,431.141c1.176-1.975,1.453-4.355,0.759-6.528v-0.001l-50.759-160.757l25.411-186.348
	c0.484-3.563-1.486-7.037-4.791-8.446L254.88,17.754c-1.009-0.431-2.086-0.646-3.162-0.646c-1.147,0-2.292,0.245-3.352,0.732
	L137.201,69.148c-2.727,1.257-4.509,3.899-4.651,6.896l-8.518,178.848l-51.159,230.25c-0.581,2.64,0.195,5.377,2.075,7.321
	c1.835,1.902,4.61,2.795,7.24,2.294L398.581,434.9C400.835,434.476,402.801,433.106,403.975,431.141z M140.515,245.932
	l7.819-164.269l0.294-0.136l103.215-47.633l0.218,0.094l110.612,47.4l-0.055,0.403L339.05,254.607l-0.578-0.145l-93.356-23.339
	c-1.024-0.265-2.085-0.315-3.163-0.149l-101.469,15.61L140.515,245.932z M386.137,420.935L91.168,476.743l47.479-213.654
	l0.361-0.056l103.788-15.97l0.105,0.027l96.595,24.148l0.09,0.285l47.142,149.3L386.137,420.935z"/>
<g>
	<circle style="fill:#B1E6FF;" cx="132.008" cy="256" r="25.653"/>
	<circle style="fill:#B1E6FF;" cx="371.441" cy="76.426" r="25.653"/>
</g>
<circle style="fill:#7DC5FF;" cx="140.56" cy="76.426" r="17.102"/>
<g>
	<circle style="fill:#7DD7FF;" cx="397.094" cy="427.023" r="17.102"/>
	<circle style="fill:#7DD7FF;" cx="243.173" cy="238.898" r="17.102"/>
	<circle style="fill:#7DD7FF;" cx="251.724" cy="25.119" r="17.102"/>
</g>
<g>
	<circle style="fill:#7DC5FF;" cx="345.787" cy="264.551" r="17.102"/>
	<circle style="fill:#7DC5FF;" cx="80.701" cy="486.881" r="17.102"/>
</g>
<path d="M132.008,289.67c18.566,0,33.67-15.105,33.67-33.67s-15.105-33.67-33.67-33.67c-18.566,0-33.67,15.105-33.67,33.67
	C98.338,274.566,113.443,289.67,132.008,289.67z M132.008,238.363c9.725,0,17.637,7.912,17.637,17.637s-7.912,17.637-17.637,17.637
	c-9.725,0-17.637-7.912-17.637-17.637S122.284,238.363,132.008,238.363z"/>
<path d="M371.441,110.096c18.566,0,33.67-15.105,33.67-33.67s-15.105-33.67-33.67-33.67c-18.566,0-33.67,15.105-33.67,33.67
	S352.875,110.096,371.441,110.096z M371.441,58.789c9.725,0,17.637,7.912,17.637,17.637s-7.912,17.637-17.637,17.637
	c-9.725,0-17.637-7.912-17.637-17.637S361.716,58.789,371.441,58.789z"/>
<path d="M140.56,101.545c13.851,0,25.119-11.268,25.119-25.119S154.41,51.307,140.56,51.307c-13.851,0-25.119,11.268-25.119,25.119
	S126.709,101.545,140.56,101.545z M140.56,67.34c5.01,0,9.086,4.076,9.086,9.086s-4.076,9.086-9.086,9.086
	c-5.01,0-9.086-4.076-9.086-9.086S135.55,67.34,140.56,67.34z"/>
<path d="M397.094,401.904c-13.851,0-25.119,11.268-25.119,25.119s11.268,25.119,25.119,25.119c13.851,0,25.119-11.268,25.119-25.119
	S410.945,401.904,397.094,401.904z M397.094,436.109c-5.01,0-9.086-4.076-9.086-9.086s4.076-9.086,9.086-9.086
	s9.086,4.076,9.086,9.086S402.104,436.109,397.094,436.109z"/>
<path d="M218.054,238.898c0,13.851,11.268,25.119,25.119,25.119c13.851,0,25.119-11.268,25.119-25.119
	c0-13.851-11.268-25.119-25.119-25.119S218.054,225.047,218.054,238.898z M252.259,238.898c0,5.01-4.076,9.086-9.086,9.086
	s-9.086-4.076-9.086-9.086s4.076-9.086,9.086-9.086S252.259,233.888,252.259,238.898z"/>
<path d="M251.724,50.238c13.851,0,25.119-11.268,25.119-25.119S265.575,0,251.724,0s-25.119,11.268-25.119,25.119
	S237.874,50.238,251.724,50.238z M251.724,16.033c5.01,0,9.086,4.076,9.086,9.086s-4.076,9.086-9.086,9.086
	c-5.01,0-9.086-4.076-9.086-9.086S246.715,16.033,251.724,16.033z"/>
<path d="M320.668,264.551c0,13.851,11.268,25.119,25.119,25.119c13.851,0,25.119-11.268,25.119-25.119
	c0-13.851-11.268-25.119-25.119-25.119C331.936,239.432,320.668,250.7,320.668,264.551z M354.873,264.551
	c0,5.01-4.076,9.086-9.086,9.086c-5.01,0-9.086-4.076-9.086-9.086c0-5.01,4.076-9.086,9.086-9.086
	C350.797,255.466,354.873,259.541,354.873,264.551z"/>
<path d="M80.701,461.762c-13.851,0-25.119,11.268-25.119,25.119S66.851,512,80.701,512s25.119-11.268,25.119-25.119
	S94.552,461.762,80.701,461.762z M80.701,495.967c-5.01,0-9.086-4.076-9.086-9.086s4.076-9.086,9.086-9.086
	c5.01,0,9.086,4.076,9.086,9.086S85.711,495.967,80.701,495.967z"/>
<path d="M344.029,428.903l-213.335,40.361c-4.35,0.823-7.21,5.016-6.387,9.367c0.728,3.847,4.091,6.528,7.868,6.528
	c0.494,0,0.996-0.046,1.499-0.141l213.335-40.361c4.35-0.823,7.21-5.016,6.387-9.367
	C352.572,430.939,348.377,428.078,344.029,428.903z"/>
<path d="M381.312,385.07c0.799,0,1.613-0.121,2.416-0.374c4.222-1.333,6.564-5.836,5.231-10.058l-19.911-63.053
	c-1.334-4.222-5.836-6.565-10.058-5.231c-4.222,1.333-6.564,5.836-5.231,10.058l19.911,63.053
	C374.749,382.885,377.907,385.07,381.312,385.07z"/>
<path d="M364.602,126.581c-4.387-0.602-8.428,2.473-9.026,6.86l-10.706,78.511c-0.599,4.387,2.472,8.428,6.86,9.026
	c0.368,0.05,0.732,0.075,1.092,0.075c3.946,0,7.385-2.916,7.933-6.935l10.706-78.511
	C372.059,131.22,368.988,127.178,364.602,126.581z"/>
<path d="M292.863,51.472l24.392,10.454c1.029,0.441,2.1,0.65,3.154,0.65c3.11,0,6.069-1.821,7.372-4.86
	c1.744-4.07-0.141-8.782-4.21-10.526l-24.392-10.454c-4.069-1.744-8.782,0.141-10.526,4.21
	C286.909,45.015,288.794,49.727,292.863,51.472z"/>
<path d="M184.26,64.278c1.124,0,2.267-0.238,3.354-0.74l23.004-10.617c4.02-1.856,5.774-6.618,3.92-10.639
	c-1.856-4.02-6.618-5.774-10.639-3.92L180.895,48.98c-4.02,1.856-5.774,6.618-3.92,10.639
	C178.329,62.551,181.229,64.278,184.26,64.278z"/>
<path d="M130.236,124.679l-3.426,71.93c-0.211,4.423,3.205,8.178,7.627,8.39c0.13,0.005,0.259,0.009,0.388,0.009
	c4.252,0,7.797-3.342,8.002-7.635l3.426-71.93c0.211-4.423-3.205-8.178-7.627-8.39C134.186,116.855,130.447,120.256,130.236,124.679
	z"/>
<path d="M111.514,311.268L83.744,436.237c-0.96,4.322,1.765,8.605,6.086,9.564c0.586,0.13,1.17,0.192,1.747,0.192
	c3.675,0,6.988-2.543,7.818-6.28l27.771-124.97c0.96-4.322-1.765-8.605-6.086-9.564
	C116.756,304.218,112.475,306.946,111.514,311.268z"/>
<path d="M288.26,258.433l8.608,2.152c0.653,0.164,1.306,0.242,1.951,0.242c3.591,0,6.86-2.432,7.771-6.075
	c1.074-4.296-1.537-8.647-5.833-9.722l-8.608-2.152c-4.294-1.074-8.647,1.537-9.722,5.833
	C281.353,253.007,283.965,257.359,288.26,258.433z"/>
<path d="M192.786,238.539l-5.164,0.794c-4.376,0.672-7.379,4.766-6.705,9.142c0.609,3.963,4.024,6.799,7.914,6.799
	c0.405,0,0.816-0.031,1.228-0.094l5.164-0.794c4.376-0.672,7.379-4.766,6.705-9.142
	C201.254,240.868,197.164,237.867,192.786,238.539z"/>
<path d="M183.315,332.426h9.086v9.086c0,4.427,3.589,8.017,8.017,8.017s8.017-3.589,8.017-8.017v-9.086h9.086
	c4.427,0,8.017-3.589,8.017-8.017c0-4.427-3.589-8.017-8.017-8.017h-9.086v-9.086c0-4.427-3.589-8.017-8.017-8.017
	s-8.017,3.589-8.017,8.017v9.086h-9.086c-4.427,0-8.017,3.589-8.017,8.017C175.299,328.837,178.888,332.426,183.315,332.426z"/>
<path d="M448.401,136.818h-9.086v-9.086c0-4.427-3.589-8.017-8.017-8.017c-4.427,0-8.017,3.589-8.017,8.017v9.086h-9.086
	c-4.427,0-8.017,3.589-8.017,8.017c0,4.427,3.589,8.017,8.017,8.017h9.086v9.086c0,4.427,3.589,8.017,8.017,8.017
	c4.427,0,8.017-3.589,8.017-8.017v-9.086h9.086c4.427,0,8.017-3.589,8.017-8.017C456.418,140.408,452.828,136.818,448.401,136.818z"
	/>
<path d="M211.852,124.85l2.883,2.883l-2.883,2.883c-3.131,3.131-3.131,8.207,0,11.337c1.565,1.565,3.617,2.348,5.668,2.348
	s4.103-0.782,5.668-2.348l2.883-2.883l2.883,2.883c1.565,1.565,3.617,2.348,5.668,2.348s4.103-0.782,5.668-2.348
	c3.131-3.131,3.131-8.207,0-11.337l-2.883-2.883l2.883-2.883c3.131-3.131,3.131-8.207,0-11.337c-3.131-3.131-8.207-3.131-11.337,0
	l-2.883,2.883l-2.883-2.883c-3.131-3.131-8.207-3.131-11.337,0C208.721,116.643,208.721,121.72,211.852,124.85z"/>
<path d="M317.251,361.497c-3.131-3.131-8.207-3.131-11.337,0l-2.883,2.883l-2.883-2.883c-3.131-3.131-8.207-3.131-11.337,0
	c-3.131,3.131-3.131,8.207,0,11.337l2.883,2.883l-2.883,2.883c-3.131,3.131-3.131,8.207,0,11.337
	c1.565,1.565,3.617,2.348,5.668,2.348c2.051,0,4.103-0.782,5.668-2.348l2.883-2.883l2.883,2.883
	c1.565,1.565,3.617,2.348,5.668,2.348c2.051,0,4.103-0.782,5.668-2.348c3.131-3.131,3.131-8.207,0-11.337l-2.883-2.883l2.883-2.883
	C320.382,369.704,320.382,364.626,317.251,361.497z"/>
<path d="M80.701,187.056c6.778,0,12.292-5.514,12.292-12.292c0-6.778-5.514-12.292-12.292-12.292
	c-6.778,0-12.292,5.514-12.292,12.292C68.409,181.542,73.924,187.056,80.701,187.056z"/>
<path d="M414.196,282.188c-6.778,0-12.292,5.514-12.292,12.292s5.514,12.292,12.292,12.292s12.292-5.514,12.292-12.292
	S420.974,282.188,414.196,282.188z"/>
<path d="M149.645,409.921c0,6.778,5.514,12.292,12.292,12.292c6.778,0,12.292-5.514,12.292-12.292s-5.514-12.292-12.292-12.292
	C155.16,397.628,149.645,403.143,149.645,409.921z"/>
<g>
</g>
<g>
</g>
<g>
</g>
<g>
</g>
<g>
</g>
<g>
</g>
<g>
</g>
<g>
</g>
<g>
</g>
<g>
</g>
<g>
</g>
<g>
</g>
<g>
</g>
<g>
</g>
<g>
</g>
</svg>
