<?xml version="1.0" encoding="iso-8859-1"?>
<!-- Generator: Adobe Illustrator 19.0.0, SVG Export Plug-In . SVG Version: 6.00 Build 0)  -->
<svg version="1.1" id="Layer_1" xmlns="http://www.w3.org/2000/svg" xmlns:xlink="http://www.w3.org/1999/xlink" x="0px" y="0px"
	 viewBox="0 0 512 512" style="enable-background:new 0 0 512 512;" xml:space="preserve">
<circle style="fill:#7364E1;" cx="256" cy="256" r="171.023"/>
<circle style="fill:#968BE9;" cx="256" cy="256" r="145.37"/>
<path style="fill:#C3AFEB;" d="M392.818,196.142c-6.073,0-11.93,0.919-17.454,2.602c-18.43-27.359-49.691-45.357-85.16-45.357
	c-12.012,0-23.492,2.171-34.205,5.964c-10.712-3.792-22.192-5.964-34.205-5.964c-35.469,0-66.73,17.998-85.16,45.357
	c-5.524-1.682-11.379-2.602-17.454-2.602c-33.059,0-59.858,26.799-59.858,59.858s26.799,59.858,59.858,59.858
	c6.073,0,11.93-0.919,17.454-2.602c18.431,27.358,49.691,45.357,85.16,45.357c12.012,0,23.492-2.171,34.205-5.964
	c10.712,3.792,22.192,5.964,34.205,5.964c35.469,0,66.729-17.999,85.16-45.357c5.524,1.682,11.381,2.602,17.454,2.602
	c33.059,0,59.858-26.799,59.858-59.858S425.877,196.142,392.818,196.142z"/>
<path style="fill:#968BE9;" d="M290.205,179.04c-12.304,0-23.891,2.961-34.205,8.095c-10.314-5.134-21.901-8.095-34.205-8.095
	c-42.505,0-76.96,34.456-76.96,76.96c0,42.504,34.456,76.96,76.96,76.96c12.304,0,23.891-2.961,34.205-8.095
	c10.314,5.134,21.901,8.095,34.205,8.095c42.505,0,76.96-34.457,76.96-76.96C367.165,213.495,332.709,179.04,290.205,179.04z"/>
<path style="fill:#7364E1;" d="M256,187.134c-25.318,12.601-42.756,38.665-42.756,68.866s17.438,56.264,42.756,68.866
	c25.318-12.601,42.756-38.665,42.756-68.866S281.318,199.736,256,187.134z"/>
<circle style="fill:#FFFFFF;" cx="256" cy="256" r="17.102"/>
<path d="M281.119,256c0-13.851-11.268-25.119-25.119-25.119c-13.851,0-25.119,11.268-25.119,25.119s11.268,25.119,25.119,25.119
	C269.851,281.119,281.119,269.851,281.119,256z M256,265.086c-5.01,0-9.086-4.076-9.086-9.086c0-5.01,4.076-9.086,9.086-9.086
	c5.01,0,9.086,4.076,9.086,9.086C265.086,261.01,261.01,265.086,256,265.086z"/>
<path d="M503.983,247.983h-43.78c-3.981-33.659-32.673-59.858-67.385-59.858c-1.536,0-3.063,0.069-4.587,0.172
	c-21.532-31.079-57.439-51.479-98.027-51.479c-11.56,0-23.054,1.694-34.205,5.039c-11.151-3.345-22.645-5.039-34.205-5.039
	c-40.588,0-76.495,20.4-98.027,51.479c-1.523-0.103-3.051-0.172-4.587-0.172c-34.737,0-63.445,26.235-67.395,59.93
	c-0.332-0.043-0.67-0.072-1.014-0.072H8.017C3.589,247.983,0,251.573,0,256c0,4.427,3.589,8.017,8.017,8.017h42.756
	c0.344,0,0.682-0.029,1.014-0.072c3.95,33.695,32.658,59.93,67.395,59.93c1.536,0,3.063-0.069,4.587-0.172
	c21.532,31.079,57.439,51.479,98.027,51.479c11.56,0,23.054-1.694,34.205-5.039c11.151,3.345,22.645,5.039,34.205,5.039
	c40.588,0,76.495-20.4,98.027-51.479c1.523,0.103,3.051,0.172,4.587,0.172c34.712,0,63.405-26.199,67.385-59.858h43.78
	c4.427,0,8.017-3.589,8.017-8.017C512,251.573,508.411,247.983,503.983,247.983z M380.239,306.282
	c-5.927-1.48-11.557-3.999-16.628-7.46c2.656-4.545,4.921-9.374,6.721-14.461c1.477-4.174-0.709-8.754-4.883-10.233
	c-4.174-1.476-8.754,0.71-10.233,4.883c-9.725,27.474-35.851,45.932-65.012,45.932c-5.59,0-11.021-0.685-16.229-1.948
	c19.939-15.564,32.797-39.799,32.797-66.996s-12.858-51.432-32.797-66.996c5.208-1.261,10.639-1.948,16.229-1.948
	c29.174,0,55.306,18.47,65.023,45.96c1.475,4.174,6.055,6.361,10.23,4.887c4.174-1.475,6.362-6.056,4.887-10.23
	c-1.802-5.1-4.071-9.942-6.734-14.497c5.071-3.462,10.701-5.978,16.628-7.459c8.346,14.885,13.114,32.037,13.114,50.283
	S388.585,291.396,380.239,306.282z M156.783,279.011c-1.477-4.174-6.06-6.36-10.233-4.883c-4.174,1.477-6.36,6.058-4.883,10.233
	c1.8,5.086,4.065,9.915,6.721,14.461c-5.071,3.461-10.701,5.979-16.628,7.46c-8.346-14.885-13.114-32.036-13.114-50.282
	s4.768-35.397,13.115-50.283c5.927,1.48,11.557,3.998,16.628,7.459c-2.663,4.556-4.931,9.398-6.734,14.497
	c-1.475,4.174,0.713,8.754,4.887,10.23c4.174,1.474,8.754-0.712,10.23-4.887c9.716-27.49,35.847-45.96,65.022-45.96
	c5.59,0,11.021,0.685,16.229,1.948c-19.939,15.564-32.797,39.799-32.797,66.996s12.858,51.432,32.797,66.996
	c-5.208,1.261-10.639,1.948-16.229,1.948C192.634,324.944,166.508,306.485,156.783,279.011z M221.261,256
	c0-25.572,14.006-47.921,34.739-59.823c20.733,11.901,34.739,34.249,34.739,59.823S276.733,303.921,256,315.823
	C235.267,303.921,221.261,281.572,221.261,256z M221.795,152.852c10.737,0,21.416,1.692,31.739,5.029
	c1.603,0.518,3.329,0.518,4.932,0c10.322-3.337,21.001-5.029,31.739-5.029c32.617,0,61.741,15.221,80.657,38.93
	c-5.879,2.008-11.469,4.825-16.616,8.383c-15.836-18.116-39.026-29.142-64.041-29.142c-12.165,0-23.732,2.589-34.205,7.214
	c-10.473-4.625-22.04-7.214-34.205-7.214c-25.014,0-48.205,11.027-64.041,29.142c-5.147-3.558-10.737-6.375-16.616-8.383
	C160.054,168.073,189.178,152.852,221.795,152.852z M67.34,256c0-26.965,20.697-49.178,47.038-51.61
	c-7.538,15.624-11.764,33.132-11.764,51.61s4.226,35.986,11.764,51.61C88.037,305.178,67.34,282.965,67.34,256z M290.205,359.148
	c-10.737,0-21.416-1.692-31.739-5.029c-0.802-0.26-1.633-0.389-2.466-0.389s-1.664,0.129-2.466,0.389
	c-10.322,3.337-21.002,5.029-31.739,5.029c-32.618,0-61.744-15.222-80.659-38.931c5.879-2.01,11.47-4.825,16.618-8.383
	c15.837,18.116,39.029,29.143,64.041,29.143c12.165,0,23.732-2.589,34.205-7.214c10.473,4.625,22.04,7.214,34.205,7.214
	c25.012,0,48.204-11.028,64.041-29.144c5.148,3.558,10.739,6.375,16.618,8.383C351.948,343.926,322.823,359.148,290.205,359.148z
	 M397.622,307.61c7.538-15.624,11.764-33.132,11.764-51.61s-4.226-35.986-11.764-51.61c26.341,2.433,47.038,24.645,47.038,51.61
	S423.963,305.178,397.622,307.61z"/>
<path d="M338.627,97.127C313.309,83.934,284.737,76.96,256,76.96c-58.499,0-113.432,28.682-146.943,76.724
	c-2.533,3.631-1.643,8.629,1.988,11.161c1.398,0.975,2.996,1.442,4.58,1.442c2.532,0,5.024-1.197,6.582-3.43
	c30.515-43.747,80.53-69.864,133.792-69.864c52.019,0,101.354,25.162,131.971,67.306c2.604,3.583,7.616,4.376,11.198,1.774
	c3.582-2.603,4.376-7.616,1.774-11.198C384.671,128.478,363.122,109.892,338.627,97.127z"/>
<path d="M256,435.04c58.499,0,113.432-28.682,146.943-76.724c2.533-3.631,1.643-8.629-1.988-11.161
	c-3.632-2.533-8.628-1.643-11.161,1.988c-30.516,43.747-80.532,69.864-133.793,69.864c-53.255,0-103.268-26.113-133.784-69.852
	c-2.533-3.631-7.53-4.521-11.161-1.987c-3.631,2.533-4.52,7.53-1.987,11.161C142.579,406.362,197.507,435.04,256,435.04z"/>
<path d="M76.493,156.125c3.781,2.307,8.714,1.111,11.019-2.669c17.303-28.366,41.674-52.098,70.479-68.628
	C187.674,67.794,221.566,58.789,256,58.789c34.442,0,68.34,9.008,98.028,26.049c28.81,16.537,53.182,40.277,70.482,68.653
	c1.51,2.477,4.148,3.845,6.853,3.845c1.422,0,2.863-0.378,4.165-1.173c3.781-2.305,4.977-7.237,2.672-11.018
	c-18.701-30.673-45.047-56.336-76.19-74.212C329.896,52.499,293.238,42.756,256,42.756c-37.231,0-73.882,9.74-105.99,28.166
	c-31.138,17.869-57.482,43.522-76.185,74.184C71.519,148.886,72.713,153.819,76.493,156.125z"/>
<path d="M439.935,347.483c-3.882-2.127-8.755-0.705-10.883,3.176C394.375,413.915,328.065,453.211,256,453.211
	c-72.069,0-138.38-39.299-173.056-102.56c-2.127-3.881-7-5.304-10.883-3.177c-3.882,2.128-5.305,7-3.177,10.883
	C106.375,426.756,178.074,469.244,256,469.244c77.921,0,149.618-42.486,187.111-110.877
	C445.239,354.485,443.817,349.612,439.935,347.483z"/>
<g>
</g>
<g>
</g>
<g>
</g>
<g>
</g>
<g>
</g>
<g>
</g>
<g>
</g>
<g>
</g>
<g>
</g>
<g>
</g>
<g>
</g>
<g>
</g>
<g>
</g>
<g>
</g>
<g>
</g>
</svg>
