<?xml version="1.0" encoding="iso-8859-1"?>
<!-- Generator: Adobe Illustrator 19.0.0, SVG Export Plug-In . SVG Version: 6.00 Build 0)  -->
<svg version="1.1" id="Layer_1" xmlns="http://www.w3.org/2000/svg" xmlns:xlink="http://www.w3.org/1999/xlink" x="0px" y="0px"
	 viewBox="0 0 512 512" style="enable-background:new 0 0 512 512;" xml:space="preserve">
<path style="fill:#FFEB64;" d="M477.253,356.32L252.41,131.477c-22.368-22.368-54.027-29.674-82.543-22.077L111.62,51.153
	c-16.697-16.697-43.768-16.697-60.465,0s-16.697,43.768,0,60.465l58.247,58.247c-7.597,28.515-0.291,60.175,22.077,82.543
	l226.913,226.913c34.726,34.726,91.89,33.341,124.825-4.156C513.276,440.948,509.459,388.525,477.253,356.32z"/>
<path style="fill:#FFFFFF;" d="M489.144,370.214c-0.914-1.469-2.03-2.825-3.139-4.199c-0.727-0.922-1.462-1.833-2.227-2.725
	c-0.236-0.247-0.395-0.538-0.638-0.781l-0.79-0.79c-2.01-2.232-4.129-4.352-6.361-6.361l-60.955-60.955
	c-16.645-16.645-43.589-16.678-60.298-0.136l-89.195-89.195c-16.697-16.697-43.768-16.697-60.465,0s-16.697,43.768,0,60.465
	l89.21,89.21c-16.387,16.721-16.321,43.537,0.273,60.131l58.15,58.15c15.682,19.124,39.484,31.334,66.145,31.334
	c47.227,0,85.511-38.285,85.511-85.511C504.366,400.772,498.72,384.028,489.144,370.214z"/>
<path style="fill:#C0A27A;" d="M382.577,455.134l-24.186-24.186c-20.036-20.036-20.036-52.522,0-72.559l0,0
	c20.036-20.036,52.522-20.036,72.559,0l24.186,24.187c20.036,20.036,20.036,52.522,0,72.559l0,0
	C435.099,475.17,402.613,475.17,382.577,455.134z"/>
<path style="fill:#AF8764;" d="M358.39,358.388c-19.052,19.052-19.764,49.236-2.585,69.395
	c20.158,17.181,50.345,16.471,69.397-2.582c19.053-19.052,19.765-49.238,2.584-69.396
	C407.628,338.624,377.442,339.336,358.39,358.388z"/>
<path d="M190.496,80.901c1.565,1.566,3.617,2.348,5.668,2.348c2.051,0,4.103-0.782,5.668-2.348c3.131-3.131,3.131-8.207,0-11.337
	l-16.518-16.518c-3.131-3.132-8.207-3.131-11.337,0c-3.131,3.131-3.131,8.207,0,11.337L190.496,80.901z"/>
<path d="M484.606,352.337L228.691,96.421c-3.131-3.131-8.207-3.131-11.337,0c-3.131,3.131-3.131,8.207,0,11.337l255.915,255.916
	c14.637,14.637,22.698,34.099,22.698,54.798c0,20.699-8.062,40.16-22.698,54.797c-14.636,14.636-34.098,22.698-54.797,22.698
	c-20.699,0-40.16-8.062-54.797-22.698L107.74,217.335c-3.131-3.131-8.207-3.131-11.337,0c-3.131,3.131-3.131,8.207,0,11.337
	l255.935,255.934C370.003,502.271,393.489,512,418.472,512c24.982,0,48.469-9.729,66.135-27.394
	C502.272,466.941,512,443.454,512,418.472C512,393.489,502.272,370.003,484.606,352.337z"/>
<path d="M64.385,173.978c-3.131-3.131-8.207-3.131-11.337,0c-3.131,3.131-3.131,8.207,0,11.337l17.715,17.715
	c1.565,1.565,3.617,2.348,5.668,2.348s4.103-0.782,5.668-2.348c3.131-3.131,3.131-8.207,0-11.337L64.385,173.978z"/>
<path d="M307.307,315.323c2.051,0,4.103-0.782,5.668-2.348c3.131-3.131,3.131-8.207,0-11.337L13.685,2.348
	c-3.131-3.131-8.207-3.131-11.337,0c-3.131,3.131-3.131,8.207,0,11.337l299.29,299.29
	C303.203,314.541,305.255,315.323,307.307,315.323z"/>
<path d="M79.301,139.159c-3.131,3.131-3.131,8.207,0,11.337l213.786,213.786c1.565,1.565,3.617,2.348,5.668,2.348
	s4.103-0.782,5.668-2.348c3.131-3.131,3.131-8.207,0-11.337L90.639,139.159C87.508,136.028,82.432,136.028,79.301,139.159z"/>
<path d="M59.343,127.217c2.051,0,4.103-0.782,5.668-2.348c3.131-3.131,3.131-8.207,0-11.337L47.889,96.411
	c-3.131-3.131-8.207-3.131-11.337,0c-3.131,3.131-3.131,8.207,0,11.337l17.122,17.122C55.239,126.435,57.291,127.217,59.343,127.217
	z"/>
<path d="M361.496,312.975c1.565,1.565,3.617,2.348,5.668,2.348c2.051,0,4.103-0.782,5.668-2.348c3.131-3.131,3.131-8.207,0-11.337
	L159.048,87.852c-3.131-3.131-8.207-3.131-11.337,0c-3.131,3.131-3.131,8.207,0,11.337L361.496,312.975z"/>
<path d="M122.083,73.562c1.565,1.565,3.617,2.348,5.668,2.348s4.103-0.782,5.668-2.348c3.131-3.131,3.131-8.207,0-11.337
	l-17.122-17.122c-3.131-3.131-8.207-3.131-11.337,0c-3.131,3.131-3.131,8.207,0,11.337L122.083,73.562z"/>
<path d="M334.962,394.285c0,15.846,6.171,30.743,17.376,41.948l24.186,24.186c11.204,11.206,26.101,17.377,41.948,17.377
	c15.846,0,30.743-6.171,41.948-17.376c11.205-11.204,17.376-26.101,17.376-41.948c0-15.846-6.171-30.743-17.376-41.948
	l-24.186-24.186c-11.204-11.205-26.101-17.376-41.948-17.376c-15.846,0-30.743,6.171-41.948,17.376
	C341.133,363.542,334.962,378.439,334.962,394.285z M394.286,350.994c11.563,0,22.434,4.503,30.611,12.679l24.186,24.186
	c8.176,8.178,12.679,19.049,12.679,30.612c0,11.563-4.503,22.434-12.679,30.611s-19.048,12.679-30.611,12.679
	c-11.563,0-22.434-4.503-30.611-12.679l-24.186-24.186c-8.176-8.176-12.679-19.048-12.679-30.611s4.503-22.434,12.679-30.611
	C371.851,355.498,382.722,350.994,394.286,350.994z"/>
<g>
</g>
<g>
</g>
<g>
</g>
<g>
</g>
<g>
</g>
<g>
</g>
<g>
</g>
<g>
</g>
<g>
</g>
<g>
</g>
<g>
</g>
<g>
</g>
<g>
</g>
<g>
</g>
<g>
</g>
</svg>
