<?xml version="1.0" encoding="iso-8859-1"?>
<!-- Generator: Adobe Illustrator 19.0.0, SVG Export Plug-In . SVG Version: 6.00 Build 0)  -->
<svg version="1.1" id="Layer_1" xmlns="http://www.w3.org/2000/svg" xmlns:xlink="http://www.w3.org/1999/xlink" x="0px" y="0px"
	 viewBox="0 0 512 512" style="enable-background:new 0 0 512 512;" xml:space="preserve">
<g>
	<path style="fill:#FFEB64;" d="M255.978,132.136L255.978,132.136c-4.886,0-8.847-3.961-8.847-8.847v-17.695
		c0-4.886,3.961-8.847,8.847-8.847l0,0c4.886,0,8.847,3.961,8.847,8.847v17.695C264.825,128.175,260.864,132.136,255.978,132.136z"
		/>
	<path style="fill:#FFEB64;" d="M255.978,415.254L255.978,415.254c-4.886,0-8.847-3.961-8.847-8.847v-17.695
		c0-4.886,3.961-8.847,8.847-8.847l0,0c4.886,0,8.847,3.961,8.847,8.847v17.695C264.825,411.292,260.864,415.254,255.978,415.254z"
		/>
	<circle style="fill:#FFEB64;" cx="255.978" cy="256" r="97.322"/>
</g>
<circle style="fill:#FF7846;" cx="344.452" cy="256" r="44.237"/>
<path style="fill:#DC5F3C;" d="M366.73,278.119c-24.432,0-44.237-19.806-44.237-44.237c0-6.533,1.502-12.683,4.043-18.263
	c-15.486,6.885-26.321,22.342-26.321,40.382c0,24.431,19.806,44.237,44.237,44.237c17.899,0,33.229-10.681,40.193-25.973
	C379.159,276.703,373.121,278.119,366.73,278.119z"/>
<circle style="fill:#5AC3FF;" cx="149.809" cy="256" r="26.542"/>
<path style="fill:#46A2DE;" d="M163.175,269.271c-14.659,0-26.542-11.883-26.542-26.542c0-3.919,0.901-7.61,2.426-10.959
	c-9.292,4.131-15.793,13.405-15.793,24.229c0,14.659,11.883,26.542,26.542,26.542c10.74,0,19.938-6.409,24.116-15.584
	C170.633,268.422,167.01,269.271,163.175,269.271z"/>
<circle style="fill:#FFDC6E;" cx="52.487" cy="256" r="17.695"/>
<circle style="fill:#D2B98C;" cx="459.468" cy="256" r="17.695"/>
<g>
	<path style="fill:#FFEB64;" d="M148.708,194.068L148.708,194.068c-2.443,4.231-7.854,5.681-12.086,3.238l-15.324-8.847
		c-4.231-2.443-5.681-7.854-3.238-12.086l0,0c2.443-4.231,7.854-5.681,12.086-3.238l15.324,8.847
		C149.702,184.426,151.151,189.837,148.708,194.068z"/>
	<path style="fill:#FFEB64;" d="M393.896,335.627L393.896,335.627c-2.443,4.231-7.854,5.681-12.086,3.238l-15.324-8.847
		c-4.231-2.443-5.681-7.854-3.238-12.086l0,0c2.443-4.231,7.854-5.681,12.086-3.238l15.324,8.847
		C394.889,325.984,396.339,331.395,393.896,335.627z"/>
	<path style="fill:#FFEB64;" d="M363.247,194.068L363.247,194.068c2.443,4.231,7.854,5.681,12.086,3.238l15.324-8.847
		c4.231-2.443,5.681-7.854,3.238-12.086l0,0c-2.443-4.231-7.854-5.681-12.086-3.238l-15.324,8.847
		C362.254,184.426,360.804,189.837,363.247,194.068z"/>
	<path style="fill:#FFEB64;" d="M118.06,335.627L118.06,335.627c2.443,4.231,7.854,5.681,12.086,3.238l15.324-8.847
		c4.231-2.443,5.681-7.854,3.238-12.086l0,0c-2.443-4.231-7.854-5.681-12.086-3.238l-15.324,8.847
		C117.067,325.984,115.617,331.395,118.06,335.627z"/>
	<path style="fill:#FFEB64;" d="M317.91,148.731L317.91,148.731c-4.231-2.443-5.681-7.854-3.238-12.086l8.847-15.324
		c2.443-4.231,7.854-5.681,12.086-3.238l0,0c4.231,2.443,5.681,7.854,3.238,12.086l-8.847,15.324
		C327.552,149.724,322.141,151.174,317.91,148.731z"/>
	<path style="fill:#FFEB64;" d="M176.351,393.918L176.351,393.918c-4.231-2.443-5.681-7.854-3.238-12.086l8.847-15.324
		c2.443-4.231,7.854-5.681,12.086-3.238l0,0c4.231,2.443,5.681,7.854,3.238,12.086l-8.847,15.324
		C185.994,394.911,180.582,396.361,176.351,393.918z"/>
	<path style="fill:#FFEB64;" d="M317.91,363.269L317.91,363.269c-4.231,2.443-5.681,7.854-3.238,12.086l8.847,15.324
		c2.443,4.231,7.854,5.681,12.086,3.238l0,0c4.231-2.443,5.681-7.854,3.238-12.086l-8.847-15.324
		C327.552,362.276,322.141,360.826,317.91,363.269z"/>
	<path style="fill:#FFEB64;" d="M176.351,118.082L176.351,118.082c-4.231,2.443-5.681,7.854-3.238,12.086l8.847,15.324
		c2.443,4.231,7.854,5.681,12.086,3.238l0,0c4.231-2.443,5.681-7.854,3.238-12.086l-8.847-15.324
		C185.994,117.089,180.582,115.639,176.351,118.082z"/>
</g>
<path d="M347.668,203.577c-18.82-32.867-53.725-53.193-91.69-53.193c-45.308,0-85.41,29.01-99.911,71.353
	c-2.032-0.37-4.122-0.574-6.258-0.574c-19.209,0-34.837,15.628-34.837,34.837c0,19.209,15.628,34.837,34.837,34.837
	c2.132,0,4.217-0.202,6.244-0.572c14.488,42.402,54.443,71.351,99.925,71.351c38.13,0,72.878-20.276,91.699-53.193
	c27.468-1.673,49.307-24.541,49.307-52.423C396.984,228.115,375.14,205.246,347.668,203.577z M131.561,256
	c0-10.062,8.186-18.248,18.248-18.248c10.062,0,18.248,8.186,18.248,18.248c0,10.062-8.186,18.248-18.248,18.248
	C139.747,274.248,131.561,266.062,131.561,256z M255.978,345.027c-38.867,0-72.934-25.076-84.711-61.613
	c8.136-6.382,13.378-16.294,13.378-27.414c0-11.121-5.245-21.035-13.384-27.418c11.785-36.488,46-61.609,84.716-61.609
	c29.567,0,56.94,14.62,73.449,38.696c-21.665,6.48-37.506,26.585-37.506,50.331c0,23.743,15.839,43.848,37.502,50.33
	C312.93,330.432,285.673,345.027,255.978,345.027z M344.452,291.943c-19.818,0-35.943-16.124-35.943-35.943
	s16.124-35.943,35.943-35.943c19.818,0,35.943,16.124,35.943,35.943S364.27,291.943,344.452,291.943z"/>
<path d="M52.487,230.011c-14.331,0-25.989,11.659-25.989,25.989c0,14.331,11.659,25.989,25.989,25.989S78.477,270.331,78.477,256
	C78.477,241.669,66.818,230.011,52.487,230.011z M52.487,265.4c-5.183,0-9.4-4.217-9.4-9.4s4.217-9.4,9.4-9.4s9.4,4.217,9.4,9.4
	S57.671,265.4,52.487,265.4z"/>
<path d="M459.468,230.011c-14.331,0-25.989,11.659-25.989,25.989c0,14.331,11.659,25.989,25.989,25.989
	c14.331,0,25.989-11.659,25.989-25.989C485.458,241.669,473.799,230.011,459.468,230.011z M459.468,265.4
	c-5.184,0-9.4-4.217-9.4-9.4s4.217-9.4,9.4-9.4c5.183,0,9.4,4.217,9.4,9.4S464.652,265.4,459.468,265.4z"/>
<path d="M202.982,247.706h-0.088c-4.581,0-8.25,3.714-8.25,8.294c0,4.581,3.758,8.294,8.339,8.294s8.294-3.714,8.294-8.294
	C211.276,251.419,207.563,247.706,202.982,247.706z"/>
<path d="M96.813,247.706h-0.088c-4.581,0-8.25,3.714-8.25,8.294c0,4.581,3.758,8.294,8.339,8.294s8.294-3.714,8.294-8.294
	C105.107,251.419,101.394,247.706,96.813,247.706z"/>
<path d="M415.32,247.706h-0.088c-4.581,0-8.25,3.714-8.25,8.294c0,4.581,3.758,8.294,8.339,8.294s8.294-3.714,8.294-8.294
	C423.614,251.419,419.901,247.706,415.32,247.706z"/>
<path d="M8.339,247.706H8.25C3.669,247.706,0,251.419,0,256c0,4.581,3.758,8.294,8.339,8.294s8.294-3.714,8.294-8.294
	C16.633,251.419,12.919,247.706,8.339,247.706z"/>
<path d="M238.283,247.706h-0.088c-4.581,0-8.25,3.714-8.25,8.294c0,4.581,3.758,8.294,8.339,8.294s8.294-3.714,8.294-8.294
	C246.577,251.419,242.864,247.706,238.283,247.706z"/>
<path d="M273.673,247.706h-0.088c-4.581,0-8.25,3.714-8.25,8.294c0,4.581,3.758,8.294,8.339,8.294c4.581,0,8.294-3.714,8.294-8.294
	C281.967,251.419,278.253,247.706,273.673,247.706z"/>
<path d="M503.706,247.706h-0.088c-4.581,0-8.25,3.714-8.25,8.294c0,4.581,3.758,8.294,8.339,8.294S512,260.581,512,256
	C512,251.419,508.286,247.706,503.706,247.706z"/>
<g>
</g>
<g>
</g>
<g>
</g>
<g>
</g>
<g>
</g>
<g>
</g>
<g>
</g>
<g>
</g>
<g>
</g>
<g>
</g>
<g>
</g>
<g>
</g>
<g>
</g>
<g>
</g>
<g>
</g>
</svg>
