<?xml version="1.0" encoding="iso-8859-1"?>
<!-- Generator: Adobe Illustrator 19.0.0, SVG Export Plug-In . SVG Version: 6.00 Build 0)  -->
<svg version="1.1" id="Layer_1" xmlns="http://www.w3.org/2000/svg" xmlns:xlink="http://www.w3.org/1999/xlink" x="0px" y="0px"
	 viewBox="0 0 512 512" style="enable-background:new 0 0 512 512;" xml:space="preserve">
<g>
	<path style="fill:#FFEB64;" d="M421.406,489.815L79.36,147.769c-18.891-18.891-18.891-49.519,0-68.409l0,0
		c18.891-18.891,49.519-18.891,68.409,0l342.046,342.046c18.891,18.891,18.891,49.519,0,68.409l0,0
		C470.924,508.705,440.296,508.705,421.406,489.815z"/>
	<path style="fill:#FFEB64;" d="M418.472,273.102L278.719,133.35c-18.891-18.891-18.891-49.519,0-68.409l0,0
		c18.891-18.891,49.519-18.891,68.409,0l139.752,139.752c18.891,18.891,18.891,49.519,0,68.409l0,0
		C467.99,291.993,437.362,291.993,418.472,273.102z"/>
</g>
<g>
	<path style="fill:#FFFFFF;" d="M489.815,421.406l-41.414-41.414c-14.617-14.617-36.21-17.789-54.007-9.785L241.706,217.52
		c-6.68-6.68-17.507-6.68-24.186,0c-6.68,6.678-6.68,17.507,0,24.186l152.687,152.687c-8.003,17.796-4.832,39.391,9.785,54.007
		l41.414,41.414c18.891,18.891,49.519,18.891,68.409,0C508.706,470.924,508.706,440.296,489.815,421.406z"/>
	<path style="fill:#FFFFFF;" d="M486.881,204.693l-16.736-16.736c-14.617-14.617-36.21-17.789-54.007-9.785l-46.166-46.166
		c-6.68-6.68-17.507-6.68-24.186,0c-6.68,6.678-6.68,17.507,0,24.186l46.166,46.166c-8.003,17.796-4.832,39.391,9.785,54.007
		l16.735,16.737c18.891,18.891,49.519,18.891,68.409,0S505.771,223.583,486.881,204.693z"/>
</g>
<g>
	<circle style="fill:#AF8764;" cx="452.676" cy="238.897" r="17.102"/>
	<circle style="fill:#AF8764;" cx="452.676" cy="452.676" r="17.102"/>
</g>
<path style="fill:#FFEB64;" d="M204.693,486.881L64.94,347.128c-18.891-18.891-18.891-49.519,0-68.409l0,0
	c18.891-18.891,49.519-18.891,68.409,0l139.752,139.752c18.891,18.891,18.891,49.519,0,68.409l0,0
	C254.211,505.771,223.583,505.771,204.693,486.881z"/>
<path style="fill:#FFFFFF;" d="M273.102,418.472l-16.736-16.736c-14.617-14.617-36.21-17.789-54.007-9.785l-46.166-46.166
	c-6.68-6.68-17.507-6.68-24.186,0c-6.68,6.678-6.68,17.507,0,24.186l46.166,46.165c-8.003,17.796-4.832,39.391,9.785,54.007
	l16.735,16.737c18.891,18.891,49.519,18.891,68.409,0S291.993,437.362,273.102,418.472z"/>
<circle style="fill:#AF8764;" cx="238.897" cy="452.676" r="17.102"/>
<path d="M178.231,94.336c-3.131-3.131-8.207-3.131-11.337,0c-3.131,3.131-3.131,8.207,0,11.337l316.392,316.392
	c8.176,8.177,12.679,19.048,12.679,30.611c0,11.563-4.503,22.434-12.679,30.611c-8.176,8.177-19.048,12.679-30.611,12.679
	c-11.563,0-22.434-4.503-30.611-12.679L105.673,166.895c-3.131-3.131-8.207-3.131-11.337,0c-3.131,3.131-3.131,8.207,0,11.337
	l316.392,316.393C421.933,505.829,436.83,512,452.676,512c15.846,0,30.743-6.171,41.948-17.376
	C505.829,483.42,512,468.522,512,452.676c0-15.846-6.171-30.744-17.376-41.948L178.231,94.336z"/>
<path d="M452.676,477.795c13.851,0,25.119-11.268,25.119-25.119c0-13.851-11.268-25.119-25.119-25.119s-25.119,11.268-25.119,25.119
	C427.557,466.527,438.825,477.795,452.676,477.795z M452.676,443.591c5.01,0,9.086,4.076,9.086,9.086s-4.076,9.086-9.086,9.086
	s-9.086-4.076-9.086-9.086S447.666,443.591,452.676,443.591z"/>
<path d="M421.354,407.038c1.565,1.565,3.617,2.348,5.668,2.348s4.103-0.782,5.668-2.348c3.131-3.131,3.131-8.207,0-11.337
	L39.338,2.348c-3.131-3.131-8.207-3.131-11.337,0c-3.131,3.131-3.131,8.207,0,11.337L421.354,407.038z"/>
<path d="M401.369,435.039c2.051,0,4.103-0.782,5.668-2.348c3.131-3.131,3.131-8.207,0-11.337L13.685,28.002
	c-3.131-3.131-8.207-3.131-11.337,0c-3.131,3.131-3.131,8.207,0,11.337l393.353,393.353
	C397.266,434.257,399.318,435.039,401.369,435.039z"/>
<path d="M483.287,208.286c8.176,8.177,12.679,19.048,12.679,30.611c0,11.563-4.503,22.434-12.679,30.611
	c-8.176,8.177-19.048,12.679-30.611,12.679c-11.563,0-22.434-4.503-30.611-12.679L319.451,166.895
	c-3.131-3.131-8.207-3.131-11.337,0c-3.131,3.131-3.131,8.207,0,11.337l102.614,102.614c11.204,11.205,26.101,17.376,41.948,17.376
	c15.846,0,30.743-6.171,41.948-17.376C505.829,269.641,512,254.744,512,238.897s-6.171-30.744-17.376-41.948L392.01,94.336
	c-3.131-3.131-8.207-3.131-11.337,0c-3.131,3.131-3.131,8.207,0,11.337L483.287,208.286z"/>
<path d="M477.795,238.897c0-13.851-11.268-25.119-25.119-25.119s-25.119,11.268-25.119,25.119c0,13.851,11.268,25.119,25.119,25.119
	S477.795,252.748,477.795,238.897z M443.591,238.897c0-5.01,4.076-9.086,9.086-9.086s9.086,4.076,9.086,9.086
	c0,5.01-4.076,9.086-9.086,9.086S443.591,243.907,443.591,238.897z"/>
<path d="M421.354,193.259c1.565,1.565,3.617,2.348,5.668,2.348s4.103-0.782,5.668-2.348c3.131-3.131,3.131-8.207,0-11.337
	L261.668,10.899c-3.131-3.131-8.207-3.131-11.337,0c-3.131,3.131-3.131,8.207,0,11.337L421.354,193.259z"/>
<path d="M395.701,218.912c1.565,1.565,3.617,2.348,5.668,2.348c2.051,0,4.103-0.782,5.668-2.348c3.131-3.131,3.131-8.207,0-11.337
	L236.015,36.553c-3.131-3.131-8.207-3.131-11.337,0c-3.131,3.131-3.131,8.207,0,11.337L395.701,218.912z"/>
<path d="M178.231,308.115c-3.131-3.131-8.207-3.131-11.337,0c-3.131,3.131-3.131,8.207,0,11.337l102.614,102.614
	c8.176,8.177,12.679,19.048,12.679,30.611c0,11.563-4.503,22.434-12.679,30.611c-8.176,8.177-19.048,12.679-30.611,12.679
	s-22.434-4.503-30.611-12.679L105.673,380.673c-3.131-3.131-8.207-3.131-11.337,0c-3.131,3.131-3.131,8.207,0,11.337L196.95,494.624
	C208.154,505.829,223.051,512,238.897,512s30.743-6.171,41.948-17.376c11.205-11.204,17.376-26.101,17.376-41.948
	c0-15.846-6.171-30.744-17.376-41.948L178.231,308.115z"/>
<path d="M238.897,477.795c13.851,0,25.119-11.268,25.119-25.119c0-13.851-11.268-25.119-25.119-25.119
	c-13.851,0-25.119,11.268-25.119,25.119C213.778,466.527,225.047,477.795,238.897,477.795z M238.897,443.591
	c5.01,0,9.086,4.076,9.086,9.086s-4.076,9.086-9.086,9.086s-9.086-4.076-9.086-9.086S233.888,443.591,238.897,443.591z"/>
<path d="M47.889,224.678c-3.131-3.131-8.207-3.131-11.337,0c-3.131,3.131-3.131,8.207,0,11.337l171.023,171.023
	c1.565,1.565,3.617,2.348,5.668,2.348s4.103-0.782,5.668-2.348c3.131-3.131,3.131-8.207,0-11.337L47.889,224.678z"/>
<path d="M187.591,435.039c2.051,0,4.103-0.782,5.668-2.348c3.131-3.131,3.131-8.207,0-11.337L22.236,250.331
	c-3.131-3.131-8.207-3.131-11.337,0c-3.131,3.131-3.131,8.207,0,11.337l171.023,171.023
	C183.487,434.257,185.539,435.039,187.591,435.039z"/>
<g>
</g>
<g>
</g>
<g>
</g>
<g>
</g>
<g>
</g>
<g>
</g>
<g>
</g>
<g>
</g>
<g>
</g>
<g>
</g>
<g>
</g>
<g>
</g>
<g>
</g>
<g>
</g>
<g>
</g>
</svg>
