<?xml version="1.0" encoding="iso-8859-1"?>
<!-- Generator: Adobe Illustrator 19.0.0, SVG Export Plug-In . SVG Version: 6.00 Build 0)  -->
<svg version="1.1" id="Layer_1" xmlns="http://www.w3.org/2000/svg" xmlns:xlink="http://www.w3.org/1999/xlink" x="0px" y="0px"
	 viewBox="0 0 512.001 512.001" style="enable-background:new 0 0 512.001 512.001;" xml:space="preserve">
<rect x="401.37" y="290.205" style="fill:#5B5D6E;" width="51.307" height="34.205"/>
<g>
	<rect x="350.063" y="221.796" style="fill:#7F8499;" width="34.205" height="34.205"/>
	<polygon style="fill:#7F8499;" points="39.332,213.245 8.017,274.066 107.581,324.409 107.591,247.47 	"/>
</g>
<polygon style="fill:#6D7083;" points="19.175,252.395 8.017,274.066 107.581,324.409 107.585,297.266 "/>
<polygon style="fill:#C7CFE2;" points="401.37,256 139.705,256 119.182,221.796 93.529,221.796 93.529,341.512 401.37,341.512 "/>
<rect x="144.301" y="256" style="fill:#D5DCED;" width="257.069" height="51.307"/>
<rect x="161.938" y="221.796" style="fill:#C7CFE2;" width="68.409" height="34.205"/>
<circle style="fill:#7F8499;" cx="307.307" cy="324.409" r="17.102"/>
<g>
	<rect x="76.426" y="136.284" style="fill:#D5DCED;" width="34.205" height="51.307"/>
	<rect x="332.961" y="25.119" style="fill:#D5DCED;" width="68.409" height="51.307"/>
</g>
<circle style="fill:#7F8499;" cx="358.614" cy="50.773" r="8.551"/>
<g>
	<circle style="fill:#6D7083;" cx="452.677" cy="307.307" r="17.102"/>
	<circle style="fill:#6D7083;" cx="409.921" cy="144.835" r="17.102"/>
	<circle style="fill:#6D7083;" cx="486.882" cy="213.245" r="17.102"/>
</g>
<path d="M34.205,444.126c0,9.136,7.432,16.568,16.568,16.568s16.568-7.432,16.568-16.568s-7.432-16.568-16.568-16.568
	S34.205,434.99,34.205,444.126z"/>
<path d="M239.433,444.126c0,9.136,7.432,16.568,16.568,16.568s16.568-7.432,16.568-16.568s-7.432-16.568-16.568-16.568
	S239.433,434.99,239.433,444.126z"/>
<path d="M444.66,444.126c0,9.136,7.432,16.568,16.568,16.568s16.568-7.432,16.568-16.568s-7.432-16.568-16.568-16.568
	S444.66,434.99,444.66,444.126z"/>
<path d="M495.433,256.535H478.33c-4.427,0-8.017,3.589-8.017,8.017c0,4.427,3.589,8.017,8.017,8.017h17.102
	c9.136,0,16.568-7.432,16.568-16.568v-42.756c0-13.851-11.268-25.119-25.119-25.119c-4.532,0-8.783,1.212-12.458,3.321
	l-41.387-36.785c1.289-3.02,2.003-6.341,2.003-9.826c0-13.851-11.268-25.119-25.119-25.119c-13.851,0-25.119,11.268-25.119,25.119
	c0,13.28,10.361,24.178,23.423,25.055l29.552,112.298h-28.39V256c0-4.427-3.589-8.017-8.017-8.017h-9.086v-26.188
	c0-4.427-3.589-8.017-8.017-8.017h-9.086V84.443h26.188c4.427,0,8.017-3.589,8.017-8.017V25.119c0-4.427-3.589-8.017-8.017-8.017
	h-68.409c-4.427,0-8.017,3.589-8.017,8.017v68.409c0,4.427,3.589,8.017,8.017,8.017c4.427,0,8.017-3.589,8.017-8.017v-9.086h18.171
	v129.336h-9.086c-4.427,0-8.017,3.589-8.017,8.017v26.188H238.364v-26.188c0-4.427-3.589-8.017-8.017-8.017h-68.409
	c-4.427,0-8.017,3.589-8.017,8.017v26.188h-12.682l-14.886-29.773c-1.357-2.716-4.133-4.432-7.17-4.432h-17.637v-18.171h9.086
	c4.427,0,8.017-3.589,8.017-8.017v-51.307c0-4.427-3.589-8.017-8.017-8.017H76.426c-4.427,0-8.017,3.589-8.017,8.017v51.307
	c0,4.427,3.589,8.017,8.017,8.017h9.086v32.396l-42.511-21.887c-1.891-0.973-4.09-1.157-6.115-0.508
	c-2.024,0.648-3.709,2.075-4.682,3.965L0.89,270.396c-0.974,1.891-1.157,4.09-0.508,6.115c0.648,2.025,2.075,3.709,3.965,4.682
	l81.165,41.787v18.531c0,4.427,3.589,8.017,8.017,8.017h113.071L152.086,367.7H50.773c-4.427,0-8.017,3.589-8.017,8.017v18.276
	c-24.2,3.855-42.756,24.866-42.756,50.133c0,27.995,22.777,50.772,50.772,50.772s50.772-22.777,50.772-50.772
	c0-25.268-18.556-46.278-42.756-50.133v-10.259h189.194v10.259c-24.2,3.855-42.756,24.866-42.756,50.133
	c0,27.995,22.777,50.772,50.772,50.772c27.995,0,50.772-22.777,50.772-50.772c0-25.268-18.556-46.278-42.756-50.133v-18.276
	c0-4.427-3.589-8.017-8.017-8.017h-53.213l54.514-18.171h100.012l95.898,31.966v12.497c-24.2,3.855-42.756,24.866-42.756,50.133
	c0,27.995,22.777,50.772,50.772,50.772c27.995,0,50.772-22.777,50.772-50.772c0-25.268-18.556-46.278-42.756-50.133v-18.276
	c0-3.45-2.208-6.514-5.481-7.605l-58.604-19.535c2.516-1.352,4.227-4.008,4.227-7.064v-9.086h43.29
	c13.851,0,25.119-11.268,25.119-25.119c0-13.28-10.361-24.179-23.424-25.055l-29.945-113.791l39.336,34.962
	c-1.287,3.019-2.001,6.337-2.001,9.821c0,13.851,11.268,25.119,25.119,25.119c3.203,0,6.266-0.609,9.086-1.707V256
	C495.967,256.295,495.728,256.535,495.433,256.535z M340.978,33.136h52.376v35.273h-52.376V33.136z M84.443,144.301h18.171v35.273
	H84.443V144.301z M85.512,444.126c0,19.155-15.584,34.739-34.739,34.739s-34.739-15.584-34.739-34.739
	c0-19.155,15.584-34.739,34.739-34.739S85.512,424.971,85.512,444.126z M290.74,444.126c0,19.155-15.584,34.739-34.739,34.739
	s-34.739-15.584-34.739-34.739c0-19.155,15.584-34.739,34.739-34.739C275.155,409.386,290.74,424.971,290.74,444.126z
	 M495.967,444.126c0,19.155-15.584,34.739-34.739,34.739c-19.155,0-34.739-15.584-34.739-34.739
	c0-19.155,15.584-34.739,34.739-34.739C480.383,409.386,495.967,424.971,495.967,444.126z M400.836,144.835
	c0-5.01,4.076-9.086,9.086-9.086c5.01,0,9.086,4.076,9.086,9.086s-4.076,9.086-9.086,9.086
	C404.911,153.921,400.836,149.845,400.836,144.835z M358.08,229.812h18.171v18.171H358.08V229.812z M169.955,229.812h52.376v18.171
	h-52.376V229.812z M18.814,270.609l23.975-46.566l42.723,21.996v58.91L18.814,270.609z M298.222,324.409
	c0-5.01,4.076-9.086,9.086-9.086s9.086,4.076,9.086,9.086s-4.076,9.086-9.086,9.086S298.222,329.419,298.222,324.409z
	 M332.424,324.331c-0.034-11.014-7.194-20.375-17.1-23.721v-10.406c0-4.427-3.589-8.017-8.017-8.017
	c-4.427,0-8.017,3.589-8.017,8.017v10.405c-9.907,3.346-17.066,12.708-17.1,23.721l-27.492,9.165H144.301v-26.189
	c0-4.427-3.589-8.017-8.017-8.017s-8.017,3.589-8.017,8.017v26.189h-26.722V229.812h12.682l14.04,28.08v15.207
	c0,4.427,3.589,8.017,8.017,8.017s8.017-3.589,8.017-8.017v-9.082h249.052v69.478h-33.437L332.424,324.331z M409.387,298.222h19.878
	c-1.098,2.82-1.707,5.882-1.707,9.086c0,3.203,0.609,6.266,1.707,9.086h-19.878V298.222z M452.677,316.393
	c-5.01,0-9.086-4.076-9.086-9.086s4.076-9.086,9.086-9.086s9.086,4.076,9.086,9.086S457.687,316.393,452.677,316.393z
	 M486.882,222.33c-5.01,0-9.086-4.076-9.086-9.086s4.076-9.086,9.086-9.086s9.086,4.076,9.086,9.086S491.891,222.33,486.882,222.33z
	"/>
<g>
</g>
<g>
</g>
<g>
</g>
<g>
</g>
<g>
</g>
<g>
</g>
<g>
</g>
<g>
</g>
<g>
</g>
<g>
</g>
<g>
</g>
<g>
</g>
<g>
</g>
<g>
</g>
<g>
</g>
</svg>
