<?xml version="1.0" encoding="iso-8859-1"?>
<!-- Generator: Adobe Illustrator 19.0.0, SVG Export Plug-In . SVG Version: 6.00 Build 0)  -->
<svg version="1.1" id="Layer_1" xmlns="http://www.w3.org/2000/svg" xmlns:xlink="http://www.w3.org/1999/xlink" x="0px" y="0px"
	 viewBox="0 0 512 512" style="enable-background:new 0 0 512 512;" xml:space="preserve">
<circle style="fill:#D27D55;" cx="256" cy="256" r="247.706"/>
<path style="fill:#FF9B41;" d="M335.262,365.846c-9.351-5.489-21.587-8.847-35.028-8.847H28.164
	c3.915,9.153,8.405,17.993,13.351,26.54h207.378c-1.096,2.833-1.739,5.786-1.739,8.847c0,19.543,23.764,35.387,53.08,35.387
	c29.316,0,53.08-15.843,53.08-35.387h111.804c5.415-8.517,10.357-17.359,14.72-26.54H335.262z"/>
<path style="fill:#B9694B;" d="M353.313,432.933c-122.147,0-221.166-99.019-221.166-221.166
	c0-91.123,55.121-169.349,133.828-203.221c-3.313-0.132-6.629-0.252-9.975-0.252C119.195,8.294,8.294,119.195,8.294,256
	c0,136.804,110.902,247.706,247.706,247.706c78.023,0,147.58-36.108,192.984-92.485
	C420.031,425.134,387.583,432.933,353.313,432.933z"/>
<path style="fill:#FFD296;" d="M9.727,229.46h492.546c-1.287-12.073-3.414-23.895-6.372-35.387H16.099
	C13.141,205.565,11.013,217.387,9.727,229.46z"/>
<path style="fill:#FFBE7D;" d="M16.099,194.073c-2.958,11.492-5.085,23.313-6.372,35.387h123.187
	c-0.462-5.843-0.767-11.731-0.767-17.693c0-5.958,0.262-11.853,0.725-17.693H16.099z"/>
<path style="fill:#FFD296;" d="M28.164,158.687h455.672c-14.593-34.12-36.647-64.266-64.081-88.467H92.245
	C64.811,94.42,42.757,124.566,28.164,158.687z"/>
<path style="fill:#FFBE7D;" d="M138.666,158.687c8.153-33.061,23.754-63.139,44.907-88.467H92.245
	c-27.433,24.2-49.487,54.346-64.081,88.467H138.666z"/>
<circle style="fill:#E9A876;" cx="211.767" cy="70.22" r="17.693"/>
<path style="fill:#FF9B41;" d="M8.294,256c0,21.383,2.71,42.133,7.805,61.927h479.804c5.095-19.793,7.805-40.543,7.805-61.927
	c0-8.968-0.504-17.818-1.433-26.54H9.727C8.798,238.182,8.294,247.032,8.294,256z"/>
<path style="fill:#FF8732;" d="M132.914,229.46H9.727c-0.929,8.722-1.433,17.572-1.433,26.54c0,21.383,2.71,42.133,7.805,61.927
	h143.166C144.665,291.296,135.44,261.323,132.914,229.46z"/>
<path style="fill:#FFD296;" d="M74.106,424.086c12.219,13.217,25.865,25.081,40.686,35.387h282.415
	c14.82-10.305,28.467-22.17,40.686-35.387H74.106z"/>
<path style="fill:#FFBE7D;" d="M415.395,424.086c-19.697,5.751-40.525,8.847-62.081,8.847c-21.497,0-42.255-3.126-61.907-8.847
	h-217.3c12.219,13.217,25.865,25.081,40.686,35.387h282.33c14.815-10.302,28.442-22.175,40.661-35.387H415.395z"/>
<g>
	<path style="fill:#FF8732;" d="M41.515,383.539h168.142c-9.473-8.104-18.272-16.965-26.258-26.54H28.164
		C32.079,366.152,36.569,374.993,41.515,383.539z"/>
	<ellipse style="fill:#FF8732;" cx="300.233" cy="406.393" rx="26.54" ry="17.693"/>
</g>
<path d="M437.019,74.981C388.668,26.628,324.38,0,256,0S123.332,26.628,74.981,74.981S0,187.62,0,256s26.628,132.668,74.981,181.019
	C123.332,485.372,187.62,512,256,512s132.668-26.628,181.019-74.981C485.372,388.668,512,324.38,512,256
	S485.372,123.332,437.019,74.981z M185.23,326.22h299.767c-5.8,19.001-13.974,37.18-24.355,54.186H360.53
	c-5.302-20.394-29.881-35.387-60.299-35.387H33.632c-2.467-6.167-4.687-12.435-6.629-18.799H149.84c4.58,0,8.294-3.713,8.294-8.294
	s-3.713-8.294-8.294-8.294H22.592c-3.962-17.394-6.005-35.356-6.005-53.633s2.042-36.239,6.005-53.633h466.816
	c3.961,17.394,6.005,35.356,6.005,53.633s-2.042,36.239-6.005,53.633H185.23c-4.58,0-8.294,3.713-8.294,8.294
	S180.65,326.22,185.23,326.22z M41.02,361.607h210.889c-4.252,3.843-7.632,8.235-9.885,13.063c-1.676,3.592-4.6,5.736-7.822,5.736
	H51.357C47.622,374.286,44.175,368.014,41.02,361.607z M86.709,86.709c2.811-2.811,5.68-5.542,8.603-8.195h91.832
	c3.47,10.273,13.193,17.693,24.622,17.693c14.329,0,25.987-11.658,25.987-25.987s-11.658-25.987-25.987-25.987
	c-11.43,0-21.152,7.42-24.622,17.693h-71.4c40.551-29.436,89.178-45.339,140.255-45.339s99.704,15.903,140.255,45.339H264.847
	c-4.58,0-8.294,3.713-8.294,8.294s3.713,8.294,8.294,8.294h151.841c2.924,2.653,5.792,5.384,8.603,8.195
	c18.893,18.893,34.224,40.395,45.69,63.684H362.157c-4.58,0-8.294,3.713-8.294,8.294c0,4.58,3.713,8.294,8.294,8.294h116.211
	c2.468,6.167,4.687,12.435,6.629,18.799H27.002c1.943-6.364,4.162-12.632,6.629-18.799h293.142c4.58,0,8.294-3.713,8.294-8.294
	c0-4.58-3.713-8.294-8.294-8.294H41.02C52.485,127.104,67.816,105.604,86.709,86.709z M202.367,70.22c0-5.183,4.217-9.4,9.4-9.4
	s9.4,4.217,9.4,9.4s-4.217,9.4-9.4,9.4S202.367,75.403,202.367,70.22z M425.291,425.291c-9.555,9.554-19.782,18.191-30.563,25.889
	h-67.954c-4.58,0-8.294,3.713-8.294,8.294s3.713,8.294,8.294,8.294h41.139c-34.073,18.06-72.254,27.646-111.911,27.646
	s-77.838-9.585-111.911-27.646h147.295c4.58,0,8.294-3.713,8.294-8.294s-3.713-8.294-8.294-8.294H117.273
	c-10.782-7.698-21.009-16.334-30.563-25.889c-8.882-8.883-16.969-18.348-24.249-28.297h171.741c9.69,0,18.447-5.866,22.854-15.31
	c5.514-11.82,23.269-20.076,43.176-20.076c24.276,0,44.786,12.407,44.786,27.093c0,14.685-20.51,27.093-44.786,27.093
	c-11.138,0-18.246-5.567-18.246-9.4c0-3.833,7.108-9.4,18.246-9.4c4.58,0,8.294-3.713,8.294-8.294s-3.713-8.294-8.294-8.294
	c-19.533,0-34.834,11.414-34.834,25.987c0,14.573,15.3,25.987,34.834,25.987c30.418,0,54.996-14.993,60.299-35.387h89.007
	C442.259,406.943,434.173,416.408,425.291,425.291z"/>
<g>
</g>
<g>
</g>
<g>
</g>
<g>
</g>
<g>
</g>
<g>
</g>
<g>
</g>
<g>
</g>
<g>
</g>
<g>
</g>
<g>
</g>
<g>
</g>
<g>
</g>
<g>
</g>
<g>
</g>
</svg>
