<?xml version="1.0" encoding="iso-8859-1"?>
<!-- Generator: Adobe Illustrator 19.0.0, SVG Export Plug-In . SVG Version: 6.00 Build 0)  -->
<svg version="1.1" id="Layer_1" xmlns="http://www.w3.org/2000/svg" xmlns:xlink="http://www.w3.org/1999/xlink" x="0px" y="0px"
	 viewBox="0 0 511.998 511.998" style="enable-background:new 0 0 511.998 511.998;" xml:space="preserve">
<circle style="fill:#FFDC6E;" cx="255.762" cy="265.85" r="59.913"/>
<path style="fill:#FFC85F;" d="M279.302,308.647c-29.543,0-53.493-23.95-53.493-53.493c0-22.04,13.333-40.96,32.369-49.153
	c-0.801-0.032-1.604-0.061-2.413-0.061c-33.089,0-59.913,26.824-59.913,59.913c0,33.089,26.824,59.913,59.913,59.913
	c18.871,0,35.695-8.733,46.677-22.37C295.44,306.761,287.592,308.647,279.302,308.647z"/>
<circle style="fill:#FFAF73;" cx="110.26" cy="77.553" r="25.677"/>
<circle style="fill:#D2B98C;" cx="367.029" cy="368.558" r="25.677"/>
<path d="M187.829,265.852c0,37.46,30.476,67.937,67.937,67.937s67.937-30.476,67.937-67.937s-30.476-67.937-67.937-67.937
	S187.829,228.391,187.829,265.852z M307.654,265.852c0,28.612-23.277,51.889-51.889,51.889s-51.889-23.277-51.889-51.889
	s23.277-51.889,51.889-51.889S307.654,237.24,307.654,265.852z"/>
<path d="M492.521,302.566c-3.465-2.761-8.514-2.189-11.275,1.277c-3.127,3.925-6.778,7.823-10.851,11.581
	c-3.257,3.005-3.461,8.082-0.456,11.338c1.582,1.715,3.737,2.583,5.899,2.583c1.945,0,3.896-0.704,5.439-2.127
	c4.673-4.313,8.886-8.813,12.522-13.378C496.56,310.375,495.987,305.327,492.521,302.566z"/>
<path d="M15.985,272.261c-0.556-4.397-4.578-7.503-8.967-6.954c-4.397,0.556-7.51,4.57-6.954,8.967
	c0.787,6.23,2.471,12.46,5.003,18.514c1.287,3.077,4.268,4.93,7.406,4.93c1.031,0,2.081-0.201,3.093-0.624
	c4.088-1.71,6.017-6.411,4.307-10.499C17.898,281.878,16.591,277.054,15.985,272.261z"/>
<path d="M114.507,167.206c-1.51-4.167-6.109-6.32-10.277-4.812c-5.605,2.031-11.107,4.2-16.355,6.449
	c-4.073,1.746-5.96,6.463-4.214,10.536c1.304,3.043,4.266,4.865,7.379,4.865c1.055,0,2.127-0.209,3.157-0.65
	c4.966-2.129,10.181-4.184,15.498-6.11C113.862,175.974,116.017,171.372,114.507,167.206z"/>
<path d="M49.601,322.583c-4.412-3.434-8.472-7.011-12.067-10.63c-3.124-3.144-8.204-3.159-11.347-0.036s-3.16,8.204-0.036,11.347
	c4.073,4.1,8.647,8.131,13.593,11.981c1.466,1.14,3.201,1.694,4.924,1.694c2.39,0,4.756-1.063,6.337-3.095
	C53.726,330.347,53.098,325.305,49.601,322.583z"/>
<path d="M92.213,347.251c-5.182-2.27-10.212-4.675-14.952-7.149c-3.929-2.051-8.776-0.527-10.826,3.402
	c-2.05,3.929-0.526,8.776,3.402,10.826c5.059,2.64,10.422,5.204,15.935,7.62c1.048,0.459,2.141,0.676,3.216,0.676
	c3.09,0,6.034-1.795,7.354-4.806C98.12,353.762,96.272,349.029,92.213,347.251z"/>
<path d="M69.881,196.561c4.542-1.377,6.729-5.659,5.512-9.919c-1.55-5.427-2.844-10.797-3.845-15.961
	c-0.843-4.35-5.057-7.199-9.405-6.35c-4.35,0.844-7.194,5.054-6.35,9.405c0.662,3.416,1.454,6.916,2.34,10.449
	c-0.597,0.193-1.182,0.449-1.741,0.792c-5.243,3.217-10.22,6.6-14.793,10.056c-3.535,2.673-4.235,7.704-1.563,11.24
	c1.578,2.087,3.978,3.186,6.407,3.186c1.685,0,3.384-0.529,4.833-1.623c4.161-3.144,8.706-6.233,13.508-9.179
	C65.607,198.152,67.767,197.202,69.881,196.561z"/>
<path d="M511.816,260.89c-0.328-4.42-4.186-7.743-8.596-7.408c-4.419,0.328-7.735,4.177-7.408,8.596
	c0.093,1.252,0.14,2.52,0.139,3.773c0,3.642-0.397,7.318-1.179,10.924c-0.939,4.331,1.81,8.604,6.141,9.542
	c0.573,0.124,1.145,0.184,1.709,0.184c3.694,0,7.019-2.568,7.834-6.325c1.024-4.722,1.543-9.542,1.543-14.322
	C512,264.208,511.938,262.538,511.816,260.89z"/>
<path d="M390.923,173.753c5.379,1.733,10.679,3.594,15.755,5.53c0.941,0.358,1.909,0.53,2.859,0.53c3.232,0,6.278-1.966,7.499-5.166
	c1.58-4.14-0.496-8.777-4.636-10.357c-5.338-2.036-10.907-3.992-16.554-5.812c-4.219-1.359-8.74,0.959-10.099,5.176
	C384.387,167.872,386.706,172.394,390.923,173.753z"/>
<path d="M342.126,161.632c5.547,1.013,11.085,2.139,16.461,3.347c0.593,0.133,1.183,0.197,1.765,0.197
	c3.671,0,6.983-2.536,7.822-6.267c0.971-4.324-1.747-8.617-6.07-9.587c-5.586-1.254-11.337-2.423-17.095-3.475
	c-4.36-0.8-8.539,2.093-9.335,6.452C334.878,156.657,337.767,160.836,342.126,161.632z"/>
<path d="M485.748,234.067c1.54,2.351,4.104,3.627,6.719,3.627c1.509,0,3.034-0.425,4.391-1.314c3.706-2.429,4.743-7.402,2.313-11.11
	c-3.229-4.927-7.099-9.796-11.503-14.471c-3.038-3.226-8.117-3.378-11.343-0.338c-3.226,3.038-3.378,8.116-0.339,11.343
	C479.748,225.798,483.032,229.924,485.748,234.067z"/>
<path d="M139.57,363.475c-5.456-1.429-10.873-2.983-16.1-4.614c-4.225-1.321-8.73,1.036-10.051,5.267
	c-1.321,4.23,1.037,8.73,5.267,10.051c5.463,1.706,11.121,3.328,16.817,4.82c0.682,0.179,1.365,0.264,2.039,0.264
	c3.561,0,6.812-2.387,7.757-5.992C146.42,368.983,143.856,364.597,139.57,363.475z"/>
<path d="M233.277,146.449c0.121,4.354,3.688,7.801,8.017,7.801c0.075,0,0.151-0.001,0.227-0.003
	c5.583-0.155,11.261-0.221,16.852-0.19c0.015,0,0.029,0,0.044,0c4.411,0,7.999-3.565,8.023-7.981
	c0.024-4.431-3.55-8.043-7.981-8.067c-5.767-0.032-11.624,0.036-17.382,0.197C236.646,138.328,233.155,142.019,233.277,146.449z"/>
<path d="M206.36,140.338c-5.788,0.555-11.607,1.218-17.297,1.969c-4.393,0.58-7.485,4.612-6.905,9.005
	c0.534,4.037,3.981,6.974,7.945,6.974c0.35,0,0.704-0.022,1.06-0.07c5.501-0.726,11.129-1.367,16.727-1.904
	c4.411-0.424,7.644-4.343,7.222-8.754C214.69,143.149,210.77,139.915,206.36,140.338z"/>
<path d="M26.897,218.894c-3.554-2.645-8.582-1.906-11.227,1.648c-3.887,5.224-7.121,10.644-9.613,16.109
	c-1.838,4.032-0.06,8.791,3.972,10.63c1.079,0.492,2.21,0.725,3.324,0.725c3.047,0,5.959-1.744,7.306-4.698
	c2.022-4.435,4.675-8.871,7.886-13.186C31.189,226.566,30.452,221.538,26.897,218.894z"/>
<path d="M433.211,357.666c1.192,0,2.404-0.267,3.544-0.83c3.505-1.73,6.932-3.523,10.242-5.36c3.554-1.972,5.404-6.02,4.53-9.989
	c-0.448-2.038-1.117-4.634-2.108-7.919c-1.252-4.151-2.782-8.327-4.371-12.528c-1.557-4.113-6.084-6.501-10.241-5.065
	c-4.296,1.484-6.488,6.211-4.888,10.431c1.725,4.549,3.284,9.082,4.672,13.519c-1.534,0.805-3.083,1.602-4.657,2.382
	c-3.807,1.887-5.768,6.369-4.182,10.311C427.033,355.802,430.058,357.666,433.211,357.666z"/>
<path d="M298.405,383.981c-0.297-4.422-4.121-7.765-8.545-7.467c-5.542,0.373-11.203,0.659-16.825,0.849
	c-4.429,0.15-7.899,3.861-7.749,8.29c0.147,4.337,3.708,7.753,8.014,7.753c0.091,0,0.183-0.001,0.275-0.004
	c5.801-0.196,11.642-0.49,17.363-0.876C295.361,392.227,298.703,388.402,298.405,383.981z"/>
<path d="M459.806,187.929c-4.788-3.124-9.937-6.174-15.303-9.066c-3.902-2.101-8.768-0.643-10.87,3.258
	c-2.102,3.901-0.644,8.768,3.258,10.87c4.973,2.679,9.733,5.498,14.146,8.378c1.353,0.883,2.874,1.305,4.378,1.305
	c2.62,0,5.189-1.282,6.727-3.64C464.562,195.322,463.517,190.35,459.806,187.929z"/>
<path d="M164.218,154.364c-0.916-4.336-5.175-7.105-9.509-6.193c-5.731,1.21-11.454,2.544-17.006,3.965
	c-4.293,1.099-6.884,5.469-5.785,9.763c0.928,3.627,4.19,6.037,7.768,6.037c0.658,0,1.328-0.082,1.994-0.252
	c5.333-1.365,10.832-2.647,16.343-3.81C162.359,162.958,165.132,158.701,164.218,154.364z"/>
<path d="M400.585,371.656c1.241-0.419,2.48-0.841,3.7-1.27c4.181-1.469,6.38-6.048,4.912-10.23
	c-1.468-4.181-6.047-6.381-10.23-4.912c-0.281,0.098-0.57,0.195-0.853,0.292c-5.103-12.135-17.113-20.68-31.082-20.68
	c-18.583,0-33.701,15.118-33.701,33.701c0,1.008,0.052,2.003,0.14,2.988c-3.362,0.545-6.741,1.066-10.127,1.536
	c-4.39,0.609-7.454,4.66-6.845,9.05c0.557,4.015,3.995,6.922,7.937,6.922c0.367,0,0.738-0.025,1.113-0.077
	c4.437-0.616,8.865-1.315,13.249-2.053c6.02,9.222,16.424,15.333,28.234,15.333C384.57,402.261,399.016,388.792,400.585,371.656z
	 M367.032,386.213c-9.734,0-17.653-7.919-17.653-17.653c0-9.734,7.919-17.653,17.653-17.653c9.734,0,17.653,7.919,17.653,17.653
	C384.685,378.293,376.766,386.213,367.032,386.213z"/>
<path d="M229.635,107.408c4.836,2.567,9.749,5.325,14.605,8.196c1.282,0.759,2.689,1.119,4.077,1.119
	c2.743,0,5.417-1.408,6.914-3.94c2.256-3.814,0.993-8.735-2.821-10.991c-5.068-2.998-10.199-5.878-15.252-8.559
	c-3.914-2.077-8.772-0.588-10.85,3.325C224.23,100.472,225.72,105.33,229.635,107.408z"/>
<path d="M403.656,448.888c-4.652,1.531-9.738,2.622-15.117,3.245c-4.403,0.509-7.559,4.49-7.049,8.893
	c0.473,4.089,3.941,7.103,7.961,7.103c0.307,0,0.618-0.017,0.932-0.053c6.456-0.746,12.609-2.072,18.292-3.942
	c4.21-1.385,6.498-5.921,5.113-10.131C412.401,449.792,407.863,447.502,403.656,448.888z"/>
<path d="M430.577,288.659c-2.614-5.087-5.43-10.257-8.37-15.367c-2.209-3.842-7.116-5.163-10.957-2.954
	c-3.841,2.209-5.164,7.115-2.954,10.957c2.814,4.891,5.507,9.836,8.007,14.7c1.423,2.768,4.231,4.358,7.143,4.358
	c1.235,0,2.487-0.286,3.661-0.889C431.05,297.438,432.603,292.6,430.577,288.659z"/>
<path d="M446.906,416.271c-4.026-1.847-8.79-0.079-10.639,3.949c-2.12,4.624-4.795,8.841-7.95,12.535
	c-2.878,3.369-2.48,8.435,0.89,11.313c1.512,1.291,3.365,1.923,5.208,1.923c2.266,0,4.518-0.954,6.105-2.813
	c4.119-4.822,7.596-10.295,10.336-16.268C452.703,422.881,450.934,418.118,446.906,416.271z"/>
<path d="M390.333,252.946c1.559,2.251,4.06,3.457,6.604,3.457c1.575,0,3.167-0.463,4.56-1.427c3.644-2.523,4.552-7.521,2.03-11.165
	c-3.265-4.715-6.693-9.47-10.189-14.133c-2.659-3.544-7.689-4.263-11.234-1.605s-4.263,7.688-1.605,11.234
	C383.876,243.809,387.184,248.397,390.333,252.946z"/>
<path d="M348.521,189.236c-3.248,3.014-3.438,8.091-0.424,11.34c3.818,4.116,7.605,8.334,11.252,12.541
	c1.587,1.829,3.819,2.768,6.066,2.768c1.863,0,3.735-0.645,5.253-1.961c3.349-2.903,3.709-7.971,0.806-11.319
	c-3.765-4.343-7.672-8.697-11.612-12.944C356.846,186.411,351.769,186.221,348.521,189.236z"/>
<path d="M356.599,451.065c-5.166-0.814-10.556-1.933-16.022-3.326c-4.293-1.096-8.662,1.499-9.757,5.794
	c-1.094,4.294,1.499,8.663,5.794,9.757c5.947,1.516,11.831,2.737,17.487,3.628c0.424,0.066,0.844,0.098,1.259,0.098
	c3.88,0,7.293-2.821,7.916-6.775C363.966,455.863,360.976,451.755,356.599,451.065z"/>
<path d="M264.576,414.477c-4.707-2.836-9.481-5.853-14.19-8.964c-3.697-2.441-8.674-1.427-11.119,2.269
	c-2.444,3.697-1.427,8.674,2.269,11.119c4.894,3.234,9.858,6.371,14.756,9.322c1.296,0.781,2.724,1.152,4.134,1.152
	c2.721,0,5.374-1.383,6.88-3.884C269.594,421.697,268.372,416.765,264.576,414.477z"/>
<path d="M183.808,87.689c5.092,1.647,10.338,3.543,15.594,5.638c0.975,0.388,1.979,0.572,2.968,0.572
	c3.188,0,6.204-1.914,7.456-5.055c1.641-4.117-0.366-8.784-4.483-10.425c-5.586-2.226-11.169-4.244-16.599-6
	c-4.215-1.365-8.74,0.95-10.103,5.166C177.279,81.801,179.592,86.325,183.808,87.689z"/>
<path d="M173.765,364.473c1.555,1.487,3.551,2.226,5.546,2.226c2.113,0,4.223-0.829,5.799-2.477
	c3.063-3.202,2.951-8.282-0.251-11.345c-2.717-2.6-5.46-5.281-8.148-7.969c-1.29-1.29-2.57-2.584-3.839-3.88
	c-3.1-3.167-8.18-3.22-11.347-0.121c-3.167,3.1-3.22,8.18-0.121,11.347c1.31,1.337,2.629,2.671,3.961,4.002
	C168.137,359.028,170.963,361.793,173.765,364.473z"/>
<path d="M449.088,365.245c-4.407,0.469-7.599,4.421-7.131,8.828c0.479,4.509,0.722,8.93,0.722,13.138
	c0,0.969-0.013,1.931-0.039,2.885c-0.12,4.43,3.374,8.118,7.805,8.237c0.074,0.002,0.147,0.003,0.22,0.003
	c4.331,0,7.899-3.451,8.017-7.808c0.03-1.098,0.045-2.204,0.045-3.319c0-4.772-0.273-9.763-0.812-14.835
	C457.446,367.969,453.491,364.779,449.088,365.245z"/>
<path d="M119.404,276.145c-3.173-4.657-6.261-9.389-9.174-14.065c-2.344-3.761-7.292-4.91-11.054-2.564
	c-3.761,2.344-4.909,7.293-2.564,11.054c3.029,4.859,6.235,9.775,9.531,14.612c1.553,2.279,4.073,3.506,6.639,3.506
	c1.556,0,3.128-0.452,4.512-1.394C120.954,284.8,121.899,279.808,119.404,276.145z"/>
<path d="M139.385,303.198c-2.762-3.465-7.811-4.036-11.276-1.274c-3.465,2.762-4.036,7.81-1.274,11.276
	c3.574,4.485,7.303,8.999,11.082,13.415c1.587,1.854,3.837,2.807,6.1,2.807c1.846,0,3.701-0.633,5.213-1.928
	c3.367-2.881,3.761-7.946,0.879-11.314C146.452,311.906,142.844,307.539,139.385,303.198z"/>
<path d="M86.71,217.796c-1.772-4.062-6.502-5.921-10.563-4.146c-4.062,1.772-5.919,6.502-4.146,10.563
	c2.283,5.235,4.792,10.58,7.457,15.886c1.408,2.806,4.238,4.426,7.177,4.426c1.21,0,2.438-0.275,3.594-0.855
	c3.961-1.988,5.559-6.811,3.571-10.77C91.264,227.849,88.88,222.768,86.71,217.796z"/>
<path d="M79.274,99.369c1.498,0,2.99-0.426,4.297-1.255c0.875,1.135,1.823,2.232,2.863,3.272c6.57,6.57,15.201,9.855,23.83,9.855
	s17.26-3.285,23.83-9.855c6.12-6.12,9.386-14.028,9.805-22.057c2.622,0.206,5.294,0.493,8,0.864c0.37,0.05,0.737,0.075,1.1,0.075
	c3.948,0,7.389-2.914,7.94-6.935c0.602-4.391-2.469-8.438-6.86-9.04c-4.561-0.625-9.049-1.04-13.403-1.246
	c-1.605-3.372-3.795-6.533-6.582-9.321c-13.14-13.14-34.52-13.14-47.661,0c-7.813,7.813-10.979,18.54-9.502,28.714
	c-0.802,0.728-1.592,1.468-2.352,2.229c-0.377,0.377-0.747,0.756-1.114,1.139c-3.058,3.207-2.938,8.286,0.27,11.345
	C75.291,98.634,77.283,99.369,79.274,99.369z M97.781,65.073c3.442-3.442,7.962-5.162,12.482-5.162c4.52,0,9.041,1.72,12.482,5.162
	c6.882,6.884,6.882,18.082,0,24.964c-6.884,6.884-18.082,6.884-24.965,0C90.898,83.154,90.898,71.955,97.781,65.073z"/>
<path d="M309.222,437.199c-5-2.059-10.121-4.344-15.222-6.788c-3.996-1.916-8.789-0.229-10.704,3.767
	c-1.916,3.996-0.229,8.788,3.767,10.704c5.37,2.574,10.768,4.981,16.045,7.155c1,0.412,2.035,0.607,3.053,0.607
	c3.154,0,6.146-1.872,7.423-4.97C315.274,443.577,313.32,438.887,309.222,437.199z"/>
<path d="M60.554,146.178c0.153,0.009,0.305,0.013,0.457,0.013c4.225,0,7.764-3.304,8.004-7.575
	c0.306-5.461,1.057-10.661,2.231-15.456c1.054-4.304-1.581-8.648-5.885-9.702c-4.306-1.058-8.648,1.581-9.702,5.885
	c-1.408,5.751-2.306,11.933-2.666,18.375C52.743,142.141,56.129,145.929,60.554,146.178z"/>
<path d="M239.906,393.46c4.318,0,7.884-3.433,8.015-7.78c0.135-4.429-3.347-8.13-7.777-8.265
	c-23.473-0.715-46.502-3.047-68.446-6.933c-4.363-0.773-8.527,2.139-9.3,6.503c-0.772,4.364,2.139,8.528,6.503,9.3
	c22.705,4.021,46.51,6.433,70.756,7.171C239.74,393.46,239.823,393.46,239.906,393.46z"/>
<path d="M273.295,134.53c17.504,12.458,34.692,26.628,51.085,42.118c1.551,1.466,3.532,2.191,5.509,2.191
	c2.13,0,4.256-0.843,5.834-2.513c3.044-3.221,2.899-8.3-0.322-11.344c-16.931-15.997-34.696-30.641-52.802-43.527
	c-3.611-2.571-8.621-1.726-11.19,1.885C268.841,126.95,269.684,131.961,273.295,134.53z"/>
<g>
</g>
<g>
</g>
<g>
</g>
<g>
</g>
<g>
</g>
<g>
</g>
<g>
</g>
<g>
</g>
<g>
</g>
<g>
</g>
<g>
</g>
<g>
</g>
<g>
</g>
<g>
</g>
<g>
</g>
</svg>
