<?xml version="1.0" encoding="iso-8859-1"?>
<!-- Generator: Adobe Illustrator 19.0.0, SVG Export Plug-In . SVG Version: 6.00 Build 0)  -->
<svg version="1.1" id="Layer_1" xmlns="http://www.w3.org/2000/svg" xmlns:xlink="http://www.w3.org/1999/xlink" x="0px" y="0px"
	 viewBox="0 0 512.001 512.001" style="enable-background:new 0 0 512.001 512.001;" xml:space="preserve">
<circle style="fill:#E4EAF8;" cx="418.471" cy="93.529" r="85.511"/>
<path style="fill:#C7CFE2;" d="M340.576,58.388l113.038,113.038c9.476-4.282,18.066-10.175,25.324-17.431L358.008,33.064
	C350.751,40.32,344.858,48.912,340.576,58.388z"/>
<path style="fill:#D5DCED;" d="M452.067,154.608c-42.167,0-76.35-34.183-76.35-76.35c0-31.456,19.028-58.461,46.198-70.154
	c-1.144-0.045-2.288-0.087-3.443-0.087c-47.227,0-85.511,38.284-85.511,85.511s38.284,85.511,85.511,85.511
	c26.935,0,50.946-12.464,66.621-31.927C475.098,151.916,463.897,154.608,452.067,154.608z"/>
<g>
	<path style="fill:#AFB9D2;" d="M475.731,150.787c-7.46,2.434-15.393,3.82-23.665,3.82c-5.967,0-11.745-0.754-17.318-2.048
		l18.837,18.837c9.477-4.285,18.077-10.159,25.336-17.42L475.731,150.787z"/>
	<path style="fill:#AFB9D2;" d="M358.008,33.064c-7.257,7.257-13.149,15.849-17.431,25.324l37.189,37.189
		c-1.294-5.572-2.048-11.352-2.048-17.317c0-8.273,1.385-16.205,3.82-23.666L358.008,33.064z"/>
</g>
<path d="M512.001,93.529c0-51.572-41.956-93.528-93.528-93.528c-25.781,0-49.158,10.485-66.094,27.415L5.265,154.409
	c-4.158,1.521-6.296,6.125-4.775,10.283c1.189,3.249,4.26,5.264,7.529,5.264c0.915,0,1.845-0.157,2.753-0.49L335.33,50.726
	c-6.634,12.833-10.384,27.387-10.384,42.803c0,22.905,8.282,43.91,22.002,60.189L104.964,395.7c-3.131,3.131-3.131,8.207,0,11.337
	c1.565,1.565,3.617,2.348,5.668,2.348c2.051,0,4.103-0.782,5.668-2.348l241.983-241.983c16.278,13.72,37.283,22.002,60.189,22.002
	c15.414,0,29.969-3.752,42.803-10.384l-118.74,324.555c-1.521,4.158,0.617,8.762,4.775,10.283c0.909,0.332,1.839,0.49,2.753,0.49
	c3.27,0,6.341-2.016,7.529-5.264l126.993-347.114C501.516,142.687,512.001,119.309,512.001,93.529z M495.967,93.529
	c0,18.483-6.514,35.469-17.354,48.803L369.67,33.389c13.333-10.841,30.319-17.354,48.802-17.354
	C461.204,16.034,495.967,50.799,495.967,93.529z M340.978,93.529c0-18.483,6.514-35.469,17.354-48.802l48.803,48.802l-10.041,10.041
	l-24.261-24.261c-3.131-3.131-8.207-3.131-11.337,0c-3.131,3.131-3.131,8.207,0,11.337l24.261,24.261l-27.426,27.426
	C347.492,128.998,340.978,112.013,340.978,93.529z M369.67,153.669l27.426-27.426l24.261,24.261
	c1.565,1.565,3.617,2.348,5.668,2.348s4.103-0.782,5.668-2.348c3.131-3.131,3.131-8.207,0-11.337l-24.261-24.261l10.041-10.041
	l48.803,48.803c-13.335,10.841-30.32,17.354-48.804,17.354C399.988,171.023,383.004,164.509,369.67,153.669z"/>
<g>
</g>
<g>
</g>
<g>
</g>
<g>
</g>
<g>
</g>
<g>
</g>
<g>
</g>
<g>
</g>
<g>
</g>
<g>
</g>
<g>
</g>
<g>
</g>
<g>
</g>
<g>
</g>
<g>
</g>
</svg>
