<?xml version="1.0" encoding="utf-8"?>
<!-- Generator: Adobe Illustrator 26.0.0, SVG Export Plug-In . SVG Version: 6.00 Build 0)  -->
<svg version="1.1" id="Laag_1" xmlns="http://www.w3.org/2000/svg" xmlns:xlink="http://www.w3.org/1999/xlink" x="0px" y="0px"
	 viewBox="0 0 64 64" style="enable-background:new 0 0 64 64;" xml:space="preserve">
<style type="text/css">
	.st0{fill:url(#SVGID_1_);}
	.st1{fill:url(#SVGID_00000032635451826002595540000010815017753693287054_);}
</style>
<g id="Logo_Lock-up">
	
		<linearGradient id="SVGID_1_" gradientUnits="userSpaceOnUse" x1="60.8036" y1="-202.4149" x2="20.7251" y2="-179.3746" gradientTransform="matrix(1 0 0 -1 0 -136)">
		<stop  offset="0" style="stop-color:#0050D3"/>
		<stop  offset="0.94" style="stop-color:#007FFC"/>
		<stop  offset="1" style="stop-color:#0082FF"/>
	</linearGradient>
	<path class="st0" d="M2.3,48c-0.7,1.1-1.4,2.3-2,3.3c-0.6,1-0.3,2.2,0.7,2.8l13.2,8.2c1,0.6,2.2,0.3,2.8-0.7c0,0,0,0,0,0
		c0.5-0.9,1.2-2,1.9-3.3c5.2-8.7,10.5-7.6,20-3.1l13.1,6.2c1,0.5,2.2,0.1,2.7-1c0,0,0,0,0-0.1l6.3-14.3c0.4-1,0-2.2-1-2.7
		c-2.8-1.3-8.3-3.9-13.2-6.3C29.1,28.5,13.9,29.1,2.3,48z"/>
	
		<linearGradient id="SVGID_00000102530038860151051690000005782542669810220436_" gradientUnits="userSpaceOnUse" x1="957.5774" y1="-1640.5604" x2="917.499" y2="-1617.5304" gradientTransform="matrix(-1 0 0 1 960.7 1637.66)">
		<stop  offset="0" style="stop-color:#0050D3"/>
		<stop  offset="0.94" style="stop-color:#007FFC"/>
		<stop  offset="1" style="stop-color:#0082FF"/>
	</linearGradient>
	<path style="fill:url(#SVGID_00000102530038860151051690000005782542669810220436_);" d="M61.7,15.6c0.7-1.1,1.4-2.3,2-3.3
		c0.6-1,0.3-2.2-0.7-2.8L49.8,1.3C48.8,0.7,47.6,1,47,2c0,0,0,0,0,0c-0.5,0.9-1.2,2-2,3.3c-5.2,8.7-10.5,7.6-20,3.1L11.8,2.1
		c-1-0.5-2.2,0-2.7,1c0,0,0,0,0,0L2.7,17.4c-0.4,1,0,2.2,1,2.7c2.8,1.3,8.3,3.9,13.2,6.3C34.9,35,50.1,34.4,61.7,15.6z"/>
</g>
</svg>
