<svg id="Layer_1" data-name="Layer 1" xmlns="http://www.w3.org/2000/svg" xmlns:xlink="http://www.w3.org/1999/xlink" viewBox="0 0 128 128"><defs><style>.cls-1{fill:#0082ff;}.cls-2{fill:url(#Naamloos_verloop);}.cls-3{fill:url(#Naamloos_verloop_2);}</style><linearGradient id="Naamloos_verloop" x1="96.31" y1="908.86" x2="70.05" y2="935.94" gradientTransform="translate(0 -878)" gradientUnits="userSpaceOnUse"><stop offset="0.18" stop-color="#0050d3"/><stop offset="1" stop-color="#0082ff"/></linearGradient><linearGradient id="Naamloos_verloop_2" x1="67.41" y1="939.69" x2="37.04" y2="969.24" xlink:href="#Naamloos_verloop"/></defs><g id="Logo_Lock-up" data-name="Logo Lock-up"><path class="cls-1" d="M122.82,0H61.05A27.89,27.89,0,0,0,88.9,27.85h11.43V38.74a27.89,27.89,0,0,0,27.85,27.85h0V5.36A5.37,5.37,0,0,0,122.82,0Z"/><path class="cls-2" d="M92.3,30.71H30.53A27.88,27.88,0,0,0,58.38,58.56H69.8V69.62A27.88,27.88,0,0,0,97.65,97.47V36.24a5.53,5.53,0,0,0-5.35-5.53Z"/><path class="cls-3" d="M61.77,61.41H0A27.89,27.89,0,0,0,27.85,89.26H39.1v10.89A27.88,27.88,0,0,0,67,128h0V66.59A5.19,5.19,0,0,0,61.77,61.41Z"/></g></svg>