<svg enable-background="new 0 0 512 512" viewBox="0 0 512 512" xmlns="http://www.w3.org/2000/svg" height="25pt" width="25pt">
    <path d="m158.084 253.36-153.124 153.124c-6.613 6.613-6.613 17.334 0 23.947 6.612 6.613 17.334 6.613 23.947 0l153.125-153.124z" fill="#ffeb64"/>
    <path d="m234.283 329.559-153.124 153.125c-6.613 6.613-6.613 17.334 0 23.947 6.612 6.613 17.334 6.613 23.947 0l153.125-153.124z" fill="#ffeb64"/>
    <path d="m152.631 144.253-23.947 23.947 41.908 65.855 107.762 107.762 65.855 41.907 23.947-23.947z" fill="#c7cfe2"/>
    <path d="m382.251 70.289-217.646 61.99-11.974 11.974 215.525 215.524 11.972-11.973 61.992-217.647z" fill="#d5dced"/>
    <path d="m504.446 16.791c.28-4.98-3.847-9.109-8.829-8.829-17.645.995-59.58 8.541-104.954 53.914l-200.358 200.359 59.867 59.867 200.359-200.359c45.375-45.373 52.922-87.307 53.915-104.952z" fill="#e4eaf8"/>
    <path d="m152.631 252.016 29.934 29.934 83.815-83.815c3.306-3.306 3.306-8.668 0-11.974l-2.287-2.287c-2.268-2.268-5.622-3.06-8.664-2.046l-41.333 13.777c-4.988 1.663-9.52 4.464-13.238 8.181z" fill="#afb9d2"/>
    <path d="m260.393 359.777-29.934-29.934 83.815-83.815c3.306-3.306 8.668-3.306 11.974 0l2.287 2.287c2.268 2.268 3.06 5.622 2.046 8.665l-13.777 41.333c-1.663 4.988-4.464 9.52-8.181 13.237z" fill="#afb9d2"/>
    <path d="m162.647 233.839h33.866v42.333h-33.866z" fill="#7f8499" transform="matrix(-.7071 .7071 -.7071 -.7071 486.8781 308.3397)"/>
    <path d="m240.458 311.672h33.866v42.333h-33.866z" fill="#7f8499" transform="matrix(-.7071 .7071 -.7071 -.7071 674.746 386.1866)"/>
    <path d="m511.773 7.648c-.41-3.689-3.323-6.603-7.012-7.012-2.355-.26-58.383-5.697-120.237 56.158l-6.955 6.955-215.667 61.427c-1.3.37-2.483 1.066-3.438 2.021l-35.921 35.921c-2.631 2.63-3.082 6.735-1.084 9.874l38.489 60.483-13.459 13.458c-3.1 3.1-3.1 8.126 0 11.225l29.934 29.934c1.549 1.55 3.581 2.325 5.612 2.325s4.063-.775 5.612-2.325l6.361-6.361 12.722 12.722-6.361 6.361c-3.1 3.1-3.1 8.126 0 11.225 1.549 1.549 3.581 2.325 5.612 2.325s4.063-.775 5.612-2.325l6.361-6.361 12.722 12.722-6.361 6.361c-1.489 1.488-2.325 3.507-2.325 5.612s.836 4.124 2.325 5.612l29.934 29.934c1.549 1.549 3.581 2.325 5.612 2.325s4.063-.775 5.612-2.325l13.458-13.458 60.483 38.489c1.31.834 2.789 1.24 4.259 1.24 2.05 0 4.083-.793 5.615-2.325l35.921-35.921c.956-.956 1.651-2.139 2.021-3.438l61.427-215.667 6.955-6.955c61.858-61.853 56.423-117.881 56.161-120.236zm-343.542 132.23 186.256-53.05-88.637 88.636-.375-.375c-2.126-2.126-5.272-2.868-8.123-1.918l-49.228 16.409-44.8-44.8zm37.752 107.428-18.709-18.709 22.996-22.996 47.449-15.817 2.892 2.892zm-11.225-48.642-23.312 23.312-9.895-15.549 20.484-20.484zm-42.656-42.656 18.709 18.709-17.989 17.989-14.552-22.866zm11.225 96.537 12.722-12.722 18.709 18.709-12.722 12.722zm65.855 41.906 114.123-114.123c3.1-3.1 3.1-8.126 0-11.225-3.1-3.1-8.126-3.1-11.225 0l-114.124 114.124-12.722-12.722 72.216-72.216c1.489-1.488 2.325-3.507 2.325-5.612s-.836-4.124-2.325-5.612l-.375-.375 110.188-110.187c.008-.008.016-.016.024-.024l8.461-8.461c43.885-43.885 84.47-50.718 100.279-51.59-.793 15.775-7.494 56.09-51.638 100.233l-8.455 8.454c-.012.012-.024.023-.036.036l-110.181 110.181-.375-.375c-3.1-3.1-8.126-3.1-11.225 0l-65.853 65.853-.001.001-.001.001-6.361 6.361zm61.251 46.51 23.312-23.312 12.722 12.722-20.484 20.484zm16.375-38.823-22.996 22.996-18.709-18.709 54.63-54.63 2.891 2.892zm-46.944 46.943-18.709-18.709 12.722-12.722 18.709 18.709zm82.704 25.058-22.866-14.551 17.989-17.989 18.709 18.709zm29.963-29.961-4.904 4.904-44.8-44.8 16.409-49.228c.95-2.852.208-5.996-1.918-8.123l-.375-.375 88.637-88.637z"/>
    <path d="m412.514 84.696c4.524-.491 8.607.824 11.489 3.708 2.884 2.883 4.2 6.964 3.708 11.49-.473 4.358 2.675 8.274 7.034 8.748.291.032.58.047.867.047 3.999 0 7.44-3.014 7.881-7.081 1.006-9.267-2.007-18.171-8.266-24.429-6.259-6.26-15.16-9.27-24.43-8.266-4.358.474-7.507 4.39-7.034 8.749.476 4.358 4.391 7.505 8.751 7.034z"/>
    <path d="m79.478 340.505c2.031 0 4.063-.775 5.612-2.325l52.253-52.253c3.1-3.1 3.1-8.126 0-11.225-3.1-3.1-8.126-3.1-11.225 0l-52.253 52.253c-3.1 3.1-3.1 8.126 0 11.225 1.55 1.551 3.581 2.325 5.613 2.325z"/>
    <path d="m61.143 350.903c-3.1-3.1-8.126-3.1-11.225 0-3.299 3.298-7.683 5.115-12.347 5.115-4.665 0-9.05-1.816-12.347-5.115s-5.115-7.683-5.115-12.347 1.816-9.05 5.115-12.347c3.1-3.1 3.1-8.126 0-11.225-3.1-3.1-8.126-3.1-11.225 0-12.998 12.998-12.998 34.148 0 47.146 6.499 6.499 15.036 9.748 23.572 9.748 8.537 0 17.074-3.249 23.573-9.748 3.099-3.102 3.099-8.128-.001-11.227z"/>
    <path d="m15.025 434.542-8.467 8.467c-3.1 3.1-3.1 8.126 0 11.225 1.549 1.549 3.581 2.325 5.612 2.325s4.063-.775 5.612-2.325l8.467-8.467c3.1-3.1 3.1-8.126 0-11.225-3.098-3.1-8.124-3.1-11.224 0z"/>
    <path d="m161.715 299.076c-3.1-3.1-8.126-3.1-11.225 0l-110.065 110.066c-3.1 3.1-3.1 8.126 0 11.225 1.549 1.549 3.581 2.325 5.612 2.325s4.063-.775 5.612-2.325l110.066-110.066c3.101-3.099 3.101-8.125 0-11.225z"/>
    <path d="m43.557 304.585c2.031 0 4.063-.775 5.612-2.325l5.987-5.987c3.1-3.1 3.1-8.126 0-11.225-3.1-3.1-8.126-3.1-11.225 0l-5.987 5.987c-3.1 3.1-3.1 8.126 0 11.225 1.55 1.549 3.582 2.325 5.613 2.325z"/>
    <path d="m226.689 374.248-52.252 52.252c-3.1 3.1-3.1 8.126 0 11.225 1.549 1.549 3.581 2.325 5.612 2.325s4.063-.775 5.612-2.325l52.253-52.253c3.1-3.1 3.1-8.126 0-11.225-3.099-3.099-8.125-3.099-11.225.001z"/>
    <path d="m186.411 486.369c-3.299 3.298-7.683 5.115-12.347 5.115-4.665 0-9.05-1.816-12.347-5.115s-5.115-7.683-5.115-12.347 1.816-9.05 5.115-12.347c3.1-3.1 3.1-8.126 0-11.225-3.1-3.1-8.126-3.1-11.225 0-12.998 12.998-12.998 34.148 0 47.146 6.499 6.499 15.036 9.748 23.572 9.748 8.538 0 17.074-3.249 23.573-9.748 3.1-3.1 3.1-8.126 0-11.225-3.1-3.102-8.126-3.102-11.226-.002z"/>
    <path d="m66.851 485.341-8.467 8.467c-3.1 3.1-3.1 8.126 0 11.225 1.549 1.549 3.581 2.325 5.612 2.325s4.063-.775 5.612-2.325l8.467-8.467c3.1-3.1 3.1-8.126 0-11.225-3.098-3.1-8.124-3.1-11.224 0z"/>
    <path d="m213.542 349.876c-3.1-3.1-8.126-3.1-11.225 0l-110.065 110.065c-3.1 3.1-3.1 8.126 0 11.225 1.549 1.549 3.581 2.325 5.612 2.325s4.063-.775 5.612-2.325l110.066-110.066c3.1-3.098 3.1-8.124 0-11.224z"/>
    <path d="m216.344 456.434-5.987 5.987c-3.1 3.1-3.1 8.126 0 11.225 1.549 1.549 3.581 2.325 5.612 2.325s4.063-.775 5.612-2.325l5.987-5.987c3.1-3.1 3.1-8.126 0-11.225-3.098-3.099-8.124-3.099-11.224 0z"/>
</svg>