<?xml version="1.0" encoding="utf-8"?>
<!-- Generator: Adobe Illustrator 26.0.0, SVG Export Plug-In . SVG Version: 6.00 Build 0)  -->
<svg version="1.1" id="Laag_1" xmlns="http://www.w3.org/2000/svg" xmlns:xlink="http://www.w3.org/1999/xlink" x="0px" y="0px"
	 viewBox="0 0 615.7 615.7" style="enable-background:new 0 0 615.7 615.7;" xml:space="preserve">
<style type="text/css">
	.st0{fill:#FFFFFF;stroke:#000000;stroke-width:20;stroke-linecap:round;stroke-linejoin:round;}
</style>
<path class="st0" d="M230.7,595.6l-5.5-4.3c-47-37.2-87.4-81.6-119.9-131.9L105,459c-55.1-89.7-70.6-191.6-57.5-246l0.3-1.1l0.4-1.1
	c14.2-38.9,44.3-70.1,82.6-85.7l27.5-11.2v199.7V79.8c0-23.3,23.5-42.2,52.4-42.2c29.3,0,53.1,18.9,53.1,42.2V187V55.8
	c0-19.7,23.5-35.8,52.4-35.8c12.1,0,24.3,3.1,34.2,8.7c12.6,7.1,19.8,17.3,19.8,28v133.1V71.9l12.7-9l0.5-0.3
	c10.6-6.7,22.9-10.2,35.4-10.2c0.6,0,1.1,0,1.7,0c29.3,0.1,53,15.8,53,35.1v124.4h0.2v-98.8l8.8-6c10.4-7.1,22.5-10.8,35.1-10.8
	c0.4,0,0.8,0,1.3,0c29,0.1,53.5,18.8,53.5,40.9l-0.7,122.4c2.5,71.9-8.9,142.5-33.7,210c-13.5,44.7-37.6,86-69.9,119.7l-5.9,6.2
	H230.7z"/>
</svg>
